<?xml version="1.0" encoding="UTF-8"?>
<svg width="22px" height="22px" viewBox="0 0 22 22" version="1.1" xmlns="http://www.w3.org/2000/svg" xmlns:xlink="http://www.w3.org/1999/xlink">
    <!-- Generator: Sketch 54.1 (76490) - https://sketchapp.com -->
    <title>icons8-linkedin</title>
    <desc>Created with Sketch.</desc>
    <defs>
        <polygon id="path-1" points="0.06 22 22 22 22 0.04 0.06 0.04"></polygon>
    </defs>
    <g id="z" stroke="none" stroke-width="1" fill="none" fill-rule="evenodd">
        <g id="1920/Home9" transform="translate(-1298.000000, -411.000000)">
            <g id="icons8-linkedin" transform="translate(1298.000000, 411.000000)">
                <mask id="mask-2" fill="white">
                    <use xlink:href="#path-1"></use>
                </mask>
                <g id="Clip-2"></g>
                <path d="M2.5,0 C1.133,0 0,1.133 0,2.5 L0,19.5 C0,20.867 1.133,22 2.5,22 L19.5,22 C20.867,22 22,20.867 22,19.5 L22,2.5 C22,1.133 20.867,0 19.5,0 L2.5,0 Z M2.5,2 L19.5,2 C19.785,2 20,2.215 20,2.5 L20,19.5 C20,19.785 19.785,20 19.5,20 L2.5,20 C2.215,20 2,19.785 2,19.5 L2,2.5 C2,2.215 2.215,2 2.5,2 Z M5.438,3.719 C4.488,3.719 3.719,4.488 3.719,5.438 C3.719,6.387 4.488,7.156 5.438,7.156 C6.387,7.156 7.156,6.387 7.156,5.438 C7.156,4.488 6.387,3.719 5.438,3.719 Z M14.469,8.281 C13.035,8.281 12.082,9.066 11.688,9.812 L11.625,9.812 L11.625,8.5 L8.812,8.5 L8.812,18 L11.75,18 L11.75,13.312 C11.75,12.074 11.996,10.875 13.531,10.875 C15.043,10.875 15.062,12.273 15.062,13.375 L15.062,18 L18,18 L18,12.781 C18,10.227 17.457,8.281 14.469,8.281 Z M4,18 L6.969,18 L6.969,8.5 L4,8.5 L4,18 Z" id="Fill-1" fill="#000000" mask="url(#mask-2)"></path>
            </g>
        </g>
    </g>
</svg>