<?xml version="1.0" encoding="UTF-8"?>
<svg width="22px" height="22px" viewBox="0 0 22 22" version="1.1" xmlns="http://www.w3.org/2000/svg" xmlns:xlink="http://www.w3.org/1999/xlink">
    <!-- Generator: Sketch 54.1 (76490) - https://sketchapp.com -->
    <title>icons8-dribbble</title>
    <desc>Created with Sketch.</desc>
    <defs>
        <polygon id="path-1" points="0 22 22 22 22 0 0 0"></polygon>
    </defs>
    <g id="z" stroke="none" stroke-width="1" fill="none" fill-rule="evenodd">
        <g id="1920/Home9" transform="translate(-1382.000000, -411.000000)">
            <g id="icons8-dribbble" transform="translate(1382.000000, 411.000000)">
                <mask id="mask-2" fill="white">
                    <use xlink:href="#path-1"></use>
                </mask>
                <g id="Clip-2"></g>
                <path d="M11,0 C4.93441667,0 0,4.93441667 0,11 C0,17.0655833 4.93441667,22 11,22 C17.0655833,22 22,17.0655833 22,11 C22,4.93441667 17.0655833,0 11,0 Z M11,1.83333333 C13.32375,1.83333333 15.4293333,2.70691667 17.0445,4.125 C16.8721667,4.36516667 16.6393333,4.65483333 16.2708333,5.01325 C15.4870833,5.77225 14.2330833,6.68525 12.3181667,7.39016667 C11.0210833,4.99491667 9.75058333,3.19366667 8.90908333,2.0625 C9.57825,1.9085 10.2804167,1.83333333 11,1.83333333 Z M7.10416667,2.69316667 C7.85583333,3.67766667 9.19508333,5.50366667 10.5416667,7.93466667 C6.8145,8.92283333 3.39441667,9.04841667 2.03408333,9.05208333 C2.64275,6.21958333 4.54758333,3.8885 7.10416667,2.69316667 Z M18.3049167,5.47158333 C19.4223333,6.95016667 20.11625,8.77983333 20.1666667,10.7708333 C19.3499167,10.5884167 18.14725,10.40875 16.5861667,10.3986667 C15.7730833,10.395 14.85275,10.4518333 13.8645833,10.5700833 C13.6354167,10.0475833 13.3879167,9.5425 13.1486667,9.05208333 C15.2038333,8.26466667 16.6035833,7.22608333 17.53125,6.3305 C17.8465833,6.0225 18.0931667,5.74016667 18.3049167,5.47158333 Z M11.3721667,9.59658333 C11.5839167,10.0228333 11.7984167,10.4591667 12.0028333,10.9138333 C8.085,11.9991667 5.27083333,15.3220833 4.06816667,16.98675 C2.68216667,15.3825833 1.83333333,13.2916667 1.83333333,11 C1.83333333,10.9605833 1.83333333,10.9248333 1.83333333,10.8854167 C3.07266667,10.9000833 7.01066667,10.8139167 11.3721667,9.59658333 Z M16.5861667,12.2026667 C18.2224167,12.2026667 19.3535833,12.4318333 20.0236667,12.6041667 C19.5974167,15.0461667 18.21875,17.14075 16.2708333,18.5056667 C15.906,16.3139167 15.30375,14.2294167 14.5805,12.3181667 C15.30375,12.24575 15.9875833,12.2026667 16.5861667,12.2026667 Z M12.71875,12.6325833 C13.5419167,14.7235 14.2330833,17.0188333 14.5805,19.45075 C13.4850833,19.91275 12.26775,20.1666667 11,20.1666667 C8.89808333,20.1666667 6.9575,19.4608333 5.41383333,18.2765 C6.35616667,16.98675 9.12358333,13.5565833 12.71875,12.6325833 Z" id="Fill-1" fill="#000000" mask="url(#mask-2)"></path>
            </g>
        </g>
    </g>
</svg>