<?xml version="1.0" encoding="UTF-8"?>
<svg width="22px" height="22px" viewBox="0 0 22 22" version="1.1" xmlns="http://www.w3.org/2000/svg" xmlns:xlink="http://www.w3.org/1999/xlink">
    <!-- Generator: Sketch 54.1 (76490) - https://sketchapp.com -->
    <title>Group</title>
    <desc>Created with Sketch.</desc>
    <g id="z" stroke="none" stroke-width="1" fill="none" fill-rule="evenodd">
        <g id="1920/Home9" transform="translate(-1424.000000, -411.000000)" fill="#000000" fill-rule="nonzero">
            <g id="Group" transform="translate(1424.000000, 411.000000)">
                <g id="icons8-behance">
                    <path d="M2.61904762,0 C1.1788249,0 0,1.1788249 0,2.61904762 L0,19.3809524 C0,20.821175 1.1788249,22 2.61904762,22 L19.3809524,22 C20.821175,22 22,20.821175 22,19.3809524 L22,2.61904762 C22,1.1788249 20.821175,0 19.3809524,0 L2.61904762,0 Z M2.61904762,1.04761905 L19.3809524,1.04761905 C20.2549202,1.04761905 20.952381,1.74507986 20.952381,2.61904762 L20.952381,19.3809524 C20.952381,20.2549202 20.2549202,20.952381 19.3809524,20.952381 L2.61904762,20.952381 C1.74507986,20.952381 1.04761905,20.2549202 1.04761905,19.3809524 L1.04761905,2.61904762 C1.04761905,1.74507986 1.74507986,1.04761905 2.61904762,1.04761905 Z" id="Shape"></path>
                </g>
                <g id="icons8-behance" transform="translate(4.000000, 7.000000)">
                    <path d="M0,0 L0,8 L4.17317949,8 C4.55985521,8 7.22281065,7.92736476 7.22281065,5.67567568 C7.22281065,4.26858119 6.17769195,3.79054054 5.64692469,3.64864865 C6.03724853,3.47804065 6.81424763,3.07263524 6.81424763,1.98648649 C6.81424763,1.38175697 6.72122646,0 4.05644719,0 L0,0 Z M9.51368191,0.743243243 L9.51368191,1.47297297 L12.7384115,1.47297297 L12.7384115,0.743243243 L9.51368191,0.743243243 Z M1.89689977,1.36486486 L3.67706724,1.36486486 C3.84486991,1.36486486 4.975714,1.2820947 4.975714,2.28378378 C4.975714,3.14020281 4.15858795,3.22972973 3.82298261,3.22972973 L1.89689977,3.22972973 L1.89689977,1.36486486 Z M11.2063002,2.13513514 C8.76768971,2.13513514 8.25880976,4.09628368 8.25880976,4.94594595 C8.25880976,7.4679053 10.4913149,7.75675676 11.2063002,7.75675676 C13.1342068,7.75675676 13.6813895,6.60135135 13.9057344,5.95945946 L12.5049469,5.95945946 C12.4502289,6.12500022 12.0416659,6.66216216 11.2646663,6.66216216 C9.9623719,6.66216216 9.84928725,5.71959481 9.84928725,5.2972973 L13.9932837,5.2972973 C14.0771852,3.83783784 13.3877349,2.13513514 11.2063002,2.13513514 Z M11.1625256,3.22972973 C11.5510251,3.22972973 11.8647431,3.33445968 12.0526093,3.52702703 C12.2404754,3.72128389 12.379095,4.00506768 12.4173977,4.37837838 L9.84928725,4.37837838 C9.85658302,4.27533795 9.88211844,4.15709449 9.92224494,4.02702703 C9.9623719,3.89358097 10.0243857,3.76689211 10.1265264,3.64864865 C10.2286672,3.5320947 10.3709349,3.43074335 10.5350895,3.35135135 C10.7028921,3.27027027 10.9108218,3.22972973 11.1625256,3.22972973 Z M1.89689977,4.43243243 L3.95430644,4.43243243 C4.36286946,4.43243243 5.32591088,4.49155416 5.32591088,5.58108108 C5.32591088,6.63682422 4.11298952,6.63513514 3.92512336,6.63513514 L1.89689977,6.63513514 L1.89689977,4.43243243 Z" id="Shape"></path>
                </g>
            </g>
        </g>
    </g>
</svg>