<?xml version="1.0" encoding="UTF-8"?>
<svg width="22px" height="22px" viewBox="0 0 22 22" version="1.1" xmlns="http://www.w3.org/2000/svg" xmlns:xlink="http://www.w3.org/1999/xlink">
    <!-- Generator: Sketch 54.1 (76490) - https://sketchapp.com -->
    <title>Group 2</title>
    <desc>Created with Sketch.</desc>
    <g id="z" stroke="none" stroke-width="1" fill="none" fill-rule="evenodd">
        <g id="1920/Home9" transform="translate(-1461.000000, -411.000000)" fill="#000000">
            <g id="Group-2" transform="translate(1461.000000, 411.000000)">
                <g id="icons8-behance-copy" fill-rule="nonzero">
                    <path d="M2.61904762,0 C1.1788249,0 0,1.1788249 0,2.61904762 L0,19.3809524 C0,20.821175 1.1788249,22 2.61904762,22 L19.3809524,22 C20.821175,22 22,20.821175 22,19.3809524 L22,2.61904762 C22,1.1788249 20.821175,0 19.3809524,0 L2.61904762,0 Z M2.61904762,1.04761905 L19.3809524,1.04761905 C20.2549202,1.04761905 20.952381,1.74507986 20.952381,2.61904762 L20.952381,19.3809524 C20.952381,20.2549202 20.2549202,20.952381 19.3809524,20.952381 L2.61904762,20.952381 C1.74507986,20.952381 1.04761905,20.2549202 1.04761905,19.3809524 L1.04761905,2.61904762 C1.04761905,1.74507986 1.74507986,1.04761905 2.61904762,1.04761905 Z" id="Shape"></path>
                </g>
                <path d="M14.75,20.96875 L11.625,20.96875 L11.625,14.21875 L9,14.21875 L9,11.21875 L11.625,11.21875 L11.625,8.96875 C11.625,6.386719 13.195313,5 15.5,5 C16.605469,5 17.566406,5.058594 17.84375,5.09375 L17.84375,7.8125 L16.21875,7.8125 C14.964844,7.8125 14.75,8.40625 14.75,9.28125 L14.75,11.21875 L17.71875,11.21875 L17.34375,14.21875 L14.75,14.21875 L14.75,20.96875 Z" id="Combined-Shape"></path>
            </g>
        </g>
    </g>
</svg>