<?xml version="1.0" encoding="UTF-8"?>
<svg width="22px" height="22px" viewBox="0 0 22 22" version="1.1" xmlns="http://www.w3.org/2000/svg" xmlns:xlink="http://www.w3.org/1999/xlink">
    <!-- Generator: Sketch 54.1 (76490) - https://sketchapp.com -->
    <title>icons8-instagram_new</title>
    <desc>Created with Sketch.</desc>
    <defs>
        <polygon id="path-1" points="0.06 22 22 22 22 0.04 0.06 0.04"></polygon>
    </defs>
    <g id="z" stroke="none" stroke-width="1" fill="none" fill-rule="evenodd">
        <g id="1920/Home9" transform="translate(-1340.000000, -411.000000)">
            <g id="icons8-instagram_new" transform="translate(1340.000000, 411.000000)">
                <mask id="mask-2" fill="white">
                    <use xlink:href="#path-1"></use>
                </mask>
                <g id="Clip-2"></g>
                <path d="M6.469,0 C2.918,0 0,2.914 0,6.469 L0,15.531 C0,19.082 2.914,22 6.469,22 L15.531,22 C19.082,22 22,19.086 22,15.531 L22,6.469 C22,2.918 19.086,0 15.531,0 L6.469,0 Z M6.469,2 L15.531,2 C18.004,2 20,3.996 20,6.469 L20,15.531 C20,18.004 18.004,20 15.531,20 L6.469,20 C3.996,20 2,18.004 2,15.531 L2,6.469 C2,3.996 3.996,2 6.469,2 Z M16.906,4.188 C16.402,4.188 16,4.59 16,5.094 C16,5.598 16.402,6 16.906,6 C17.41,6 17.812,5.598 17.812,5.094 C17.812,4.59 17.41,4.188 16.906,4.188 Z M11,5 C7.699,5 5,7.699 5,11 C5,14.301 7.699,17 11,17 C14.301,17 17,14.301 17,11 C17,7.699 14.301,5 11,5 Z M11,7 C13.223,7 15,8.777 15,11 C15,13.223 13.223,15 11,15 C8.777,15 7,13.223 7,11 C7,8.777 8.777,7 11,7 Z" id="Fill-1" fill="#000000" mask="url(#mask-2)"></path>
            </g>
        </g>
    </g>
</svg>