<?xml version="1.0" encoding="UTF-8"?>
<svg width="792px" height="120px" viewBox="0 0 792 120" version="1.1" xmlns="http://www.w3.org/2000/svg" xmlns:xlink="http://www.w3.org/1999/xlink">
    <!-- Generator: Sketch 54.1 (76490) - https://sketchapp.com -->
    <title>Group 13</title>
    <desc>Created with Sketch.</desc>
    <g id="Homepage-IT1" stroke="none" stroke-width="1" fill="none" fill-rule="evenodd">
        <g id="Large-Device-Desktops-Copy-21" transform="translate(-215.000000, -2287.000000)" fill-rule="nonzero">
            <g id="Group-13" transform="translate(208.000000, 2282.000000)">
                <g id="Logo-01">
                    <path d="M91,119.21 C68.8026178,119.230227 48.7796845,105.874413 40.2710947,85.3725086 C31.7625049,64.8706041 36.4445995,41.2618425 52.1333692,25.5587635 C67.8221389,9.85568439 91.4266222,5.15206861 111.936275,13.6419641 C132.445928,22.1318595 145.819991,42.1426085 145.82,64.34 C145.827958,78.8862048 140.056448,92.8396504 129.775416,103.130059 C119.494384,113.420469 105.546206,119.204697 91,119.21 Z M91,93.07 C102.504581,93.1510202 112.921476,86.2831878 117.380342,75.6775068 C121.839208,65.0718259 119.45904,52.8238215 111.352667,44.6599571 C103.246295,36.4960927 91.0154171,34.0294268 80.37849,38.4132306 C69.7415629,42.7970344 62.8002853,53.1651335 62.8,64.67 C62.7734314,72.1756409 65.7295795,79.3844195 71.0181155,84.7104628 C76.3066515,90.0365061 83.4943588,93.0435252 91,93.07 L91,93.07 Z" id="Shape" fill="#020202"></path>
                    <ellipse id="Oval" fill="#020202" transform="translate(177.292317, 71.555991) rotate(-17.430000) translate(-177.292317, -71.555991) " cx="177.292317" cy="71.555991" rx="23.54" ry="26.18"></ellipse>
                    <ellipse id="Oval" fill="#FBBC05" transform="translate(152.310926, 108.244194) rotate(-13.230000) translate(-152.310926, -108.244194) " cx="152.310926" cy="108.244194" rx="8.04" ry="6.01"></ellipse>
                    <ellipse id="Oval" fill="#34A853" transform="translate(23.069664, 22.964313) rotate(-51.880000) translate(-23.069664, -22.964313) " cx="23.069664" cy="22.9643133" rx="17.05" ry="15.44"></ellipse>
                    <ellipse id="Oval" fill="#EA4335" transform="translate(49.360741, 9.463750) rotate(-22.620000) translate(-49.360741, -9.463750) " cx="49.3607406" cy="9.46374994" rx="5.85" ry="4.19"></ellipse>
                    <ellipse id="Oval" fill="#4285F4" transform="translate(16.956610, 53.795003) rotate(-6.290000) translate(-16.956610, -53.795003) " cx="16.9566103" cy="53.7950026" rx="4.6" ry="6.87"></ellipse>
                </g>
                <path d="M262.31,78.7 C254.89,78.7 247.4,76.11 241.52,70.86 L247.89,63.23 C252.3,66.87 256.92,69.18 262.52,69.18 C266.93,69.18 269.59,67.43 269.59,64.56 L269.59,64.42 C269.59,61.69 267.91,60.29 259.72,58.19 C249.85,55.67 243.48,52.94 243.48,43.21 L243.48,43.07 C243.48,34.18 250.62,28.3 260.63,28.3 C267.77,28.3 273.86,30.54 278.83,34.53 L273.23,42.65 C268.89,39.64 264.62,37.82 260.49,37.82 C256.36,37.82 254.19,39.71 254.19,42.09 L254.19,42.23 C254.19,45.45 256.29,46.5 264.76,48.67 C274.7,51.26 280.3,54.83 280.3,63.37 L280.3,63.51 C280.3,73.24 272.88,78.7 262.31,78.7 Z M288.56,78 L288.56,26.9 L299.2,26.9 L299.2,45.8 C301.65,42.65 304.8,39.78 310.19,39.78 C318.24,39.78 322.93,45.1 322.93,53.71 L322.93,78 L312.29,78 L312.29,57.07 C312.29,52.03 309.91,49.44 305.85,49.44 C301.79,49.44 299.2,52.03 299.2,57.07 L299.2,78 L288.56,78 Z M342.81,78.7 C335.74,78.7 329.93,74.64 329.93,67.22 L329.93,67.08 C329.93,58.89 336.16,55.11 345.05,55.11 C348.83,55.11 351.56,55.74 354.22,56.65 L354.22,56.02 C354.22,51.61 351.49,49.16 346.17,49.16 C342.11,49.16 339.24,49.93 335.81,51.19 L333.15,43.07 C337.28,41.25 341.34,40.06 347.71,40.06 C353.52,40.06 357.72,41.6 360.38,44.26 C363.18,47.06 364.44,51.19 364.44,56.23 L364.44,78 L354.15,78 L354.15,73.94 C351.56,76.81 347.99,78.7 342.81,78.7 Z M346.03,71.35 C351,71.35 354.36,68.62 354.36,64.77 L354.36,62.88 C352.54,62.04 350.16,61.48 347.57,61.48 C343.02,61.48 340.22,63.3 340.22,66.66 L340.22,66.8 C340.22,69.67 342.6,71.35 346.03,71.35 Z M373.61,78 L373.61,40.48 L384.25,40.48 L384.25,48.04 C386.42,42.86 389.92,39.5 396.22,39.78 L396.22,50.91 L395.66,50.91 C388.59,50.91 384.25,55.18 384.25,64.14 L384.25,78 L373.61,78 Z M420.65,78.84 C409.38,78.84 401.05,70.93 401.05,59.45 L401.05,59.31 C401.05,48.6 408.68,39.78 419.6,39.78 C432.13,39.78 437.87,49.51 437.87,60.15 C437.87,60.99 437.8,61.97 437.73,62.95 L411.62,62.95 C412.67,67.78 416.03,70.3 420.79,70.3 C424.36,70.3 426.95,69.18 429.89,66.45 L435.98,71.84 C432.48,76.18 427.44,78.84 420.65,78.84 Z M411.48,56.3 L427.51,56.3 C426.88,51.54 424.08,48.32 419.6,48.32 C415.19,48.32 412.32,51.47 411.48,56.3 Z M491.7,78.84 C476.58,78.84 465.73,67.57 465.73,53.64 L465.73,53.5 C465.73,39.57 476.72,28.16 491.84,28.16 C506.96,28.16 517.81,39.43 517.81,53.36 L517.81,53.5 C517.81,67.43 506.82,78.84 491.7,78.84 Z M491.84,68.9 C500.52,68.9 506.54,62.04 506.54,53.64 L506.54,53.5 C506.54,45.1 500.38,38.1 491.7,38.1 C483.02,38.1 477,44.96 477,53.36 L477,53.5 C477,61.9 483.16,68.9 491.84,68.9 Z M526.28,78 L526.28,40.48 L536.92,40.48 L536.92,45.8 C539.37,42.65 542.52,39.78 547.91,39.78 C555.96,39.78 560.65,45.1 560.65,53.71 L560.65,78 L550.01,78 L550.01,57.07 C550.01,52.03 547.63,49.44 543.57,49.44 C539.51,49.44 536.92,52.03 536.92,57.07 L536.92,78 L526.28,78 Z M592.01,78 L592.01,29 L602.79,29 L602.79,50.42 L622.67,29 L635.69,29 L615.74,49.79 L636.6,78 L623.65,78 L608.46,57.14 L602.79,63.02 L602.79,78 L592.01,78 Z M641.99,78 L641.99,40.48 L652.63,40.48 L652.63,48.04 C654.8,42.86 658.3,39.5 664.6,39.78 L664.6,50.91 L664.04,50.91 C656.97,50.91 652.63,55.18 652.63,64.14 L652.63,78 L641.99,78 Z M689.66,78.84 C678.04,78.84 669.43,70.23 669.43,59.45 L669.43,59.31 C669.43,48.53 678.11,39.78 689.8,39.78 C701.42,39.78 710.03,48.39 710.03,59.17 L710.03,59.31 C710.03,70.09 701.35,78.84 689.66,78.84 Z M689.8,69.67 C695.89,69.67 699.53,64.98 699.53,59.45 L699.53,59.31 C699.53,53.78 695.54,48.95 689.66,48.95 C683.57,48.95 679.93,53.64 679.93,59.17 L679.93,59.31 C679.93,64.84 683.92,69.67 689.8,69.67 Z M736.14,78.84 C724.52,78.84 715.91,70.23 715.91,59.45 L715.91,59.31 C715.91,48.53 724.59,39.78 736.28,39.78 C747.9,39.78 756.51,48.39 756.51,59.17 L756.51,59.31 C756.51,70.09 747.83,78.84 736.14,78.84 Z M736.28,69.67 C742.37,69.67 746.01,64.98 746.01,59.45 L746.01,59.31 C746.01,53.78 742.02,48.95 736.14,48.95 C730.05,48.95 726.41,53.64 726.41,59.17 L726.41,59.31 C726.41,64.84 730.4,69.67 736.28,69.67 Z M764.21,78 L764.21,40.48 L774.85,40.48 L774.85,45.8 C777.3,42.65 780.45,39.78 785.84,39.78 C793.89,39.78 798.58,45.1 798.58,53.71 L798.58,78 L787.94,78 L787.94,57.07 C787.94,52.03 785.56,49.44 781.5,49.44 C777.44,49.44 774.85,52.03 774.85,57.07 L774.85,78 L764.21,78 Z" id="ShareOnKroon" fill="#000000"></path>
                <path d="M241.6,120 L241.6,102.5 L242.9,102.5 L242.9,114 L254.05,102.5 L255.825,102.5 L248.175,110.225 L256.15,120 L254.45,120 L247.25,111.15 L242.9,115.55 L242.9,120 L241.6,120 Z M259.2,120 L259.2,107.25 L260.425,107.25 L260.425,109.625 C261.275,108.125 262.7,106.95 265.025,106.95 C268.25,106.95 270.125,109.15 270.125,112.2 L270.125,120 L268.9,120 L268.9,112.425 C268.9,109.8 267.425,108.075 264.85,108.075 C262.35,108.075 260.425,109.975 260.425,112.625 L260.425,120 L259.2,120 Z M280.175,120.3 C276.4,120.3 273.65,117.25 273.65,113.675 L273.65,113.625 C273.65,110.05 276.425,106.95 280.225,106.95 C284,106.95 286.75,110 286.75,113.575 L286.75,113.625 C286.75,117.2 283.975,120.3 280.175,120.3 Z M280.225,119.15 C283.25,119.15 285.425,116.675 285.425,113.675 L285.425,113.625 C285.425,110.55 283.125,108.1 280.175,108.1 C277.15,108.1 274.975,110.575 274.975,113.575 L274.975,113.625 C274.975,116.7 277.275,119.15 280.225,119.15 Z M294.1,120.1 L289.425,107.25 L290.8,107.25 L294.65,118.45 L298.5,107.2 L299.475,107.2 L303.325,118.45 L307.175,107.25 L308.5,107.25 L303.825,120.1 L302.775,120.1 L298.975,109.175 L295.15,120.1 L294.1,120.1 Z M317.425,120.3 C314.35,120.3 311.225,117.825 311.225,113.675 L311.225,113.625 C311.225,109.475 314.35,106.95 317.425,106.95 C319.975,106.95 321.625,108.4 322.675,110 L322.675,101.75 L323.9,101.75 L323.9,120 L322.675,120 L322.675,117.15 C321.575,118.825 319.95,120.3 317.425,120.3 Z M317.55,119.125 C320.2,119.125 322.75,116.9 322.75,113.65 L322.75,113.6 C322.75,110.325 320.2,108.125 317.55,108.125 C314.775,108.125 312.55,110.15 312.55,113.575 L312.55,113.625 C312.55,116.975 314.875,119.125 317.55,119.125 Z M328.725,120 L328.725,101.75 L329.95,101.75 L329.95,120 L328.725,120 Z M340.15,120.3 C336.8,120.3 333.9,117.625 333.9,113.65 L333.9,113.6 C333.9,109.9 336.5,106.95 339.95,106.95 C343.525,106.95 345.8,109.85 345.8,113.625 C345.8,113.85 345.8,113.925 345.775,114.125 L335.2,114.125 C335.425,117.3 337.7,119.15 340.2,119.15 C342.175,119.15 343.525,118.275 344.575,117.15 L345.425,117.9 C344.125,119.3 342.6,120.3 340.15,120.3 Z M335.2,113.025 L344.475,113.025 C344.3,110.45 342.825,108.075 339.9,108.075 C337.375,108.075 335.425,110.2 335.2,113.025 Z M354.975,124.05 C352.85,124.05 350.875,123.4 349.125,122.1 L349.85,121.1 C351.375,122.275 353.125,122.9 355,122.9 C357.925,122.9 360,121.225 360,117.95 L360,116.1 C358.9,117.675 357.2,119.05 354.675,119.05 C351.6,119.05 348.55,116.7 348.55,113.05 L348.55,113 C348.55,109.325 351.6,106.95 354.675,106.95 C357.225,106.95 358.95,108.3 360,109.8 L360,107.25 L361.225,107.25 L361.225,118.025 C361.225,119.875 360.625,121.325 359.6,122.35 C358.5,123.45 356.85,124.05 354.975,124.05 Z M354.8,117.875 C357.45,117.875 360.075,115.925 360.075,113.025 L360.075,112.975 C360.075,110.025 357.45,108.125 354.8,108.125 C352.125,108.125 349.875,109.975 349.875,112.95 L349.875,113 C349.875,115.875 352.175,117.875 354.8,117.875 Z M371.25,120.3 C367.9,120.3 365,117.625 365,113.65 L365,113.6 C365,109.9 367.6,106.95 371.05,106.95 C374.625,106.95 376.9,109.85 376.9,113.625 C376.9,113.85 376.9,113.925 376.875,114.125 L366.3,114.125 C366.525,117.3 368.8,119.15 371.3,119.15 C373.275,119.15 374.625,118.275 375.675,117.15 L376.525,117.9 C375.225,119.3 373.7,120.3 371.25,120.3 Z M366.3,113.025 L375.575,113.025 C375.4,110.45 373.925,108.075 371,108.075 C368.475,108.075 366.525,110.2 366.3,113.025 Z M388,103.925 L388,102.25 L389.525,102.25 L389.525,103.925 L388,103.925 Z M388.15,120 L388.15,107.25 L389.375,107.25 L389.375,120 L388.15,120 Z M398.325,120.25 C396.475,120.25 394.45,119.5 393.1,118.4 L393.825,117.425 C395.225,118.5 396.775,119.1 398.4,119.1 C400.125,119.1 401.475,118.15 401.475,116.675 L401.475,116.625 C401.475,115.125 399.875,114.575 398.1,114.075 C396.025,113.475 393.725,112.85 393.725,110.575 L393.725,110.525 C393.725,108.475 395.45,107 397.925,107 C399.45,107 401.175,107.55 402.45,108.4 L401.8,109.425 C400.625,108.65 399.225,108.15 397.875,108.15 C396.125,108.15 394.975,109.1 394.975,110.375 L394.975,110.425 C394.975,111.85 396.7,112.375 398.525,112.9 C400.575,113.475 402.725,114.225 402.725,116.475 L402.725,116.525 C402.725,118.8 400.775,120.25 398.325,120.25 Z M417.7,120.1 L413.025,107.25 L414.4,107.25 L418.25,118.45 L422.1,107.2 L423.075,107.2 L426.925,118.45 L430.775,107.25 L432.1,107.25 L427.425,120.1 L426.375,120.1 L422.575,109.175 L418.75,120.1 L417.7,120.1 Z M441.3,120.3 C437.525,120.3 434.775,117.25 434.775,113.675 L434.775,113.625 C434.775,110.05 437.55,106.95 441.35,106.95 C445.125,106.95 447.875,110 447.875,113.575 L447.875,113.625 C447.875,117.2 445.1,120.3 441.3,120.3 Z M441.35,119.15 C444.375,119.15 446.55,116.675 446.55,113.675 L446.55,113.625 C446.55,110.55 444.25,108.1 441.3,108.1 C438.275,108.1 436.1,110.575 436.1,113.575 L436.1,113.625 C436.1,116.7 438.4,119.15 441.35,119.15 Z M451.65,120 L451.65,107.25 L452.875,107.25 L452.875,110.875 C453.875,108.6 456,106.95 458.525,107.05 L458.525,108.4 L458.4,108.4 C455.45,108.4 452.875,110.625 452.875,114.775 L452.875,120 L451.65,120 Z M465.9,120.225 C463.925,120.225 462.325,119.15 462.325,116.725 L462.325,108.375 L460.475,108.375 L460.475,107.25 L462.325,107.25 L462.325,103.175 L463.55,103.175 L463.55,107.25 L468.025,107.25 L468.025,108.375 L463.55,108.375 L463.55,116.6 C463.55,118.425 464.625,119.075 466.1,119.075 C466.725,119.075 467.25,118.95 467.975,118.625 L467.975,119.775 C467.325,120.075 466.7,120.225 465.9,120.225 Z M471.65,120 L471.65,101.75 L472.875,101.75 L472.875,109.625 C473.725,108.125 475.15,106.95 477.475,106.95 C480.7,106.95 482.575,109.15 482.575,112.2 L482.575,120 L481.35,120 L481.35,112.425 C481.35,109.8 479.875,108.075 477.3,108.075 C474.8,108.075 472.875,109.975 472.875,112.625 L472.875,120 L471.65,120 Z M500.125,120.3 C496.35,120.3 493.6,117.25 493.6,113.675 L493.6,113.625 C493.6,110.05 496.375,106.95 500.175,106.95 C503.95,106.95 506.7,110 506.7,113.575 L506.7,113.625 C506.7,117.2 503.925,120.3 500.125,120.3 Z M500.175,119.15 C503.2,119.15 505.375,116.675 505.375,113.675 L505.375,113.625 C505.375,110.55 503.075,108.1 500.125,108.1 C497.1,108.1 494.925,110.575 494.925,113.575 L494.925,113.625 C494.925,116.7 497.225,119.15 500.175,119.15 Z M510.475,120 L510.475,107.25 L511.7,107.25 L511.7,109.625 C512.55,108.125 513.975,106.95 516.3,106.95 C519.525,106.95 521.4,109.15 521.4,112.2 L521.4,120 L520.175,120 L520.175,112.425 C520.175,109.8 518.7,108.075 516.125,108.075 C513.625,108.075 511.7,109.975 511.7,112.625 L511.7,120 L510.475,120 Z M525.975,120 L525.975,101.75 L527.2,101.75 L527.2,120 L525.975,120 Z M537.4,118.65 L542,107.25 L543.35,107.25 L537.825,120.45 C536.7,123.125 535.4,124.075 533.575,124.075 C532.6,124.075 531.9,123.9 531.05,123.525 L531.475,122.45 C532.15,122.775 532.7,122.925 533.65,122.925 C534.975,122.925 535.85,122.15 536.8,119.925 L530.675,107.25 L532.1,107.25 L537.4,118.65 Z M557.8,120.1 L553.125,107.25 L554.5,107.25 L558.35,118.45 L562.2,107.2 L563.175,107.2 L567.025,118.45 L570.875,107.25 L572.2,107.25 L567.525,120.1 L566.475,120.1 L562.675,109.175 L558.85,120.1 L557.8,120.1 Z M575.75,120 L575.75,101.75 L576.975,101.75 L576.975,109.625 C577.825,108.125 579.25,106.95 581.575,106.95 C584.8,106.95 586.675,109.15 586.675,112.2 L586.675,120 L585.45,120 L585.45,112.425 C585.45,109.8 583.975,108.075 581.4,108.075 C578.9,108.075 576.975,109.975 576.975,112.625 L576.975,120 L575.75,120 Z M596.45,120.3 C593.1,120.3 590.2,117.625 590.2,113.65 L590.2,113.6 C590.2,109.9 592.8,106.95 596.25,106.95 C599.825,106.95 602.1,109.85 602.1,113.625 C602.1,113.85 602.1,113.925 602.075,114.125 L591.5,114.125 C591.725,117.3 594,119.15 596.5,119.15 C598.475,119.15 599.825,118.275 600.875,117.15 L601.725,117.9 C600.425,119.3 598.9,120.3 596.45,120.3 Z M591.5,113.025 L600.775,113.025 C600.6,110.45 599.125,108.075 596.2,108.075 C593.675,108.075 591.725,110.2 591.5,113.025 Z M605.675,120 L605.675,107.25 L606.9,107.25 L606.9,109.625 C607.75,108.125 609.175,106.95 611.5,106.95 C614.725,106.95 616.6,109.15 616.6,112.2 L616.6,120 L615.375,120 L615.375,112.425 C615.375,109.8 613.9,108.075 611.325,108.075 C608.825,108.075 606.9,109.975 606.9,112.625 L606.9,120 L605.675,120 Z M632.625,120.25 C630.775,120.25 628.75,119.5 627.4,118.4 L628.125,117.425 C629.525,118.5 631.075,119.1 632.7,119.1 C634.425,119.1 635.775,118.15 635.775,116.675 L635.775,116.625 C635.775,115.125 634.175,114.575 632.4,114.075 C630.325,113.475 628.025,112.85 628.025,110.575 L628.025,110.525 C628.025,108.475 629.75,107 632.225,107 C633.75,107 635.475,107.55 636.75,108.4 L636.1,109.425 C634.925,108.65 633.525,108.15 632.175,108.15 C630.425,108.15 629.275,109.1 629.275,110.375 L629.275,110.425 C629.275,111.85 631,112.375 632.825,112.9 C634.875,113.475 637.025,114.225 637.025,116.475 L637.025,116.525 C637.025,118.8 635.075,120.25 632.625,120.25 Z M640.925,120 L640.925,101.75 L642.15,101.75 L642.15,109.625 C643,108.125 644.425,106.95 646.75,106.95 C649.975,106.95 651.85,109.15 651.85,112.2 L651.85,120 L650.625,120 L650.625,112.425 C650.625,109.8 649.15,108.075 646.575,108.075 C644.075,108.075 642.15,109.975 642.15,112.625 L642.15,120 L640.925,120 Z M660.125,120.3 C657.75,120.3 655.2,118.95 655.2,116.3 L655.2,116.25 C655.2,113.6 657.475,112.1 660.775,112.1 C662.55,112.1 663.775,112.325 665,112.65 L665,112.1 C665,109.525 663.425,108.2 660.8,108.2 C659.25,108.2 657.975,108.625 656.8,109.225 L656.35,108.15 C657.75,107.5 659.125,107.05 660.875,107.05 C662.6,107.05 663.975,107.525 664.9,108.45 C665.75,109.3 666.2,110.475 666.2,112.05 L666.2,120 L665,120 L665,117.875 C664.125,119.1 662.55,120.3 660.125,120.3 Z M660.2,119.15 C662.8,119.15 665.025,117.55 665.025,115.225 L665.025,113.775 C663.95,113.5 662.525,113.2 660.7,113.2 C658,113.2 656.5,114.4 656.5,116.175 L656.5,116.225 C656.5,118.075 658.25,119.15 660.2,119.15 Z M670.6,120 L670.6,107.25 L671.825,107.25 L671.825,110.875 C672.825,108.6 674.95,106.95 677.475,107.05 L677.475,108.4 L677.35,108.4 C674.4,108.4 671.825,110.625 671.825,114.775 L671.825,120 L670.6,120 Z M685.975,120.3 C682.625,120.3 679.725,117.625 679.725,113.65 L679.725,113.6 C679.725,109.9 682.325,106.95 685.775,106.95 C689.35,106.95 691.625,109.85 691.625,113.625 C691.625,113.85 691.625,113.925 691.6,114.125 L681.025,114.125 C681.25,117.3 683.525,119.15 686.025,119.15 C688,119.15 689.35,118.275 690.4,117.15 L691.25,117.9 C689.95,119.3 688.425,120.3 685.975,120.3 Z M681.025,113.025 L690.3,113.025 C690.125,110.45 688.65,108.075 685.725,108.075 C683.2,108.075 681.25,110.2 681.025,113.025 Z M700.575,120.3 C697.5,120.3 694.375,117.825 694.375,113.675 L694.375,113.625 C694.375,109.475 697.5,106.95 700.575,106.95 C703.125,106.95 704.775,108.4 705.825,110 L705.825,101.75 L707.05,101.75 L707.05,120 L705.825,120 L705.825,117.15 C704.725,118.825 703.1,120.3 700.575,120.3 Z M700.7,119.125 C703.35,119.125 705.9,116.9 705.9,113.65 L705.9,113.6 C705.9,110.325 703.35,108.125 700.7,108.125 C697.925,108.125 695.7,110.15 695.7,113.575 L695.7,113.625 C695.7,116.975 698.025,119.125 700.7,119.125 Z" id="Knowdlegeisworthonlywhenshared" fill="#000000"></path>
            </g>
        </g>
    </g>
</svg>