<?xml version="1.0" encoding="UTF-8"?>
<svg width="310px" height="47px" viewBox="0 0 310 47" version="1.1" xmlns="http://www.w3.org/2000/svg" xmlns:xlink="http://www.w3.org/1999/xlink">
    <!-- Generator: Sketch 54.1 (76490) - https://sketchapp.com -->
    <title>Group</title>
    <desc>Created with Sketch.</desc>
    <g id="Homepage-IT1" stroke="none" stroke-width="1" fill="none" fill-rule="evenodd">
        <g id="Large-Device-Desktops-Copy-21" transform="translate(-980.000000, -1454.000000)" fill="#FFFFFF">
            <g id="Group" transform="translate(978.000000, 1440.000000)">
                <path d="M2.58,55 L2.58,21.46 L18.146,21.46 C28.638,21.46 34.013,29.114 34.013,38.23 C34.013,47.389 28.638,55 18.146,55 L2.58,55 Z M17.501,29.802 L11.18,29.802 L11.18,46.701 L17.501,46.701 C22.618,46.701 25.327,43.261 25.327,38.23 C25.327,33.199 22.618,29.802 17.501,29.802 Z M39.7639999,21.46 L48.3639999,21.46 L48.3639999,55 L39.7639999,55 L39.7639999,21.46 Z M54.2009998,44.938 L62.5859998,44.938 L62.5859998,45.153 C62.5859998,46.443 64.3489998,48.206 68.2619998,48.206 C71.4869998,48.206 72.5189998,47.131 72.5189998,46.142 C72.5189998,44.723 70.8419998,43.863 66.7999998,42.487 C61.4679998,40.724 54.4589998,38.144 54.4589998,31.221 C54.4589998,24.814 59.9199998,20.815 67.5739998,20.815 C75.3999998,20.815 81.2909998,24.986 81.2909998,31.651 L81.2909998,32.124 L72.9059998,32.124 L72.9059998,31.823 C72.9059998,30.189 71.2289998,28.254 67.7459998,28.254 C64.8219998,28.254 63.6609998,29.415 63.6609998,30.533 C63.6609998,31.866 65.2089998,32.554 69.2079998,33.93 C73.8519998,35.564 81.7639998,38.316 81.7639998,45.669 C81.7639998,52.205 76.0879998,55.645 68.4339998,55.645 C60.3929998,55.645 54.2009998,51.904 54.2009998,45.325 L54.2009998,44.938 Z M111.853,42.573 L119.722,46.013 C116.798,51.732 110.735,55.645 103.812,55.645 C94.1369997,55.645 86.0099997,47.819 86.0099997,38.23 C86.0099997,28.641 94.1369997,20.815 103.812,20.815 C110.735,20.815 116.712,24.728 119.679,30.361 L111.853,33.887 C110.348,31.049 107.338,29.114 103.812,29.114 C98.7809997,29.114 94.6959997,33.156 94.6959997,38.23 C94.6959997,43.304 98.7809997,47.346 103.812,47.346 C107.381,47.346 110.348,45.411 111.853,42.573 Z M196.447,55 L187.933,55 L174.388,21.46 L183.762,21.46 L192.19,43.992 L200.661,21.46 L210.035,21.46 L196.447,55 Z M214.624999,55 L214.624999,21.46 L240.381999,21.46 L240.381999,29.802 L223.224999,29.802 L223.224999,34.618 L237.328999,34.618 L237.328999,42.401 L223.224999,42.401 L223.224999,46.701 L240.381999,46.701 L240.381999,55 L214.624999,55 Z M246.562999,21.46 L262.945999,21.46 C271.545999,21.46 275.501999,27.05 275.501999,33.715 C275.501999,38.402 273.394999,42.788 268.879999,44.852 L276.146999,55 L265.869999,55 L259.505999,46.013 L255.119999,46.013 L255.119999,55 L246.562999,55 L246.562999,21.46 Z M262.472999,29.286 L255.119999,29.286 L255.119999,38.23 L262.472999,38.23 C265.912999,38.23 267.202999,36.123 267.202999,33.801 C267.202999,31.221 265.912999,29.286 262.472999,29.286 Z M286.627999,21.46 L294.023999,33.629 L301.462999,21.46 L311.610999,21.46 L298.323999,42.702 L298.323999,55 L289.766999,55 L289.766999,42.702 L276.522999,21.46 L286.627999,21.46 Z" id="Discvery" fill-rule="nonzero"></path>
                <path d="M148,61 C134.745166,61 124,50.4786916 124,37.5 C124,24.5213084 134.745166,14 148,14 C161.254834,14 172,24.5213084 172,37.5 C172,50.4786916 161.254834,61 148,61 Z M148,49.8029412 C154.818961,49.8029412 160.346821,44.3566168 160.346821,37.6382353 C160.346821,30.9198537 154.818961,25.4735294 148,25.4735294 C141.181039,25.4735294 135.653179,30.9198537 135.653179,37.6382353 C135.653179,44.3566168 141.181039,49.8029412 148,49.8029412 Z" id="Combined-Shape"></path>
            </g>
        </g>
    </g>
</svg>