<?xml version="1.0" encoding="UTF-8"?>
<svg width="366px" height="36px" viewBox="0 0 366 36" version="1.1" xmlns="http://www.w3.org/2000/svg" xmlns:xlink="http://www.w3.org/1999/xlink">
    <!-- Generator: Sketch 54.1 (76490) - https://sketchapp.com -->
    <title>Group 9</title>
    <desc>Created with Sketch.</desc>
    <g id="z" stroke="none" stroke-width="1" fill="none" fill-rule="evenodd">
        <g id="1920/Home5" transform="translate(-740.000000, -215.000000)" fill="#E5E5E5">
            <g id="Group-9" transform="translate(740.000000, 215.000000)">
                <g id="Group-3">
                    <path d="M59.366214,4.58 L66.8061301,4.58 L66.8061301,21.1460377 C66.8061301,28.7309434 62.0954294,34.58 53.3843718,34.58 C44.6359277,34.58 40,28.7309434 40,21.1460377 L40,4.58 L47.4773027,4.58 L47.4773027,20.6932075 C47.4773027,24.9573585 49.4961744,27.2969811 53.3843718,27.2969811 C57.3099557,27.2969811 59.366214,24.9573585 59.366214,20.6932075 L59.366214,4.58 Z M73.2773958,4.58 L87.5216574,4.58 C94.9989601,4.58 98.4385194,9.48566038 98.4385194,15.334717 C98.4385194,19.4479245 96.6065802,23.2969811 92.6809963,25.1083019 L98.9993171,34.0139623 L90.0639403,34.0139623 L84.5307364,26.1271698 L80.717312,26.1271698 L80.717312,34.0139623 L73.2773958,34.0139623 L73.2773958,4.58 Z M87.1104058,11.4479245 L80.717312,11.4479245 L80.717312,19.2969811 L87.1104058,19.2969811 C90.1013269,19.2969811 91.2229223,17.4479245 91.2229223,15.4101887 C91.2229223,13.1460377 90.1013269,11.4479245 87.1104058,11.4479245 Z" id="urwrk" fill-rule="nonzero"></path>
                    <path d="M17.5,35.58 C7.83501688,35.58 -7.46069873e-14,27.7449831 -7.46069873e-14,18.08 C-7.46069873e-14,8.41501688 7.83501688,0.58 17.5,0.58 C27.1649831,0.58 35,8.41501688 35,18.08 C35,27.7449831 27.1649831,35.58 17.5,35.58 Z M17.5,27.2417647 C22.4721589,27.2417647 26.5028902,23.1859913 26.5028902,18.1829412 C26.5028902,13.1798911 22.4721589,9.12411765 17.5,9.12411765 C12.5278411,9.12411765 8.49710983,13.1798911 8.49710983,18.1829412 C8.49710983,23.1859913 12.5278411,27.2417647 17.5,27.2417647 Z" id="Combined-Shape-Copy-2"></path>
                </g>
                <path d="M121.28,34 L121.28,4.36 L134.352,4.36 C142.218,4.36 145.98,9.756 145.98,15.722 C145.98,21.992 142.218,27.274 134.352,27.274 L128.88,27.274 L128.88,34 L121.28,34 Z M133.934,11.276 L128.88,11.276 L128.88,20.358 L133.934,20.358 C137.126,20.358 138.304,18.382 138.304,15.76 C138.304,13.404 137.126,11.276 133.934,11.276 Z M159.178,4.36 L166.702,4.36 L178.672,34 L170.388,34 L168.754,29.668 L157.088,29.668 L155.454,34 L147.17,34 L159.178,4.36 Z M166.17,22.79 L162.94,14.088 L159.672,22.79 L166.17,22.79 Z M184.042,4.36 L198.52,4.36 C206.12,4.36 209.616,9.3 209.616,15.19 C209.616,19.332 207.754,23.208 203.764,25.032 L210.186,34 L201.104,34 L195.48,26.058 L191.604,26.058 L191.604,34 L184.042,34 L184.042,4.36 Z M198.102,11.276 L191.604,11.276 L191.604,19.18 L198.102,19.18 C201.142,19.18 202.282,17.318 202.282,15.266 C202.282,12.986 201.142,11.276 198.102,11.276 Z M214.074,11.732 L214.074,4.36 L240.142,4.36 L240.142,11.732 L230.908,11.732 L230.908,34 L223.308,34 L223.308,11.732 L214.074,11.732 Z M253.568,34 L245.968,34 L245.968,4.36 L252.428,4.36 L265.652,20.928 L265.652,4.36 L273.214,4.36 L273.214,34 L266.792,34 L253.568,17.47 L253.568,34 Z M280.864,34 L280.864,4.36 L303.626,4.36 L303.626,11.732 L288.464,11.732 L288.464,15.988 L300.928,15.988 L300.928,22.866 L288.464,22.866 L288.464,26.666 L303.626,26.666 L303.626,34 L280.864,34 Z M310.401999,4.36 L324.879999,4.36 C332.479999,4.36 335.975999,9.3 335.975999,15.19 C335.975999,19.332 334.113999,23.208 330.123999,25.032 L336.545999,34 L327.463999,34 L321.839999,26.058 L317.963999,26.058 L317.963999,34 L310.401999,34 L310.401999,4.36 Z M324.461999,11.276 L317.963999,11.276 L317.963999,19.18 L324.461999,19.18 C327.501999,19.18 328.641999,17.318 328.641999,15.266 C328.641999,12.986 327.501999,11.276 324.461999,11.276 Z M341.421999,25.108 L348.831999,25.108 L348.831999,25.298 C348.831999,26.438 350.389999,27.996 353.847999,27.996 C356.697999,27.996 357.609999,27.046 357.609999,26.172 C357.609999,24.918 356.127999,24.158 352.555999,22.942 C347.843999,21.384 341.649999,19.104 341.649999,12.986 C341.649999,7.324 346.475999,3.79 353.239999,3.79 C360.155999,3.79 365.361999,7.476 365.361999,13.366 L365.361999,13.784 L357.951999,13.784 L357.951999,13.518 C357.951999,12.074 356.469999,10.364 353.391999,10.364 C350.807999,10.364 349.781999,11.39 349.781999,12.378 C349.781999,13.556 351.149999,14.164 354.683999,15.38 C358.787999,16.824 365.779999,19.256 365.779999,25.754 C365.779999,31.53 360.763999,34.57 353.999999,34.57 C346.893999,34.57 341.421999,31.264 341.421999,25.45 L341.421999,25.108 Z" id="partners" fill-rule="nonzero"></path>
            </g>
        </g>
    </g>
</svg>