<?xml version="1.0" encoding="UTF-8"?>
<svg width="212px" height="29px" viewBox="0 0 212 29" version="1.1" xmlns="http://www.w3.org/2000/svg" xmlns:xlink="http://www.w3.org/1999/xlink">
    <!-- Generator: Sketch 54.1 (76490) - https://sketchapp.com -->
    <title>Group 3</title>
    <desc>Created with Sketch.</desc>
    <g id="z" stroke="none" stroke-width="1" fill="none" fill-rule="evenodd">
        <g id="1920/Home2" transform="translate(-960.000000, -343.000000)" fill="#E5E5E5">
            <g id="Group-3" transform="translate(960.000000, 343.000000)">
                <path d="M48.3361476,3.0430622 L54.4355427,3.0430622 L54.4355427,16.4861244 C54.4355427,22.6411483 50.5736142,27.3875598 43.4321113,27.3875598 C36.2599583,27.3875598 32.4593301,22.6411483 32.4593301,16.4861244 L32.4593301,3.0430622 L38.5893755,3.0430622 L38.5893755,16.1186603 C38.5893755,19.5789474 40.2444877,21.477512 43.4321113,21.477512 C46.6503851,21.477512 48.3361476,19.5789474 48.3361476,16.1186603 L48.3361476,3.0430622 Z M59.7408184,3.0430622 L71.4185548,3.0430622 C77.5486002,3.0430622 80.3684211,7.02392344 80.3684211,11.7703349 C80.3684211,15.108134 78.8665599,18.2315789 75.6482861,19.7014354 L80.8281745,26.9282297 L73.5027703,26.9282297 L68.9665367,20.5282297 L65.8402136,20.5282297 L65.8402136,26.9282297 L59.7408184,26.9282297 L59.7408184,3.0430622 Z M71.0814023,8.61626794 L65.8402136,8.61626794 L65.8402136,14.9856459 L71.0814023,14.9856459 C73.5334205,14.9856459 74.4529273,13.4851675 74.4529273,11.8315789 C74.4529273,9.99425837 73.5334205,8.61626794 71.0814023,8.61626794 Z M106.947741,26.9282297 L100.603144,26.9282297 L93.890744,3.0430622 L100.419242,3.0430622 L104.281171,17.2822967 L108.756104,3.0430622 L114.211844,3.0430622 L118.686777,17.2516746 L122.548706,3.0430622 L129.107855,3.0430622 L122.395455,26.9282297 L116.050858,26.9282297 L111.483974,13.0564593 L106.947741,26.9282297 Z M164.611963,3.0430622 L176.289699,3.0430622 C182.419745,3.0430622 185.239566,7.02392344 185.239566,11.7703349 C185.239566,15.108134 183.737704,18.2315789 180.519431,19.7014354 L185.699319,26.9282297 L178.373915,26.9282297 L173.837681,20.5282297 L170.711358,20.5282297 L170.711358,26.9282297 L164.611963,26.9282297 L164.611963,3.0430622 Z M175.952547,8.61626794 L170.711358,8.61626794 L170.711358,14.9856459 L175.952547,14.9856459 C178.404565,14.9856459 179.324072,13.4851675 179.324072,11.8315789 C179.324072,9.99425837 178.404565,8.61626794 175.952547,8.61626794 Z M190.054438,26.9282297 L190.054438,3.0430622 L196.184483,3.0430622 L196.184483,11.2803828 L203.601838,3.0430622 L211.509596,3.0430622 L202.069327,13.3014354 L212,26.9282297 L204.398744,26.9282297 L197.808945,17.9253589 L196.184483,19.7320574 L196.184483,26.9282297 L190.054438,26.9282297 Z" id="urwrk" fill-rule="nonzero"></path>
                <path d="M146.066986,28.4019139 C138.224014,28.4019139 131.866029,22.0439289 131.866029,14.2009569 C131.866029,6.35798499 138.224014,1.42108547e-14 146.066986,1.42108547e-14 C153.909958,1.42108547e-14 160.267943,6.35798499 160.267943,14.2009569 C160.267943,22.0439289 153.909958,28.4019139 146.066986,28.4019139 Z M146.066986,21.6355756 C150.101809,21.6355756 153.37268,18.3443833 153.37268,14.284492 C153.37268,10.2246006 150.101809,6.93340839 146.066986,6.93340839 C142.032162,6.93340839 138.761291,10.2246006 138.761291,14.284492 C138.761291,18.3443833 142.032162,21.6355756 146.066986,21.6355756 Z" id="Combined-Shape-Copy"></path>
                <path d="M14.2009569,28.4019139 C6.35798499,28.4019139 -7.46069873e-14,22.0439289 -7.46069873e-14,14.2009569 C-7.46069873e-14,6.35798499 6.35798499,1.42108547e-14 14.2009569,1.42108547e-14 C22.0439289,1.42108547e-14 28.4019139,6.35798499 28.4019139,14.2009569 C28.4019139,22.0439289 22.0439289,28.4019139 14.2009569,28.4019139 Z M14.2009569,21.6355756 C18.2357807,21.6355756 21.5066515,18.3443833 21.5066515,14.284492 C21.5066515,10.2246006 18.2357807,6.93340839 14.2009569,6.93340839 C10.1661332,6.93340839 6.89526233,10.2246006 6.89526233,14.284492 C6.89526233,18.3443833 10.1661332,21.6355756 14.2009569,21.6355756 Z" id="Combined-Shape-Copy-2"></path>
            </g>
        </g>
    </g>
</svg>