<?xml version="1.0" encoding="UTF-8"?>
<svg width="159px" height="40px" viewBox="0 0 159 40" version="1.1" xmlns="http://www.w3.org/2000/svg" xmlns:xlink="http://www.w3.org/1999/xlink">
    <!-- Generator: Sketch 54.1 (76490) - https://sketchapp.com -->
    <title>Group 2</title>
    <desc>Created with Sketch.</desc>
    <defs>
        <path d="M19.7462687,40 C8.84070561,40 -7.46069873e-14,31.045695 -7.46069873e-14,20 C-7.46069873e-14,8.954305 8.84070561,1.42108547e-14 19.7462687,1.42108547e-14 C30.6518317,1.42108547e-14 39.4925373,8.954305 39.4925373,20 C39.4925373,31.045695 30.6518317,40 19.7462687,40 Z M19.7462687,30.4705882 C25.356645,30.4705882 29.9047537,25.8354186 29.9047537,20.1176471 C29.9047537,14.3998755 25.356645,9.76470588 19.7462687,9.76470588 C14.1358923,9.76470588 9.58778363,14.3998755 9.58778363,20.1176471 C9.58778363,25.8354186 14.1358923,30.4705882 19.7462687,30.4705882 Z M52.6567164,29.5238095 C47.4635912,29.5238095 43.2537313,25.2598548 43.2537313,20 C43.2537313,14.7401452 47.4635912,10.4761905 52.6567164,10.4761905 C57.8498417,10.4761905 62.0597015,14.7401452 62.0597015,20 C62.0597015,25.2598548 57.8498417,29.5238095 52.6567164,29.5238095 Z" id="path-1"></path>
    </defs>
    <g id="z" stroke="none" stroke-width="1" fill="none" fill-rule="evenodd">
        <g id="1920/Home1" transform="translate(-338.000000, -236.000000)">
            <g id="Group-2" transform="translate(338.000000, 236.000000)">
                <g id="Logo" transform="translate(61.566320, -0.000000)">
                    <g id="Group" transform="translate(-0.940299, 0.000000)">
                        <g id="Oval-+-Color/Green-Mask" transform="translate(0.940299, 0.000000)">
                            <mask id="mask-2" fill="white">
                                <use xlink:href="#path-1"></use>
                            </mask>
                            <use id="Combined-Shape" fill="#000000" xlink:href="#path-1"></use>
                            <g id="Color/LightGray" mask="url(#mask-2)" fill="#E5E5E5">
                                <g transform="translate(-8.462687, -110.476190)" id="Rectangle">
                                    <rect x="0" y="0" width="256" height="259"></rect>
                                </g>
                            </g>
                        </g>
                    </g>
                </g>
                <g id="Group" transform="translate(0.000000, 4.526935)" fill="#E5E5E5">
                    <path d="M30.7831598,0 C36.6713658,2.36393141e-14 41.4556547,2.93196361e-14 45.1360265,1.70409658e-14 C50.6565843,0 56.424439,2.89617087 56.424439,10.2507074 C56.424439,15.1537317 54.5018208,18.6592513 50.6565843,20.767266 L57.0393843,29.8777727 L47.8231942,29.8777727 L42.2560939,21.8716201 L38.3821541,21.8716201 L38.3821541,29.8777727 L30.7831598,29.8777727 L30.7831598,0 Z M38.2849382,7.04435292 L38.2849382,15.1817951 L44.9848991,15.1817951 C47.2319917,15.1817951 49.0536202,13.3601666 49.0536202,11.113074 C49.0536202,8.8659814 47.2319917,7.04435292 44.9848991,7.04435292 L38.2849382,7.04435292 Z" id="Combined-Shape-Copy-2"></path>
                    <polygon id="Path-2-Copy-2" points="130.430059 29.8777727 138.23767 29.8777727 138.23767 13.1901803 151.788848 29.8777727 158.497057 29.8777727 158.497057 -2.84217094e-14 150.623698 -2.84217094e-14 150.623698 16.7341574 137.12685 -2.84217094e-14 130.430059 -2.84217094e-14"></polygon>
                    <polygon id="Path-4-Copy" points="0 0 0 29.8777727 7.5545458 29.8777727 7.5545458 20.9303286 9.61852722 18.5987769 17.7408447 29.8777727 27.1616116 29.8777727 14.947701 12.9414848 26.5375174 0 16.8146798 0 7.5545458 10.2476935 7.5545458 0"></polygon>
                </g>
            </g>
        </g>
    </g>
</svg>