<?xml version="1.0" encoding="UTF-8" standalone="no"?>
<svg width="708px" height="167px" viewBox="0 0 708 167" version="1.1" xmlns="http://www.w3.org/2000/svg" xmlns:xlink="http://www.w3.org/1999/xlink">
    <!-- Generator: Sketch 50.2 (55047) - http://www.bohemiancoding.com/sketch -->
    <title>Group 3</title>
    <desc>Created with Sketch.</desc>
    <defs></defs>
    <g id="Page-2" stroke="none" stroke-width="1" fill="none" fill-rule="evenodd">
        <g id="Large-Devices:-Desktops---12-col" transform="translate(-158.000000, -4439.000000)">
            <g id="Group-3" transform="translate(163.000000, 4444.000000)">
                <circle id="Oval-5" stroke="#FFFFFF" stroke-width="9" fill="#009FEB" cx="58" cy="58" r="58"></circle>
                <circle id="Oval-5-Copy-2" stroke="#FFFFFF" stroke-width="9" fill="#FF9C00" cx="252" cy="58" r="58"></circle>
                <circle id="Oval-5-Copy-3" stroke="#FFFFFF" stroke-width="9" fill="#81C224" cx="446" cy="58" r="58"></circle>
                <circle id="Oval-5-Copy-4" stroke="#FFFFFF" stroke-width="9" fill="#9B5CA8" cx="640" cy="58" r="58"></circle>
                <path d="M31.0452323,159.838275 L31.0452323,151.38814 L28,151.38814 L28,150.404313 L35.1271394,150.404313 L35.1271394,151.38814 L32.0819071,151.38814 L32.0819071,159.838275 L31.0452323,159.838275 Z M36.902445,151.347709 L36.902445,150.202156 L38.0427873,150.202156 L38.0427873,151.347709 L36.902445,151.347709 Z M36.9672372,159.838275 L36.9672372,152.87062 L37.9650367,152.87062 L37.9650367,159.838275 L36.9672372,159.838275 Z M40.2845966,159.838275 L40.2845966,152.87062 L41.2823961,152.87062 L41.2823961,154.043127 C41.7229829,153.355795 42.3190709,152.722372 43.4464548,152.722372 C44.5349633,152.722372 45.2347188,153.328841 45.597555,154.110512 C46.0770171,153.342318 46.7897311,152.722372 47.9559902,152.722372 C49.498044,152.722372 50.4440098,153.800539 50.4440098,155.525606 L50.4440098,159.838275 L49.4462103,159.838275 L49.4462103,155.768194 C49.4462103,154.420485 48.7982885,153.665768 47.70978,153.665768 C46.699022,153.665768 45.8696822,154.447439 45.8696822,155.822102 L45.8696822,159.838275 L44.8718826,159.838275 L44.8718826,155.74124 C44.8718826,154.433962 44.2110024,153.665768 43.1484108,153.665768 C42.0858191,153.665768 41.2823961,154.58221 41.2823961,155.862534 L41.2823961,159.838275 L40.2845966,159.838275 Z M55.5366748,160 C53.696577,160 52.1933985,158.530997 52.1933985,156.374663 L52.1933985,156.347709 C52.1933985,154.339623 53.5540342,152.722372 55.4070905,152.722372 C57.3897311,152.722372 58.5300733,154.366577 58.5300733,156.401617 C58.5300733,156.536388 58.5300733,156.617251 58.5171149,156.738544 L53.2041565,156.738544 C53.3466993,158.247978 54.3704156,159.097035 55.5625917,159.097035 C56.4826406,159.097035 57.1305623,158.706199 57.6748166,158.113208 L58.2968215,158.692722 C57.6229829,159.474394 56.8066015,160 55.5366748,160 Z M53.2041565,155.97035 L57.5193154,155.97035 C57.4156479,154.703504 56.7158924,153.598383 55.3811736,153.598383 C54.2149144,153.598383 53.3337408,154.609164 53.2041565,155.97035 Z M60.3701711,159.838275 L60.3701711,150 L61.3679707,150 L61.3679707,159.838275 L60.3701711,159.838275 Z M63.7134474,151.347709 L63.7134474,150.202156 L64.8537897,150.202156 L64.8537897,151.347709 L63.7134474,151.347709 Z M63.7782396,159.838275 L63.7782396,152.87062 L64.7760391,152.87062 L64.7760391,159.838275 L63.7782396,159.838275 Z M67.095599,159.838275 L67.095599,152.87062 L68.0933985,152.87062 L68.0933985,154.083558 C68.5339853,153.328841 69.2337408,152.722372 70.3870416,152.722372 C72.006846,152.722372 72.9528117,153.854447 72.9528117,155.512129 L72.9528117,159.838275 L71.9550122,159.838275 L71.9550122,155.768194 C71.9550122,154.474394 71.2811736,153.665768 70.101956,153.665768 C68.9486553,153.665768 68.0933985,154.541779 68.0933985,155.849057 L68.0933985,159.838275 L67.095599,159.838275 Z M78.0066015,160 C76.1665037,160 74.6633252,158.530997 74.6633252,156.374663 L74.6633252,156.347709 C74.6633252,154.339623 76.0239609,152.722372 77.8770171,152.722372 C79.8596577,152.722372 81,154.366577 81,156.401617 C81,156.536388 81,156.617251 80.9870416,156.738544 L75.6740831,156.738544 C75.8166259,158.247978 76.8403423,159.097035 78.0325183,159.097035 C78.9525672,159.097035 79.600489,158.706199 80.1447433,158.113208 L80.7667482,158.692722 C80.0929095,159.474394 79.2765281,160 78.0066015,160 Z M75.6740831,155.97035 L79.9892421,155.97035 C79.8855746,154.703504 79.1858191,153.598383 77.8511002,153.598383 C76.6848411,153.598383 75.8036675,154.609164 75.6740831,155.97035 Z" id="Timeline" fill="#9C9C9C"></path>
                <path d="M609.730898,159.955157 C608.282892,159.955157 607.095788,159.457399 606,158.44843 L606.63921,157.668161 C607.591502,158.556054 608.504659,159 609.770034,159 C610.996273,159 611.805069,158.327354 611.805069,157.399103 L611.805069,157.372197 C611.805069,156.497758 611.34849,156 609.430861,155.58296 C607.3306,155.112108 606.365263,154.412556 606.365263,152.865471 L606.365263,152.838565 C606.365263,151.358744 607.630637,150.269058 609.365635,150.269058 C610.696236,150.269058 611.648528,150.659193 612.57473,151.426009 L611.974655,152.246637 C611.126724,151.533632 610.278792,151.224215 609.339545,151.224215 C608.152441,151.224215 607.395826,151.896861 607.395826,152.744395 L607.395826,152.7713 C607.395826,153.659193 607.865449,154.156951 609.874394,154.600897 C611.90943,155.058296 612.848677,155.825112 612.848677,157.264574 L612.848677,157.29148 C612.848677,158.90583 611.544167,159.955157 609.730898,159.955157 Z M617.818859,159.982063 C615.84905,159.982063 614.361908,158.327354 614.361908,156.376682 L614.361908,156.349776 C614.361908,154.38565 615.84905,152.717489 617.818859,152.717489 C619.097279,152.717489 619.89303,153.269058 620.519195,153.955157 L619.853895,154.681614 C619.319046,154.103139 618.718971,153.632287 617.805814,153.632287 C616.436079,153.632287 615.392471,154.829596 615.392471,156.32287 L615.392471,156.349776 C615.392471,157.856502 616.462169,159.053812 617.87104,159.053812 C618.732016,159.053812 619.397316,158.609865 619.932165,158.017937 L620.571375,158.636771 C619.89303,159.41704 619.084234,159.982063 617.818859,159.982063 Z M622.228103,159.820628 L622.228103,150 L623.232575,150 L623.232575,154.076233 C623.676109,153.32287 624.380544,152.717489 625.541558,152.717489 C627.172195,152.717489 628.124488,153.847534 628.124488,155.502242 L628.124488,159.820628 L627.120015,159.820628 L627.120015,155.757848 C627.120015,154.466368 626.44167,153.659193 625.254566,153.659193 C624.093552,153.659193 623.232575,154.533632 623.232575,155.838565 L623.232575,159.820628 L622.228103,159.820628 Z M633.212076,159.982063 C631.359672,159.982063 629.846441,158.515695 629.846441,156.363229 L629.846441,156.336323 C629.846441,154.331839 631.216176,152.717489 633.081625,152.717489 C635.077525,152.717489 636.225494,154.358744 636.225494,156.390135 C636.225494,156.524664 636.225494,156.605381 636.212449,156.726457 L630.863958,156.726457 C631.007454,158.233184 632.038017,159.080717 633.238166,159.080717 C634.164368,159.080717 634.816623,158.690583 635.364517,158.098655 L635.990682,158.67713 C635.312337,159.457399 634.490496,159.982063 633.212076,159.982063 Z M630.863958,155.959641 L635.207976,155.959641 C635.103615,154.695067 634.39918,153.591928 633.055535,153.591928 C631.881476,153.591928 630.994409,154.600897 630.863958,155.959641 Z M640.817369,159.96861 C639.199776,159.96861 637.595229,158.650224 637.595229,156.363229 L637.595229,156.336323 C637.595229,154.06278 639.199776,152.717489 640.817369,152.717489 C642.069698,152.717489 642.878494,153.41704 643.400298,154.197309 L643.400298,150 L644.404771,150 L644.404771,159.820628 L643.400298,159.820628 L643.400298,158.421525 C642.852404,159.255605 642.056653,159.96861 640.817369,159.96861 Z M641,159.040359 C642.252329,159.040359 643.439433,157.950673 643.439433,156.349776 L643.439433,156.32287 C643.439433,154.721973 642.252329,153.64574 641,153.64574 C639.69549,153.64574 638.625792,154.641256 638.625792,156.32287 L638.625792,156.349776 C638.625792,157.991031 639.734625,159.040359 641,159.040359 Z M649.127097,159.96861 C647.496459,159.96861 646.544167,158.838565 646.544167,157.183857 L646.544167,152.865471 L647.54864,152.865471 L647.54864,156.928251 C647.54864,158.219731 648.226985,159.026906 649.414089,159.026906 C650.562057,159.026906 651.436079,158.152466 651.436079,156.847534 L651.436079,152.865471 L652.427507,152.865471 L652.427507,159.820628 L651.436079,159.820628 L651.436079,158.609865 C650.979501,159.363229 650.28811,159.96861 649.127097,159.96861 Z M654.775624,159.820628 L654.775624,150 L655.780097,150 L655.780097,159.820628 L654.775624,159.820628 Z M658.14126,151.345291 L658.14126,150.201794 L659.289228,150.201794 L659.289228,151.345291 L658.14126,151.345291 Z M658.206485,159.820628 L658.206485,152.865471 L659.210958,152.865471 L659.210958,159.820628 L658.206485,159.820628 Z M661.546031,159.820628 L661.546031,152.865471 L662.550503,152.865471 L662.550503,154.076233 C662.994037,153.32287 663.698472,152.717489 664.859486,152.717489 C666.490123,152.717489 667.442415,153.847534 667.442415,155.502242 L667.442415,159.820628 L666.437943,159.820628 L666.437943,155.757848 C666.437943,154.466368 665.759597,153.659193 664.572493,153.659193 C663.41148,153.659193 662.550503,154.533632 662.550503,155.838565 L662.550503,159.820628 L661.546031,159.820628 Z M672.569139,162 C671.447261,162 670.403653,161.67713 669.503541,161.03139 L669.960119,160.224215 C670.72978,160.802691 671.590757,161.112108 672.556094,161.112108 C674.043235,161.112108 675.008572,160.264574 675.008572,158.636771 L675.008572,157.816143 C674.421543,158.623318 673.599702,159.282511 672.360417,159.282511 C670.742825,159.282511 669.190458,158.03139 669.190458,156.026906 L669.190458,156 C669.190458,153.96861 670.75587,152.717489 672.360417,152.717489 C673.625792,152.717489 674.447633,153.363229 674.995527,154.116592 L674.995527,152.865471 L676,152.865471 L676,158.609865 C676,159.686099 675.686918,160.506726 675.139023,161.071749 C674.538949,161.690583 673.638837,162 672.569139,162 Z M672.556094,158.367713 C673.834514,158.367713 675.034663,157.412556 675.034663,156.013453 L675.034663,155.986547 C675.034663,154.560538 673.834514,153.632287 672.556094,153.632287 C671.277674,153.632287 670.221021,154.547085 670.221021,155.973094 L670.221021,156 C670.221021,157.399103 671.303764,158.367713 672.556094,158.367713 Z" id="Scheduling" fill="#9C9C9C"></path>
                <path d="M400.59567,159 C397.950869,159 396,157.031637 396,154.543329 L396,154.518569 C396,152.0674 397.937775,150.037139 400.634949,150.037139 C402.29777,150.037139 403.292844,150.594223 404.20936,151.411279 L403.502333,152.129298 C402.729842,151.436039 401.865699,150.940853 400.621856,150.940853 C398.592429,150.940853 397.073632,152.500688 397.073632,154.49381 L397.073632,154.518569 C397.073632,156.524072 398.605522,158.096286 400.621856,158.096286 C401.878792,158.096286 402.703656,157.638239 403.580892,156.845942 L404.261732,157.477304 C403.305937,158.393398 402.258491,159 400.59567,159 Z M408.988333,159 C406.958906,159 405.479388,157.489684 405.479388,155.682256 L405.479388,155.657497 C405.479388,153.850069 406.971999,152.314993 409.014519,152.314993 C411.043946,152.314993 412.536557,153.825309 412.536557,155.632737 L412.536557,155.657497 C412.536557,157.464924 411.030853,159 408.988333,159 Z M409.014519,158.145805 C410.480944,158.145805 411.502204,157.031637 411.502204,155.682256 L411.502204,155.657497 C411.502204,154.283356 410.415478,153.156809 408.988333,153.156809 C407.521908,153.156809 406.513741,154.283356 406.513741,155.632737 L406.513741,155.657497 C406.513741,157.031637 407.587374,158.145805 409.014519,158.145805 Z M414.356495,158.851444 L414.356495,152.451169 L415.364662,152.451169 L415.364662,153.528198 C415.809826,152.896836 416.412108,152.314993 417.551206,152.314993 C418.651024,152.314993 419.35805,152.872077 419.724656,153.590096 C420.2091,152.884457 420.92922,152.314993 422.107597,152.314993 C423.665673,152.314993 424.621467,153.305365 424.621467,154.889959 L424.621467,158.851444 L423.6133,158.851444 L423.6133,155.112792 C423.6133,153.874828 422.958647,153.181568 421.858828,153.181568 C420.837568,153.181568 419.999611,153.899587 419.999611,155.162311 L419.999611,158.851444 L418.991444,158.851444 L418.991444,155.088033 C418.991444,153.887208 418.323697,153.181568 417.250065,153.181568 C416.176432,153.181568 415.364662,154.023384 415.364662,155.19945 L415.364662,158.851444 L414.356495,158.851444 Z M426.808011,158.851444 L426.808011,152.451169 L427.816178,152.451169 L427.816178,153.528198 C428.261343,152.896836 428.863625,152.314993 430.002722,152.314993 C431.102541,152.314993 431.809567,152.872077 432.176173,153.590096 C432.660617,152.884457 433.380736,152.314993 434.559113,152.314993 C436.11719,152.314993 437.072984,153.305365 437.072984,154.889959 L437.072984,158.851444 L436.064817,158.851444 L436.064817,155.112792 C436.064817,153.874828 435.410163,153.181568 434.310345,153.181568 C433.289085,153.181568 432.451128,153.899587 432.451128,155.162311 L432.451128,158.851444 L431.442961,158.851444 L431.442961,155.088033 C431.442961,153.887208 430.775214,153.181568 429.701582,153.181568 C428.627949,153.181568 427.816178,154.023384 427.816178,155.19945 L427.816178,158.851444 L426.808011,158.851444 Z M441.747213,158.98762 C440.110578,158.98762 439.154784,157.94773 439.154784,156.425034 L439.154784,152.451169 L440.16295,152.451169 L440.16295,156.189821 C440.16295,157.378267 440.843791,158.121045 442.035261,158.121045 C443.187451,158.121045 444.064688,157.316369 444.064688,156.115543 L444.064688,152.451169 L445.059761,152.451169 L445.059761,158.851444 L444.064688,158.851444 L444.064688,157.737276 C443.60643,158.430536 442.912497,158.98762 441.747213,158.98762 Z M447.324864,158.851444 L447.324864,152.451169 L448.333031,152.451169 L448.333031,153.565337 C448.778195,152.872077 449.485222,152.314993 450.650506,152.314993 C452.28714,152.314993 453.242935,153.354883 453.242935,154.877579 L453.242935,158.851444 L452.234768,158.851444 L452.234768,155.112792 C452.234768,153.924347 451.553928,153.181568 450.362458,153.181568 C449.197174,153.181568 448.333031,153.986245 448.333031,155.18707 L448.333031,158.851444 L447.324864,158.851444 Z M455.416386,151.05227 L455.416386,150 L456.568577,150 L456.568577,151.05227 L455.416386,151.05227 Z M455.481851,158.851444 L455.481851,152.451169 L456.490018,152.451169 L456.490018,158.851444 L455.481851,158.851444 Z M461.884366,159 C459.907311,159 458.414701,157.477304 458.414701,155.682256 L458.414701,155.657497 C458.414701,153.850069 459.907311,152.314993 461.884366,152.314993 C463.167488,152.314993 463.966165,152.822558 464.594633,153.45392 L463.926886,154.122421 C463.39007,153.590096 462.787788,153.156809 461.871273,153.156809 C460.4965,153.156809 459.449054,154.258597 459.449054,155.632737 L459.449054,155.657497 C459.449054,157.044017 460.522686,158.145805 461.936738,158.145805 C462.800882,158.145805 463.468628,157.737276 464.005445,157.192572 L464.647005,157.762036 C463.966165,158.480055 463.154395,159 461.884366,159 Z M468.32616,158.98762 C467.069225,158.98762 465.799196,158.30674 465.799196,156.994498 L465.799196,156.969739 C465.799196,155.620358 466.977573,154.902338 468.692766,154.902338 C469.55691,154.902338 470.172284,155.013755 470.774566,155.174691 L470.774566,154.951857 C470.774566,153.80055 470.02826,153.206327 468.758232,153.206327 C467.959554,153.206327 467.331086,153.404402 466.702619,153.676754 L466.401478,152.896836 C467.147783,152.574966 467.880996,152.364512 468.862976,152.364512 C469.818771,152.364512 470.551983,152.599725 471.04952,153.070151 C471.507778,153.503439 471.743453,154.122421 471.743453,154.939477 L471.743453,158.851444 L470.774566,158.851444 L470.774566,157.885832 C470.303215,158.467675 469.51763,158.98762 468.32616,158.98762 Z M468.522556,158.232462 C469.766399,158.232462 470.787659,157.514443 470.787659,156.499312 L470.787659,155.88033 C470.290122,155.744154 469.622375,155.607978 468.797511,155.607978 C467.527482,155.607978 466.820456,156.127923 466.820456,156.9326 L466.820456,156.957359 C466.820456,157.762036 467.606041,158.232462 468.522556,158.232462 Z M476.155821,158.962861 C475.069095,158.962861 474.244231,158.455296 474.244231,157.155433 L474.244231,153.292985 L473.30153,153.292985 L473.30153,152.451169 L474.244231,152.451169 L474.244231,150.519945 L475.252398,150.519945 L475.252398,152.451169 L477.399663,152.451169 L477.399663,153.292985 L475.252398,153.292985 L475.252398,157.031637 C475.252398,157.811554 475.710656,158.096286 476.391496,158.096286 C476.731916,158.096286 477.019964,158.034388 477.373477,157.873453 L477.373477,158.690509 C477.019964,158.863824 476.640264,158.962861 476.155821,158.962861 Z M479.206508,151.05227 L479.206508,150 L480.358698,150 L480.358698,151.05227 L479.206508,151.05227 Z M479.271973,158.851444 L479.271973,152.451169 L480.28014,152.451169 L480.28014,158.851444 L479.271973,158.851444 Z M485.713767,159 C483.68434,159 482.204822,157.489684 482.204822,155.682256 L482.204822,155.657497 C482.204822,153.850069 483.697433,152.314993 485.739953,152.314993 C487.76938,152.314993 489.261991,153.825309 489.261991,155.632737 L489.261991,155.657497 C489.261991,157.464924 487.756287,159 485.713767,159 Z M485.739953,158.145805 C487.206378,158.145805 488.227638,157.031637 488.227638,155.682256 L488.227638,155.657497 C488.227638,154.283356 487.140913,153.156809 485.713767,153.156809 C484.247342,153.156809 483.239176,154.283356 483.239176,155.632737 L483.239176,155.657497 C483.239176,157.031637 484.312808,158.145805 485.739953,158.145805 Z M491.081929,158.851444 L491.081929,152.451169 L492.090096,152.451169 L492.090096,153.565337 C492.535261,152.872077 493.242287,152.314993 494.407571,152.314993 C496.044205,152.314993 497,153.354883 497,154.877579 L497,158.851444 L495.991833,158.851444 L495.991833,155.112792 C495.991833,153.924347 495.310993,153.181568 494.119523,153.181568 C492.954239,153.181568 492.090096,153.986245 492.090096,155.18707 L492.090096,158.851444 L491.081929,158.851444 Z" id="Communication" fill="#9C9C9C"></path>
                <path d="M222,158.932715 L222,150 L225.414692,150 C227.473934,150 228.829384,151.071926 228.829384,152.832947 L228.829384,152.858469 C228.829384,154.785383 227.187204,155.780742 225.245261,155.780742 L223.029621,155.780742 L223.029621,158.932715 L222,158.932715 Z M223.029621,154.861949 L225.28436,154.861949 C226.796209,154.861949 227.78673,154.070766 227.78673,152.896752 L227.78673,152.87123 C227.78673,151.595128 226.809242,150.931555 225.336493,150.931555 L223.029621,150.931555 L223.029621,154.861949 Z M230.53673,158.932715 L230.53673,152.335267 L231.540284,152.335267 L231.540284,154.058005 C232.035545,152.960557 233.013033,152.169374 234.290284,152.220418 L234.290284,153.279582 L234.212085,153.279582 C232.739336,153.279582 231.540284,154.313225 231.540284,156.303944 L231.540284,158.932715 L230.53673,158.932715 Z M238.890995,159.085847 C236.870853,159.085847 235.398104,157.529002 235.398104,155.665893 L235.398104,155.640371 C235.398104,153.777262 236.883886,152.194896 238.917062,152.194896 C240.937204,152.194896 242.422986,153.75174 242.422986,155.614849 L242.422986,155.640371 C242.422986,157.50348 240.924171,159.085847 238.890995,159.085847 Z M238.917062,158.205336 C240.376777,158.205336 241.393365,157.056845 241.393365,155.665893 L241.393365,155.640371 C241.393365,154.223898 240.311611,153.062645 238.890995,153.062645 C237.43128,153.062645 236.427725,154.223898 236.427725,155.614849 L236.427725,155.640371 C236.427725,157.056845 237.496445,158.205336 238.917062,158.205336 Z M247.219194,161 C246.098341,161 245.055687,160.693735 244.156398,160.081206 L244.612559,159.315545 C245.381517,159.864269 246.241706,160.157773 247.206161,160.157773 C248.691943,160.157773 249.656398,159.353828 249.656398,157.809745 L249.656398,157.031323 C249.069905,157.796984 248.248815,158.422274 247.010664,158.422274 C245.39455,158.422274 243.843602,157.235499 243.843602,155.334107 L243.843602,155.308585 C243.843602,153.381671 245.407583,152.194896 247.010664,152.194896 C248.274882,152.194896 249.095972,152.807425 249.643365,153.522042 L249.643365,152.335267 L250.646919,152.335267 L250.646919,157.784223 C250.646919,158.805104 250.334123,159.583527 249.78673,160.11949 C249.187204,160.706497 248.287915,161 247.219194,161 Z M247.206161,157.554524 C248.483412,157.554524 249.682464,156.648492 249.682464,155.321346 L249.682464,155.295824 C249.682464,153.943155 248.483412,153.062645 247.206161,153.062645 C245.92891,153.062645 244.873223,153.930394 244.873223,155.283063 L244.873223,155.308585 C244.873223,156.635731 245.954976,157.554524 247.206161,157.554524 Z M252.888626,158.932715 L252.888626,152.335267 L253.89218,152.335267 L253.89218,154.058005 C254.387441,152.960557 255.364929,152.169374 256.64218,152.220418 L256.64218,153.279582 L256.563981,153.279582 C255.091232,153.279582 253.89218,154.313225 253.89218,156.303944 L253.89218,158.932715 L252.888626,158.932715 Z M261.112559,159.085847 C259.261848,159.085847 257.75,157.694896 257.75,155.653132 L257.75,155.62761 C257.75,153.726218 259.118483,152.194896 260.982227,152.194896 C262.976303,152.194896 264.123223,153.75174 264.123223,155.678654 C264.123223,155.806265 264.123223,155.882831 264.11019,155.99768 L258.766588,155.99768 C258.909953,157.426914 259.939573,158.230858 261.138626,158.230858 C262.063981,158.230858 262.71564,157.860789 263.263033,157.299304 L263.888626,157.848028 C263.2109,158.588167 262.38981,159.085847 261.112559,159.085847 Z M258.766588,155.270302 L263.106635,155.270302 C263.00237,154.070766 262.298578,153.024362 260.956161,153.024362 C259.783175,153.024362 258.896919,153.981439 258.766588,155.270302 Z M268.111374,159.060325 C267.146919,159.060325 266.078199,158.690255 265.322275,158.090487 L265.830569,157.388631 C266.560427,157.924594 267.368483,158.230858 268.163507,158.230858 C268.971564,158.230858 269.558057,157.822506 269.558057,157.184455 L269.558057,157.158933 C269.558057,156.49536 268.763033,156.240139 267.876777,155.99768 C266.82109,155.704176 265.648104,155.346868 265.648104,154.134571 L265.648104,154.109049 C265.648104,152.973318 266.612559,152.220418 267.941943,152.220418 C268.763033,152.220418 269.675355,152.50116 270.366114,152.947796 L269.909953,153.687935 C269.28436,153.292343 268.567536,153.049884 267.915877,153.049884 C267.120853,153.049884 266.612559,153.458237 266.612559,154.006961 L266.612559,154.032483 C266.612559,154.657773 267.446682,154.900232 268.345972,155.168213 C269.388626,155.474478 270.509479,155.87007 270.509479,157.056845 L270.509479,157.082367 C270.509479,158.332947 269.453791,159.060325 268.111374,159.060325 Z M274.601896,159.060325 C273.637441,159.060325 272.56872,158.690255 271.812796,158.090487 L272.32109,157.388631 C273.050948,157.924594 273.859005,158.230858 274.654028,158.230858 C275.462085,158.230858 276.048578,157.822506 276.048578,157.184455 L276.048578,157.158933 C276.048578,156.49536 275.253555,156.240139 274.367299,155.99768 C273.311611,155.704176 272.138626,155.346868 272.138626,154.134571 L272.138626,154.109049 C272.138626,152.973318 273.103081,152.220418 274.432464,152.220418 C275.253555,152.220418 276.165877,152.50116 276.856635,152.947796 L276.400474,153.687935 C275.774882,153.292343 275.058057,153.049884 274.406398,153.049884 C273.611374,153.049884 273.103081,153.458237 273.103081,154.006961 L273.103081,154.032483 C273.103081,154.657773 273.937204,154.900232 274.836493,155.168213 C275.879147,155.474478 277,155.87007 277,157.056845 L277,157.082367 C277,158.332947 275.944313,159.060325 274.601896,159.060325 Z" id="Progress" fill="#9C9C9C"></path>
                <g id="icons8-overtime" transform="translate(620.000000, 36.000000)" fill="#FFFFFF" fill-rule="nonzero">
                    <path d="M9.93846154,0 C8.15264452,0 6.4741588,0.470674119 5.02403846,1.29151119 L5.60180274,2.30562063 C6.88293298,1.57800869 8.35817308,1.1641791 9.93846154,1.1641791 C14.7889423,1.1641791 18.7076923,5.06599813 18.7076923,9.89552239 C18.7076923,14.7250466 14.7889423,18.6268657 9.93846154,18.6268657 C5.08798077,18.6268657 1.16923077,14.7250466 1.16923077,9.89552239 C1.16923077,8.22883643 1.64194726,6.67811319 2.45492803,5.35476927 L3.50769231,6.40298507 L4.09230769,2.91044776 L0.584615385,3.49253731 L1.60769231,4.51119403 C0.59375,6.06191727 0,7.91050621 0,9.89552239 C0,12.628615 1.11899068,15.1047693 2.92307692,16.8987873 L2.92307692,36.0895522 C2.92307692,37.6902985 4.23846154,39 5.84615385,39 L35.0769231,39 C36.6846154,39 38,37.6902985 38,36.0895522 L38,6.98507463 C38,5.38432836 36.6846154,4.07462687 35.0769231,4.07462687 L30.9846154,4.07462687 L30.9846154,2.32835821 C30.9846154,1.69169776 30.4548077,1.1641791 29.8153846,1.1641791 L28.6461538,1.1641791 C28.0067308,1.1641791 27.4769231,1.69169776 27.4769231,2.32835821 L27.4769231,4.07462687 L17.9586538,4.07462687 C16.15,1.60984142 13.2337742,0 9.93846154,0 Z M28.6461538,2.32835821 L29.8153846,2.32835821 L29.8153846,6.98507463 L28.6461538,6.98507463 L28.6461538,2.32835821 Z M12.9597357,4.33383891 L10.0115385,8.73361693 C9.98870222,8.73361693 9.96358188,8.73134328 9.93846154,8.73134328 C9.29218735,8.73134328 8.76923077,9.25204043 8.76923077,9.89552239 C8.76923077,10.5390043 9.29218735,11.0597015 9.93846154,11.0597015 C10.0412258,11.0597015 10.1417066,11.0460591 10.2399038,11.0210473 L13.0328126,13.7996151 L13.859495,12.9765043 L11.0665868,10.1956623 C11.0939907,10.0978893 11.1076923,9.99784267 11.1076923,9.89552239 C11.1076923,9.71589304 11.0665868,9.54081157 10.9866588,9.37937252 L13.932572,4.97959451 L12.9597357,4.33383891 Z M18.7031253,5.23880597 L27.4769231,5.23880597 L27.4769231,6.98507463 C27.4769231,7.62173507 28.0067308,8.14925373 28.6461538,8.14925373 L29.8153846,8.14925373 C30.4548077,8.14925373 30.9846154,7.62173507 30.9846154,6.98507463 L30.9846154,5.23880597 L35.0769231,5.23880597 C36.0520434,5.23880597 36.8307692,6.0141673 36.8307692,6.98507463 L36.8307692,11.0597015 L19.8015626,11.0597015 C19.8472357,10.6777052 19.8769231,10.2911617 19.8769231,9.89552239 C19.8769231,8.21291978 19.4498797,6.62809016 18.7031253,5.23880597 Z M19.5868989,12.2238806 L36.8307692,12.2238806 L36.8307692,36.0895522 C36.8307692,37.0604596 36.0520434,37.8358209 35.0769231,37.8358209 L5.84615385,37.8358209 C4.87103351,37.8358209 4.09230769,37.0604596 4.09230769,36.0895522 L4.09230769,17.8810634 C5.73425495,19.0770759 7.75072145,19.7910448 9.93846154,19.7910448 C14.6131011,19.7910448 18.5318511,16.5599931 19.5868989,12.2238806 Z M20.4615385,16.880597 C20.1395434,16.880597 19.8769231,17.1420827 19.8769231,17.4626866 C19.8769231,17.7832904 20.1395434,18.0447761 20.4615385,18.0447761 C20.7835335,18.0447761 21.0461538,17.7832904 21.0461538,17.4626866 C21.0461538,17.1420827 20.7835335,16.880597 20.4615385,16.880597 Z M22.8,16.880597 C22.478005,16.880597 22.2153846,17.1420827 22.2153846,17.4626866 C22.2153846,17.7832904 22.478005,18.0447761 22.8,18.0447761 C23.121995,18.0447761 23.3846154,17.7832904 23.3846154,17.4626866 C23.3846154,17.1420827 23.121995,16.880597 22.8,16.880597 Z M25.1384615,16.880597 C24.8164665,16.880597 24.5538462,17.1420827 24.5538462,17.4626866 C24.5538462,17.7832904 24.8164665,18.0447761 25.1384615,18.0447761 C25.4604566,18.0447761 25.7230769,17.7832904 25.7230769,17.4626866 C25.7230769,17.1420827 25.4604566,16.880597 25.1384615,16.880597 Z M27.4769231,16.880597 C27.154928,16.880597 26.8923077,17.1420827 26.8923077,17.4626866 C26.8923077,17.7832904 27.154928,18.0447761 27.4769231,18.0447761 C27.7989181,18.0447761 28.0615385,17.7832904 28.0615385,17.4626866 C28.0615385,17.1420827 27.7989181,16.880597 27.4769231,16.880597 Z M29.8153846,16.880597 C29.4933896,16.880597 29.2307692,17.1420827 29.2307692,17.4626866 C29.2307692,17.7832904 29.4933896,18.0447761 29.8153846,18.0447761 C30.1373797,18.0447761 30.4,17.7832904 30.4,17.4626866 C30.4,17.1420827 30.1373797,16.880597 29.8153846,16.880597 Z M20.4615385,19.2089552 C20.1395434,19.2089552 19.8769231,19.4704409 19.8769231,19.7910448 C19.8769231,20.1116486 20.1395434,20.3731343 20.4615385,20.3731343 C20.7835335,20.3731343 21.0461538,20.1116486 21.0461538,19.7910448 C21.0461538,19.4704409 20.7835335,19.2089552 20.4615385,19.2089552 Z M25.1384615,19.2089552 C24.8164665,19.2089552 24.5538462,19.4704409 24.5538462,19.7910448 C24.5538462,20.1116486 24.8164665,20.3731343 25.1384615,20.3731343 C25.4604566,20.3731343 25.7230769,20.1116486 25.7230769,19.7910448 C25.7230769,19.4704409 25.4604566,19.2089552 25.1384615,19.2089552 Z M29.8153846,19.2089552 C29.4933896,19.2089552 29.2307692,19.4704409 29.2307692,19.7910448 C29.2307692,20.1116486 29.4933896,20.3731343 29.8153846,20.3731343 C30.1373797,20.3731343 30.4,20.1116486 30.4,19.7910448 C30.4,19.4704409 30.1373797,19.2089552 29.8153846,19.2089552 Z M11.1076923,21.5373134 C10.7856973,21.5373134 10.5230769,21.7987991 10.5230769,22.119403 C10.5230769,22.4400069 10.7856973,22.7014925 11.1076923,22.7014925 C11.4296874,22.7014925 11.6923077,22.4400069 11.6923077,22.119403 C11.6923077,21.7987991 11.4296874,21.5373134 11.1076923,21.5373134 Z M13.4461538,21.5373134 C13.1241588,21.5373134 12.8615385,21.7987991 12.8615385,22.119403 C12.8615385,22.4400069 13.1241588,22.7014925 13.4461538,22.7014925 C13.7681489,22.7014925 14.0307692,22.4400069 14.0307692,22.119403 C14.0307692,21.7987991 13.7681489,21.5373134 13.4461538,21.5373134 Z M15.7846154,21.5373134 C15.4626203,21.5373134 15.2,21.7987991 15.2,22.119403 C15.2,22.4400069 15.4626203,22.7014925 15.7846154,22.7014925 C16.1066104,22.7014925 16.3692308,22.4400069 16.3692308,22.119403 C16.3692308,21.7987991 16.1066104,21.5373134 15.7846154,21.5373134 Z M18.1230769,21.5373134 C17.8010819,21.5373134 17.5384615,21.7987991 17.5384615,22.119403 C17.5384615,22.4400069 17.8010819,22.7014925 18.1230769,22.7014925 C18.445072,22.7014925 18.7076923,22.4400069 18.7076923,22.119403 C18.7076923,21.7987991 18.445072,21.5373134 18.1230769,21.5373134 Z M20.4615385,21.5373134 C20.1395434,21.5373134 19.8769231,21.7987991 19.8769231,22.119403 C19.8769231,22.4400069 20.1395434,22.7014925 20.4615385,22.7014925 C20.7835335,22.7014925 21.0461538,22.4400069 21.0461538,22.119403 C21.0461538,21.7987991 20.7835335,21.5373134 20.4615385,21.5373134 Z M22.8,21.5373134 C22.478005,21.5373134 22.2153846,21.7987991 22.2153846,22.119403 C22.2153846,22.4400069 22.478005,22.7014925 22.8,22.7014925 C23.121995,22.7014925 23.3846154,22.4400069 23.3846154,22.119403 C23.3846154,21.7987991 23.121995,21.5373134 22.8,21.5373134 Z M25.1384615,21.5373134 C24.8164665,21.5373134 24.5538462,21.7987991 24.5538462,22.119403 C24.5538462,22.4400069 24.8164665,22.7014925 25.1384615,22.7014925 C25.4604566,22.7014925 25.7230769,22.4400069 25.7230769,22.119403 C25.7230769,21.7987991 25.4604566,21.5373134 25.1384615,21.5373134 Z M27.4769231,21.5373134 C27.154928,21.5373134 26.8923077,21.7987991 26.8923077,22.119403 C26.8923077,22.4400069 27.154928,22.7014925 27.4769231,22.7014925 C27.7989181,22.7014925 28.0615385,22.4400069 28.0615385,22.119403 C28.0615385,21.7987991 27.7989181,21.5373134 27.4769231,21.5373134 Z M29.8153846,21.5373134 C29.4933896,21.5373134 29.2307692,21.7987991 29.2307692,22.119403 C29.2307692,22.4400069 29.4933896,22.7014925 29.8153846,22.7014925 C30.1373797,22.7014925 30.4,22.4400069 30.4,22.119403 C30.4,21.7987991 30.1373797,21.5373134 29.8153846,21.5373134 Z M11.1076923,23.8656716 C10.7856973,23.8656716 10.5230769,24.1271573 10.5230769,24.4477612 C10.5230769,24.7683651 10.7856973,25.0298507 11.1076923,25.0298507 C11.4296874,25.0298507 11.6923077,24.7683651 11.6923077,24.4477612 C11.6923077,24.1271573 11.4296874,23.8656716 11.1076923,23.8656716 Z M15.7846154,23.8656716 C15.4626203,23.8656716 15.2,24.1271573 15.2,24.4477612 C15.2,24.7683651 15.4626203,25.0298507 15.7846154,25.0298507 C16.1066104,25.0298507 16.3692308,24.7683651 16.3692308,24.4477612 C16.3692308,24.1271573 16.1066104,23.8656716 15.7846154,23.8656716 Z M20.4615385,23.8656716 C20.1395434,23.8656716 19.8769231,24.1271573 19.8769231,24.4477612 C19.8769231,24.7683651 20.1395434,25.0298507 20.4615385,25.0298507 C20.7835335,25.0298507 21.0461538,24.7683651 21.0461538,24.4477612 C21.0461538,24.1271573 20.7835335,23.8656716 20.4615385,23.8656716 Z M25.1384615,23.8656716 C24.8164665,23.8656716 24.5538462,24.1271573 24.5538462,24.4477612 C24.5538462,24.7683651 24.8164665,25.0298507 25.1384615,25.0298507 C25.4604566,25.0298507 25.7230769,24.7683651 25.7230769,24.4477612 C25.7230769,24.1271573 25.4604566,23.8656716 25.1384615,23.8656716 Z M29.8153846,23.8656716 C29.4933896,23.8656716 29.2307692,24.1271573 29.2307692,24.4477612 C29.2307692,24.7683651 29.4933896,25.0298507 29.8153846,25.0298507 C30.1373797,25.0298507 30.4,24.7683651 30.4,24.4477612 C30.4,24.1271573 30.1373797,23.8656716 29.8153846,23.8656716 Z M11.1076923,26.1940299 C10.7856973,26.1940299 10.5230769,26.4555155 10.5230769,26.7761194 C10.5230769,27.0967233 10.7856973,27.358209 11.1076923,27.358209 C11.4296874,27.358209 11.6923077,27.0967233 11.6923077,26.7761194 C11.6923077,26.4555155 11.4296874,26.1940299 11.1076923,26.1940299 Z M13.4461538,26.1940299 C13.1241588,26.1940299 12.8615385,26.4555155 12.8615385,26.7761194 C12.8615385,27.0967233 13.1241588,27.358209 13.4461538,27.358209 C13.7681489,27.358209 14.0307692,27.0967233 14.0307692,26.7761194 C14.0307692,26.4555155 13.7681489,26.1940299 13.4461538,26.1940299 Z M15.7846154,26.1940299 C15.4626203,26.1940299 15.2,26.4555155 15.2,26.7761194 C15.2,27.0967233 15.4626203,27.358209 15.7846154,27.358209 C16.1066104,27.358209 16.3692308,27.0967233 16.3692308,26.7761194 C16.3692308,26.4555155 16.1066104,26.1940299 15.7846154,26.1940299 Z M18.1230769,26.1940299 C17.8010819,26.1940299 17.5384615,26.4555155 17.5384615,26.7761194 C17.5384615,27.0967233 17.8010819,27.358209 18.1230769,27.358209 C18.445072,27.358209 18.7076923,27.0967233 18.7076923,26.7761194 C18.7076923,26.4555155 18.445072,26.1940299 18.1230769,26.1940299 Z M20.4615385,26.1940299 C20.1395434,26.1940299 19.8769231,26.4555155 19.8769231,26.7761194 C19.8769231,27.0967233 20.1395434,27.358209 20.4615385,27.358209 C20.7835335,27.358209 21.0461538,27.0967233 21.0461538,26.7761194 C21.0461538,26.4555155 20.7835335,26.1940299 20.4615385,26.1940299 Z M22.8,26.1940299 C22.478005,26.1940299 22.2153846,26.4555155 22.2153846,26.7761194 C22.2153846,27.0967233 22.478005,27.358209 22.8,27.358209 C23.121995,27.358209 23.3846154,27.0967233 23.3846154,26.7761194 C23.3846154,26.4555155 23.121995,26.1940299 22.8,26.1940299 Z M25.1384615,26.1940299 C24.8164665,26.1940299 24.5538462,26.4555155 24.5538462,26.7761194 C24.5538462,27.0967233 24.8164665,27.358209 25.1384615,27.358209 C25.4604566,27.358209 25.7230769,27.0967233 25.7230769,26.7761194 C25.7230769,26.4555155 25.4604566,26.1940299 25.1384615,26.1940299 Z M27.4769231,26.1940299 C27.154928,26.1940299 26.8923077,26.4555155 26.8923077,26.7761194 C26.8923077,27.0967233 27.154928,27.358209 27.4769231,27.358209 C27.7989181,27.358209 28.0615385,27.0967233 28.0615385,26.7761194 C28.0615385,26.4555155 27.7989181,26.1940299 27.4769231,26.1940299 Z M29.8153846,26.1940299 C29.4933896,26.1940299 29.2307692,26.4555155 29.2307692,26.7761194 C29.2307692,27.0967233 29.4933896,27.358209 29.8153846,27.358209 C30.1373797,27.358209 30.4,27.0967233 30.4,26.7761194 C30.4,26.4555155 30.1373797,26.1940299 29.8153846,26.1940299 Z M11.1076923,28.5223881 C10.7856973,28.5223881 10.5230769,28.7838737 10.5230769,29.1044776 C10.5230769,29.4250815 10.7856973,29.6865672 11.1076923,29.6865672 C11.4296874,29.6865672 11.6923077,29.4250815 11.6923077,29.1044776 C11.6923077,28.7838737 11.4296874,28.5223881 11.1076923,28.5223881 Z M15.7846154,28.5223881 C15.4626203,28.5223881 15.2,28.7838737 15.2,29.1044776 C15.2,29.4250815 15.4626203,29.6865672 15.7846154,29.6865672 C16.1066104,29.6865672 16.3692308,29.4250815 16.3692308,29.1044776 C16.3692308,28.7838737 16.1066104,28.5223881 15.7846154,28.5223881 Z M20.4615385,28.5223881 C20.1395434,28.5223881 19.8769231,28.7838737 19.8769231,29.1044776 C19.8769231,29.4250815 20.1395434,29.6865672 20.4615385,29.6865672 C20.7835335,29.6865672 21.0461538,29.4250815 21.0461538,29.1044776 C21.0461538,28.7838737 20.7835335,28.5223881 20.4615385,28.5223881 Z M25.1384615,28.5223881 C24.8164665,28.5223881 24.5538462,28.7838737 24.5538462,29.1044776 C24.5538462,29.4250815 24.8164665,29.6865672 25.1384615,29.6865672 C25.4604566,29.6865672 25.7230769,29.4250815 25.7230769,29.1044776 C25.7230769,28.7838737 25.4604566,28.5223881 25.1384615,28.5223881 Z M29.8153846,28.5223881 C29.4933896,28.5223881 29.2307692,28.7838737 29.2307692,29.1044776 C29.2307692,29.4250815 29.4933896,29.6865672 29.8153846,29.6865672 C30.1373797,29.6865672 30.4,29.4250815 30.4,29.1044776 C30.4,28.7838737 30.1373797,28.5223881 29.8153846,28.5223881 Z M11.1076923,30.8507463 C10.7856973,30.8507463 10.5230769,31.112232 10.5230769,31.4328358 C10.5230769,31.7534397 10.7856973,32.0149254 11.1076923,32.0149254 C11.4296874,32.0149254 11.6923077,31.7534397 11.6923077,31.4328358 C11.6923077,31.112232 11.4296874,30.8507463 11.1076923,30.8507463 Z M13.4461538,30.8507463 C13.1241588,30.8507463 12.8615385,31.112232 12.8615385,31.4328358 C12.8615385,31.7534397 13.1241588,32.0149254 13.4461538,32.0149254 C13.7681489,32.0149254 14.0307692,31.7534397 14.0307692,31.4328358 C14.0307692,31.112232 13.7681489,30.8507463 13.4461538,30.8507463 Z M15.7846154,30.8507463 C15.4626203,30.8507463 15.2,31.112232 15.2,31.4328358 C15.2,31.7534397 15.4626203,32.0149254 15.7846154,32.0149254 C16.1066104,32.0149254 16.3692308,31.7534397 16.3692308,31.4328358 C16.3692308,31.112232 16.1066104,30.8507463 15.7846154,30.8507463 Z M18.1230769,30.8507463 C17.8010819,30.8507463 17.5384615,31.112232 17.5384615,31.4328358 C17.5384615,31.7534397 17.8010819,32.0149254 18.1230769,32.0149254 C18.445072,32.0149254 18.7076923,31.7534397 18.7076923,31.4328358 C18.7076923,31.112232 18.445072,30.8507463 18.1230769,30.8507463 Z M20.4615385,30.8507463 C20.1395434,30.8507463 19.8769231,31.112232 19.8769231,31.4328358 C19.8769231,31.7534397 20.1395434,32.0149254 20.4615385,32.0149254 C20.7835335,32.0149254 21.0461538,31.7534397 21.0461538,31.4328358 C21.0461538,31.112232 20.7835335,30.8507463 20.4615385,30.8507463 Z M22.8,30.8507463 C22.478005,30.8507463 22.2153846,31.112232 22.2153846,31.4328358 C22.2153846,31.7534397 22.478005,32.0149254 22.8,32.0149254 C23.121995,32.0149254 23.3846154,31.7534397 23.3846154,31.4328358 C23.3846154,31.112232 23.121995,30.8507463 22.8,30.8507463 Z M25.1384615,30.8507463 C24.8164665,30.8507463 24.5538462,31.112232 24.5538462,31.4328358 C24.5538462,31.7534397 24.8164665,32.0149254 25.1384615,32.0149254 C25.4604566,32.0149254 25.7230769,31.7534397 25.7230769,31.4328358 C25.7230769,31.112232 25.4604566,30.8507463 25.1384615,30.8507463 Z M27.4769231,30.8507463 C27.154928,30.8507463 26.8923077,31.112232 26.8923077,31.4328358 C26.8923077,31.7534397 27.154928,32.0149254 27.4769231,32.0149254 C27.7989181,32.0149254 28.0615385,31.7534397 28.0615385,31.4328358 C28.0615385,31.112232 27.7989181,30.8507463 27.4769231,30.8507463 Z M29.8153846,30.8507463 C29.4933896,30.8507463 29.2307692,31.112232 29.2307692,31.4328358 C29.2307692,31.7534397 29.4933896,32.0149254 29.8153846,32.0149254 C30.1373797,32.0149254 30.4,31.7534397 30.4,31.4328358 C30.4,31.112232 30.1373797,30.8507463 29.8153846,30.8507463 Z" id="Shape"></path>
                </g>
                <g id="icons8-activity_feed_2" transform="translate(38.000000, 42.000000)" fill="#FFFFFF" fill-rule="nonzero">
                    <path d="M2.01923077,0 C0.907076154,0 0,0.88945296 0,1.98 L0,31.02 C0,32.110547 0.907076154,33 2.01923077,33 L32.9807692,33 C34.0929238,33 35,32.110547 35,31.02 L35,1.98 C35,0.88945296 34.0929238,0 32.9807692,0 L2.01923077,0 Z M2.01923077,1.32 L32.9807692,1.32 C33.3514872,1.32 33.6538462,1.61648454 33.6538462,1.98 L33.6538462,31.02 C33.6538462,31.3835155 33.3514872,31.68 32.9807692,31.68 L2.01923077,31.68 C1.64851279,31.68 1.34615385,31.3835155 1.34615385,31.02 L1.34615385,1.98 C1.34615385,1.61648454 1.64851279,1.32 2.01923077,1.32 Z M4.03846154,2.64 C3.66774356,2.64 3.36538462,2.93648454 3.36538462,3.3 L3.36538462,4.62 C3.36538462,4.98351546 3.66774356,5.28 4.03846154,5.28 C4.40917952,5.28 4.71153846,4.98351546 4.71153846,4.62 L4.71153846,3.3 C4.71153846,2.93648454 4.40917952,2.64 4.03846154,2.64 Z M7.40384615,2.64 C7.03312817,2.64 6.73076923,2.93648454 6.73076923,3.3 L6.73076923,4.62 C6.73076923,4.98351546 7.03312817,5.28 7.40384615,5.28 C7.77456413,5.28 8.07692308,4.98351546 8.07692308,4.62 L8.07692308,3.3 C8.07692308,2.93648454 7.77456413,2.64 7.40384615,2.64 Z M10.7692308,2.64 C10.3985128,2.64 10.0961538,2.93648454 10.0961538,3.3 L10.0961538,4.62 C10.0961538,4.98351546 10.3985128,5.28 10.7692308,5.28 C11.1399487,5.28 11.4423077,4.98351546 11.4423077,4.62 L11.4423077,3.3 C11.4423077,2.93648454 11.1399487,2.64 10.7692308,2.64 Z M14.1346154,2.64 C13.7638974,2.64 13.4615385,2.93648454 13.4615385,3.3 L13.4615385,4.62 C13.4615385,4.98351546 13.7638974,5.28 14.1346154,5.28 C14.5053334,5.28 14.8076923,4.98351546 14.8076923,4.62 L14.8076923,3.3 C14.8076923,2.93648454 14.5053334,2.64 14.1346154,2.64 Z M17.5,2.64 C17.129282,2.64 16.8269231,2.93648454 16.8269231,3.3 L16.8269231,4.62 C16.8269231,4.98351546 17.129282,5.28 17.5,5.28 C17.870718,5.28 18.1730769,4.98351546 18.1730769,4.62 L18.1730769,3.3 C18.1730769,2.93648454 17.870718,2.64 17.5,2.64 Z M20.8653846,2.64 C20.4946666,2.64 20.1923077,2.93648454 20.1923077,3.3 L20.1923077,4.62 C20.1923077,4.98351546 20.4946666,5.28 20.8653846,5.28 C21.2361026,5.28 21.5384615,4.98351546 21.5384615,4.62 L21.5384615,3.3 C21.5384615,2.93648454 21.2361026,2.64 20.8653846,2.64 Z M24.2307692,2.64 C23.8600513,2.64 23.5576923,2.93648454 23.5576923,3.3 L23.5576923,4.62 C23.5576923,4.98351546 23.8600513,5.28 24.2307692,5.28 C24.6014872,5.28 24.9038462,4.98351546 24.9038462,4.62 L24.9038462,3.3 C24.9038462,2.93648454 24.6014872,2.64 24.2307692,2.64 Z M27.5961538,2.64 C27.2254359,2.64 26.9230769,2.93648454 26.9230769,3.3 L26.9230769,4.62 C26.9230769,4.98351546 27.2254359,5.28 27.5961538,5.28 C27.9668718,5.28 28.2692308,4.98351546 28.2692308,4.62 L28.2692308,3.3 C28.2692308,2.93648454 27.9668718,2.64 27.5961538,2.64 Z M30.9615385,2.64 C30.5908205,2.64 30.2884615,2.93648454 30.2884615,3.3 L30.2884615,4.62 C30.2884615,4.98351546 30.5908205,5.28 30.9615385,5.28 C31.3322564,5.28 31.6346154,4.98351546 31.6346154,4.62 L31.6346154,3.3 C31.6346154,2.93648454 31.3322564,2.64 30.9615385,2.64 Z M6.73076923,11.22 C5.98670356,11.22 5.38461538,11.8103905 5.38461538,12.54 C5.38461538,13.2696095 5.98670356,13.86 6.73076923,13.86 C7.4748349,13.86 8.07692308,13.2696095 8.07692308,12.54 C8.07692308,11.8103905 7.4748349,11.22 6.73076923,11.22 Z M10.7692308,11.88 C10.3985128,11.88 10.0961538,12.1764845 10.0961538,12.54 C10.0961538,12.9035155 10.3985128,13.2 10.7692308,13.2 L27.5961538,13.2 C27.9668718,13.2 28.2692308,12.9035155 28.2692308,12.54 C28.2692308,12.1764845 27.9668718,11.88 27.5961538,11.88 L10.7692308,11.88 Z M6.73076923,16.5 C5.98670356,16.5 5.38461538,17.0903905 5.38461538,17.82 C5.38461538,18.5496095 5.98670356,19.14 6.73076923,19.14 C7.4748349,19.14 8.07692308,18.5496095 8.07692308,17.82 C8.07692308,17.0903905 7.4748349,16.5 6.73076923,16.5 Z M10.7692308,17.16 C10.3985128,17.16 10.0961538,17.4564845 10.0961538,17.82 C10.0961538,18.1835155 10.3985128,18.48 10.7692308,18.48 L24.9038462,18.48 C25.2745641,18.48 25.5769231,18.1835155 25.5769231,17.82 C25.5769231,17.4564845 25.2745641,17.16 24.9038462,17.16 L10.7692308,17.16 Z M6.73076923,21.78 C5.98670356,21.78 5.38461538,22.3703905 5.38461538,23.1 C5.38461538,23.8296095 5.98670356,24.42 6.73076923,24.42 C7.4748349,24.42 8.07692308,23.8296095 8.07692308,23.1 C8.07692308,22.3703905 7.4748349,21.78 6.73076923,21.78 Z M10.7692308,22.44 C10.3985128,22.44 10.0961538,22.7364845 10.0961538,23.1 C10.0961538,23.4635155 10.3985128,23.76 10.7692308,23.76 L26.25,23.76 C26.620718,23.76 26.9230769,23.4635155 26.9230769,23.1 C26.9230769,22.7364845 26.620718,22.44 26.25,22.44 L10.7692308,22.44 Z" id="Shape"></path>
                </g>
                <g id="icons8-line_chart" transform="translate(235.000000, 46.000000)" fill="#FFFFFF" fill-rule="nonzero">
                    <path d="M30.9553903,0 L26.3754647,5.49019608 L22.0817844,3.41176471 L21.0594796,2.94117647 L20.4052045,3.84313725 L15.9479554,10.2745098 L11.8178439,7.29411765 L11.0408922,6.74509804 L10.2639405,7.29411765 L5.5204461,10.7058824 L0.899628253,9.60784314 L0.24535316,12.0392157 L5.4795539,13.2941176 L6.0929368,13.4509804 L6.58364312,13.0980392 L11.0408922,9.88235294 L15.4981413,13.0980392 L16.6022305,13.8823529 L17.3791822,12.7843137 L21.9591078,6.19607843 L26.1710037,8.19607843 L27.1115242,8.62745098 L33,1.56862745 L30.9553903,0 Z M21.5910781,16.2352941 L20.4869888,17.5686275 L16.0297398,22.9019608 L11.8178439,19.8431373 L11.0408922,19.2941176 L10.2639405,19.8431373 L5.68401487,23.1372549 L1.14498141,20.9803922 L0,23.254902 L5.23420074,25.7647059 L5.92936803,26.0784314 L6.58364312,25.6470588 L11.0408922,22.4313725 L15.4981413,25.6470588 L16.5204461,26.3529412 L17.2973978,25.4117647 L21.3866171,20.5098039 L25.6394052,26.5882353 L26.66171,28 L27.7657993,26.6666667 L33,20.3921569 L30.9553903,18.8235294 L26.866171,23.7254902 L22.6133829,17.6470588 L21.5910781,16.2352941 Z" id="Shape"></path>
                </g>
                <g id="icons8-communication" transform="translate(424.000000, 38.000000)" fill="#FFFFFF" fill-rule="nonzero">
                    <path d="M16.0252066,0 C7.27413119,0 0,6.48690445 0,14.6446774 C0,18.5615734 1.71596691,22.1180856 4.43796906,24.742697 L4.35234908,25.1722455 C3.73873921,27.0069254 2.2296868,28.044393 1.33424517,28.3756549 C0.813389828,28.5649472 0.381722648,28.8525263 0.14269997,29.3548786 C-0.0927545238,29.853591 0.0499454461,30.5452367 0.406695371,30.9056205 C1.24148974,31.7610757 2.32600951,31.6773509 3.1179948,31.6846309 C6.09685598,31.7210338 9.60727524,30.1266091 11.7335048,29.0418186 L11.7584775,29.0308977 L12.4862474,28.6013492 L12.2079829,28.5139834 L12.2400901,28.5212644 C13.4244999,28.8015625 14.6659896,28.8889282 15.8860739,28.8889282 C23.5811705,28.8889282 30.2024491,24.1966617 31.6651233,17.4440201 L31.6651233,17.4403801 C31.861336,16.5412411 31.9647932,15.6057002 31.9647932,14.6446774 C31.9647932,6.49418446 24.776282,0 16.0252066,0 Z M16.0252066,1.86380182 C23.8951104,1.86380182 30.1382336,7.61537774 30.1382336,14.6446774 C30.1382336,15.4710117 30.0490464,16.271864 29.8813737,17.0399535 C28.6327494,22.8060904 22.8569679,27.0251264 15.8860739,27.0251264 C14.7587442,27.0251264 13.6492526,26.9377607 12.6574873,26.7047854 L12.2579274,26.5846578 L10.905845,27.3782292 C8.88664085,28.4084168 5.40476159,29.849951 3.13939934,29.8208291 C2.82902667,29.8208291 2.80048668,29.7589453 2.58286945,29.7334634 C3.88143918,29.0855015 5.37978886,27.9097044 6.09328871,25.7474026 L6.10755871,25.7000798 L6.43576864,24.127497 L6.03264145,23.7634732 C3.41766473,21.4300809 1.82655961,18.1939096 1.82655961,14.6446774 C1.82655961,7.62265868 8.15530373,1.86380182 16.0252066,1.86380182 Z M8.21951826,8.38710818 L8.21951826,10.25091 L23.745275,10.25091 L23.745275,8.38710818 L8.21951826,8.38710818 Z M8.21951826,13.0466127 L8.21951826,14.9104145 L23.745275,14.9104145 L23.745275,13.0466127 L8.21951826,13.0466127 Z M33.5951402,16.9562287 C33.5487629,17.2547278 33.5166556,17.5532277 33.4524402,17.8480868 C33.3810902,18.1684277 33.2883357,18.4814877 33.1955803,18.7981887 C37.4016621,20.4544971 40.1700415,23.7925951 40.1700415,27.5019978 C40.1700415,30.1630119 38.8143918,32.6492937 36.3456823,34.5094555 L35.8497997,34.8844003 L36.0032024,35.4959603 C36.4955177,37.4216459 38.2221874,38.4154306 39.4172989,39.0779544 C37.5229575,39.3400515 33.4060629,38.903223 31.3369134,36.4060193 L30.9908662,35.9837517 L30.4628763,36.0929593 C29.6316492,36.2604098 28.6684239,36.3441355 27.5125542,36.3441355 C21.8330954,36.3441355 17.2203191,34.0981089 15.4258667,30.7381691 C14.6838269,30.7236081 13.9917325,30.6726452 13.3424472,30.5925595 C15.0370095,35.1719793 20.4845811,38.2079373 27.5125542,38.2079373 C28.5649667,38.2079373 29.4818138,38.1424135 30.3059063,38.0150049 C32.3215432,40.097221 35.6072097,41 38.2685646,41 C38.4433719,41 38.6181791,40.99636 38.7858518,40.9890791 C40.3305787,40.9162743 41.336614,40.5522505 41.7825512,39.9079286 C41.9787639,39.6167096 42.0465466,39.2745268 41.9680611,38.9396249 C41.8146584,38.273462 41.2153186,37.9458401 40.3840915,37.4908106 C39.5671344,37.0394211 38.4933173,36.4460621 37.9902992,35.5614841 C40.5481969,33.4064632 41.9966011,30.5088338 41.9966011,27.5019978 C41.9966011,22.9298589 38.6467191,18.8491524 33.5951402,16.9562287 Z M8.21951826,17.7061173 L8.21951826,19.5699191 L19.1788759,19.5699191 L19.1788759,17.7061173 L8.21951826,17.7061173 Z M31.0657834,23.2975227 C30.6091435,23.9527656 30.1061264,24.5788865 29.5531638,25.1613245 L33.7913529,25.1613245 L33.7913529,23.2975227 L31.0657834,23.2975227 Z M26.1105272,27.9570273 C24.8512002,28.7287577 23.4705778,29.3585186 22.0043353,29.8208291 L33.7913529,29.8208291 L33.7913529,27.9570273 L26.1105272,27.9570273 Z" id="Shape"></path>
                </g>
            </g>
        </g>
    </g>
</svg>