<?xml version="1.0" encoding="UTF-8"?>
<svg width="865px" height="586px" viewBox="0 0 865 586" version="1.1" xmlns="http://www.w3.org/2000/svg" xmlns:xlink="http://www.w3.org/1999/xlink">
    <!-- Generator: Sketch 48.1 (47250) - http://www.bohemiancoding.com/sketch -->
    <title>Group 32</title>
    <desc>Created with Sketch.</desc>
    <defs>
        <rect id="path-1" x="0" y="0" width="803" height="524"></rect>
        <filter x="-5.8%" y="-8.9%" width="111.6%" height="117.7%" filterUnits="objectBoundingBox" id="filter-2">
            <feMorphology radius="1.5" operator="dilate" in="SourceAlpha" result="shadowSpreadOuter1"></feMorphology>
            <feOffset dx="0" dy="0" in="shadowSpreadOuter1" result="shadowOffsetOuter1"></feOffset>
            <feGaussianBlur stdDeviation="14" in="shadowOffsetOuter1" result="shadowBlurOuter1"></feGaussianBlur>
            <feColorMatrix values="0 0 0 0 0   0 0 0 0 0   0 0 0 0 0  0 0 0 0.0776437953 0" type="matrix" in="shadowBlurOuter1"></feColorMatrix>
        </filter>
        <polygon id="path-3" points="0 0 17 0 17 15 0 15"></polygon>
        <polygon id="path-5" points="0 0 19 0 19 16 0 16"></polygon>
        <polygon id="path-7" points="0 0 15 0 15 16 0 16"></polygon>
        <polygon id="path-9" points="5e-05 0.064 17.936 0.064 17.936 18 5e-05 18"></polygon>
        <polygon id="path-11" points="0 12 20 12 20 0 0 0"></polygon>
        <polygon id="path-13" points="0 0.0481168831 14.9307143 0.0481168831 14.9307143 18.9999753 0 18.9999753"></polygon>
        <rect id="path-15" x="187" y="61" width="474" height="26"></rect>
        <filter x="-0.9%" y="-17.3%" width="101.9%" height="134.6%" filterUnits="objectBoundingBox" id="filter-16">
            <feMorphology radius="1.5" operator="dilate" in="SourceAlpha" result="shadowSpreadOuter1"></feMorphology>
            <feOffset dx="0" dy="0" in="shadowSpreadOuter1" result="shadowOffsetOuter1"></feOffset>
            <feColorMatrix values="0 0 0 0 0   0 0 0 0 0   0 0 0 0 0  0 0 0 0.0249660326 0" type="matrix" in="shadowOffsetOuter1"></feColorMatrix>
        </filter>
        <rect id="path-17" x="158" y="61" width="26" height="26"></rect>
        <filter x="-17.3%" y="-17.3%" width="134.6%" height="134.6%" filterUnits="objectBoundingBox" id="filter-18">
            <feMorphology radius="1.5" operator="dilate" in="SourceAlpha" result="shadowSpreadOuter1"></feMorphology>
            <feOffset dx="0" dy="0" in="shadowSpreadOuter1" result="shadowOffsetOuter1"></feOffset>
            <feColorMatrix values="0 0 0 0 0   0 0 0 0 0   0 0 0 0 0  0 0 0 0.0249660326 0" type="matrix" in="shadowOffsetOuter1"></feColorMatrix>
        </filter>
    </defs>
    <g id="Page-1" stroke="none" stroke-width="1" fill="none" fill-rule="evenodd">
        <g id="Group-32" transform="translate(31.000000, 31.000000)">
            <g id="Group-8-Copy">
                <g id="Rectangle-10-Copy-2">
                    <use fill="black" fill-opacity="1" filter="url(#filter-2)" xlink:href="#path-1"></use>
                    <use fill="#FFFFFF" fill-rule="evenodd" xlink:href="#path-1"></use>
                </g>
                <circle id="Oval-3-Copy-8" fill="#D42020" cx="14.5" cy="17.5" r="2.5"></circle>
                <circle id="Oval-3-Copy-7" fill="#FFBA3F" cx="27.5" cy="17.5" r="2.5"></circle>
                <circle id="Oval-3-Copy-6" fill="#1BD874" cx="40.5" cy="17.5" r="2.5"></circle>
                <rect id="Rectangle-10-Copy-4" fill="#0FC599" x="0" y="116" width="177" height="37"></rect>
                <text id="Dashboard-Copy-4" font-family="Ubuntu-Bold, Ubuntu" font-size="10" font-weight="bold" letter-spacing="-0.390000105" fill="#FFFFFF">
                    <tspan x="81" y="165">Dashboard</tspan>
                </text>
                <path d="M0.5,34.5 L802.530548,34.5" id="Line-5-Copy-2" stroke="#F4F5F7" stroke-linecap="square"></path>
                <rect id="Rectangle-11-Copy-2" fill="#F8F8F8" x="41" y="33" width="762" height="491"></rect>
                <path d="M24.455885,55.6633759 L18.25708,49.4638442 C18.1889553,49.3957195 18.0964873,49.357388 18.0002044,49.357388 C17.9039214,49.357388 17.8114535,49.3957195 17.7433287,49.4638442 L11.5441604,55.6631942 L10.8770831,54.9962986 L18.0002044,47.872814 L22.7088037,52.5819583 C22.710802,52.5839566 22.7126187,52.5857733 22.714617,52.5875899 L25.1229623,54.9962986 L24.455885,55.6633759 Z M22.6050725,59.1266552 L19.3200074,59.1266552 L19.3200074,56.2045587 C19.3200074,56.0038178 19.1574164,55.8412268 18.9566755,55.8412268 L17.0431882,55.8412268 C16.842629,55.8412268 16.6798564,56.0038178 16.6798564,56.2045587 L16.6798564,59.1266552 L13.394973,59.1266552 L13.394973,54.8398842 L18.0002044,50.2344711 L22.6050725,54.8398842 L22.6050725,59.1266552 Z M17.4065201,59.1268369 L18.5933436,59.1268369 L18.5933436,56.5678905 L17.4065201,56.5678905 L17.4065201,59.1268369 Z M21.6059098,48.6401709 L22.6050725,48.6401709 L22.6050725,51.4505429 L21.6059098,50.4513802 L21.6059098,48.6401709 Z M25.8935892,54.7394229 L23.3317362,52.1772066 L23.3317362,48.276839 C23.3317362,48.0762798 23.1689635,47.9135071 22.9684043,47.9135071 L21.2427596,47.9135071 C21.0420188,47.9135071 20.8794278,48.0762798 20.8794278,48.276839 L20.8794278,49.7247165 L18.25708,47.1021871 C18.1208306,46.9659376 17.8795782,46.9659376 17.7433287,47.1021871 L10.1064562,54.7394229 C10.0383315,54.8075477 10,54.9000156 10,54.9962986 C10,55.0925815 10.0383315,55.1850495 10.1064562,55.2531742 L11.2872848,56.4338211 C11.4291659,56.5757022 11.659155,56.5757022 11.8010361,56.4338211 L12.6683092,55.5665479 L12.6683092,59.4899871 C12.6683092,59.6907279 12.8310819,59.853319 13.0316411,59.853319 L17.0431882,59.853319 L18.9566755,59.853319 L22.9684043,59.853319 C23.1689635,59.853319 23.3317362,59.6907279 23.3317362,59.4899871 L23.3317362,55.5665479 L24.1990094,56.4340028 C24.2671341,56.5021275 24.359602,56.5402773 24.455885,56.5402773 L24.4560666,56.5402773 C24.5523496,56.5402773 24.6448176,56.5019458 24.7129423,56.4338211 L25.8935892,55.2531742 C26.0354703,55.1112931 26.0354703,54.881304 25.8935892,54.7394229 Z" id="Page-1-Copy-19" fill="#0FC599"></path>
                <g id="Page-1-Copy-18" transform="translate(10.000000, 85.000000)">
                    <mask id="mask-4" fill="white">
                        <use xlink:href="#path-3"></use>
                    </mask>
                    <g id="Clip-2"></g>
                    <path d="M15.3913262,13.0906076 C15.3913262,13.6805507 14.9152221,14.1605222 14.330193,14.1605222 L2.67126493,14.1605222 C2.08540276,14.1605222 1.60867381,13.6805507 1.60867381,13.0906076 L1.60867381,9.36731353 L6.80124962,9.36731353 L6.80124962,10.7944259 C6.80124962,11.0261218 6.98765084,11.2141648 7.21778867,11.2141648 L9.78387749,11.2141648 C10.013807,11.2141648 10.2004165,11.0261218 10.2004165,10.7944259 L10.2004165,9.36731353 L15.3913262,9.36731353 L15.3913262,13.0906076 Z M7.63432772,10.3744771 L9.36733844,10.3744771 L9.36733844,7.52046227 L7.63432772,7.52046227 L7.63432772,10.3744771 Z M1.89566922,3.73441719 L15.1057887,3.73441719 C15.6908178,3.73441719 16.1669219,4.21438865 16.1669219,4.80433171 L16.1669219,8.52783569 L10.2004165,8.52783569 L10.2004165,7.10072335 C10.2004165,6.86902746 10.013807,6.68098443 9.78387749,6.68098443 L7.21778867,6.68098443 C6.98765084,6.68098443 6.80124962,6.86902746 6.80124962,7.10072335 L6.80124962,8.52783569 L0.833078101,8.52783569 L0.833078101,4.80433171 C0.833078101,4.21438865 1.30980704,3.73441719 1.89566922,3.73441719 Z M5.546634,1.31063479 C5.546634,1.05081639 5.75615314,0.839477845 6.01378254,0.839477845 L10.9862175,0.839477845 C11.2444717,0.839477845 11.4548239,1.05081639 11.4548239,1.31063479 L11.4548239,2.89493935 L5.546634,2.89493935 L5.546634,1.31063479 Z M15.1057887,2.89493935 L12.287902,2.89493935 L12.287902,1.31063479 C12.287902,0.587844361 11.7039142,0 10.9862175,0 L6.01378254,0 C5.29691884,0 4.7135559,0.587844361 4.7135559,1.31063479 L4.7135559,2.89493935 L1.89566922,2.89493935 C0.850364472,2.89493935 0,3.75141662 0,4.80433171 L0,8.94757461 C0,9.17927049 0.186401225,9.36731353 0.416539051,9.36731353 L0.775595712,9.36731353 L0.775595712,13.0906076 C0.775595712,14.1435227 1.62596018,15 2.67126493,15 L14.330193,15 C15.3746646,15 16.2244043,14.1435227 16.2244043,13.0906076 L16.2244043,9.36731353 L16.5834609,9.36731353 C16.8135988,9.36731353 17,9.17927049 17,8.94757461 L17,4.80433171 C17,3.75141662 16.1502603,2.89493935 15.1057887,2.89493935 Z" id="Fill-1" fill="#0FC599" mask="url(#mask-4)"></path>
                </g>
                <g id="Page-1-Copy-17" transform="translate(11.000000, 335.000000)" fill="#0FC599">
                    <path d="M6.30882446,16.2268246 L18.1964305,16.2268246 L18.1964305,6.07019977 L6.30882446,6.07019977 L6.30882446,16.2268246 Z M5.50525492,5.68361209 L5.50525492,6.85651912 C4.99358202,6.69376571 4.62293557,6.23005378 4.62293557,5.68380539 C4.62293557,5.0024446 5.19889403,4.44807786 5.90703969,4.44807786 C6.47456068,4.44807786 6.95650151,4.804705 7.1256529,5.29702441 L5.90703969,5.29702441 C5.68505361,5.29702441 5.50525492,5.47021569 5.50525492,5.68361209 Z M5.28668401,10.5940488 L5.28668401,9.56185971 C5.28668401,9.38499585 5.16192984,9.23074736 4.98393918,9.18725625 C4.63378376,9.10182037 4.29809258,8.96767445 3.98570492,8.78849106 C3.82780351,8.69783625 3.62610755,8.72180468 3.49592929,8.84725238 L2.73675696,9.57770981 L1.85966081,8.73398219 L2.61903402,8.00333148 C2.74921229,7.87827036 2.77432384,7.68401005 2.67990442,7.5318878 C2.49407896,7.23189576 2.35465965,6.90909504 2.2660661,6.57199059 C2.22086532,6.40053895 2.0603523,6.28031018 1.87653577,6.28031018 L0.80356954,6.28031018 L0.80356954,5.08691401 L1.87653577,5.08691401 C2.0603523,5.08691401 2.22086532,4.96668524 2.2660661,4.7952336 C2.35445875,4.45890232 2.49387807,4.13590831 2.68010531,3.83514309 C2.77412295,3.68302084 2.7490114,3.48895383 2.61903402,3.36389271 L1.85966081,2.63343529 L2.73675696,1.78951438 L3.49592929,2.52035839 C3.62630844,2.6456128 3.8280044,2.66958123 3.9863076,2.57892642 C4.29809258,2.39954974 4.63358286,2.26559711 4.9835374,2.18035452 C5.16192984,2.13686341 5.28668401,1.98261492 5.28668401,1.80555777 L5.28668401,0.773175363 L6.52699359,0.773175363 L6.52699359,1.80555777 C6.52699359,1.98261492 6.65174776,2.13686341 6.8301402,2.18035452 C7.17949206,2.26540381 7.51538413,2.39935645 7.82817357,2.57873313 C7.98587409,2.66938794 8.18797183,2.64522621 8.31774831,2.5199718 L9.07712153,1.78951438 L9.95401679,2.63324199 L9.19484447,3.36389271 C9.06486709,3.48914712 9.03975555,3.68321414 9.13377318,3.83514309 C9.32020132,4.13590831 9.45941974,4.45890232 9.54801328,4.7952336 C9.59321407,4.96668524 9.75352619,5.08691401 9.93754361,5.08691401 L11.0105098,5.08691401 L11.0105098,5.29702441 L7.95493667,5.29702441 C7.76690139,4.37385303 6.92054178,3.6749025 5.90703969,3.6749025 C4.75592633,3.6749025 3.81936603,4.57623168 3.81936603,5.68380539 C3.81936603,6.65897281 4.54579289,7.47351306 5.50525492,7.65443609 L5.50525492,10.5940488 L5.28668401,10.5940488 Z M18.5982152,5.29702441 L11.8140794,5.29702441 L11.8140794,4.70032633 C11.8140794,4.48673663 11.6340798,4.31373864 11.4122946,4.31373864 L10.2388822,4.31373864 C10.1675654,4.10536788 10.0797754,3.90202276 9.97631585,3.70544293 L10.8064032,2.90655948 C10.8817378,2.83407429 10.9241261,2.73568773 10.9241261,2.63324199 C10.9241261,2.53060296 10.8817378,2.43240969 10.8064032,2.35973121 L9.36118336,0.969368611 C9.20408552,0.818599416 8.94975576,0.818406122 8.7930597,0.969368611 L7.96277147,1.76805876 C7.75846391,1.66870573 7.54712512,1.58423632 7.33056313,1.51561701 L7.33056313,0.386587681 C7.33056313,0.173191281 7.15056356,0 6.92877836,0 L4.88489924,0 C4.66311404,0 4.48311447,0.173191281 4.48311447,0.386587681 L4.48311447,1.51561701 C4.26635158,1.58423632 4.05501279,1.66870573 3.85090613,1.76825206 L3.02101969,0.969368611 C2.94568504,0.896883421 2.84343082,0.856098421 2.73675696,0.856098421 C2.630284,0.856098421 2.52802977,0.896883421 2.45269513,0.969368611 L1.00747531,2.3601178 C0.931939775,2.43260299 0.889752374,2.53098955 0.889752374,2.63343529 C0.889752374,2.73607432 0.932140667,2.83426759 1.00747531,2.90694607 L1.83756265,3.70544293 C1.73410307,3.90202276 1.64651399,4.10536788 1.57519719,4.31373864 L0.40178477,4.31373864 C0.179999577,4.31373864 0,4.48673663 0,4.70032633 L0,6.66689786 C0,6.88048756 0.179999577,7.05348554 0.40178477,7.05348554 L1.57519719,7.05348554 C1.64651399,7.26224289 1.73410307,7.46558801 1.83736175,7.66178126 L1.00747531,8.4606647 C0.931939775,8.53314989 0.889752374,8.63153646 0.889752374,8.73398219 C0.889752374,8.83662122 0.932140667,8.93481449 1.00747531,9.00749298 L2.45249424,10.3978556 C2.60959208,10.5486248 2.86392184,10.5486248 3.0208188,10.3976623 L3.85070524,9.59897213 C4.05501279,9.69871175 4.26635158,9.78318116 4.48311447,9.85180048 L4.48311447,10.9806365 C4.48311447,11.1942262 4.66311404,11.3672242 4.88489924,11.3672242 L5.50525492,11.3672242 L5.50525492,16.6134123 C5.50525492,16.8268087 5.68505361,17 5.90703969,17 L18.5982152,17 C18.8202013,17 19,16.8268087 19,16.6134123 L19,5.68361209 C19,5.47021569 18.8202013,5.29702441 18.5982152,5.29702441 Z" id="Fill-1"></path>
                    <path d="M12.1421745,7.91680037 C12.4157972,7.91680037 12.6383228,8.17854687 12.6383228,8.4998854 C12.6383228,8.82168233 12.4157972,9.08319963 12.1421745,9.08319963 C11.8685519,9.08319963 11.6460263,8.82168233 11.6460263,8.4998854 C11.6460263,8.17854687 11.8685519,7.91680037 12.1421745,7.91680037 M8.39005363,8.95828558 L10.9273525,8.95828558 C11.0925402,9.56199862 11.5744515,10 12.1421745,10 C12.7098976,10 13.1918089,9.56199862 13.3569966,8.95828558 L15.6099464,8.95828558 C15.825451,8.95828558 16,8.7531515 16,8.4998854 C16,8.2468485 15.825451,8.04148522 15.6099464,8.04148522 L13.3569966,8.04148522 C13.1918089,7.43823058 12.7098976,7 12.1421745,7 C11.5744515,7 11.0925402,7.43823058 10.9273525,8.04148522 L8.39005363,8.04148522 C8.174549,8.04148522 8,8.2468485 8,8.4998854 C8,8.7531515 8.174549,8.95828558 8.39005363,8.95828558" id="Fill-3"></path>
                    <path d="M10.2825939,10.9168704 C10.5562165,10.9168704 10.7787421,11.1784077 10.7787421,11.5 C10.7787421,11.8215923 10.5562165,12.0831296 10.2825939,12.0831296 C10.0089712,12.0831296 9.78644564,11.8215923 9.78644564,11.5 C9.78644564,11.1784077 10.0089712,10.9168704 10.2825939,10.9168704 M8.39005363,11.9584352 L9.06777182,11.9584352 C9.23295953,12.5619652 9.71487079,13 10.2825939,13 C10.8503169,13 11.3322282,12.5619652 11.4974159,11.9584352 L15.6099464,11.9584352 C15.825451,11.9584352 16,11.7530562 16,11.5 C16,11.2467145 15.825451,11.0415648 15.6099464,11.0415648 L11.4974159,11.0415648 C11.3322282,10.4380348 10.8503169,10 10.2825939,10 C9.71487079,10 9.23295953,10.4380348 9.06777182,11.0415648 L8.39005363,11.0415648 C8.174549,11.0415648 8,11.2467145 8,11.5 C8,11.7530562 8.174549,11.9584352 8.39005363,11.9584352" id="Fill-4"></path>
                    <path d="M13.4296092,13.9168004 C13.7032252,13.9168004 13.9259404,14.1785469 13.9259404,14.4998854 C13.9259404,14.8214531 13.7032252,15.0831996 13.4296092,15.0831996 C13.1559933,15.0831996 12.9334731,14.8214531 12.9334731,14.4998854 C12.9334731,14.1785469 13.1559933,13.9168004 13.4296092,13.9168004 M8.39004412,14.9582856 L12.2148168,14.9582856 C12.3800005,15.5617694 12.8619,16 13.4296092,16 C13.9973184,16 14.479218,15.5617694 14.6444016,14.9582856 L15.6099559,14.9582856 C15.8252602,14.9582856 16,14.7531515 16,14.4998854 C16,14.2468485 15.8252602,14.0414852 15.6099559,14.0414852 L14.6444016,14.0414852 C14.479218,13.4382306 13.9973184,13 13.4296092,13 C12.8619,13 12.3800005,13.4382306 12.2148168,14.0414852 L8.39004412,14.0414852 C8.17473977,14.0414852 8,14.2468485 8,14.4998854 C8,14.7531515 8.17473977,14.9582856 8.39004412,14.9582856" id="Fill-5"></path>
                </g>
                <path d="M24.3074011,183.497558 L24.6443723,179.793993 C24.6651602,179.565119 24.4965706,179.362853 24.268112,179.342065 C24.035288,179.324603 23.8369718,179.489867 23.8161839,179.718325 L23.4723527,183.497558 L19.9157575,183.497558 L19.9157575,176.975575 C20.2552233,176.921318 20.7375017,176.786821 21.1357971,176.456918 C21.719936,176.590791 23.3590589,176.982227 24.7412438,177.45224 C25.3276693,177.651596 26.1354856,179.655546 26.1677068,183.497558 L24.3074011,183.497558 Z M14.2591727,177.45224 C15.6401103,176.982643 17.2796489,176.590999 17.8639957,176.456918 C18.2624989,176.787029 18.7449852,176.921318 19.0842431,176.975783 L19.0842431,183.497558 L15.5278558,183.497558 L15.1842325,179.718533 C15.1634446,179.489867 14.9622181,179.325019 14.7325123,179.342065 C14.5038458,179.362853 14.3352562,179.565119 14.3560441,179.793785 L14.6928074,183.497558 L12.8322939,183.497558 C12.864515,179.655546 13.6725392,177.651596 14.2591727,177.45224 Z M17.4921008,169.772997 C18.1286251,168.845858 19.4862803,168.831514 19.5002082,168.831514 C19.5137203,168.831514 20.8713755,168.845858 21.5072762,169.772997 C21.8228359,170.232408 22.0458897,171.548904 21.9750031,172.534664 C21.915134,173.375741 21.3426363,174.737969 20.8235634,175.56886 C20.7982023,175.609604 20.7699308,175.647023 20.7399962,175.682362 C20.7108932,175.706476 20.6840769,175.7335 20.6624575,175.765098 C20.2306936,176.175242 19.5103943,176.180855 19.502287,176.180855 L19.502287,176.181063 C19.5014555,176.181063 19.5008318,176.180855 19.5000003,176.180855 C19.4991688,176.180855 19.4985452,176.181063 19.4977137,176.181063 L19.4977137,176.180855 C19.4896064,176.180855 18.7695149,176.175242 18.3379589,175.765513 C18.3159238,175.7335 18.2888995,175.706268 18.2591729,175.681738 C18.2296541,175.646607 18.2015905,175.609604 18.1764372,175.569068 C17.6577801,174.738801 17.0848666,173.376365 17.0245818,172.534664 C16.9545267,171.54828 17.1775805,170.231993 17.4921008,169.772997 Z M25.0087835,176.665004 C23.8080767,176.256731 22.4533318,175.914147 21.6927039,175.732669 C22.1502447,174.925268 22.7325127,173.605031 22.8046466,172.593909 C22.8811459,171.525413 22.6734752,170.002287 22.1930677,169.30236 C21.3093758,168.014967 19.5737972,168 19.4995846,168 C19.4262034,168 17.6906249,168.014967 16.8065172,169.302567 C16.3271491,170.001455 16.1192705,171.524582 16.1951462,172.593909 C16.2676958,173.606278 16.8499638,174.925892 17.3072967,175.732669 C16.5466689,175.914147 15.191924,176.256731 13.9916329,176.665004 C12.0575303,177.322108 11.9937115,182.82029 12.0003637,183.916018 C12.0018188,184.144477 12.1874544,184.329073 12.4161209,184.329073 L26.5838798,184.329073 C26.8125462,184.329073 26.9981818,184.144477 26.999637,183.916018 C27.0062891,182.82029 26.9422625,177.322108 25.0087835,176.665004 Z" id="Page-1-Copy-16" fill="#0FC599"></path>
                <g id="Page-1-Copy-15" transform="translate(19.000000, 217.500000) rotate(90.000000) translate(-19.000000, -217.500000) translate(9.500000, 209.500000)">
                    <mask id="mask-6" fill="white">
                        <use xlink:href="#path-5"></use>
                    </mask>
                    <g id="Clip-2"></g>
                    <path d="M18.8602283,5.37702456 L14.0133784,0.151071146 C13.8764105,0.00341191646 13.6719132,-0.0405771573 13.4931868,0.0394263628 C13.3149376,0.119172637 13.198491,0.306705004 13.198491,0.514817055 L13.198491,2.96611462 L9.49988069,2.96611462 C9.23644418,2.96611462 9.02264064,3.19634983 9.02264064,3.48060671 C9.02264064,3.76460635 9.23644418,3.9950988 9.49988069,3.9950988 L13.6757311,3.9950988 C13.9394062,3.9950988 14.1529711,3.76460635 14.1529711,3.48060671 L14.1529711,1.75705821 L17.8480022,5.74077047 L14.1529711,9.72396823 L14.1529711,8.00016248 C14.1529711,7.71616285 13.9394062,7.48567039 13.6757311,7.48567039 L5.79816828,7.48567039 C5.80127034,7.23871419 5.80127034,6.92307329 5.80127034,6.51713903 L5.80127034,5.03411558 C5.80127034,4.82600353 5.68506239,4.63847116 5.50681323,4.55872489 C5.32784821,4.47897861 5.12335085,4.52296769 4.98662158,4.67036967 L0.139771678,9.89555134 C-0.0465905594,10.0967178 -0.0465905594,10.422134 0.139771678,10.6233004 L4.98662158,15.8492538 C5.07801305,15.9477791 5.19994788,16 5.32403029,16 C5.38559426,16 5.44763546,15.9871377 5.50681323,15.9608986 C5.68506239,15.8811523 5.80127034,15.69362 5.80127034,15.4855079 L5.80103172,13.0334386 L9.49988069,13.0334386 C9.76355582,13.0334386 9.97712074,12.8029461 9.97712074,12.5189465 C9.97712074,12.2346896 9.76355582,12.0044544 9.49988069,12.0044544 L5.32355305,12.0044544 C5.06011655,12.0044544 4.84631301,12.2346896 4.84631301,12.5189465 L4.84631301,12.5251204 C4.84655163,12.5830008 4.84679025,13.4589236 4.84679025,14.2432668 L1.15199781,10.2592973 L4.84679025,6.27609949 C4.84679025,7.04500792 4.84655163,7.90240898 4.84631301,7.98961539 C4.84583577,8.02614433 4.84869921,8.06293052 4.85561919,8.0997167 C4.89952527,8.34075625 5.09567093,8.51465457 5.32355305,8.51465457 L13.198491,8.51465457 L13.198491,10.9662094 C13.198491,11.1740642 13.3149376,11.3618538 13.4931868,11.4413428 C13.6719132,11.5208319 13.8764105,11.4771 14.0133784,11.3299553 L18.8602283,6.10451637 C19.0465906,5.90360721 19.0465906,5.57793372 18.8602283,5.37702456" id="Fill-1" fill="#0FC599" mask="url(#mask-6)"></path>
                </g>
                <g id="Page-1-Copy-14" transform="translate(12.000000, 251.000000)">
                    <mask id="mask-8" fill="white">
                        <use xlink:href="#path-7"></use>
                    </mask>
                    <g id="Clip-2"></g>
                    <path d="M14.8752392,5.89674931 C14.7088914,5.72707275 14.4392419,5.72707275 14.2728941,5.89674931 L6.12121449,14.2115526 C4.91652438,15.4370909 2.95975492,15.4355702 1.75655576,14.208511 C0.55356959,12.9810173 0.552504624,10.9850908 1.75357385,9.75651088 L9.90525348,1.44170763 C10.2673421,1.07237324 10.748707,0.869022079 11.2605299,0.869022079 C11.7727787,0.869022079 12.2539306,1.07237324 12.6162322,1.44170763 C13.3634127,2.2042745 13.3634127,3.44458626 12.6162322,4.20715314 L4.58382884,12.4002933 C4.29287999,12.6970643 3.82024785,12.6966298 3.529299,12.4002933 C3.23877614,12.1035223 3.23877614,11.6214323 3.529299,11.3246612 L7.72782296,7.04212041 C7.89438372,6.87244385 7.89438372,6.59761562 7.72782296,6.4277218 C7.56147519,6.25804524 7.29182567,6.25804524 7.1254779,6.4277218 L2.92695395,10.7102626 C2.30416153,11.3455177 2.30416153,12.3794368 2.92695395,13.0146919 C3.54953337,13.6497298 4.56316849,13.6501643 5.18617389,13.0146919 L13.2185773,4.82155175 C14.2982403,3.72028352 14.2982403,1.92835999 13.2185773,0.827309019 C12.6956787,0.293729463 12.0002556,0 11.2605299,0 C10.5210171,0 9.82580698,0.293946718 9.30290842,0.827309019 L1.15484968,9.13820167 L1.1542107,9.13885343 L0.969119521,9.32764848 C0.938235492,9.35915053 0.913315276,9.39391141 0.893719893,9.43127936 C0.315017093,10.1480053 0,11.0398392 0,11.9807729 C0,13.0544497 0.410012105,14.0638188 1.1542107,14.8229096 C1.8984093,15.5820004 2.88797617,16 3.94037608,16 C4.86306306,16 5.73740056,15.6788963 6.44006546,15.0886131 C6.47670031,15.0686256 6.51077924,15.0432067 6.54166326,15.0117046 L6.72675444,14.8229096 C6.72739342,14.8224751 6.72781941,14.8218233 6.7282454,14.8213888 L14.8752392,6.51114792 C15.0415869,6.34147136 15.0415869,6.06642588 14.8752392,5.89674931" id="Fill-1" fill="#0FC599" mask="url(#mask-8)"></path>
                </g>
                <g id="Page-1-Copy-13" transform="translate(12.000000, 294.000000)">
                    <path d="M7.56474307,7.56450048 C7.94810873,7.18113482 8.45805052,6.9699321 9.00000007,6.9699321 C9.54243459,6.9699321 10.0523764,7.18113482 10.435742,7.56450048 C10.8191077,7.94786615 11.0300679,8.45756547 11.0300679,9 C11.0300679,9.54243453 10.8191077,10.0521339 10.435742,10.4354995 C10.0523764,10.8188652 9.54243459,11.0300679 9.00000007,11.0300679 L8.9995151,11.0300679 C8.45708059,11.0300679 7.94738128,10.8191077 7.56425811,10.4359845 C7.18089245,10.0526188 6.96968974,9.54267701 6.96993222,9.00024248 C6.97017471,8.45780795 7.18137742,7.94786615 7.56474307,7.56450048 M8.9995151,12 L9.00000007,12 C9.80189142,12 10.5550437,11.6879243 11.121484,11.1212415 C11.6881668,10.5548012 12,9.80164888 12,9 C12,8.19835112 11.6881668,7.44519884 11.121484,6.87875849 C10.5550437,6.31207565 9.80189142,6 9.00024255,6 L9.00000007,6 C8.19859369,6 7.44544143,6.31207565 6.87900109,6.87875849 C6.31231827,7.44519884 6.00024262,8.19835112 6.00000014,9 C5.99975766,9.80164888 6.31183331,10.5550436 6.87851612,11.1217265 C7.44495646,11.6881668 8.19786624,12 8.9995151,12" id="Fill-1" fill="#0FC599"></path>
                    <path d="M11.7539845,5.15118839 C11.5524057,5.3527729 11.5524057,5.67954114 11.7539845,5.88112565 C13.3728088,7.50025453 13.3728088,10.1345331 11.7539845,11.7534038 C10.1346439,13.3727908 7.50018282,13.3730489 5.88110038,11.7541782 C5.67952165,11.5525937 5.35276278,11.5525937 5.15118405,11.7541782 C4.94960532,11.9557627 4.94960532,12.2825309 5.15118405,12.4841154 C6.16165874,13.4946191 7.48934248,14 8.81676812,14 C10.14471,14 11.4729099,13.494361 12.4839008,12.4833411 C14.5053664,10.4618175 14.5053664,7.17271196 12.4839008,5.15118839 C12.2823221,4.94960387 11.9555632,4.94960387 11.7539845,5.15118839" id="Fill-3" fill="#0FC599"></path>
                    <g id="Group-7">
                        <mask id="mask-10" fill="white">
                            <use xlink:href="#path-9"></use>
                        </mask>
                        <g id="Clip-6"></g>
                        <path d="M16.93605,10.10375 L15.16605,10.10425 C14.93705,10.10425 14.7373,10.25975 14.6813,10.48175 C14.5408,11.03675 14.32305,11.56375 14.0338,12.047 C13.91605,12.244 13.94705,12.49525 14.10905,12.6575 L15.36005,13.9085 L13.84455,15.424 L12.59355,14.173 C12.43155,14.01125 12.1803,13.97975 11.9833,14.0975 C11.49605,14.389 10.96955,14.60675 10.4188,14.745 C10.1963,14.80075 10.0403,15.0005 10.0403,15.22975 L10.0398,17 L7.8963,17 L7.8963,15.2305 C7.8963,15.0015 7.7408,14.80175 7.51855,14.7455 C6.9653,14.606 6.4383,14.38825 5.95155,14.098 C5.75455,13.98075 5.5038,14.01175 5.34205,14.17375 L4.09155,15.424 L2.57605,13.9085 L3.8263,12.658 C3.98805,12.496 4.0193,12.24475 3.90205,12.04825 C3.6128,11.56325 3.39505,11.036 3.25455,10.48175 C3.1988,10.25975 2.99905,10.10425 2.77005,10.10425 L1.00005,10.10375 L1.00005,7.96025 L2.77005,7.95975 C2.9993,7.95975 3.19905,7.804 3.2548,7.5815 C3.3938,7.0295 3.61155,6.503 3.9023,6.0165 C4.0198,5.81975 3.9888,5.5685 3.82655,5.4065 L2.57605,4.1555 L4.09155,2.64 L5.3423,3.8905 C5.50405,4.0525 5.75505,4.08425 5.9523,3.96625 C6.4373,3.6765 6.96405,3.4585 7.51805,3.31875 C7.7403,3.26275 7.8958,3.063 7.8958,2.834 L7.8958,1.0645 L10.03955,1.064 L10.0398,2.83425 C10.0398,3.06325 10.1953,3.263 10.41755,3.319 C10.9723,3.459 11.49905,3.67675 11.9833,3.9665 C12.1803,4.08425 12.43155,4.05325 12.59355,3.89075 L13.84455,2.64 L15.36005,4.1555 L14.10905,5.4065 C13.94705,5.5685 13.91605,5.82 14.0338,6.01675 C14.32305,6.50025 14.5408,7.027 14.6813,7.58225 C14.7373,7.80425 14.93705,7.95975 15.16605,7.95975 L16.93605,7.96025 L16.93605,10.10375 Z M17.43605,6.96025 L15.54405,6.95975 C15.4228,6.574 15.2688,6.20175 15.08355,5.84625 L16.42055,4.509 C16.61605,4.31375 16.61605,3.99725 16.42055,3.802 L14.19805,1.57925 C14.0028,1.384 13.6863,1.384 13.49105,1.57925 L12.1538,2.9165 C11.79805,2.731 11.4253,2.577 11.0398,2.456 L11.03955,0.564 C11.03955,0.4315 10.9868,0.30425 10.89305,0.2105 C10.7993,0.11675 10.67205,0.064 10.53955,0.064 L7.3958,0.0645 C7.11955,0.0645 6.8958,0.28825 6.8958,0.5645 L6.8958,2.456 C6.51055,2.577 6.13805,2.73075 5.7823,2.91625 L4.44505,1.57925 C4.2498,1.384 3.9333,1.384 3.73805,1.57925 L1.5153,3.802 C1.32005,3.99725 1.32005,4.31375 1.5153,4.509 L2.8523,5.84625 C2.6663,6.20275 2.5123,6.57525 2.39155,6.95975 L0.50005,6.96025 C0.2238,6.96025 5e-05,7.184 5e-05,7.46025 L5e-05,10.60375 C5e-05,10.87975 0.2238,11.10375 0.50005,11.10375 L2.39205,11.10425 C2.51305,11.4895 2.6668,11.862 2.85205,12.218 L1.5153,13.555 C1.32005,13.75025 1.32005,14.06675 1.5153,14.262 L3.73805,16.4845 C3.9333,16.68 4.2498,16.68 4.44505,16.4845 L5.78205,15.148 C6.1388,15.33375 6.5113,15.48775 6.8963,15.6085 L6.8963,17.5 C6.8963,17.776 7.12005,18 7.3963,18 L10.53955,18 C10.8158,18 11.03955,17.776 11.03955,17.50025 L11.0403,15.6085 C11.4243,15.488 11.7968,15.334 12.1538,15.1475 L13.49105,16.4845 C13.6863,16.68 14.0028,16.68 14.19805,16.4845 L16.42055,14.262 C16.61605,14.06675 16.61605,13.75025 16.42055,13.555 L15.08355,12.21775 C15.2688,11.86225 15.4228,11.49 15.54405,11.10425 L17.43605,11.10375 C17.71205,11.10375 17.93605,10.87975 17.93605,10.60375 L17.93605,7.46025 C17.93605,7.184 17.71205,6.96025 17.43605,6.96025 Z" id="Fill-5" fill="#0FC599" mask="url(#mask-10)"></path>
                    </g>
                </g>
                <g id="Page-1-Copy-12" transform="translate(10.000000, 130.000000)">
                    <path d="M8.79653507,3.21032581 L10.8051974,4.50005537 L8.79653507,5.78978493 L8.79653507,3.21032581 Z M8.19913377,6.94086248 C8.26086524,6.98028749 8.32936725,7 8.39826754,7 C8.46716782,7 8.53566984,6.98028749 8.5974013,6.94086248 L11.8008662,4.88389555 C11.92413,4.80460254 12,4.6584199 12,4.50005537 C12,4.34169085 11.92413,4.19550821 11.8008662,4.11643669 L8.5974013,2.05946976 C8.4741375,1.98017675 8.32239757,1.98017675 8.19913377,2.05946976 C8.07586997,2.13854127 8,2.28472391 8,2.44308844 L8,6.5570223 C8,6.71538683 8.07586997,6.86156947 8.19913377,6.94086248 Z" id="Fill-1" fill="#FFFFFF"></path>
                    <mask id="mask-12" fill="white">
                        <use xlink:href="#path-11"></use>
                    </mask>
                    <g id="Clip-4"></g>
                    <path d="M18.2265508,8.74002233 L19.1146035,8.74002233 L19.1146035,3.25955903 L18.2265508,3.25955903 L18.2265508,8.74002233 Z M16.2078468,9.85821937 L17.3413757,9.85821937 L17.3413757,2.14178063 L16.2078468,2.14178063 L16.2078468,9.85821937 Z M4.67799236,11.1627128 L15.3224503,11.1627128 L15.3224503,9.02700251 L4.67799236,9.02700251 L4.67799236,11.1627128 Z M2.65928836,9.85801005 L3.79259587,9.85801005 L3.79259587,2.14157131 L2.65928836,2.14157131 L2.65928836,9.85801005 Z M0.885396492,8.74002233 L1.77389187,8.74002233 L1.77389187,3.25955903 L0.885396492,3.25955903 L0.885396492,8.74002233 Z M4.67799236,8.18971532 L15.3224503,8.18971532 L15.3224503,0.83728719 L4.67799236,0.83728719 L4.67799236,8.18971532 Z M19.5573018,2.42227184 L18.2267722,2.42227184 L18.2267722,1.72292771 C18.2267722,1.49183645 18.0284434,1.30428412 17.7840739,1.30428412 L16.2078468,1.30428412 L16.2078468,0.418643595 C16.2078468,0.187343009 16.009518,0 15.7651486,0 L4.23529412,0 C3.99070334,0 3.79259587,0.187343009 3.79259587,0.418643595 L3.79259587,1.30428412 L2.21659012,1.30428412 C1.97199934,1.30428412 1.77389187,1.49183645 1.77389187,1.72292771 L1.77389187,2.42227184 L0.442698246,2.42227184 C0.198107465,2.42227184 0,2.60982417 0,2.84091543 L0,9.15866592 C0,9.38975719 0.198107465,9.57730952 0.442698246,9.57730952 L1.77389187,9.57730952 L1.77389187,10.276863 C1.77389187,10.5079542 1.97199934,10.6955066 2.21659012,10.6955066 L3.79259587,10.6955066 L3.79259587,11.5813564 C3.79259587,11.8124477 3.99070334,12 4.23529412,12 L15.7651486,12 C16.009518,12 16.2078468,11.8124477 16.2078468,11.5813564 L16.2078468,10.6955066 L17.7840739,10.6955066 C18.0284434,10.6955066 18.2267722,10.5079542 18.2267722,10.276863 L18.2267722,9.57730952 L19.5573018,9.57730952 C19.8018925,9.57730952 20,9.38975719 20,9.15866592 L20,2.84091543 C20,2.60982417 19.8018925,2.42227184 19.5573018,2.42227184 Z" id="Fill-3" fill="#FFFFFF" mask="url(#mask-12)"></path>
                </g>
                <g id="Page-1-Copy-11" transform="translate(13.000000, 376.000000)">
                    <g id="Group-3">
                        <mask id="mask-14" fill="white">
                            <use xlink:href="#path-13"></use>
                        </mask>
                        <g id="Clip-2"></g>
                        <path d="M13.9783333,16.2257286 C13.9783333,17.211261 13.2045238,18.0129623 12.2535714,18.0129623 L2.67690476,18.0129623 C1.72619048,18.0129623 0.952380952,17.211261 0.952380952,16.2257286 L0.952380952,10.7719883 C0.952380952,9.78620909 1.72619048,8.98401429 2.67690476,8.98401429 L12.2535714,8.98401429 C13.2045238,8.98401429 13.9783333,9.78620909 13.9783333,10.7719883 L13.9783333,16.2257286 Z M9.19452381,7.9970013 L5.73571429,7.9970013 L5.73571429,5.20671558 C5.73571429,4.21772857 6.51166667,3.41306623 7.46547619,3.41306623 C8.41880952,3.41306623 9.19452381,4.21772857 9.19452381,5.20671558 L9.19452381,7.9970013 Z M3.54047619,5.10455974 C3.54047619,2.86058571 5.30142857,1.03510519 7.46547619,1.03510519 C9.62928571,1.03510519 11.3895238,2.86058571 11.3895238,5.10455974 L11.3895238,7.8524039 C11.3895238,7.90298831 11.3990476,7.95110519 11.412619,7.9970013 L10.1469048,7.9970013 L10.1469048,5.20671558 C10.1469048,3.67339091 8.94404762,2.42605325 7.46547619,2.42605325 C5.98666667,2.42605325 4.78333333,3.67339091 4.78333333,5.20671558 L4.78333333,7.9970013 L3.51738095,7.9970013 C3.53095238,7.95110519 3.54047619,7.90298831 3.54047619,7.8524039 L3.54047619,5.10455974 Z M12.317619,8.00045584 C12.3319048,7.95357273 12.3419048,7.90422208 12.3419048,7.8524039 L12.3419048,5.10455974 C12.3419048,2.31649481 10.1542857,0.0480922078 7.46547619,0.0480922078 C4.77619048,0.0480922078 2.58809524,2.31649481 2.58809524,5.10455974 L2.58809524,7.8524039 C2.58809524,7.90422208 2.59809524,7.95357273 2.61238095,8.00045584 C1.16619048,8.03648182 0,9.26457273 0,10.7719883 L0,16.2257286 C0,17.7553519 1.20071429,18.9999753 2.67690476,18.9999753 L12.2535714,18.9999753 C13.7297619,18.9999753 14.9307143,17.7553519 14.9307143,16.2257286 L14.9307143,10.7719883 C14.9307143,9.26432597 13.7640476,8.03648182 12.317619,8.00045584 Z" id="Fill-1" fill="#0FC599" mask="url(#mask-14)"></path>
                    </g>
                    <path d="M7.5,12 C7.224,12 7,12.2168048 7,12.4839393 L7,15.5160607 C7,15.7834372 7.224,16 7.5,16 C7.776,16 8,15.7834372 8,15.5160607 L8,12.4839393 C8,12.2168048 7.776,12 7.5,12" id="Fill-4" fill="#0FC599"></path>
                </g>
            </g>
            <g id="Rectangle-19-Copy-6">
                <use fill="black" fill-opacity="1" filter="url(#filter-16)" xlink:href="#path-15"></use>
                <use fill="#FFFFFF" fill-rule="evenodd" xlink:href="#path-15"></use>
            </g>
            <g id="Rectangle-19-Copy-5">
                <use fill="black" fill-opacity="1" filter="url(#filter-18)" xlink:href="#path-17"></use>
                <use fill="#FFFFFF" fill-rule="evenodd" xlink:href="#path-17"></use>
            </g>
            <g id="icons8-search" transform="translate(164.000000, 68.000000)" fill="#A3A3A3" fill-rule="nonzero">
                <path d="M7.94532199,0 C5.15932551,0 2.89064399,2.26868153 2.89064399,5.05467801 C2.89064399,6.26503633 3.31515809,7.37469636 4.02794654,8.2454435 L0,12.27339 L0.726609964,13 L4.7545565,8.97205346 C5.62530364,9.68484191 6.73496367,10.109356 7.94532199,10.109356 C10.7313185,10.109356 13,7.84067449 13,5.05467801 C13,2.26868153 10.7313185,0 7.94532199,0 Z M7.94532199,1.0109356 C10.1843866,1.0109356 11.9890644,2.81561386 11.9890644,5.05467801 C11.9890644,7.29374266 10.1843866,9.09842041 7.94532199,9.09842041 C5.70625785,9.09842041 3.90157959,7.29374266 3.90157959,5.05467801 C3.90157959,2.81561386 5.70625785,1.0109356 7.94532199,1.0109356 Z" id="Shape"></path>
            </g>
            <path d="M198.223,76.379 C199.135005,76.379 199.591,76.0670031 199.591,75.443 C199.591,75.250999 199.5505,75.0875007 199.4695,74.9525 C199.3885,74.8174993 199.279001,74.7005005 199.141,74.6015 C199.002999,74.5024995 198.845501,74.4170004 198.6685,74.345 C198.491499,74.2729996 198.304001,74.2010004 198.106,74.129 C197.877999,74.0509996 197.662001,73.9625005 197.458,73.8635 C197.253999,73.7644995 197.077001,73.6475007 196.927,73.5125 C196.776999,73.3774993 196.6585,73.2170009 196.5715,73.031 C196.4845,72.8449991 196.441,72.6200013 196.441,72.356 C196.441,71.8099973 196.626998,71.3840015 196.999,71.078 C197.371002,70.7719985 197.883997,70.619 198.538,70.619 C198.916002,70.619 199.259498,70.6594996 199.5685,70.7405 C199.877502,70.8215004 200.103999,70.9099995 200.248,71.006 L199.969,71.717 C199.842999,71.6389996 199.655501,71.5625004 199.4065,71.4875 C199.157499,71.4124996 198.868002,71.375 198.538,71.375 C198.369999,71.375 198.214001,71.3929998 198.07,71.429 C197.925999,71.4650002 197.800001,71.5189996 197.692,71.591 C197.583999,71.6630004 197.4985,71.7544994 197.4355,71.8655 C197.3725,71.9765006 197.341,72.1069993 197.341,72.257 C197.341,72.4250008 197.374,72.5659994 197.44,72.68 C197.506,72.7940006 197.598999,72.8944996 197.719,72.9815 C197.839001,73.0685004 197.978499,73.1479996 198.1375,73.22 C198.296501,73.2920004 198.471999,73.3639996 198.664,73.436 C198.934001,73.5440005 199.181499,73.6519995 199.4065,73.76 C199.631501,73.8680005 199.826499,73.9969993 199.9915,74.147 C200.156501,74.2970007 200.284,74.475499 200.374,74.6825 C200.464,74.889501 200.509,75.1399985 200.509,75.434 C200.509,75.9800027 200.309502,76.3999985 199.9105,76.694 C199.511498,76.9880015 198.949004,77.135 198.223,77.135 C197.976999,77.135 197.750501,77.1185002 197.5435,77.0855 C197.336499,77.0524998 197.152001,77.0135002 196.99,76.9685 C196.827999,76.9234998 196.688501,76.8755003 196.5715,76.8245 C196.454499,76.7734997 196.363,76.7300002 196.297,76.694 L196.558,75.974 C196.696001,76.0520004 196.905999,76.1389995 197.188,76.235 C197.470001,76.3310005 197.814998,76.379 198.223,76.379 Z M201.247,74.669 C201.247,74.2549979 201.306999,73.8935015 201.427,73.5845 C201.547001,73.2754985 201.705999,73.019001 201.904,72.815 C202.102001,72.610999 202.329999,72.4580005 202.588,72.356 C202.846001,72.2539995 203.109999,72.203 203.38,72.203 C204.010003,72.203 204.492998,72.399498 204.829,72.7925 C205.165002,73.185502 205.333,73.783996 205.333,74.588 L205.333,74.7275 C205.333,74.7845003 205.33,74.8369998 205.324,74.885 L202.12,74.885 C202.156,75.3710024 202.296999,75.7399987 202.543,75.992 C202.789001,76.2440013 203.172997,76.37 203.695,76.37 C203.989001,76.37 204.236499,76.3445003 204.4375,76.2935 C204.638501,76.2424997 204.789999,76.1930002 204.892,76.145 L205.009,76.847 C204.906999,76.9010003 204.728501,76.9579997 204.4735,77.018 C204.218499,77.0780003 203.929002,77.108 203.605,77.108 C203.196998,77.108 202.844501,77.0465006 202.5475,76.9235 C202.250499,76.8004994 202.006001,76.6310011 201.814,76.415 C201.621999,76.1989989 201.4795,75.9425015 201.3865,75.6455 C201.2935,75.3484985 201.247,75.0230018 201.247,74.669 Z M204.46,74.21 C204.466,73.8319981 204.371501,73.5215012 204.1765,73.2785 C203.981499,73.0354988 203.713002,72.914 203.371,72.914 C203.178999,72.914 203.009501,72.9514996 202.8625,73.0265 C202.715499,73.1015004 202.591001,73.1989994 202.489,73.319 C202.386999,73.4390006 202.3075,73.5769992 202.2505,73.733 C202.1935,73.8890008 202.156,74.0479992 202.138,74.21 L204.46,74.21 Z M208.123,76.397 C208.321001,76.397 208.496499,76.3925 208.6495,76.3835 C208.802501,76.3745 208.929999,76.3580001 209.032,76.334 L209.032,74.939 C208.972,74.9089998 208.874501,74.8835001 208.7395,74.8625 C208.604499,74.8414999 208.441001,74.831 208.249,74.831 C208.122999,74.831 207.989501,74.8399999 207.8485,74.858 C207.707499,74.8760001 207.578501,74.9134997 207.4615,74.9705 C207.344499,75.0275003 207.247,75.1054995 207.169,75.2045 C207.091,75.3035005 207.052,75.4339992 207.052,75.596 C207.052,75.8960015 207.147999,76.1044994 207.34,76.2215 C207.532001,76.3385006 207.792998,76.397 208.123,76.397 Z M208.051,72.203 C208.387002,72.203 208.670499,72.2464996 208.9015,72.3335 C209.132501,72.4205004 209.318499,72.5434992 209.4595,72.7025 C209.600501,72.8615008 209.701,73.0504989 209.761,73.2695 C209.821,73.4885011 209.851,73.7299987 209.851,73.994 L209.851,76.919 C209.779,76.9310001 209.678501,76.9474999 209.5495,76.9685 C209.420499,76.9895001 209.275001,77.0089999 209.113,77.027 C208.950999,77.0450001 208.775501,77.0614999 208.5865,77.0765 C208.397499,77.0915001 208.210001,77.099 208.024,77.099 C207.759999,77.099 207.517001,77.0720003 207.295,77.018 C207.072999,76.9639997 206.881001,76.8785006 206.719,76.7615 C206.556999,76.6444994 206.431,76.490001 206.341,76.298 C206.251,76.105999 206.206,75.8750013 206.206,75.605 C206.206,75.3469987 206.258499,75.1250009 206.3635,74.939 C206.468501,74.7529991 206.610999,74.6030006 206.791,74.489 C206.971001,74.3749994 207.180999,74.2910003 207.421,74.237 C207.661001,74.1829997 207.912999,74.156 208.177,74.156 C208.261,74.156 208.348,74.1605 208.438,74.1695 C208.528,74.1785 208.6135,74.1904999 208.6945,74.2055 C208.7755,74.2205001 208.846,74.2339999 208.906,74.246 C208.966,74.2580001 209.008,74.267 209.032,74.273 L209.032,74.039 C209.032,73.9009993 209.017,73.7645007 208.987,73.6295 C208.957,73.4944993 208.903,73.3745005 208.825,73.2695 C208.747,73.1644995 208.640501,73.0805003 208.5055,73.0175 C208.370499,72.9544997 208.195001,72.923 207.979,72.923 C207.702999,72.923 207.461501,72.9424998 207.2545,72.9815 C207.047499,73.0205002 206.893001,73.0609998 206.791,73.103 L206.692,72.41 C206.800001,72.3619998 206.979999,72.3155002 207.232,72.2705 C207.484001,72.2254998 207.756999,72.203 208.051,72.203 Z M212.965,72.221 C213.037,72.221 213.1195,72.2255 213.2125,72.2345 C213.3055,72.2435 213.397,72.2554999 213.487,72.2705 C213.577,72.2855001 213.6595,72.3004999 213.7345,72.3155 C213.8095,72.3305001 213.865,72.3439999 213.901,72.356 L213.757,73.085 C213.691,73.0609999 213.581501,73.0325002 213.4285,72.9995 C213.275499,72.9664998 213.079001,72.95 212.839,72.95 C212.682999,72.95 212.528501,72.9664998 212.3755,72.9995 C212.222499,73.0325002 212.122,73.0549999 212.074,73.067 L212.074,77 L211.237,77 L211.237,72.518 C211.435001,72.4459996 211.680999,72.3785003 211.975,72.3155 C212.269001,72.2524997 212.598998,72.221 212.965,72.221 Z M216.745,77.108 C216.366998,77.108 216.035501,77.0480006 215.7505,76.928 C215.465499,76.8079994 215.225501,76.6400011 215.0305,76.424 C214.835499,76.2079989 214.69,75.9515015 214.594,75.6545 C214.498,75.3574985 214.45,75.0290018 214.45,74.669 C214.45,74.3089982 214.502499,73.9790015 214.6075,73.679 C214.712501,73.3789985 214.860999,73.1195011 215.053,72.9005 C215.245001,72.6814989 215.480499,72.5105006 215.7595,72.3875 C216.038501,72.2644994 216.348998,72.203 216.691,72.203 C216.901001,72.203 217.110999,72.2209998 217.321,72.257 C217.531001,72.2930002 217.731999,72.3499996 217.924,72.428 L217.735,73.139 C217.608999,73.0789997 217.463501,73.0310002 217.2985,72.995 C217.133499,72.9589998 216.958001,72.941 216.772,72.941 C216.303998,72.941 215.945501,73.0879985 215.6965,73.382 C215.447499,73.6760015 215.323,74.1049972 215.323,74.669 C215.323,74.9210013 215.3515,75.1519989 215.4085,75.362 C215.4655,75.572001 215.555499,75.7519993 215.6785,75.902 C215.801501,76.0520007 215.958999,76.1674996 216.151,76.2485 C216.343001,76.3295004 216.576999,76.37 216.853,76.37 C217.075001,76.37 217.275999,76.3490002 217.456,76.307 C217.636001,76.2649998 217.776999,76.2200002 217.879,76.172 L217.996,76.874 C217.948,76.9040001 217.879,76.9324999 217.789,76.9595 C217.699,76.9865001 217.597001,77.0104999 217.483,77.0315 C217.368999,77.0525001 217.247501,77.0704999 217.1185,77.0855 C216.989499,77.1005001 216.865001,77.108 216.745,77.108 Z M218.896,77 L218.896,70.16 L219.733,70.016 L219.733,72.41 C219.889001,72.3499997 220.055499,72.3035002 220.2325,72.2705 C220.409501,72.2374998 220.584999,72.221 220.759,72.221 C221.131002,72.221 221.439999,72.2734995 221.686,72.3785 C221.932001,72.4835005 222.128499,72.6304991 222.2755,72.8195 C222.422501,73.0085009 222.526,73.2349987 222.586,73.499 C222.646,73.7630013 222.676,74.0539984 222.676,74.372 L222.676,77 L221.839,77 L221.839,74.552 C221.839,74.2639986 221.8195,74.018001 221.7805,73.814 C221.7415,73.609999 221.677,73.4450006 221.587,73.319 C221.497,73.1929994 221.377001,73.1015003 221.227,73.0445 C221.076999,72.9874997 220.891001,72.959 220.669,72.959 C220.579,72.959 220.486,72.9649999 220.39,72.977 C220.294,72.9890001 220.2025,73.0024999 220.1155,73.0175 C220.0285,73.0325001 219.9505,73.0489999 219.8815,73.067 C219.8125,73.0850001 219.763,73.0999999 219.733,73.112 L219.733,77 L218.896,77 Z M227.203,76.397 C227.545002,76.397 227.798499,76.3520005 227.9635,76.262 C228.128501,76.1719995 228.211,76.028001 228.211,75.83 C228.211,75.625999 228.130001,75.4640006 227.968,75.344 C227.805999,75.2239994 227.539002,75.0890008 227.167,74.939 C226.986999,74.8669996 226.814501,74.7935004 226.6495,74.7185 C226.484499,74.6434996 226.342001,74.5550005 226.222,74.453 C226.101999,74.3509995 226.006,74.2280007 225.934,74.084 C225.862,73.9399993 225.826,73.7630011 225.826,73.553 C225.826,73.1389979 225.978998,72.8105012 226.285,72.5675 C226.591002,72.3244988 227.007997,72.203 227.536,72.203 C227.668001,72.203 227.799999,72.2104999 227.932,72.2255 C228.064001,72.2405001 228.186999,72.2584999 228.301,72.2795 C228.415001,72.3005001 228.5155,72.3229999 228.6025,72.347 C228.6895,72.3710001 228.757,72.3919999 228.805,72.41 L228.652,73.13 C228.562,73.0819998 228.421001,73.0325003 228.229,72.9815 C228.036999,72.9304997 227.806001,72.905 227.536,72.905 C227.301999,72.905 227.098001,72.9514995 226.924,73.0445 C226.749999,73.1375005 226.663,73.282999 226.663,73.481 C226.663,73.5830005 226.6825,73.6729996 226.7215,73.751 C226.7605,73.8290004 226.8205,73.8994997 226.9015,73.9625 C226.9825,74.0255003 227.082999,74.0839997 227.203,74.138 C227.323001,74.1920003 227.466999,74.2489997 227.635,74.309 C227.857001,74.3930004 228.054999,74.4754996 228.229,74.5565 C228.403001,74.6375004 228.551499,74.7319995 228.6745,74.84 C228.797501,74.9480005 228.892,75.0784992 228.958,75.2315 C229.024,75.3845008 229.057,75.5719989 229.057,75.794 C229.057,76.2260022 228.896502,76.5529989 228.5755,76.775 C228.254498,76.9970011 227.797003,77.108 227.203,77.108 C226.788998,77.108 226.465001,77.0735003 226.231,77.0045 C225.996999,76.9354997 225.838,76.8830002 225.754,76.847 L225.907,76.127 C226.003,76.1630002 226.155999,76.2169996 226.366,76.289 C226.576001,76.3610004 226.854998,76.397 227.203,76.397 Z M229.867,74.669 C229.867,74.2549979 229.926999,73.8935015 230.047,73.5845 C230.167001,73.2754985 230.325999,73.019001 230.524,72.815 C230.722001,72.610999 230.949999,72.4580005 231.208,72.356 C231.466001,72.2539995 231.729999,72.203 232,72.203 C232.630003,72.203 233.112998,72.399498 233.449,72.7925 C233.785002,73.185502 233.953,73.783996 233.953,74.588 L233.953,74.7275 C233.953,74.7845003 233.95,74.8369998 233.944,74.885 L230.74,74.885 C230.776,75.3710024 230.916999,75.7399987 231.163,75.992 C231.409001,76.2440013 231.792997,76.37 232.315,76.37 C232.609001,76.37 232.856499,76.3445003 233.0575,76.2935 C233.258501,76.2424997 233.409999,76.1930002 233.512,76.145 L233.629,76.847 C233.526999,76.9010003 233.348501,76.9579997 233.0935,77.018 C232.838499,77.0780003 232.549002,77.108 232.225,77.108 C231.816998,77.108 231.464501,77.0465006 231.1675,76.9235 C230.870499,76.8004994 230.626001,76.6310011 230.434,76.415 C230.241999,76.1989989 230.0995,75.9425015 230.0065,75.6455 C229.9135,75.3484985 229.867,75.0230018 229.867,74.669 Z M233.08,74.21 C233.086,73.8319981 232.991501,73.5215012 232.7965,73.2785 C232.601499,73.0354988 232.333002,72.914 231.991,72.914 C231.798999,72.914 231.629501,72.9514996 231.4825,73.0265 C231.335499,73.1015004 231.211001,73.1989994 231.109,73.319 C231.006999,73.4390006 230.9275,73.5769992 230.8705,73.733 C230.8135,73.8890008 230.776,74.0479992 230.758,74.21 L233.08,74.21 Z M236.887,72.221 C236.959,72.221 237.0415,72.2255 237.1345,72.2345 C237.2275,72.2435 237.319,72.2554999 237.409,72.2705 C237.499,72.2855001 237.5815,72.3004999 237.6565,72.3155 C237.7315,72.3305001 237.787,72.3439999 237.823,72.356 L237.679,73.085 C237.613,73.0609999 237.503501,73.0325002 237.3505,72.9995 C237.197499,72.9664998 237.001001,72.95 236.761,72.95 C236.604999,72.95 236.450501,72.9664998 236.2975,72.9995 C236.144499,73.0325002 236.044,73.0549999 235.996,73.067 L235.996,77 L235.159,77 L235.159,72.518 C235.357001,72.4459996 235.602999,72.3785003 235.897,72.3155 C236.191001,72.2524997 236.520998,72.221 236.887,72.221 Z M242.287,72.32 C242.052999,73.1960044 241.778502,74.035996 241.4635,74.84 C241.148498,75.644004 240.844001,76.3639968 240.55,77 L239.794,77 C239.499999,76.3639968 239.195502,75.644004 238.8805,74.84 C238.565498,74.035996 238.291001,73.1960044 238.057,72.32 L238.957,72.32 C239.029,72.6140015 239.1145,72.9274983 239.2135,73.2605 C239.3125,73.5935017 239.417499,73.9234984 239.5285,74.2505 C239.639501,74.5775016 239.751999,74.8939985 239.866,75.2 C239.980001,75.5060015 240.087999,75.7789988 240.19,76.019 C240.292001,75.7789988 240.399999,75.5060015 240.514,75.2 C240.628001,74.8939985 240.740499,74.5775016 240.8515,74.2505 C240.962501,73.9234984 241.0675,73.5935017 241.1665,73.2605 C241.2655,72.9274983 241.351,72.6140015 241.423,72.32 L242.287,72.32 Z M243.988,77 L243.151,77 L243.151,72.32 L243.988,72.32 L243.988,77 Z M243.565,71.474 C243.414999,71.474 243.287501,71.4245005 243.1825,71.3255 C243.077499,71.2264995 243.025,71.0930008 243.025,70.925 C243.025,70.7569992 243.077499,70.6235005 243.1825,70.5245 C243.287501,70.4254995 243.414999,70.376 243.565,70.376 C243.715001,70.376 243.842499,70.4254995 243.9475,70.5245 C244.052501,70.6235005 244.105,70.7569992 244.105,70.925 C244.105,71.0930008 244.052501,71.2264995 243.9475,71.3255 C243.842499,71.4245005 243.715001,71.474 243.565,71.474 Z M247.462,77.108 C247.083998,77.108 246.752501,77.0480006 246.4675,76.928 C246.182499,76.8079994 245.942501,76.6400011 245.7475,76.424 C245.552499,76.2079989 245.407,75.9515015 245.311,75.6545 C245.215,75.3574985 245.167,75.0290018 245.167,74.669 C245.167,74.3089982 245.219499,73.9790015 245.3245,73.679 C245.429501,73.3789985 245.577999,73.1195011 245.77,72.9005 C245.962001,72.6814989 246.197499,72.5105006 246.4765,72.3875 C246.755501,72.2644994 247.065998,72.203 247.408,72.203 C247.618001,72.203 247.827999,72.2209998 248.038,72.257 C248.248001,72.2930002 248.448999,72.3499996 248.641,72.428 L248.452,73.139 C248.325999,73.0789997 248.180501,73.0310002 248.0155,72.995 C247.850499,72.9589998 247.675001,72.941 247.489,72.941 C247.020998,72.941 246.662501,73.0879985 246.4135,73.382 C246.164499,73.6760015 246.04,74.1049972 246.04,74.669 C246.04,74.9210013 246.0685,75.1519989 246.1255,75.362 C246.1825,75.572001 246.272499,75.7519993 246.3955,75.902 C246.518501,76.0520007 246.675999,76.1674996 246.868,76.2485 C247.060001,76.3295004 247.293999,76.37 247.57,76.37 C247.792001,76.37 247.992999,76.3490002 248.173,76.307 C248.353001,76.2649998 248.493999,76.2200002 248.596,76.172 L248.713,76.874 C248.665,76.9040001 248.596,76.9324999 248.506,76.9595 C248.416,76.9865001 248.314001,77.0104999 248.2,77.0315 C248.085999,77.0525001 247.964501,77.0704999 247.8355,77.0855 C247.706499,77.1005001 247.582001,77.108 247.462,77.108 Z M249.352,74.669 C249.352,74.2549979 249.411999,73.8935015 249.532,73.5845 C249.652001,73.2754985 249.810999,73.019001 250.009,72.815 C250.207001,72.610999 250.434999,72.4580005 250.693,72.356 C250.951001,72.2539995 251.214999,72.203 251.485,72.203 C252.115003,72.203 252.597998,72.399498 252.934,72.7925 C253.270002,73.185502 253.438,73.783996 253.438,74.588 L253.438,74.7275 C253.438,74.7845003 253.435,74.8369998 253.429,74.885 L250.225,74.885 C250.261,75.3710024 250.401999,75.7399987 250.648,75.992 C250.894001,76.2440013 251.277997,76.37 251.8,76.37 C252.094001,76.37 252.341499,76.3445003 252.5425,76.2935 C252.743501,76.2424997 252.894999,76.1930002 252.997,76.145 L253.114,76.847 C253.011999,76.9010003 252.833501,76.9579997 252.5785,77.018 C252.323499,77.0780003 252.034002,77.108 251.71,77.108 C251.301998,77.108 250.949501,77.0465006 250.6525,76.9235 C250.355499,76.8004994 250.111001,76.6310011 249.919,76.415 C249.726999,76.1989989 249.5845,75.9425015 249.4915,75.6455 C249.3985,75.3484985 249.352,75.0230018 249.352,74.669 Z M252.565,74.21 C252.571,73.8319981 252.476501,73.5215012 252.2815,73.2785 C252.086499,73.0354988 251.818002,72.914 251.476,72.914 C251.283999,72.914 251.114501,72.9514996 250.9675,73.0265 C250.820499,73.1015004 250.696001,73.1989994 250.594,73.319 C250.491999,73.4390006 250.4125,73.5769992 250.3555,73.733 C250.2985,73.8890008 250.261,74.0479992 250.243,74.21 L252.565,74.21 Z M255.733,76.397 C256.075002,76.397 256.328499,76.3520005 256.4935,76.262 C256.658501,76.1719995 256.741,76.028001 256.741,75.83 C256.741,75.625999 256.660001,75.4640006 256.498,75.344 C256.335999,75.2239994 256.069002,75.0890008 255.697,74.939 C255.516999,74.8669996 255.344501,74.7935004 255.1795,74.7185 C255.014499,74.6434996 254.872001,74.5550005 254.752,74.453 C254.631999,74.3509995 254.536,74.2280007 254.464,74.084 C254.392,73.9399993 254.356,73.7630011 254.356,73.553 C254.356,73.1389979 254.508998,72.8105012 254.815,72.5675 C255.121002,72.3244988 255.537997,72.203 256.066,72.203 C256.198001,72.203 256.329999,72.2104999 256.462,72.2255 C256.594001,72.2405001 256.716999,72.2584999 256.831,72.2795 C256.945001,72.3005001 257.0455,72.3229999 257.1325,72.347 C257.2195,72.3710001 257.287,72.3919999 257.335,72.41 L257.182,73.13 C257.092,73.0819998 256.951001,73.0325003 256.759,72.9815 C256.566999,72.9304997 256.336001,72.905 256.066,72.905 C255.831999,72.905 255.628001,72.9514995 255.454,73.0445 C255.279999,73.1375005 255.193,73.282999 255.193,73.481 C255.193,73.5830005 255.2125,73.6729996 255.2515,73.751 C255.2905,73.8290004 255.3505,73.8994997 255.4315,73.9625 C255.5125,74.0255003 255.612999,74.0839997 255.733,74.138 C255.853001,74.1920003 255.996999,74.2489997 256.165,74.309 C256.387001,74.3930004 256.584999,74.4754996 256.759,74.5565 C256.933001,74.6375004 257.081499,74.7319995 257.2045,74.84 C257.327501,74.9480005 257.422,75.0784992 257.488,75.2315 C257.554,75.3845008 257.587,75.5719989 257.587,75.794 C257.587,76.2260022 257.426502,76.5529989 257.1055,76.775 C256.784498,76.9970011 256.327003,77.108 255.733,77.108 C255.318998,77.108 254.995001,77.0735003 254.761,77.0045 C254.526999,76.9354997 254.368,76.8830002 254.284,76.847 L254.437,76.127 C254.533,76.1630002 254.685999,76.2169996 254.896,76.289 C255.106001,76.3610004 255.384998,76.397 255.733,76.397 Z M261.574,72.527 C261.676001,72.4609997 261.830499,72.3920004 262.0375,72.32 C262.244501,72.2479996 262.482999,72.212 262.753,72.212 C263.089002,72.212 263.387499,72.2719994 263.6485,72.392 C263.909501,72.5120006 264.129999,72.6799989 264.31,72.896 C264.490001,73.1120011 264.6265,73.3699985 264.7195,73.67 C264.8125,73.9700015 264.859,74.2999982 264.859,74.66 C264.859,75.0380019 264.803501,75.3784985 264.6925,75.6815 C264.581499,75.9845015 264.424001,76.240999 264.22,76.451 C264.015999,76.661001 263.770001,76.8229994 263.482,76.937 C263.193999,77.0510006 262.870002,77.108 262.51,77.108 C262.119998,77.108 261.775002,77.0810003 261.475,77.027 C261.174999,76.9729997 260.929001,76.9190003 260.737,76.865 L260.737,70.16 L261.574,70.016 L261.574,72.527 Z M261.574,76.271 C261.658,76.2950001 261.776499,76.3174999 261.9295,76.3385 C262.082501,76.3595001 262.272999,76.37 262.501,76.37 C262.951002,76.37 263.310999,76.2215015 263.581,75.9245 C263.851001,75.6274985 263.986,75.2060027 263.986,74.66 C263.986,74.4199988 263.962,74.195001 263.914,73.985 C263.866,73.7749989 263.788001,73.5935008 263.68,73.4405 C263.571999,73.2874992 263.432501,73.1675004 263.2615,73.0805 C263.090499,72.9934996 262.885001,72.95 262.645,72.95 C262.416999,72.95 262.207001,72.9889996 262.015,73.067 C261.822999,73.1450004 261.676001,73.2259996 261.574,73.31 L261.574,76.271 Z M265.489,77.873 C265.555,77.9030002 265.640499,77.9314999 265.7455,77.9585 C265.850501,77.9855001 265.953999,77.999 266.056,77.999 C266.386002,77.999 266.643999,77.9255007 266.83,77.7785 C267.016001,77.6314993 267.183999,77.3930016 267.334,77.063 C266.955998,76.3429964 266.603502,75.579504 266.2765,74.7725 C265.949498,73.965496 265.678001,73.1480041 265.462,72.32 L266.362,72.32 C266.428,72.5900013 266.5075,72.8809984 266.6005,73.193 C266.6935,73.5050016 266.796999,73.8259984 266.911,74.156 C267.025001,74.4860017 267.147999,74.8159983 267.28,75.146 C267.412001,75.4760016 267.549999,75.7939985 267.694,76.1 C267.922001,75.4699968 268.119999,74.8460031 268.288,74.228 C268.456001,73.6099969 268.614999,72.9740033 268.765,72.32 L269.629,72.32 C269.412999,73.2020044 269.173001,74.0494959 268.909,74.8625 C268.644999,75.6755041 268.360002,76.4359965 268.054,77.144 C267.933999,77.4140014 267.809501,77.646499 267.6805,77.8415 C267.551499,78.036501 267.409001,78.1969994 267.253,78.323 C267.096999,78.4490006 266.921501,78.5419997 266.7265,78.602 C266.531499,78.6620003 266.311001,78.692 266.065,78.692 C265.999,78.692 265.93,78.6875 265.858,78.6785 C265.786,78.6695 265.7155,78.6575001 265.6465,78.6425 C265.5775,78.6274999 265.5145,78.6110001 265.4575,78.593 C265.4005,78.5749999 265.36,78.5600001 265.336,78.548 L265.489,77.873 Z M272.59,72.455 C272.782001,72.4069998 273.036998,72.3560003 273.355,72.302 C273.673002,72.2479997 274.038998,72.221 274.453,72.221 C274.825002,72.221 275.133999,72.2734995 275.38,72.3785 C275.626001,72.4835005 275.822499,72.6304991 275.9695,72.8195 C276.116501,73.0085009 276.22,73.2349987 276.28,73.499 C276.34,73.7630013 276.37,74.0539984 276.37,74.372 L276.37,77 L275.533,77 L275.533,74.552 C275.533,74.2639986 275.5135,74.018001 275.4745,73.814 C275.4355,73.609999 275.371,73.4450006 275.281,73.319 C275.191,73.1929994 275.071001,73.1015003 274.921,73.0445 C274.770999,72.9874997 274.585001,72.959 274.363,72.959 C274.273,72.959 274.18,72.962 274.084,72.968 C273.988,72.974 273.8965,72.9815 273.8095,72.9905 C273.7225,72.9995 273.6445,73.0099999 273.5755,73.022 C273.5065,73.0340001 273.457,73.043 273.427,73.049 L273.427,77 L272.59,77 L272.59,72.455 Z M279.34,76.397 C279.538001,76.397 279.713499,76.3925 279.8665,76.3835 C280.019501,76.3745 280.146999,76.3580001 280.249,76.334 L280.249,74.939 C280.189,74.9089998 280.091501,74.8835001 279.9565,74.8625 C279.821499,74.8414999 279.658001,74.831 279.466,74.831 C279.339999,74.831 279.206501,74.8399999 279.0655,74.858 C278.924499,74.8760001 278.795501,74.9134997 278.6785,74.9705 C278.561499,75.0275003 278.464,75.1054995 278.386,75.2045 C278.308,75.3035005 278.269,75.4339992 278.269,75.596 C278.269,75.8960015 278.364999,76.1044994 278.557,76.2215 C278.749001,76.3385006 279.009998,76.397 279.34,76.397 Z M279.268,72.203 C279.604002,72.203 279.887499,72.2464996 280.1185,72.3335 C280.349501,72.4205004 280.535499,72.5434992 280.6765,72.7025 C280.817501,72.8615008 280.918,73.0504989 280.978,73.2695 C281.038,73.4885011 281.068,73.7299987 281.068,73.994 L281.068,76.919 C280.996,76.9310001 280.895501,76.9474999 280.7665,76.9685 C280.637499,76.9895001 280.492001,77.0089999 280.33,77.027 C280.167999,77.0450001 279.992501,77.0614999 279.8035,77.0765 C279.614499,77.0915001 279.427001,77.099 279.241,77.099 C278.976999,77.099 278.734001,77.0720003 278.512,77.018 C278.289999,76.9639997 278.098001,76.8785006 277.936,76.7615 C277.773999,76.6444994 277.648,76.490001 277.558,76.298 C277.468,76.105999 277.423,75.8750013 277.423,75.605 C277.423,75.3469987 277.475499,75.1250009 277.5805,74.939 C277.685501,74.7529991 277.827999,74.6030006 278.008,74.489 C278.188001,74.3749994 278.397999,74.2910003 278.638,74.237 C278.878001,74.1829997 279.129999,74.156 279.394,74.156 C279.478,74.156 279.565,74.1605 279.655,74.1695 C279.745,74.1785 279.8305,74.1904999 279.9115,74.2055 C279.9925,74.2205001 280.063,74.2339999 280.123,74.246 C280.183,74.2580001 280.225,74.267 280.249,74.273 L280.249,74.039 C280.249,73.9009993 280.234,73.7645007 280.204,73.6295 C280.174,73.4944993 280.12,73.3745005 280.042,73.2695 C279.964,73.1644995 279.857501,73.0805003 279.7225,73.0175 C279.587499,72.9544997 279.412001,72.923 279.196,72.923 C278.919999,72.923 278.678501,72.9424998 278.4715,72.9815 C278.264499,73.0205002 278.110001,73.0609998 278.008,73.103 L277.909,72.41 C278.017001,72.3619998 278.196999,72.3155002 278.449,72.2705 C278.701001,72.2254998 278.973999,72.203 279.268,72.203 Z M282.454,72.455 C282.646001,72.4069998 282.899498,72.3560003 283.2145,72.302 C283.529502,72.2479997 283.893998,72.221 284.308,72.221 C284.608002,72.221 284.859999,72.2614996 285.064,72.3425 C285.268001,72.4235004 285.438999,72.5419992 285.577,72.698 C285.619,72.6679998 285.685,72.6260003 285.775,72.572 C285.865,72.5179997 285.975999,72.4655003 286.108,72.4145 C286.240001,72.3634997 286.386999,72.3185002 286.549,72.2795 C286.711001,72.2404998 286.884999,72.221 287.071,72.221 C287.431002,72.221 287.724999,72.2734995 287.953,72.3785 C288.181001,72.4835005 288.359499,72.631999 288.4885,72.824 C288.617501,73.016001 288.7045,73.2439987 288.7495,73.508 C288.7945,73.7720013 288.817,74.0599984 288.817,74.372 L288.817,77 L287.98,77 L287.98,74.552 C287.98,74.2759986 287.9665,74.039001 287.9395,73.841 C287.9125,73.642999 287.8615,73.4780007 287.7865,73.346 C287.7115,73.2139993 287.609501,73.1165003 287.4805,73.0535 C287.351499,72.9904997 287.185001,72.959 286.981,72.959 C286.698999,72.959 286.466501,72.9964996 286.2835,73.0715 C286.100499,73.1465004 285.976,73.2139997 285.91,73.274 C285.958,73.4300008 285.994,73.6009991 286.018,73.787 C286.042,73.9730009 286.054,74.167999 286.054,74.372 L286.054,77 L285.217,77 L285.217,74.552 C285.217,74.2759986 285.202,74.039001 285.172,73.841 C285.142,73.642999 285.0895,73.4780007 285.0145,73.346 C284.9395,73.2139993 284.837501,73.1165003 284.7085,73.0535 C284.579499,72.9904997 284.416001,72.959 284.218,72.959 C284.134,72.959 284.044,72.962 283.948,72.968 C283.852,72.974 283.7605,72.9815 283.6735,72.9905 C283.5865,72.9995 283.507,73.0099999 283.435,73.022 C283.363,73.0340001 283.315,73.043 283.291,73.049 L283.291,77 L282.454,77 L282.454,72.455 Z M289.942,74.669 C289.942,74.2549979 290.001999,73.8935015 290.122,73.5845 C290.242001,73.2754985 290.400999,73.019001 290.599,72.815 C290.797001,72.610999 291.024999,72.4580005 291.283,72.356 C291.541001,72.2539995 291.804999,72.203 292.075,72.203 C292.705003,72.203 293.187998,72.399498 293.524,72.7925 C293.860002,73.185502 294.028,73.783996 294.028,74.588 L294.028,74.7275 C294.028,74.7845003 294.025,74.8369998 294.019,74.885 L290.815,74.885 C290.851,75.3710024 290.991999,75.7399987 291.238,75.992 C291.484001,76.2440013 291.867997,76.37 292.39,76.37 C292.684001,76.37 292.931499,76.3445003 293.1325,76.2935 C293.333501,76.2424997 293.484999,76.1930002 293.587,76.145 L293.704,76.847 C293.601999,76.9010003 293.423501,76.9579997 293.1685,77.018 C292.913499,77.0780003 292.624002,77.108 292.3,77.108 C291.891998,77.108 291.539501,77.0465006 291.2425,76.9235 C290.945499,76.8004994 290.701001,76.6310011 290.509,76.415 C290.316999,76.1989989 290.1745,75.9425015 290.0815,75.6455 C289.9885,75.3484985 289.942,75.0230018 289.942,74.669 Z M293.155,74.21 C293.161,73.8319981 293.066501,73.5215012 292.8715,73.2785 C292.676499,73.0354988 292.408002,72.914 292.066,72.914 C291.873999,72.914 291.704501,72.9514996 291.5575,73.0265 C291.410499,73.1015004 291.286001,73.1989994 291.184,73.319 C291.081999,73.4390006 291.0025,73.5769992 290.9455,73.733 C290.8885,73.8890008 290.851,74.0479992 290.833,74.21 L293.155,74.21 Z M301.444,74.66 C301.444,75.0320019 301.390001,75.3679985 301.282,75.668 C301.173999,75.9680015 301.022501,76.2259989 300.8275,76.442 C300.632499,76.6580011 300.400001,76.8244994 300.13,76.9415 C299.859999,77.0585006 299.566002,77.117 299.248,77.117 C298.929998,77.117 298.636001,77.0585006 298.366,76.9415 C298.095999,76.8244994 297.863501,76.6580011 297.6685,76.442 C297.473499,76.2259989 297.322001,75.9680015 297.214,75.668 C297.105999,75.3679985 297.052,75.0320019 297.052,74.66 C297.052,74.2939982 297.105999,73.9595015 297.214,73.6565 C297.322001,73.3534985 297.473499,73.0940011 297.6685,72.878 C297.863501,72.6619989 298.095999,72.4955006 298.366,72.3785 C298.636001,72.2614994 298.929998,72.203 299.248,72.203 C299.566002,72.203 299.859999,72.2614994 300.13,72.3785 C300.400001,72.4955006 300.632499,72.6619989 300.8275,72.878 C301.022501,73.0940011 301.173999,73.3534985 301.282,73.6565 C301.390001,73.9595015 301.444,74.2939982 301.444,74.66 Z M300.571,74.66 C300.571,74.1319974 300.452501,73.7135015 300.2155,73.4045 C299.978499,73.0954985 299.656002,72.941 299.248,72.941 C298.839998,72.941 298.517501,73.0954985 298.2805,73.4045 C298.043499,73.7135015 297.925,74.1319974 297.925,74.66 C297.925,75.1880026 298.043499,75.6064985 298.2805,75.9155 C298.517501,76.2245015 298.839998,76.379 299.248,76.379 C299.656002,76.379 299.978499,76.2245015 300.2155,75.9155 C300.452501,75.6064985 300.571,75.1880026 300.571,74.66 Z M304.351,72.221 C304.423,72.221 304.5055,72.2255 304.5985,72.2345 C304.6915,72.2435 304.783,72.2554999 304.873,72.2705 C304.963,72.2855001 305.0455,72.3004999 305.1205,72.3155 C305.1955,72.3305001 305.251,72.3439999 305.287,72.356 L305.143,73.085 C305.077,73.0609999 304.967501,73.0325002 304.8145,72.9995 C304.661499,72.9664998 304.465001,72.95 304.225,72.95 C304.068999,72.95 303.914501,72.9664998 303.7615,72.9995 C303.608499,73.0325002 303.508,73.0549999 303.46,73.067 L303.46,77 L302.623,77 L302.623,72.518 C302.821001,72.4459996 303.066999,72.3785003 303.361,72.3155 C303.655001,72.2524997 303.984998,72.221 304.351,72.221 Z M308.176,72.455 C308.368001,72.4069998 308.621498,72.3560003 308.9365,72.302 C309.251502,72.2479997 309.615998,72.221 310.03,72.221 C310.330002,72.221 310.581999,72.2614996 310.786,72.3425 C310.990001,72.4235004 311.160999,72.5419992 311.299,72.698 C311.341,72.6679998 311.407,72.6260003 311.497,72.572 C311.587,72.5179997 311.697999,72.4655003 311.83,72.4145 C311.962001,72.3634997 312.108999,72.3185002 312.271,72.2795 C312.433001,72.2404998 312.606999,72.221 312.793,72.221 C313.153002,72.221 313.446999,72.2734995 313.675,72.3785 C313.903001,72.4835005 314.081499,72.631999 314.2105,72.824 C314.339501,73.016001 314.4265,73.2439987 314.4715,73.508 C314.5165,73.7720013 314.539,74.0599984 314.539,74.372 L314.539,77 L313.702,77 L313.702,74.552 C313.702,74.2759986 313.6885,74.039001 313.6615,73.841 C313.6345,73.642999 313.5835,73.4780007 313.5085,73.346 C313.4335,73.2139993 313.331501,73.1165003 313.2025,73.0535 C313.073499,72.9904997 312.907001,72.959 312.703,72.959 C312.420999,72.959 312.188501,72.9964996 312.0055,73.0715 C311.822499,73.1465004 311.698,73.2139997 311.632,73.274 C311.68,73.4300008 311.716,73.6009991 311.74,73.787 C311.764,73.9730009 311.776,74.167999 311.776,74.372 L311.776,77 L310.939,77 L310.939,74.552 C310.939,74.2759986 310.924,74.039001 310.894,73.841 C310.864,73.642999 310.8115,73.4780007 310.7365,73.346 C310.6615,73.2139993 310.559501,73.1165003 310.4305,73.0535 C310.301499,72.9904997 310.138001,72.959 309.94,72.959 C309.856,72.959 309.766,72.962 309.67,72.968 C309.574,72.974 309.4825,72.9815 309.3955,72.9905 C309.3085,72.9995 309.229,73.0099999 309.157,73.022 C309.085,73.0340001 309.037,73.043 309.013,73.049 L309.013,77 L308.176,77 L308.176,72.455 Z M317.509,76.397 C317.707001,76.397 317.882499,76.3925 318.0355,76.3835 C318.188501,76.3745 318.315999,76.3580001 318.418,76.334 L318.418,74.939 C318.358,74.9089998 318.260501,74.8835001 318.1255,74.8625 C317.990499,74.8414999 317.827001,74.831 317.635,74.831 C317.508999,74.831 317.375501,74.8399999 317.2345,74.858 C317.093499,74.8760001 316.964501,74.9134997 316.8475,74.9705 C316.730499,75.0275003 316.633,75.1054995 316.555,75.2045 C316.477,75.3035005 316.438,75.4339992 316.438,75.596 C316.438,75.8960015 316.533999,76.1044994 316.726,76.2215 C316.918001,76.3385006 317.178998,76.397 317.509,76.397 Z M317.437,72.203 C317.773002,72.203 318.056499,72.2464996 318.2875,72.3335 C318.518501,72.4205004 318.704499,72.5434992 318.8455,72.7025 C318.986501,72.8615008 319.087,73.0504989 319.147,73.2695 C319.207,73.4885011 319.237,73.7299987 319.237,73.994 L319.237,76.919 C319.165,76.9310001 319.064501,76.9474999 318.9355,76.9685 C318.806499,76.9895001 318.661001,77.0089999 318.499,77.027 C318.336999,77.0450001 318.161501,77.0614999 317.9725,77.0765 C317.783499,77.0915001 317.596001,77.099 317.41,77.099 C317.145999,77.099 316.903001,77.0720003 316.681,77.018 C316.458999,76.9639997 316.267001,76.8785006 316.105,76.7615 C315.942999,76.6444994 315.817,76.490001 315.727,76.298 C315.637,76.105999 315.592,75.8750013 315.592,75.605 C315.592,75.3469987 315.644499,75.1250009 315.7495,74.939 C315.854501,74.7529991 315.996999,74.6030006 316.177,74.489 C316.357001,74.3749994 316.566999,74.2910003 316.807,74.237 C317.047001,74.1829997 317.298999,74.156 317.563,74.156 C317.647,74.156 317.734,74.1605 317.824,74.1695 C317.914,74.1785 317.9995,74.1904999 318.0805,74.2055 C318.1615,74.2205001 318.232,74.2339999 318.292,74.246 C318.352,74.2580001 318.394,74.267 318.418,74.273 L318.418,74.039 C318.418,73.9009993 318.403,73.7645007 318.373,73.6295 C318.343,73.4944993 318.289,73.3745005 318.211,73.2695 C318.133,73.1644995 318.026501,73.0805003 317.8915,73.0175 C317.756499,72.9544997 317.581001,72.923 317.365,72.923 C317.088999,72.923 316.847501,72.9424998 316.6405,72.9815 C316.433499,73.0205002 316.279001,73.0609998 316.177,73.103 L316.078,72.41 C316.186001,72.3619998 316.365999,72.3155002 316.618,72.2705 C316.870001,72.2254998 317.142999,72.203 317.437,72.203 Z M320.623,72.455 C320.815001,72.4069998 321.069998,72.3560003 321.388,72.302 C321.706002,72.2479997 322.071998,72.221 322.486,72.221 C322.858002,72.221 323.166999,72.2734995 323.413,72.3785 C323.659001,72.4835005 323.855499,72.6304991 324.0025,72.8195 C324.149501,73.0085009 324.253,73.2349987 324.313,73.499 C324.373,73.7630013 324.403,74.0539984 324.403,74.372 L324.403,77 L323.566,77 L323.566,74.552 C323.566,74.2639986 323.5465,74.018001 323.5075,73.814 C323.4685,73.609999 323.404,73.4450006 323.314,73.319 C323.224,73.1929994 323.104001,73.1015003 322.954,73.0445 C322.803999,72.9874997 322.618001,72.959 322.396,72.959 C322.306,72.959 322.213,72.962 322.117,72.968 C322.021,72.974 321.9295,72.9815 321.8425,72.9905 C321.7555,72.9995 321.6775,73.0099999 321.6085,73.022 C321.5395,73.0340001 321.49,73.043 321.46,73.049 L321.46,77 L320.623,77 L320.623,72.455 Z M329.515,76.865 C329.322999,76.9130002 329.069502,76.9639997 328.7545,77.018 C328.439498,77.0720003 328.075002,77.099 327.661,77.099 C327.300998,77.099 326.998001,77.0465005 326.752,76.9415 C326.505999,76.8364995 326.308001,76.688001 326.158,76.496 C326.007999,76.303999 325.9,76.0775013 325.834,75.8165 C325.768,75.5554987 325.735,75.2660016 325.735,74.948 L325.735,72.32 L326.572,72.32 L326.572,74.768 C326.572,75.3380029 326.661999,75.7459988 326.842,75.992 C327.022001,76.2380012 327.324998,76.361 327.751,76.361 C327.841,76.361 327.934,76.358 328.03,76.352 C328.126,76.346 328.216,76.3385 328.3,76.3295 C328.384,76.3205 328.4605,76.3115 328.5295,76.3025 C328.5985,76.2935 328.648,76.2830001 328.678,76.271 L328.678,72.32 L329.515,72.32 L329.515,76.865 Z M332.782,70.016 C333.028001,70.016 333.239499,70.0339998 333.4165,70.07 C333.593501,70.1060002 333.718,70.1389998 333.79,70.169 L333.637,70.889 C333.565,70.8529998 333.463001,70.8185002 333.331,70.7855 C333.198999,70.7524998 333.037001,70.736 332.845,70.736 C332.454998,70.736 332.182001,70.8424989 332.026,71.0555 C331.869999,71.2685011 331.792,71.5549982 331.792,71.915 L331.792,72.32 L333.592,72.32 L333.592,73.022 L331.792,73.022 L331.792,77 L330.955,77 L330.955,71.897 C330.955,71.296997 331.101999,70.8335016 331.396,70.5065 C331.690001,70.1794984 332.151997,70.016 332.782,70.016 Z M336.013,76.397 C336.211001,76.397 336.386499,76.3925 336.5395,76.3835 C336.692501,76.3745 336.819999,76.3580001 336.922,76.334 L336.922,74.939 C336.862,74.9089998 336.764501,74.8835001 336.6295,74.8625 C336.494499,74.8414999 336.331001,74.831 336.139,74.831 C336.012999,74.831 335.879501,74.8399999 335.7385,74.858 C335.597499,74.8760001 335.468501,74.9134997 335.3515,74.9705 C335.234499,75.0275003 335.137,75.1054995 335.059,75.2045 C334.981,75.3035005 334.942,75.4339992 334.942,75.596 C334.942,75.8960015 335.037999,76.1044994 335.23,76.2215 C335.422001,76.3385006 335.682998,76.397 336.013,76.397 Z M335.941,72.203 C336.277002,72.203 336.560499,72.2464996 336.7915,72.3335 C337.022501,72.4205004 337.208499,72.5434992 337.3495,72.7025 C337.490501,72.8615008 337.591,73.0504989 337.651,73.2695 C337.711,73.4885011 337.741,73.7299987 337.741,73.994 L337.741,76.919 C337.669,76.9310001 337.568501,76.9474999 337.4395,76.9685 C337.310499,76.9895001 337.165001,77.0089999 337.003,77.027 C336.840999,77.0450001 336.665501,77.0614999 336.4765,77.0765 C336.287499,77.0915001 336.100001,77.099 335.914,77.099 C335.649999,77.099 335.407001,77.0720003 335.185,77.018 C334.962999,76.9639997 334.771001,76.8785006 334.609,76.7615 C334.446999,76.6444994 334.321,76.490001 334.231,76.298 C334.141,76.105999 334.096,75.8750013 334.096,75.605 C334.096,75.3469987 334.148499,75.1250009 334.2535,74.939 C334.358501,74.7529991 334.500999,74.6030006 334.681,74.489 C334.861001,74.3749994 335.070999,74.2910003 335.311,74.237 C335.551001,74.1829997 335.802999,74.156 336.067,74.156 C336.151,74.156 336.238,74.1605 336.328,74.1695 C336.418,74.1785 336.5035,74.1904999 336.5845,74.2055 C336.6655,74.2205001 336.736,74.2339999 336.796,74.246 C336.856,74.2580001 336.898,74.267 336.922,74.273 L336.922,74.039 C336.922,73.9009993 336.907,73.7645007 336.877,73.6295 C336.847,73.4944993 336.793,73.3745005 336.715,73.2695 C336.637,73.1644995 336.530501,73.0805003 336.3955,73.0175 C336.260499,72.9544997 336.085001,72.923 335.869,72.923 C335.592999,72.923 335.351501,72.9424998 335.1445,72.9815 C334.937499,73.0205002 334.783001,73.0609998 334.681,73.103 L334.582,72.41 C334.690001,72.3619998 334.869999,72.3155002 335.122,72.2705 C335.374001,72.2254998 335.646999,72.203 335.941,72.203 Z M341.161,77.108 C340.782998,77.108 340.451501,77.0480006 340.1665,76.928 C339.881499,76.8079994 339.641501,76.6400011 339.4465,76.424 C339.251499,76.2079989 339.106,75.9515015 339.01,75.6545 C338.914,75.3574985 338.866,75.0290018 338.866,74.669 C338.866,74.3089982 338.918499,73.9790015 339.0235,73.679 C339.128501,73.3789985 339.276999,73.1195011 339.469,72.9005 C339.661001,72.6814989 339.896499,72.5105006 340.1755,72.3875 C340.454501,72.2644994 340.764998,72.203 341.107,72.203 C341.317001,72.203 341.526999,72.2209998 341.737,72.257 C341.947001,72.2930002 342.147999,72.3499996 342.34,72.428 L342.151,73.139 C342.024999,73.0789997 341.879501,73.0310002 341.7145,72.995 C341.549499,72.9589998 341.374001,72.941 341.188,72.941 C340.719998,72.941 340.361501,73.0879985 340.1125,73.382 C339.863499,73.6760015 339.739,74.1049972 339.739,74.669 C339.739,74.9210013 339.7675,75.1519989 339.8245,75.362 C339.8815,75.572001 339.971499,75.7519993 340.0945,75.902 C340.217501,76.0520007 340.374999,76.1674996 340.567,76.2485 C340.759001,76.3295004 340.992999,76.37 341.269,76.37 C341.491001,76.37 341.691999,76.3490002 341.872,76.307 C342.052001,76.2649998 342.192999,76.2200002 342.295,76.172 L342.412,76.874 C342.364,76.9040001 342.295,76.9324999 342.205,76.9595 C342.115,76.9865001 342.013001,77.0104999 341.899,77.0315 C341.784999,77.0525001 341.663501,77.0704999 341.5345,77.0855 C341.405499,77.1005001 341.281001,77.108 341.161,77.108 Z M344.095,72.32 L345.868,72.32 L345.868,73.022 L344.095,73.022 L344.095,75.182 C344.095,75.4160012 344.113,75.6094992 344.149,75.7625 C344.185,75.9155008 344.239,76.0354996 344.311,76.1225 C344.383,76.2095004 344.472999,76.2709998 344.581,76.307 C344.689001,76.3430002 344.814999,76.361 344.959,76.361 C345.211001,76.361 345.413499,76.3325003 345.5665,76.2755 C345.719501,76.2184997 345.826,76.1780001 345.886,76.154 L346.048,76.847 C345.964,76.8890002 345.817001,76.9414997 345.607,77.0045 C345.396999,77.0675003 345.157001,77.099 344.887,77.099 C344.568998,77.099 344.306501,77.0585004 344.0995,76.9775 C343.892499,76.8964996 343.726001,76.7750008 343.6,76.613 C343.473999,76.4509992 343.3855,76.2515012 343.3345,76.0145 C343.2835,75.7774988 343.258,75.5030016 343.258,75.191 L343.258,71.015 L344.095,70.871 L344.095,72.32 Z M350.656,76.865 C350.463999,76.9130002 350.210502,76.9639997 349.8955,77.018 C349.580498,77.0720003 349.216002,77.099 348.802,77.099 C348.441998,77.099 348.139001,77.0465005 347.893,76.9415 C347.646999,76.8364995 347.449001,76.688001 347.299,76.496 C347.148999,76.303999 347.041,76.0775013 346.975,75.8165 C346.909,75.5554987 346.876,75.2660016 346.876,74.948 L346.876,72.32 L347.713,72.32 L347.713,74.768 C347.713,75.3380029 347.802999,75.7459988 347.983,75.992 C348.163001,76.2380012 348.465998,76.361 348.892,76.361 C348.982,76.361 349.075,76.358 349.171,76.352 C349.267,76.346 349.357,76.3385 349.441,76.3295 C349.525,76.3205 349.6015,76.3115 349.6705,76.3025 C349.7395,76.2935 349.789,76.2830001 349.819,76.271 L349.819,72.32 L350.656,72.32 L350.656,76.865 Z M353.824,72.221 C353.896,72.221 353.9785,72.2255 354.0715,72.2345 C354.1645,72.2435 354.256,72.2554999 354.346,72.2705 C354.436,72.2855001 354.5185,72.3004999 354.5935,72.3155 C354.6685,72.3305001 354.724,72.3439999 354.76,72.356 L354.616,73.085 C354.55,73.0609999 354.440501,73.0325002 354.2875,72.9995 C354.134499,72.9664998 353.938001,72.95 353.698,72.95 C353.541999,72.95 353.387501,72.9664998 353.2345,72.9995 C353.081499,73.0325002 352.981,73.0549999 352.933,73.067 L352.933,77 L352.096,77 L352.096,72.518 C352.294001,72.4459996 352.539999,72.3785003 352.834,72.3155 C353.128001,72.2524997 353.457998,72.221 353.824,72.221 Z M355.309,74.669 C355.309,74.2549979 355.368999,73.8935015 355.489,73.5845 C355.609001,73.2754985 355.767999,73.019001 355.966,72.815 C356.164001,72.610999 356.391999,72.4580005 356.65,72.356 C356.908001,72.2539995 357.171999,72.203 357.442,72.203 C358.072003,72.203 358.554998,72.399498 358.891,72.7925 C359.227002,73.185502 359.395,73.783996 359.395,74.588 L359.395,74.7275 C359.395,74.7845003 359.392,74.8369998 359.386,74.885 L356.182,74.885 C356.218,75.3710024 356.358999,75.7399987 356.605,75.992 C356.851001,76.2440013 357.234997,76.37 357.757,76.37 C358.051001,76.37 358.298499,76.3445003 358.4995,76.2935 C358.700501,76.2424997 358.851999,76.1930002 358.954,76.145 L359.071,76.847 C358.968999,76.9010003 358.790501,76.9579997 358.5355,77.018 C358.280499,77.0780003 357.991002,77.108 357.667,77.108 C357.258998,77.108 356.906501,77.0465006 356.6095,76.9235 C356.312499,76.8004994 356.068001,76.6310011 355.876,76.415 C355.683999,76.1989989 355.5415,75.9425015 355.4485,75.6455 C355.3555,75.3484985 355.309,75.0230018 355.309,74.669 Z M358.522,74.21 C358.528,73.8319981 358.433501,73.5215012 358.2385,73.2785 C358.043499,73.0354988 357.775002,72.914 357.433,72.914 C357.240999,72.914 357.071501,72.9514996 356.9245,73.0265 C356.777499,73.1015004 356.653001,73.1989994 356.551,73.319 C356.448999,73.4390006 356.3695,73.5769992 356.3125,73.733 C356.2555,73.8890008 356.218,74.0479992 356.2,74.21 L358.522,74.21 Z M362.329,72.221 C362.401,72.221 362.4835,72.2255 362.5765,72.2345 C362.6695,72.2435 362.761,72.2554999 362.851,72.2705 C362.941,72.2855001 363.0235,72.3004999 363.0985,72.3155 C363.1735,72.3305001 363.229,72.3439999 363.265,72.356 L363.121,73.085 C363.055,73.0609999 362.945501,73.0325002 362.7925,72.9995 C362.639499,72.9664998 362.443001,72.95 362.203,72.95 C362.046999,72.95 361.892501,72.9664998 361.7395,72.9995 C361.586499,73.0325002 361.486,73.0549999 361.438,73.067 L361.438,77 L360.601,77 L360.601,72.518 C360.799001,72.4459996 361.044999,72.3785003 361.339,72.3155 C361.633001,72.2524997 361.962998,72.221 362.329,72.221 Z" id="Search-services-by-n" fill="#A2A2A2"></path>
            <g id="icons8-activity_grid" transform="translate(719.000000, 66.000000)" fill="#A3A3A3" fill-rule="nonzero">
                <path d="M0,0 L0,16 L16,16 L16,0 L0,0 Z M1.45454545,1.45454545 L3.63636364,1.45454545 L3.63636364,3.63636364 L1.45454545,3.63636364 L1.45454545,1.45454545 Z M5.09090909,1.45454545 L7.27272727,1.45454545 L7.27272727,3.63636364 L5.09090909,3.63636364 L5.09090909,1.45454545 Z M8.72727273,1.45454545 L10.9090909,1.45454545 L10.9090909,3.63636364 L8.72727273,3.63636364 L8.72727273,1.45454545 Z M12.3636364,1.45454545 L14.5454545,1.45454545 L14.5454545,3.63636364 L12.3636364,3.63636364 L12.3636364,1.45454545 Z M1.45454545,5.09090909 L3.63636364,5.09090909 L3.63636364,7.27272727 L1.45454545,7.27272727 L1.45454545,5.09090909 Z M5.09090909,5.09090909 L7.27272727,5.09090909 L7.27272727,7.27272727 L5.09090909,7.27272727 L5.09090909,5.09090909 Z M8.72727273,5.09090909 L10.9090909,5.09090909 L10.9090909,7.27272727 L8.72727273,7.27272727 L8.72727273,5.09090909 Z M12.3636364,5.09090909 L14.5454545,5.09090909 L14.5454545,7.27272727 L12.3636364,7.27272727 L12.3636364,5.09090909 Z M1.45454545,8.72727273 L3.63636364,8.72727273 L3.63636364,10.9090909 L1.45454545,10.9090909 L1.45454545,8.72727273 Z M5.09090909,8.72727273 L7.27272727,8.72727273 L7.27272727,10.9090909 L5.09090909,10.9090909 L5.09090909,8.72727273 Z M8.72727273,8.72727273 L10.9090909,8.72727273 L10.9090909,10.9090909 L8.72727273,10.9090909 L8.72727273,8.72727273 Z M12.3636364,8.72727273 L14.5454545,8.72727273 L14.5454545,10.9090909 L12.3636364,10.9090909 L12.3636364,8.72727273 Z M1.45454545,12.3636364 L3.63636364,12.3636364 L3.63636364,14.5454545 L1.45454545,14.5454545 L1.45454545,12.3636364 Z M5.09090909,12.3636364 L7.27272727,12.3636364 L7.27272727,14.5454545 L5.09090909,14.5454545 L5.09090909,12.3636364 Z M8.72727273,12.3636364 L10.9090909,12.3636364 L10.9090909,14.5454545 L8.72727273,14.5454545 L8.72727273,12.3636364 Z M12.3636364,12.3636364 L14.5454545,12.3636364 L14.5454545,14.5454545 L12.3636364,14.5454545 L12.3636364,12.3636364 Z" id="Shape"></path>
            </g>
            <g id="icons8-list" opacity="0.300000012" transform="translate(744.000000, 66.000000)" fill="#A3A3A3" fill-rule="nonzero">
                <path d="M0,0 L0,4.36363636 L4.69565217,4.36363636 L4.69565217,0 L0,0 Z M1.56521739,1.45454545 L3.13043478,1.45454545 L3.13043478,2.90909091 L1.56521739,2.90909091 L1.56521739,1.45454545 Z M6.26086957,1.45454545 L6.26086957,2.90909091 L18,2.90909091 L18,1.45454545 L6.26086957,1.45454545 Z M0,5.81818182 L0,10.1818182 L4.69565217,10.1818182 L4.69565217,5.81818182 L0,5.81818182 Z M1.56521739,7.27272727 L3.13043478,7.27272727 L3.13043478,8.72727273 L1.56521739,8.72727273 L1.56521739,7.27272727 Z M6.26086957,7.27272727 L6.26086957,8.72727273 L18,8.72727273 L18,7.27272727 L6.26086957,7.27272727 Z M0,11.6363636 L0,16 L4.69565217,16 L4.69565217,11.6363636 L0,11.6363636 Z M1.56521739,13.0909091 L3.13043478,13.0909091 L3.13043478,14.5454545 L1.56521739,14.5454545 L1.56521739,13.0909091 Z M6.26086957,13.0909091 L6.26086957,14.5454545 L18,14.5454545 L18,13.0909091 L6.26086957,13.0909091 Z" id="Shape"></path>
            </g>
        </g>
    </g>
</svg>