<?xml version="1.0" encoding="UTF-8"?>
<svg width="979px" height="586px" viewBox="0 0 979 586" version="1.1" xmlns="http://www.w3.org/2000/svg" xmlns:xlink="http://www.w3.org/1999/xlink">
    <!-- Generator: Sketch 48.1 (47250) - http://www.bohemiancoding.com/sketch -->
    <title>Group 40</title>
    <desc>Created with Sketch.</desc>
    <defs>
        <rect id="path-1" x="0" y="0" width="917" height="524"></rect>
        <filter x="-5.1%" y="-8.9%" width="110.1%" height="117.7%" filterUnits="objectBoundingBox" id="filter-2">
            <feMorphology radius="1.5" operator="dilate" in="SourceAlpha" result="shadowSpreadOuter1"></feMorphology>
            <feOffset dx="0" dy="0" in="shadowSpreadOuter1" result="shadowOffsetOuter1"></feOffset>
            <feGaussianBlur stdDeviation="14" in="shadowOffsetOuter1" result="shadowBlurOuter1"></feGaussianBlur>
            <feColorMatrix values="0 0 0 0 0   0 0 0 0 0   0 0 0 0 0  0 0 0 0.0776437953 0" type="matrix" in="shadowBlurOuter1"></feColorMatrix>
        </filter>
        <polygon id="path-3" points="0 0 17 0 17 15 0 15"></polygon>
        <polygon id="path-5" points="0 0 19 0 19 16 0 16"></polygon>
        <polygon id="path-7" points="0 0 15 0 15 16 0 16"></polygon>
        <polygon id="path-9" points="5e-05 0.064 17.936 0.064 17.936 18 5e-05 18"></polygon>
        <polygon id="path-11" points="0 12 20 12 20 0 0 0"></polygon>
        <polygon id="path-13" points="0 0.0481168831 14.9307143 0.0481168831 14.9307143 18.9999753 0 18.9999753"></polygon>
        <rect id="path-15" x="73" y="75" width="807" height="365"></rect>
        <filter x="-1.1%" y="-2.5%" width="102.2%" height="104.9%" filterUnits="objectBoundingBox" id="filter-16">
            <feMorphology radius="1.5" operator="dilate" in="SourceAlpha" result="shadowSpreadOuter1"></feMorphology>
            <feOffset dx="0" dy="0" in="shadowSpreadOuter1" result="shadowOffsetOuter1"></feOffset>
            <feGaussianBlur stdDeviation="1.5" in="shadowOffsetOuter1" result="shadowBlurOuter1"></feGaussianBlur>
            <feColorMatrix values="0 0 0 0 0   0 0 0 0 0   0 0 0 0 0  0 0 0 0.0249660326 0" type="matrix" in="shadowBlurOuter1"></feColorMatrix>
        </filter>
    </defs>
    <g id="Page-1" stroke="none" stroke-width="1" fill="none" fill-rule="evenodd">
        <g id="Group-40" transform="translate(31.000000, 31.000000)">
            <g id="Group-8-Copy">
                <g id="Rectangle-10-Copy-2">
                    <use fill="black" fill-opacity="1" filter="url(#filter-2)" xlink:href="#path-1"></use>
                    <use fill="#FFFFFF" fill-rule="evenodd" xlink:href="#path-1"></use>
                </g>
                <circle id="Oval-3-Copy-8" fill="#D42020" cx="14.5" cy="17.5" r="2.5"></circle>
                <circle id="Oval-3-Copy-7" fill="#FFBA3F" cx="27.5" cy="17.5" r="2.5"></circle>
                <circle id="Oval-3-Copy-6" fill="#1BD874" cx="40.5" cy="17.5" r="2.5"></circle>
                <rect id="Rectangle-10-Copy-4" fill="#0FC599" x="0" y="325" width="177" height="37"></rect>
                <text id="Dashboard-Copy-4" font-family="Ubuntu-Bold, Ubuntu" font-size="10" font-weight="bold" letter-spacing="-0.390000105" fill="#FFFFFF">
                    <tspan x="81" y="165">Dashboard</tspan>
                </text>
                <path d="M0.5,34.5 L802.530548,34.5" id="Line-5-Copy-2" stroke="#F4F5F7" stroke-linecap="square"></path>
                <rect id="Rectangle-11-Copy-2" fill="#F8F8F8" x="41" y="33" width="876" height="491"></rect>
                <path d="M24.455885,55.6633759 L18.25708,49.4638442 C18.1889553,49.3957195 18.0964873,49.357388 18.0002044,49.357388 C17.9039214,49.357388 17.8114535,49.3957195 17.7433287,49.4638442 L11.5441604,55.6631942 L10.8770831,54.9962986 L18.0002044,47.872814 L22.7088037,52.5819583 C22.710802,52.5839566 22.7126187,52.5857733 22.714617,52.5875899 L25.1229623,54.9962986 L24.455885,55.6633759 Z M22.6050725,59.1266552 L19.3200074,59.1266552 L19.3200074,56.2045587 C19.3200074,56.0038178 19.1574164,55.8412268 18.9566755,55.8412268 L17.0431882,55.8412268 C16.842629,55.8412268 16.6798564,56.0038178 16.6798564,56.2045587 L16.6798564,59.1266552 L13.394973,59.1266552 L13.394973,54.8398842 L18.0002044,50.2344711 L22.6050725,54.8398842 L22.6050725,59.1266552 Z M17.4065201,59.1268369 L18.5933436,59.1268369 L18.5933436,56.5678905 L17.4065201,56.5678905 L17.4065201,59.1268369 Z M21.6059098,48.6401709 L22.6050725,48.6401709 L22.6050725,51.4505429 L21.6059098,50.4513802 L21.6059098,48.6401709 Z M25.8935892,54.7394229 L23.3317362,52.1772066 L23.3317362,48.276839 C23.3317362,48.0762798 23.1689635,47.9135071 22.9684043,47.9135071 L21.2427596,47.9135071 C21.0420188,47.9135071 20.8794278,48.0762798 20.8794278,48.276839 L20.8794278,49.7247165 L18.25708,47.1021871 C18.1208306,46.9659376 17.8795782,46.9659376 17.7433287,47.1021871 L10.1064562,54.7394229 C10.0383315,54.8075477 10,54.9000156 10,54.9962986 C10,55.0925815 10.0383315,55.1850495 10.1064562,55.2531742 L11.2872848,56.4338211 C11.4291659,56.5757022 11.659155,56.5757022 11.8010361,56.4338211 L12.6683092,55.5665479 L12.6683092,59.4899871 C12.6683092,59.6907279 12.8310819,59.853319 13.0316411,59.853319 L17.0431882,59.853319 L18.9566755,59.853319 L22.9684043,59.853319 C23.1689635,59.853319 23.3317362,59.6907279 23.3317362,59.4899871 L23.3317362,55.5665479 L24.1990094,56.4340028 C24.2671341,56.5021275 24.359602,56.5402773 24.455885,56.5402773 L24.4560666,56.5402773 C24.5523496,56.5402773 24.6448176,56.5019458 24.7129423,56.4338211 L25.8935892,55.2531742 C26.0354703,55.1112931 26.0354703,54.881304 25.8935892,54.7394229 Z" id="Page-1-Copy-19" fill="#0FC599"></path>
                <g id="Page-1-Copy-18" transform="translate(10.000000, 85.000000)">
                    <mask id="mask-4" fill="white">
                        <use xlink:href="#path-3"></use>
                    </mask>
                    <g id="Clip-2"></g>
                    <path d="M15.3913262,13.0906076 C15.3913262,13.6805507 14.9152221,14.1605222 14.330193,14.1605222 L2.67126493,14.1605222 C2.08540276,14.1605222 1.60867381,13.6805507 1.60867381,13.0906076 L1.60867381,9.36731353 L6.80124962,9.36731353 L6.80124962,10.7944259 C6.80124962,11.0261218 6.98765084,11.2141648 7.21778867,11.2141648 L9.78387749,11.2141648 C10.013807,11.2141648 10.2004165,11.0261218 10.2004165,10.7944259 L10.2004165,9.36731353 L15.3913262,9.36731353 L15.3913262,13.0906076 Z M7.63432772,10.3744771 L9.36733844,10.3744771 L9.36733844,7.52046227 L7.63432772,7.52046227 L7.63432772,10.3744771 Z M1.89566922,3.73441719 L15.1057887,3.73441719 C15.6908178,3.73441719 16.1669219,4.21438865 16.1669219,4.80433171 L16.1669219,8.52783569 L10.2004165,8.52783569 L10.2004165,7.10072335 C10.2004165,6.86902746 10.013807,6.68098443 9.78387749,6.68098443 L7.21778867,6.68098443 C6.98765084,6.68098443 6.80124962,6.86902746 6.80124962,7.10072335 L6.80124962,8.52783569 L0.833078101,8.52783569 L0.833078101,4.80433171 C0.833078101,4.21438865 1.30980704,3.73441719 1.89566922,3.73441719 Z M5.546634,1.31063479 C5.546634,1.05081639 5.75615314,0.839477845 6.01378254,0.839477845 L10.9862175,0.839477845 C11.2444717,0.839477845 11.4548239,1.05081639 11.4548239,1.31063479 L11.4548239,2.89493935 L5.546634,2.89493935 L5.546634,1.31063479 Z M15.1057887,2.89493935 L12.287902,2.89493935 L12.287902,1.31063479 C12.287902,0.587844361 11.7039142,0 10.9862175,0 L6.01378254,0 C5.29691884,0 4.7135559,0.587844361 4.7135559,1.31063479 L4.7135559,2.89493935 L1.89566922,2.89493935 C0.850364472,2.89493935 0,3.75141662 0,4.80433171 L0,8.94757461 C0,9.17927049 0.186401225,9.36731353 0.416539051,9.36731353 L0.775595712,9.36731353 L0.775595712,13.0906076 C0.775595712,14.1435227 1.62596018,15 2.67126493,15 L14.330193,15 C15.3746646,15 16.2244043,14.1435227 16.2244043,13.0906076 L16.2244043,9.36731353 L16.5834609,9.36731353 C16.8135988,9.36731353 17,9.17927049 17,8.94757461 L17,4.80433171 C17,3.75141662 16.1502603,2.89493935 15.1057887,2.89493935 Z" id="Fill-1" fill="#0FC599" mask="url(#mask-4)"></path>
                </g>
                <g id="Page-1-Copy-17" transform="translate(11.000000, 335.000000)" fill="#FFFFFF">
                    <path d="M6.30882446,16.2268246 L18.1964305,16.2268246 L18.1964305,6.07019977 L6.30882446,6.07019977 L6.30882446,16.2268246 Z M5.50525492,5.68361209 L5.50525492,6.85651912 C4.99358202,6.69376571 4.62293557,6.23005378 4.62293557,5.68380539 C4.62293557,5.0024446 5.19889403,4.44807786 5.90703969,4.44807786 C6.47456068,4.44807786 6.95650151,4.804705 7.1256529,5.29702441 L5.90703969,5.29702441 C5.68505361,5.29702441 5.50525492,5.47021569 5.50525492,5.68361209 Z M5.28668401,10.5940488 L5.28668401,9.56185971 C5.28668401,9.38499585 5.16192984,9.23074736 4.98393918,9.18725625 C4.63378376,9.10182037 4.29809258,8.96767445 3.98570492,8.78849106 C3.82780351,8.69783625 3.62610755,8.72180468 3.49592929,8.84725238 L2.73675696,9.57770981 L1.85966081,8.73398219 L2.61903402,8.00333148 C2.74921229,7.87827036 2.77432384,7.68401005 2.67990442,7.5318878 C2.49407896,7.23189576 2.35465965,6.90909504 2.2660661,6.57199059 C2.22086532,6.40053895 2.0603523,6.28031018 1.87653577,6.28031018 L0.80356954,6.28031018 L0.80356954,5.08691401 L1.87653577,5.08691401 C2.0603523,5.08691401 2.22086532,4.96668524 2.2660661,4.7952336 C2.35445875,4.45890232 2.49387807,4.13590831 2.68010531,3.83514309 C2.77412295,3.68302084 2.7490114,3.48895383 2.61903402,3.36389271 L1.85966081,2.63343529 L2.73675696,1.78951438 L3.49592929,2.52035839 C3.62630844,2.6456128 3.8280044,2.66958123 3.9863076,2.57892642 C4.29809258,2.39954974 4.63358286,2.26559711 4.9835374,2.18035452 C5.16192984,2.13686341 5.28668401,1.98261492 5.28668401,1.80555777 L5.28668401,0.773175363 L6.52699359,0.773175363 L6.52699359,1.80555777 C6.52699359,1.98261492 6.65174776,2.13686341 6.8301402,2.18035452 C7.17949206,2.26540381 7.51538413,2.39935645 7.82817357,2.57873313 C7.98587409,2.66938794 8.18797183,2.64522621 8.31774831,2.5199718 L9.07712153,1.78951438 L9.95401679,2.63324199 L9.19484447,3.36389271 C9.06486709,3.48914712 9.03975555,3.68321414 9.13377318,3.83514309 C9.32020132,4.13590831 9.45941974,4.45890232 9.54801328,4.7952336 C9.59321407,4.96668524 9.75352619,5.08691401 9.93754361,5.08691401 L11.0105098,5.08691401 L11.0105098,5.29702441 L7.95493667,5.29702441 C7.76690139,4.37385303 6.92054178,3.6749025 5.90703969,3.6749025 C4.75592633,3.6749025 3.81936603,4.57623168 3.81936603,5.68380539 C3.81936603,6.65897281 4.54579289,7.47351306 5.50525492,7.65443609 L5.50525492,10.5940488 L5.28668401,10.5940488 Z M18.5982152,5.29702441 L11.8140794,5.29702441 L11.8140794,4.70032633 C11.8140794,4.48673663 11.6340798,4.31373864 11.4122946,4.31373864 L10.2388822,4.31373864 C10.1675654,4.10536788 10.0797754,3.90202276 9.97631585,3.70544293 L10.8064032,2.90655948 C10.8817378,2.83407429 10.9241261,2.73568773 10.9241261,2.63324199 C10.9241261,2.53060296 10.8817378,2.43240969 10.8064032,2.35973121 L9.36118336,0.969368611 C9.20408552,0.818599416 8.94975576,0.818406122 8.7930597,0.969368611 L7.96277147,1.76805876 C7.75846391,1.66870573 7.54712512,1.58423632 7.33056313,1.51561701 L7.33056313,0.386587681 C7.33056313,0.173191281 7.15056356,0 6.92877836,0 L4.88489924,0 C4.66311404,0 4.48311447,0.173191281 4.48311447,0.386587681 L4.48311447,1.51561701 C4.26635158,1.58423632 4.05501279,1.66870573 3.85090613,1.76825206 L3.02101969,0.969368611 C2.94568504,0.896883421 2.84343082,0.856098421 2.73675696,0.856098421 C2.630284,0.856098421 2.52802977,0.896883421 2.45269513,0.969368611 L1.00747531,2.3601178 C0.931939775,2.43260299 0.889752374,2.53098955 0.889752374,2.63343529 C0.889752374,2.73607432 0.932140667,2.83426759 1.00747531,2.90694607 L1.83756265,3.70544293 C1.73410307,3.90202276 1.64651399,4.10536788 1.57519719,4.31373864 L0.40178477,4.31373864 C0.179999577,4.31373864 0,4.48673663 0,4.70032633 L0,6.66689786 C0,6.88048756 0.179999577,7.05348554 0.40178477,7.05348554 L1.57519719,7.05348554 C1.64651399,7.26224289 1.73410307,7.46558801 1.83736175,7.66178126 L1.00747531,8.4606647 C0.931939775,8.53314989 0.889752374,8.63153646 0.889752374,8.73398219 C0.889752374,8.83662122 0.932140667,8.93481449 1.00747531,9.00749298 L2.45249424,10.3978556 C2.60959208,10.5486248 2.86392184,10.5486248 3.0208188,10.3976623 L3.85070524,9.59897213 C4.05501279,9.69871175 4.26635158,9.78318116 4.48311447,9.85180048 L4.48311447,10.9806365 C4.48311447,11.1942262 4.66311404,11.3672242 4.88489924,11.3672242 L5.50525492,11.3672242 L5.50525492,16.6134123 C5.50525492,16.8268087 5.68505361,17 5.90703969,17 L18.5982152,17 C18.8202013,17 19,16.8268087 19,16.6134123 L19,5.68361209 C19,5.47021569 18.8202013,5.29702441 18.5982152,5.29702441 Z" id="Fill-1"></path>
                    <path d="M12.1421745,7.91680037 C12.4157972,7.91680037 12.6383228,8.17854687 12.6383228,8.4998854 C12.6383228,8.82168233 12.4157972,9.08319963 12.1421745,9.08319963 C11.8685519,9.08319963 11.6460263,8.82168233 11.6460263,8.4998854 C11.6460263,8.17854687 11.8685519,7.91680037 12.1421745,7.91680037 M8.39005363,8.95828558 L10.9273525,8.95828558 C11.0925402,9.56199862 11.5744515,10 12.1421745,10 C12.7098976,10 13.1918089,9.56199862 13.3569966,8.95828558 L15.6099464,8.95828558 C15.825451,8.95828558 16,8.7531515 16,8.4998854 C16,8.2468485 15.825451,8.04148522 15.6099464,8.04148522 L13.3569966,8.04148522 C13.1918089,7.43823058 12.7098976,7 12.1421745,7 C11.5744515,7 11.0925402,7.43823058 10.9273525,8.04148522 L8.39005363,8.04148522 C8.174549,8.04148522 8,8.2468485 8,8.4998854 C8,8.7531515 8.174549,8.95828558 8.39005363,8.95828558" id="Fill-3"></path>
                    <path d="M10.2825939,10.9168704 C10.5562165,10.9168704 10.7787421,11.1784077 10.7787421,11.5 C10.7787421,11.8215923 10.5562165,12.0831296 10.2825939,12.0831296 C10.0089712,12.0831296 9.78644564,11.8215923 9.78644564,11.5 C9.78644564,11.1784077 10.0089712,10.9168704 10.2825939,10.9168704 M8.39005363,11.9584352 L9.06777182,11.9584352 C9.23295953,12.5619652 9.71487079,13 10.2825939,13 C10.8503169,13 11.3322282,12.5619652 11.4974159,11.9584352 L15.6099464,11.9584352 C15.825451,11.9584352 16,11.7530562 16,11.5 C16,11.2467145 15.825451,11.0415648 15.6099464,11.0415648 L11.4974159,11.0415648 C11.3322282,10.4380348 10.8503169,10 10.2825939,10 C9.71487079,10 9.23295953,10.4380348 9.06777182,11.0415648 L8.39005363,11.0415648 C8.174549,11.0415648 8,11.2467145 8,11.5 C8,11.7530562 8.174549,11.9584352 8.39005363,11.9584352" id="Fill-4"></path>
                    <path d="M13.4296092,13.9168004 C13.7032252,13.9168004 13.9259404,14.1785469 13.9259404,14.4998854 C13.9259404,14.8214531 13.7032252,15.0831996 13.4296092,15.0831996 C13.1559933,15.0831996 12.9334731,14.8214531 12.9334731,14.4998854 C12.9334731,14.1785469 13.1559933,13.9168004 13.4296092,13.9168004 M8.39004412,14.9582856 L12.2148168,14.9582856 C12.3800005,15.5617694 12.8619,16 13.4296092,16 C13.9973184,16 14.479218,15.5617694 14.6444016,14.9582856 L15.6099559,14.9582856 C15.8252602,14.9582856 16,14.7531515 16,14.4998854 C16,14.2468485 15.8252602,14.0414852 15.6099559,14.0414852 L14.6444016,14.0414852 C14.479218,13.4382306 13.9973184,13 13.4296092,13 C12.8619,13 12.3800005,13.4382306 12.2148168,14.0414852 L8.39004412,14.0414852 C8.17473977,14.0414852 8,14.2468485 8,14.4998854 C8,14.7531515 8.17473977,14.9582856 8.39004412,14.9582856" id="Fill-5"></path>
                </g>
                <path d="M24.3074011,183.497558 L24.6443723,179.793993 C24.6651602,179.565119 24.4965706,179.362853 24.268112,179.342065 C24.035288,179.324603 23.8369718,179.489867 23.8161839,179.718325 L23.4723527,183.497558 L19.9157575,183.497558 L19.9157575,176.975575 C20.2552233,176.921318 20.7375017,176.786821 21.1357971,176.456918 C21.719936,176.590791 23.3590589,176.982227 24.7412438,177.45224 C25.3276693,177.651596 26.1354856,179.655546 26.1677068,183.497558 L24.3074011,183.497558 Z M14.2591727,177.45224 C15.6401103,176.982643 17.2796489,176.590999 17.8639957,176.456918 C18.2624989,176.787029 18.7449852,176.921318 19.0842431,176.975783 L19.0842431,183.497558 L15.5278558,183.497558 L15.1842325,179.718533 C15.1634446,179.489867 14.9622181,179.325019 14.7325123,179.342065 C14.5038458,179.362853 14.3352562,179.565119 14.3560441,179.793785 L14.6928074,183.497558 L12.8322939,183.497558 C12.864515,179.655546 13.6725392,177.651596 14.2591727,177.45224 Z M17.4921008,169.772997 C18.1286251,168.845858 19.4862803,168.831514 19.5002082,168.831514 C19.5137203,168.831514 20.8713755,168.845858 21.5072762,169.772997 C21.8228359,170.232408 22.0458897,171.548904 21.9750031,172.534664 C21.915134,173.375741 21.3426363,174.737969 20.8235634,175.56886 C20.7982023,175.609604 20.7699308,175.647023 20.7399962,175.682362 C20.7108932,175.706476 20.6840769,175.7335 20.6624575,175.765098 C20.2306936,176.175242 19.5103943,176.180855 19.502287,176.180855 L19.502287,176.181063 C19.5014555,176.181063 19.5008318,176.180855 19.5000003,176.180855 C19.4991688,176.180855 19.4985452,176.181063 19.4977137,176.181063 L19.4977137,176.180855 C19.4896064,176.180855 18.7695149,176.175242 18.3379589,175.765513 C18.3159238,175.7335 18.2888995,175.706268 18.2591729,175.681738 C18.2296541,175.646607 18.2015905,175.609604 18.1764372,175.569068 C17.6577801,174.738801 17.0848666,173.376365 17.0245818,172.534664 C16.9545267,171.54828 17.1775805,170.231993 17.4921008,169.772997 Z M25.0087835,176.665004 C23.8080767,176.256731 22.4533318,175.914147 21.6927039,175.732669 C22.1502447,174.925268 22.7325127,173.605031 22.8046466,172.593909 C22.8811459,171.525413 22.6734752,170.002287 22.1930677,169.30236 C21.3093758,168.014967 19.5737972,168 19.4995846,168 C19.4262034,168 17.6906249,168.014967 16.8065172,169.302567 C16.3271491,170.001455 16.1192705,171.524582 16.1951462,172.593909 C16.2676958,173.606278 16.8499638,174.925892 17.3072967,175.732669 C16.5466689,175.914147 15.191924,176.256731 13.9916329,176.665004 C12.0575303,177.322108 11.9937115,182.82029 12.0003637,183.916018 C12.0018188,184.144477 12.1874544,184.329073 12.4161209,184.329073 L26.5838798,184.329073 C26.8125462,184.329073 26.9981818,184.144477 26.999637,183.916018 C27.0062891,182.82029 26.9422625,177.322108 25.0087835,176.665004 Z" id="Page-1-Copy-16" fill="#0FC599"></path>
                <g id="Page-1-Copy-15" transform="translate(19.000000, 217.500000) rotate(90.000000) translate(-19.000000, -217.500000) translate(9.500000, 209.500000)">
                    <mask id="mask-6" fill="white">
                        <use xlink:href="#path-5"></use>
                    </mask>
                    <g id="Clip-2"></g>
                    <path d="M18.8602283,5.37702456 L14.0133784,0.151071146 C13.8764105,0.00341191646 13.6719132,-0.0405771573 13.4931868,0.0394263628 C13.3149376,0.119172637 13.198491,0.306705004 13.198491,0.514817055 L13.198491,2.96611462 L9.49988069,2.96611462 C9.23644418,2.96611462 9.02264064,3.19634983 9.02264064,3.48060671 C9.02264064,3.76460635 9.23644418,3.9950988 9.49988069,3.9950988 L13.6757311,3.9950988 C13.9394062,3.9950988 14.1529711,3.76460635 14.1529711,3.48060671 L14.1529711,1.75705821 L17.8480022,5.74077047 L14.1529711,9.72396823 L14.1529711,8.00016248 C14.1529711,7.71616285 13.9394062,7.48567039 13.6757311,7.48567039 L5.79816828,7.48567039 C5.80127034,7.23871419 5.80127034,6.92307329 5.80127034,6.51713903 L5.80127034,5.03411558 C5.80127034,4.82600353 5.68506239,4.63847116 5.50681323,4.55872489 C5.32784821,4.47897861 5.12335085,4.52296769 4.98662158,4.67036967 L0.139771678,9.89555134 C-0.0465905594,10.0967178 -0.0465905594,10.422134 0.139771678,10.6233004 L4.98662158,15.8492538 C5.07801305,15.9477791 5.19994788,16 5.32403029,16 C5.38559426,16 5.44763546,15.9871377 5.50681323,15.9608986 C5.68506239,15.8811523 5.80127034,15.69362 5.80127034,15.4855079 L5.80103172,13.0334386 L9.49988069,13.0334386 C9.76355582,13.0334386 9.97712074,12.8029461 9.97712074,12.5189465 C9.97712074,12.2346896 9.76355582,12.0044544 9.49988069,12.0044544 L5.32355305,12.0044544 C5.06011655,12.0044544 4.84631301,12.2346896 4.84631301,12.5189465 L4.84631301,12.5251204 C4.84655163,12.5830008 4.84679025,13.4589236 4.84679025,14.2432668 L1.15199781,10.2592973 L4.84679025,6.27609949 C4.84679025,7.04500792 4.84655163,7.90240898 4.84631301,7.98961539 C4.84583577,8.02614433 4.84869921,8.06293052 4.85561919,8.0997167 C4.89952527,8.34075625 5.09567093,8.51465457 5.32355305,8.51465457 L13.198491,8.51465457 L13.198491,10.9662094 C13.198491,11.1740642 13.3149376,11.3618538 13.4931868,11.4413428 C13.6719132,11.5208319 13.8764105,11.4771 14.0133784,11.3299553 L18.8602283,6.10451637 C19.0465906,5.90360721 19.0465906,5.57793372 18.8602283,5.37702456" id="Fill-1" fill="#0FC599" mask="url(#mask-6)"></path>
                </g>
                <g id="Page-1-Copy-14" transform="translate(12.000000, 251.000000)">
                    <mask id="mask-8" fill="white">
                        <use xlink:href="#path-7"></use>
                    </mask>
                    <g id="Clip-2"></g>
                    <path d="M14.8752392,5.89674931 C14.7088914,5.72707275 14.4392419,5.72707275 14.2728941,5.89674931 L6.12121449,14.2115526 C4.91652438,15.4370909 2.95975492,15.4355702 1.75655576,14.208511 C0.55356959,12.9810173 0.552504624,10.9850908 1.75357385,9.75651088 L9.90525348,1.44170763 C10.2673421,1.07237324 10.748707,0.869022079 11.2605299,0.869022079 C11.7727787,0.869022079 12.2539306,1.07237324 12.6162322,1.44170763 C13.3634127,2.2042745 13.3634127,3.44458626 12.6162322,4.20715314 L4.58382884,12.4002933 C4.29287999,12.6970643 3.82024785,12.6966298 3.529299,12.4002933 C3.23877614,12.1035223 3.23877614,11.6214323 3.529299,11.3246612 L7.72782296,7.04212041 C7.89438372,6.87244385 7.89438372,6.59761562 7.72782296,6.4277218 C7.56147519,6.25804524 7.29182567,6.25804524 7.1254779,6.4277218 L2.92695395,10.7102626 C2.30416153,11.3455177 2.30416153,12.3794368 2.92695395,13.0146919 C3.54953337,13.6497298 4.56316849,13.6501643 5.18617389,13.0146919 L13.2185773,4.82155175 C14.2982403,3.72028352 14.2982403,1.92835999 13.2185773,0.827309019 C12.6956787,0.293729463 12.0002556,0 11.2605299,0 C10.5210171,0 9.82580698,0.293946718 9.30290842,0.827309019 L1.15484968,9.13820167 L1.1542107,9.13885343 L0.969119521,9.32764848 C0.938235492,9.35915053 0.913315276,9.39391141 0.893719893,9.43127936 C0.315017093,10.1480053 0,11.0398392 0,11.9807729 C0,13.0544497 0.410012105,14.0638188 1.1542107,14.8229096 C1.8984093,15.5820004 2.88797617,16 3.94037608,16 C4.86306306,16 5.73740056,15.6788963 6.44006546,15.0886131 C6.47670031,15.0686256 6.51077924,15.0432067 6.54166326,15.0117046 L6.72675444,14.8229096 C6.72739342,14.8224751 6.72781941,14.8218233 6.7282454,14.8213888 L14.8752392,6.51114792 C15.0415869,6.34147136 15.0415869,6.06642588 14.8752392,5.89674931" id="Fill-1" fill="#0FC599" mask="url(#mask-8)"></path>
                </g>
                <g id="Page-1-Copy-13" transform="translate(12.000000, 294.000000)">
                    <path d="M7.56474307,7.56450048 C7.94810873,7.18113482 8.45805052,6.9699321 9.00000007,6.9699321 C9.54243459,6.9699321 10.0523764,7.18113482 10.435742,7.56450048 C10.8191077,7.94786615 11.0300679,8.45756547 11.0300679,9 C11.0300679,9.54243453 10.8191077,10.0521339 10.435742,10.4354995 C10.0523764,10.8188652 9.54243459,11.0300679 9.00000007,11.0300679 L8.9995151,11.0300679 C8.45708059,11.0300679 7.94738128,10.8191077 7.56425811,10.4359845 C7.18089245,10.0526188 6.96968974,9.54267701 6.96993222,9.00024248 C6.97017471,8.45780795 7.18137742,7.94786615 7.56474307,7.56450048 M8.9995151,12 L9.00000007,12 C9.80189142,12 10.5550437,11.6879243 11.121484,11.1212415 C11.6881668,10.5548012 12,9.80164888 12,9 C12,8.19835112 11.6881668,7.44519884 11.121484,6.87875849 C10.5550437,6.31207565 9.80189142,6 9.00024255,6 L9.00000007,6 C8.19859369,6 7.44544143,6.31207565 6.87900109,6.87875849 C6.31231827,7.44519884 6.00024262,8.19835112 6.00000014,9 C5.99975766,9.80164888 6.31183331,10.5550436 6.87851612,11.1217265 C7.44495646,11.6881668 8.19786624,12 8.9995151,12" id="Fill-1" fill="#0FC599"></path>
                    <path d="M11.7539845,5.15118839 C11.5524057,5.3527729 11.5524057,5.67954114 11.7539845,5.88112565 C13.3728088,7.50025453 13.3728088,10.1345331 11.7539845,11.7534038 C10.1346439,13.3727908 7.50018282,13.3730489 5.88110038,11.7541782 C5.67952165,11.5525937 5.35276278,11.5525937 5.15118405,11.7541782 C4.94960532,11.9557627 4.94960532,12.2825309 5.15118405,12.4841154 C6.16165874,13.4946191 7.48934248,14 8.81676812,14 C10.14471,14 11.4729099,13.494361 12.4839008,12.4833411 C14.5053664,10.4618175 14.5053664,7.17271196 12.4839008,5.15118839 C12.2823221,4.94960387 11.9555632,4.94960387 11.7539845,5.15118839" id="Fill-3" fill="#0FC599"></path>
                    <g id="Group-7">
                        <mask id="mask-10" fill="white">
                            <use xlink:href="#path-9"></use>
                        </mask>
                        <g id="Clip-6"></g>
                        <path d="M16.93605,10.10375 L15.16605,10.10425 C14.93705,10.10425 14.7373,10.25975 14.6813,10.48175 C14.5408,11.03675 14.32305,11.56375 14.0338,12.047 C13.91605,12.244 13.94705,12.49525 14.10905,12.6575 L15.36005,13.9085 L13.84455,15.424 L12.59355,14.173 C12.43155,14.01125 12.1803,13.97975 11.9833,14.0975 C11.49605,14.389 10.96955,14.60675 10.4188,14.745 C10.1963,14.80075 10.0403,15.0005 10.0403,15.22975 L10.0398,17 L7.8963,17 L7.8963,15.2305 C7.8963,15.0015 7.7408,14.80175 7.51855,14.7455 C6.9653,14.606 6.4383,14.38825 5.95155,14.098 C5.75455,13.98075 5.5038,14.01175 5.34205,14.17375 L4.09155,15.424 L2.57605,13.9085 L3.8263,12.658 C3.98805,12.496 4.0193,12.24475 3.90205,12.04825 C3.6128,11.56325 3.39505,11.036 3.25455,10.48175 C3.1988,10.25975 2.99905,10.10425 2.77005,10.10425 L1.00005,10.10375 L1.00005,7.96025 L2.77005,7.95975 C2.9993,7.95975 3.19905,7.804 3.2548,7.5815 C3.3938,7.0295 3.61155,6.503 3.9023,6.0165 C4.0198,5.81975 3.9888,5.5685 3.82655,5.4065 L2.57605,4.1555 L4.09155,2.64 L5.3423,3.8905 C5.50405,4.0525 5.75505,4.08425 5.9523,3.96625 C6.4373,3.6765 6.96405,3.4585 7.51805,3.31875 C7.7403,3.26275 7.8958,3.063 7.8958,2.834 L7.8958,1.0645 L10.03955,1.064 L10.0398,2.83425 C10.0398,3.06325 10.1953,3.263 10.41755,3.319 C10.9723,3.459 11.49905,3.67675 11.9833,3.9665 C12.1803,4.08425 12.43155,4.05325 12.59355,3.89075 L13.84455,2.64 L15.36005,4.1555 L14.10905,5.4065 C13.94705,5.5685 13.91605,5.82 14.0338,6.01675 C14.32305,6.50025 14.5408,7.027 14.6813,7.58225 C14.7373,7.80425 14.93705,7.95975 15.16605,7.95975 L16.93605,7.96025 L16.93605,10.10375 Z M17.43605,6.96025 L15.54405,6.95975 C15.4228,6.574 15.2688,6.20175 15.08355,5.84625 L16.42055,4.509 C16.61605,4.31375 16.61605,3.99725 16.42055,3.802 L14.19805,1.57925 C14.0028,1.384 13.6863,1.384 13.49105,1.57925 L12.1538,2.9165 C11.79805,2.731 11.4253,2.577 11.0398,2.456 L11.03955,0.564 C11.03955,0.4315 10.9868,0.30425 10.89305,0.2105 C10.7993,0.11675 10.67205,0.064 10.53955,0.064 L7.3958,0.0645 C7.11955,0.0645 6.8958,0.28825 6.8958,0.5645 L6.8958,2.456 C6.51055,2.577 6.13805,2.73075 5.7823,2.91625 L4.44505,1.57925 C4.2498,1.384 3.9333,1.384 3.73805,1.57925 L1.5153,3.802 C1.32005,3.99725 1.32005,4.31375 1.5153,4.509 L2.8523,5.84625 C2.6663,6.20275 2.5123,6.57525 2.39155,6.95975 L0.50005,6.96025 C0.2238,6.96025 5e-05,7.184 5e-05,7.46025 L5e-05,10.60375 C5e-05,10.87975 0.2238,11.10375 0.50005,11.10375 L2.39205,11.10425 C2.51305,11.4895 2.6668,11.862 2.85205,12.218 L1.5153,13.555 C1.32005,13.75025 1.32005,14.06675 1.5153,14.262 L3.73805,16.4845 C3.9333,16.68 4.2498,16.68 4.44505,16.4845 L5.78205,15.148 C6.1388,15.33375 6.5113,15.48775 6.8963,15.6085 L6.8963,17.5 C6.8963,17.776 7.12005,18 7.3963,18 L10.53955,18 C10.8158,18 11.03955,17.776 11.03955,17.50025 L11.0403,15.6085 C11.4243,15.488 11.7968,15.334 12.1538,15.1475 L13.49105,16.4845 C13.6863,16.68 14.0028,16.68 14.19805,16.4845 L16.42055,14.262 C16.61605,14.06675 16.61605,13.75025 16.42055,13.555 L15.08355,12.21775 C15.2688,11.86225 15.4228,11.49 15.54405,11.10425 L17.43605,11.10375 C17.71205,11.10375 17.93605,10.87975 17.93605,10.60375 L17.93605,7.46025 C17.93605,7.184 17.71205,6.96025 17.43605,6.96025 Z" id="Fill-5" fill="#0FC599" mask="url(#mask-10)"></path>
                    </g>
                </g>
                <g id="Page-1-Copy-12" transform="translate(10.000000, 130.000000)">
                    <path d="M8.79653507,3.21032581 L10.8051974,4.50005537 L8.79653507,5.78978493 L8.79653507,3.21032581 Z M8.19913377,6.94086248 C8.26086524,6.98028749 8.32936725,7 8.39826754,7 C8.46716782,7 8.53566984,6.98028749 8.5974013,6.94086248 L11.8008662,4.88389555 C11.92413,4.80460254 12,4.6584199 12,4.50005537 C12,4.34169085 11.92413,4.19550821 11.8008662,4.11643669 L8.5974013,2.05946976 C8.4741375,1.98017675 8.32239757,1.98017675 8.19913377,2.05946976 C8.07586997,2.13854127 8,2.28472391 8,2.44308844 L8,6.5570223 C8,6.71538683 8.07586997,6.86156947 8.19913377,6.94086248 Z" id="Fill-1" fill="#0FC599"></path>
                    <mask id="mask-12" fill="white">
                        <use xlink:href="#path-11"></use>
                    </mask>
                    <g id="Clip-4"></g>
                    <path d="M18.2265508,8.74002233 L19.1146035,8.74002233 L19.1146035,3.25955903 L18.2265508,3.25955903 L18.2265508,8.74002233 Z M16.2078468,9.85821937 L17.3413757,9.85821937 L17.3413757,2.14178063 L16.2078468,2.14178063 L16.2078468,9.85821937 Z M4.67799236,11.1627128 L15.3224503,11.1627128 L15.3224503,9.02700251 L4.67799236,9.02700251 L4.67799236,11.1627128 Z M2.65928836,9.85801005 L3.79259587,9.85801005 L3.79259587,2.14157131 L2.65928836,2.14157131 L2.65928836,9.85801005 Z M0.885396492,8.74002233 L1.77389187,8.74002233 L1.77389187,3.25955903 L0.885396492,3.25955903 L0.885396492,8.74002233 Z M4.67799236,8.18971532 L15.3224503,8.18971532 L15.3224503,0.83728719 L4.67799236,0.83728719 L4.67799236,8.18971532 Z M19.5573018,2.42227184 L18.2267722,2.42227184 L18.2267722,1.72292771 C18.2267722,1.49183645 18.0284434,1.30428412 17.7840739,1.30428412 L16.2078468,1.30428412 L16.2078468,0.418643595 C16.2078468,0.187343009 16.009518,0 15.7651486,0 L4.23529412,0 C3.99070334,0 3.79259587,0.187343009 3.79259587,0.418643595 L3.79259587,1.30428412 L2.21659012,1.30428412 C1.97199934,1.30428412 1.77389187,1.49183645 1.77389187,1.72292771 L1.77389187,2.42227184 L0.442698246,2.42227184 C0.198107465,2.42227184 0,2.60982417 0,2.84091543 L0,9.15866592 C0,9.38975719 0.198107465,9.57730952 0.442698246,9.57730952 L1.77389187,9.57730952 L1.77389187,10.276863 C1.77389187,10.5079542 1.97199934,10.6955066 2.21659012,10.6955066 L3.79259587,10.6955066 L3.79259587,11.5813564 C3.79259587,11.8124477 3.99070334,12 4.23529412,12 L15.7651486,12 C16.009518,12 16.2078468,11.8124477 16.2078468,11.5813564 L16.2078468,10.6955066 L17.7840739,10.6955066 C18.0284434,10.6955066 18.2267722,10.5079542 18.2267722,10.276863 L18.2267722,9.57730952 L19.5573018,9.57730952 C19.8018925,9.57730952 20,9.38975719 20,9.15866592 L20,2.84091543 C20,2.60982417 19.8018925,2.42227184 19.5573018,2.42227184 Z" id="Fill-3" fill="#0FC599" mask="url(#mask-12)"></path>
                </g>
                <g id="Page-1-Copy-11" transform="translate(13.000000, 376.000000)">
                    <g id="Group-3">
                        <mask id="mask-14" fill="white">
                            <use xlink:href="#path-13"></use>
                        </mask>
                        <g id="Clip-2"></g>
                        <path d="M13.9783333,16.2257286 C13.9783333,17.211261 13.2045238,18.0129623 12.2535714,18.0129623 L2.67690476,18.0129623 C1.72619048,18.0129623 0.952380952,17.211261 0.952380952,16.2257286 L0.952380952,10.7719883 C0.952380952,9.78620909 1.72619048,8.98401429 2.67690476,8.98401429 L12.2535714,8.98401429 C13.2045238,8.98401429 13.9783333,9.78620909 13.9783333,10.7719883 L13.9783333,16.2257286 Z M9.19452381,7.9970013 L5.73571429,7.9970013 L5.73571429,5.20671558 C5.73571429,4.21772857 6.51166667,3.41306623 7.46547619,3.41306623 C8.41880952,3.41306623 9.19452381,4.21772857 9.19452381,5.20671558 L9.19452381,7.9970013 Z M3.54047619,5.10455974 C3.54047619,2.86058571 5.30142857,1.03510519 7.46547619,1.03510519 C9.62928571,1.03510519 11.3895238,2.86058571 11.3895238,5.10455974 L11.3895238,7.8524039 C11.3895238,7.90298831 11.3990476,7.95110519 11.412619,7.9970013 L10.1469048,7.9970013 L10.1469048,5.20671558 C10.1469048,3.67339091 8.94404762,2.42605325 7.46547619,2.42605325 C5.98666667,2.42605325 4.78333333,3.67339091 4.78333333,5.20671558 L4.78333333,7.9970013 L3.51738095,7.9970013 C3.53095238,7.95110519 3.54047619,7.90298831 3.54047619,7.8524039 L3.54047619,5.10455974 Z M12.317619,8.00045584 C12.3319048,7.95357273 12.3419048,7.90422208 12.3419048,7.8524039 L12.3419048,5.10455974 C12.3419048,2.31649481 10.1542857,0.0480922078 7.46547619,0.0480922078 C4.77619048,0.0480922078 2.58809524,2.31649481 2.58809524,5.10455974 L2.58809524,7.8524039 C2.58809524,7.90422208 2.59809524,7.95357273 2.61238095,8.00045584 C1.16619048,8.03648182 0,9.26457273 0,10.7719883 L0,16.2257286 C0,17.7553519 1.20071429,18.9999753 2.67690476,18.9999753 L12.2535714,18.9999753 C13.7297619,18.9999753 14.9307143,17.7553519 14.9307143,16.2257286 L14.9307143,10.7719883 C14.9307143,9.26432597 13.7640476,8.03648182 12.317619,8.00045584 Z" id="Fill-1" fill="#0FC599" mask="url(#mask-14)"></path>
                    </g>
                    <path d="M7.5,12 C7.224,12 7,12.2168048 7,12.4839393 L7,15.5160607 C7,15.7834372 7.224,16 7.5,16 C7.776,16 8,15.7834372 8,15.5160607 L8,12.4839393 C8,12.2168048 7.776,12 7.5,12" id="Fill-4" fill="#0FC599"></path>
                </g>
            </g>
            <g id="Rectangle-2-Copy-7">
                <use fill="black" fill-opacity="1" filter="url(#filter-16)" xlink:href="#path-15"></use>
                <use fill="#FFFFFF" fill-rule="evenodd" xlink:href="#path-15"></use>
            </g>
        </g>
    </g>
</svg>