<?xml version="1.0" encoding="UTF-8"?>
<svg width="314px" height="244px" viewBox="0 0 314 244" version="1.1" xmlns="http://www.w3.org/2000/svg" xmlns:xlink="http://www.w3.org/1999/xlink">
    <!-- Generator: Sketch 50 (54983) - http://www.bohemiancoding.com/sketch -->
    <title>Group 33</title>
    <desc>Created with Sketch.</desc>
    <defs>
        <polygon id="path-1" points="0 18 15 18 15 0 0 0"></polygon>
        <polygon id="path-3" points="0 18 15 18 15 0 0 0"></polygon>
        <polygon id="path-5" points="0 0 0 14 15 14 15 0"></polygon>
    </defs>
    <g id="Page-1" stroke="none" stroke-width="1" fill="none" fill-rule="evenodd">
        <g id="Extra-large:-Desktops---12-col" transform="translate(-165.000000, -6155.000000)">
            <g id="Group-33" transform="translate(165.000000, 6155.000000)">
                <rect id="Rectangle-10" fill="#08A2F4" x="4" y="0" width="140" height="56" rx="12"></rect>
                <path d="M52.1997807,26.3457031 L52.9235795,26.3457031 C53.6000746,26.3457031 54.1062557,26.2169609 54.4421378,25.9594727 C54.77802,25.7019844 54.9459586,25.3271509 54.9459586,24.8349609 C54.9459586,24.3382137 54.8052213,23.9713554 54.5237426,23.734375 C54.2422639,23.4973946 53.8011295,23.3789062 53.2003261,23.3789062 L52.1997807,23.3789062 L52.1997807,26.3457031 Z M57.1670275,24.7597656 C57.1670275,25.8352918 56.818141,26.6578748 56.1203576,27.2275391 C55.4225742,27.7972034 54.4303175,28.0820312 53.1435576,28.0820312 L52.1997807,28.0820312 L52.1997807,31.6367188 L50,31.6367188 L50,21.6425781 L53.3138632,21.6425781 C54.5722387,21.6425781 55.5290155,21.9034805 56.1842222,22.425293 C56.839429,22.9471055 57.1670275,23.7252552 57.1670275,24.7597656 Z M61.7106975,25.3339844 C61.2518162,25.3339844 60.8922858,25.4741197 60.6320954,25.7543945 C60.371905,26.0346694 60.222889,26.4322891 60.1850432,26.9472656 L63.2221598,26.9472656 C63.2126983,26.4322891 63.0731437,26.0346694 62.8034918,25.7543945 C62.5338399,25.4741197 62.1695788,25.3339844 61.7106975,25.3339844 Z M62.0158284,31.7734375 C60.73853,31.7734375 59.7403599,31.4339227 59.0212882,30.7548828 C58.3022165,30.075843 57.942686,29.114264 57.942686,27.8701172 C57.942686,26.5895118 58.2750152,25.5994501 58.9396834,24.8999023 C59.6043517,24.2003546 60.5232831,23.8505859 61.6965054,23.8505859 C62.8176896,23.8505859 63.690497,24.1582 64.3149541,24.7734375 C64.9394111,25.388675 65.2516349,26.2386013 65.2516349,27.3232422 L65.2516349,28.3349609 L60.1353707,28.3349609 C60.1590244,28.9274118 60.3411549,29.3899723 60.6817678,29.7226563 C61.0223807,30.0553402 61.5001778,30.2216797 62.1151733,30.2216797 C62.5929776,30.2216797 63.044756,30.1738286 63.4705221,30.078125 C63.8962882,29.9824214 64.3409706,29.8297537 64.8045827,29.6201172 L64.8045827,31.2333984 C64.4261239,31.415691 64.0216521,31.5512691 63.5911552,31.6401367 C63.1606584,31.7290044 62.6355547,31.7734375 62.0158284,31.7734375 Z M73.8045827,31.6367188 L71.6402823,31.6367188 L71.6402823,27.1728516 C71.6402823,26.6214165 71.538573,26.2078464 71.3351514,25.9321289 C71.1317298,25.6564114 70.8076793,25.5185547 70.3629903,25.5185547 C69.7574562,25.5185547 69.3198698,25.713377 69.0502179,26.1030273 C68.780566,26.4926777 68.6457421,27.1386674 68.6457421,28.0410156 L68.6457421,31.6367188 L66.4814417,31.6367188 L66.4814417,23.9941406 L68.1348253,23.9941406 L68.425764,24.9716797 L68.5463971,24.9716797 C68.7876646,24.6025372 69.1199938,24.3234059 69.5433945,24.1342773 C69.9667953,23.9451488 70.4481404,23.8505859 70.9874441,23.8505859 C71.9099374,23.8505859 72.6100757,24.0909807 73.0878799,24.5717773 C73.5656841,25.052574 73.8045827,25.7464147 73.8045827,26.6533203 L73.8045827,31.6367188 Z M78.0147376,31.7734375 C77.0827828,31.7734375 76.3507125,31.4248082 75.8185049,30.7275391 C75.2862972,30.03027 75.0201974,29.0641338 75.0201974,27.8291016 C75.0201974,26.5758401 75.2910279,25.5994501 75.832697,24.8999023 C76.3743662,24.2003546 77.1206284,23.8505859 78.0715061,23.8505859 C79.0696911,23.8505859 79.831328,24.2242801 80.3564396,24.9716797 L80.4274003,24.9716797 C80.3185934,24.4020154 80.2641907,23.8938824 80.2641907,23.4472656 L80.2641907,21 L82.4355872,21 L82.4355872,31.6367188 L80.7751076,31.6367188 L80.3564396,30.6455078 L80.2641907,30.6455078 C79.7721943,31.3974647 79.0223841,31.7734375 78.0147376,31.7734375 Z M78.7740167,30.1123047 C79.3275127,30.1123047 79.7331671,29.9573583 79.9909922,29.6474609 C80.2488172,29.3375636 80.3895545,28.8112016 80.4132081,28.0683594 L80.4132081,27.8427734 C80.4132081,27.0224568 80.2819322,26.4345721 80.0193764,26.0791016 C79.7568206,25.723631 79.3298782,25.5458984 78.7385364,25.5458984 C78.2560014,25.5458984 77.8810963,25.7429993 77.6138098,26.137207 C77.3465233,26.5314147 77.212882,27.1044884 77.212882,27.8564453 C77.212882,28.6084022 77.3477059,29.1723614 77.6173578,29.5483398 C77.8870097,29.9243183 78.2725588,30.1123047 78.7740167,30.1123047 Z M84.0769659,22.0185547 C84.0769659,21.3395148 84.469611,21 85.254913,21 C86.040215,21 86.4328601,21.3395148 86.4328601,22.0185547 C86.4328601,22.342124 86.3346988,22.5939119 86.1383733,22.7739258 C85.9420478,22.9539397 85.647564,23.0439453 85.254913,23.0439453 C84.469611,23.0439453 84.0769659,22.7021519 84.0769659,22.0185547 Z M86.3335151,31.6367188 L84.1692148,31.6367188 L84.1692148,23.9941406 L86.3335151,23.9941406 L86.3335151,31.6367188 Z M95.3973797,31.6367188 L93.2330794,31.6367188 L93.2330794,27.1728516 C93.2330794,26.6214165 93.1313701,26.2078464 92.9279485,25.9321289 C92.7245269,25.6564114 92.4004764,25.5185547 91.9557873,25.5185547 C91.3502533,25.5185547 90.9126669,25.713377 90.643015,26.1030273 C90.3733631,26.4926777 90.2385392,27.1386674 90.2385392,28.0410156 L90.2385392,31.6367188 L88.0742388,31.6367188 L88.0742388,23.9941406 L89.7276223,23.9941406 L90.0185611,24.9716797 L90.1391942,24.9716797 C90.3804617,24.6025372 90.7127908,24.3234059 91.1361916,24.1342773 C91.5595924,23.9451488 92.0409374,23.8505859 92.5802412,23.8505859 C93.5027345,23.8505859 94.2028728,24.0909807 94.680677,24.5717773 C95.1584812,25.052574 95.3973797,25.7464147 95.3973797,26.6533203 L95.3973797,31.6367188 Z M104,23.9941406 L104,25.0537109 L102.758188,25.3613281 C102.985264,25.7031267 103.0988,26.0859354 103.0988,26.5097656 C103.0988,27.3300822 102.80195,27.969236 102.208243,28.4272461 C101.614536,28.8852562 100.790218,29.1142578 99.7352638,29.1142578 L99.3449802,29.09375 L99.0256572,29.0595703 C98.8033126,29.2236336 98.692142,29.4059235 98.692142,29.6064453 C98.692142,29.9072281 99.0895178,30.0576172 99.8842812,30.0576172 L101.232534,30.0576172 C102.102989,30.0576172 102.766465,30.2376284 103.222981,30.5976563 C103.679497,30.9576841 103.907751,31.4863246 103.907751,32.1835938 C103.907751,33.0768274 103.521019,33.7695288 102.747544,34.2617188 C101.974069,34.7539087 100.863546,35 99.4159408,35 C98.3089489,35 97.4633427,34.8142922 96.8790969,34.4428711 C96.2948512,34.07145 96.0027327,33.5507846 96.0027327,32.8808594 C96.0027327,32.4205706 96.1517486,32.0354833 96.4497849,31.7255859 C96.7478212,31.4156886 97.1854076,31.1946621 97.7625573,31.0625 C97.5402127,30.9713537 97.3462555,30.8221039 97.1806798,30.6147461 C97.0151041,30.4073883 96.9323174,30.1875012 96.9323174,29.9550781 C96.9323174,29.66341 97.0198347,29.4207366 97.1948719,29.2270508 C97.3699091,29.0333649 97.6229996,28.8430999 97.9541511,28.65625 C97.5378464,28.4830721 97.2078826,28.20508 96.9642497,27.8222656 C96.7206169,27.4394512 96.5988023,26.9882838 96.5988023,26.46875 C96.5988023,25.6347615 96.8802768,24.9899111 97.4432343,24.5341797 C98.0061917,24.0784482 98.8104046,23.8505859 99.855897,23.8505859 C100.078242,23.8505859 100.341976,23.8699542 100.647108,23.9086914 C100.952241,23.9474286 101.147381,23.9759114 101.232534,23.9941406 L104,23.9941406 Z M97.8760943,32.7167969 C97.8760943,33.0039077 98.0191969,33.2294914 98.3054064,33.3935547 C98.5916158,33.557618 98.9925396,33.6396484 99.5081897,33.6396484 C100.28403,33.6396484 100.891921,33.5371104 101.331879,33.3320312 C101.771837,33.1269521 101.991813,32.8466815 101.991813,32.4912109 C101.991813,32.2041001 101.86172,32.0058599 101.601529,31.8964844 C101.341339,31.7871088 100.939233,31.7324219 100.395198,31.7324219 L99.2740195,31.7324219 C98.8766378,31.7324219 98.5443086,31.8224275 98.2770221,32.0024414 C98.0097356,32.1824553 97.8760943,32.4205714 97.8760943,32.7167969 Z M98.6637577,26.4960938 C98.6637577,26.9108094 98.761919,27.2389311 98.9582445,27.4804688 C99.15457,27.7220064 99.4537845,27.8427734 99.855897,27.8427734 C100.26274,27.8427734 100.560772,27.7220064 100.750001,27.4804688 C100.939231,27.2389311 101.033844,26.9108094 101.033844,26.4960938 C101.033844,25.5755162 100.641199,25.1152344 99.855897,25.1152344 C99.0611335,25.1152344 98.6637577,25.5755162 98.6637577,26.4960938 Z" id="Pending" fill="#FFFFFF"></path>
                <g id="icons8-empty_hourglass" transform="translate(19.000000, 18.000000)">
                    <mask id="mask-2" fill="white">
                        <use xlink:href="#path-1"></use>
                    </mask>
                    <g id="Clip-2"></g>
                    <path d="M0,0 L0,2.7 L1.875,2.7 L1.875,4.5 C1.875,6.3774 2.878125,8.0334 4.395,9 C2.878125,9.9666 1.875,11.6226 1.875,13.5 L1.875,15.3 L0,15.3 L0,18 L15,18 L15,15.3 L13.125,15.3 L13.125,13.5 C13.125,11.6226 12.121875,9.9666 10.605,9 C12.121875,8.0334 13.125,6.3774 13.125,4.5 L13.125,2.7 L15,2.7 L15,0 L0,0 Z M3.75,2.7 L11.25,2.7 L11.25,4.5 C11.25,6.1731 10.0490625,7.6995 8.4375,8.1 L8.4375,9.9 C10.0490625,10.3005 11.25,11.8269 11.25,13.5 L11.25,15.3 L3.75,15.3 L3.75,13.5 C3.75,11.8269 4.9509375,10.3005 6.5625,9.9 L6.5625,8.1 C4.9509375,7.6995 3.75,6.1731 3.75,4.5 L3.75,2.7 Z" id="Fill-1" fill="#FFFFFF" mask="url(#mask-2)"></path>
                </g>
                <rect id="Rectangle-10-Copy" fill="#08A2F4" x="164" y="188" width="140" height="56" rx="12"></rect>
                <path d="M220.39035,219.860406 L217.889856,219.860406 L216.487313,214.5 C216.435367,214.309221 216.346823,213.914872 216.22168,213.316942 C216.096537,212.719011 216.024521,212.317683 216.005632,212.112944 C215.977297,212.364214 215.906463,212.767869 215.793125,213.323921 C215.679788,213.879973 215.592425,214.276649 215.531034,214.513959 L214.135574,219.860406 L211.642164,219.860406 L209,209.656091 L211.160483,209.656091 L212.485107,215.225888 C212.716504,216.254235 212.884147,217.145301 212.988039,217.899112 C213.016373,217.633882 213.081305,217.223247 213.182837,216.667195 C213.284368,216.111144 213.379995,215.67957 213.469721,215.372462 L214.978517,209.656091 L217.053997,209.656091 L218.562794,215.372462 C218.628907,215.628385 218.711548,216.019244 218.810718,216.545051 C218.909888,217.070857 218.985445,217.522206 219.037391,217.899112 C219.084615,217.536166 219.160173,217.083653 219.264065,216.541561 C219.367958,215.999469 219.462404,215.560915 219.547407,215.225888 L220.864948,209.656091 L223.025431,209.656091 L220.39035,219.860406 Z M223.53763,210.039975 C223.53763,209.346655 223.929582,209 224.713499,209 C225.497416,209 225.889369,209.346655 225.889369,210.039975 C225.889369,210.370349 225.79138,210.627431 225.595401,210.811231 C225.399422,210.995031 225.105458,211.086929 224.713499,211.086929 C223.929582,211.086929 223.53763,210.737948 223.53763,210.039975 Z M225.790199,219.860406 L223.629716,219.860406 L223.629716,212.057107 L225.790199,212.057107 L225.790199,219.860406 Z M230.864205,218.303934 C231.241996,218.303934 231.695339,218.222505 232.224246,218.059645 L232.224246,219.644036 C231.685894,219.881346 231.024769,220 230.240852,220 C229.376655,220 228.747405,219.784795 228.353086,219.354378 C227.958766,218.923961 227.761609,218.278346 227.761609,217.417513 L227.761609,213.655457 L226.727411,213.655457 L226.727411,212.755076 L227.917447,212.043147 L228.5408,210.395939 L229.922092,210.395939 L229.922092,212.057107 L232.139244,212.057107 L232.139244,213.655457 L229.922092,213.655457 L229.922092,217.417513 C229.922092,217.719968 230.008275,217.943316 230.180642,218.087563 C230.353009,218.231811 230.580861,218.303934 230.864205,218.303934 Z M240.60627,219.860406 L238.445787,219.860406 L238.445787,215.302665 C238.445787,214.176602 238.020779,213.613579 237.170748,213.613579 C236.566282,213.613579 236.129468,213.815988 235.860291,214.220812 C235.591115,214.625637 235.456529,215.281721 235.456529,216.189086 L235.456529,219.860406 L233.296046,219.860406 L233.296046,209 L235.456529,209 L235.456529,211.212563 C235.456529,211.38473 235.440001,211.789548 235.406944,212.42703 L235.357359,213.055203 L235.470696,213.055203 C235.95238,212.292086 236.717396,211.910533 237.765766,211.910533 C238.696077,211.910533 239.402064,212.157146 239.883748,212.650381 C240.365432,213.143615 240.60627,213.850884 240.60627,214.772208 L240.60627,219.860406 Z M251.675144,219.860406 L245.710794,219.860406 L245.710794,209.656091 L251.675144,209.656091 L251.675144,211.428934 L247.906695,211.428934 L247.906695,213.669416 L251.413052,213.669416 L251.413052,215.442259 L247.906695,215.442259 L247.906695,218.073604 L251.675144,218.073604 L251.675144,219.860406 Z M257.556674,211.910533 C257.849462,211.910533 258.092662,211.931472 258.28628,211.97335 L258.123358,213.969543 C257.94863,213.923012 257.736125,213.899746 257.485839,213.899746 C256.79637,213.899746 256.259206,214.074237 255.874331,214.423223 C255.489456,214.77221 255.297021,215.260784 255.297021,215.888959 L255.297021,219.860406 L253.136538,219.860406 L253.136538,212.057107 L254.772839,212.057107 L255.091598,213.369289 L255.197852,213.369289 C255.443416,212.931893 255.775159,212.579422 256.193091,212.311865 C256.611022,212.044309 257.065545,211.910533 257.556674,211.910533 Z M263.615293,211.910533 C263.908082,211.910533 264.151281,211.931472 264.344899,211.97335 L264.181978,213.969543 C264.007249,213.923012 263.794745,213.899746 263.544458,213.899746 C262.854989,213.899746 262.317825,214.074237 261.93295,214.423223 C261.548075,214.77221 261.355641,215.260784 261.355641,215.888959 L261.355641,219.860406 L259.195158,219.860406 L259.195158,212.057107 L260.831458,212.057107 L261.150218,213.369289 L261.256471,213.369289 C261.502035,212.931893 261.833778,212.579422 262.25171,212.311865 C262.669642,212.044309 263.124165,211.910533 263.615293,211.910533 Z M266.684654,215.944797 C266.684654,216.71722 266.813338,217.301182 267.070708,217.696701 C267.328078,218.092219 267.747184,218.289975 268.328038,218.289975 C268.90417,218.289975 269.318553,218.093382 269.571201,217.70019 C269.823849,217.306999 269.950171,216.721874 269.950171,215.944797 C269.950171,215.172373 269.822669,214.593065 269.56766,214.206853 C269.31265,213.820641 268.894725,213.627538 268.313871,213.627538 C267.737739,213.627538 267.322175,213.819478 267.067166,214.203363 C266.812157,214.587248 266.684654,215.16772 266.684654,215.944797 Z M272.160239,215.944797 C272.160239,217.215108 271.820232,218.208541 271.140208,218.925127 C270.460184,219.641713 269.513358,220 268.299704,220 C267.539399,220 266.86883,219.835979 266.287976,219.507931 C265.707121,219.179884 265.260862,218.708759 264.949184,218.094543 C264.637507,217.480327 264.48167,216.763752 264.48167,215.944797 C264.48167,214.669833 264.819316,213.678726 265.494618,212.971447 C266.16992,212.264167 267.119106,211.910533 268.342205,211.910533 C269.10251,211.910533 269.77308,212.073391 270.353934,212.399112 C270.934788,212.724832 271.381047,213.192467 271.692725,213.80203 C272.004403,214.411594 272.160239,215.125842 272.160239,215.944797 Z M277.836347,211.910533 C278.129135,211.910533 278.372334,211.931472 278.565952,211.97335 L278.403031,213.969543 C278.228302,213.923012 278.015798,213.899746 277.765511,213.899746 C277.076042,213.899746 276.538878,214.074237 276.154003,214.423223 C275.769129,214.77221 275.576694,215.260784 275.576694,215.888959 L275.576694,219.860406 L273.416211,219.860406 L273.416211,212.057107 L275.052511,212.057107 L275.371271,213.369289 L275.477524,213.369289 C275.723089,212.931893 276.054832,212.579422 276.472763,212.311865 C276.890695,212.044309 277.345218,211.910533 277.836347,211.910533 Z M285,217.543147 C285,218.34349 284.717841,218.953044 284.153516,219.371827 C283.58919,219.790611 282.745075,220 281.621146,220 C281.045015,220 280.553893,219.961612 280.147768,219.884835 C279.741642,219.808058 279.361495,219.695221 279.007316,219.54632 L279.007316,217.787437 C279.408719,217.973563 279.860881,218.129441 280.363816,218.255076 C280.866751,218.380711 281.309468,218.443528 281.691982,218.443528 C282.475899,218.443528 282.867851,218.22018 282.867851,217.773477 C282.867851,217.605964 282.815906,217.469861 282.712013,217.365165 C282.60812,217.260469 282.428672,217.141815 282.173663,217.009201 C281.918654,216.876586 281.578647,216.721871 281.153632,216.545051 C280.544443,216.29378 280.097004,216.061126 279.811299,215.847081 C279.525594,215.633036 279.317812,215.387586 279.187947,215.110723 C279.058081,214.833861 278.993149,214.493022 278.993149,214.088198 C278.993149,213.394878 279.265863,212.85861 279.811299,212.479378 C280.356735,212.100146 281.130015,211.910533 282.131162,211.910533 C283.085085,211.910533 284.013021,212.115269 284.914997,212.524746 L284.263311,214.060279 C283.86663,213.892766 283.495928,213.7555 283.151193,213.648477 C282.806459,213.541455 282.454646,213.487944 282.095744,213.487944 C281.458221,213.487944 281.139465,213.657782 281.139465,213.997462 C281.139465,214.188241 281.242175,214.353426 281.447599,214.49302 C281.653023,214.632615 282.102824,214.839677 282.797016,215.114213 C283.415649,215.36083 283.868992,215.591158 284.157057,215.805203 C284.445123,216.019248 284.657628,216.265862 284.794577,216.545051 C284.931526,216.82424 285,217.156935 285,217.543147 Z" id="With-Errors" fill="#FFFFFF"></path>
                <g id="icons8-empty_hourglass-copy-2" transform="translate(179.000000, 206.000000)">
                    <mask id="mask-4" fill="white">
                        <use xlink:href="#path-3"></use>
                    </mask>
                    <g id="Clip-2"></g>
                    <path d="M0,0 L0,2.7 L1.875,2.7 L1.875,4.5 C1.875,6.3774 2.878125,8.0334 4.395,9 C2.878125,9.9666 1.875,11.6226 1.875,13.5 L1.875,15.3 L0,15.3 L0,18 L15,18 L15,15.3 L13.125,15.3 L13.125,13.5 C13.125,11.6226 12.121875,9.9666 10.605,9 C12.121875,8.0334 13.125,6.3774 13.125,4.5 L13.125,2.7 L15,2.7 L15,0 L0,0 Z M3.75,2.7 L11.25,2.7 L11.25,4.5 C11.25,6.1731 10.0490625,7.6995 8.4375,8.1 L8.4375,9.9 C10.0490625,10.3005 11.25,11.8269 11.25,13.5 L11.25,15.3 L3.75,15.3 L3.75,13.5 C3.75,11.8269 4.9509375,10.3005 6.5625,9.9 L6.5625,8.1 C4.9509375,7.6995 3.75,6.1731 3.75,4.5 L3.75,2.7 Z" id="Fill-1" fill="#FFFFFF" mask="url(#mask-4)"></path>
                </g>
                <rect id="Rectangle-10-Copy-7" fill="#FFBA3F" x="0" y="96" width="140" height="56" rx="12"></rect>
                <path d="M19,114 L19,134 L20.3633935,133.077831 L34,124 L20.3633935,114.922169 L19,114 Z M20.7810496,117.37145 L30.7157445,124 L20.7810496,130.62855 L20.7810496,117.37145 Z" id="icons8-play" fill="#FFFFFF"></path>
                <path d="M47,128.474923 L47,118 L49.200916,118 L49.200916,128.474923 L47,128.474923 Z M58.4398521,128.474923 L56.2744347,128.474923 L56.2744347,123.796315 C56.2744347,123.218353 56.1726729,122.784887 55.9691463,122.495906 C55.7656197,122.206925 55.441402,122.062436 54.9964834,122.062436 C54.3906368,122.062436 53.9528246,122.266631 53.6830335,122.675026 C53.4132425,123.083421 53.278349,123.760487 53.278349,124.706244 L53.278349,128.474923 L51.1129316,128.474923 L51.1129316,120.464688 L52.7671685,120.464688 L53.0582574,121.489253 L53.1789528,121.489253 C53.4203448,121.102352 53.7528454,120.809793 54.1764647,120.611566 C54.600084,120.413339 55.0816775,120.314227 55.6212596,120.314227 C56.544229,120.314227 57.2447286,120.566186 57.7227794,121.070113 C58.2008302,121.574039 58.4398521,122.301258 58.4398521,123.251791 L58.4398521,128.474923 Z M65.7569499,122.929376 L66.4811223,122.929376 C67.1579665,122.929376 67.6644088,122.79444 68.0004643,122.524565 C68.3365198,122.25469 68.5045451,121.861824 68.5045451,121.345957 C68.5045451,120.825313 68.3637352,120.440806 68.0821112,120.192426 C67.8004872,119.944045 67.3591251,119.819857 66.7580117,119.819857 L65.7569499,119.819857 L65.7569499,122.929376 Z M70.7267603,121.267144 C70.7267603,122.39441 70.3776938,123.256565 69.6795503,123.853634 C68.9814067,124.450702 67.9886379,124.749232 66.7012139,124.749232 L65.7569499,124.749232 L65.7569499,128.474923 L63.5560339,128.474923 L63.5560339,118 L66.8716074,118 C68.1306323,118 69.0879029,118.273453 69.7434478,118.820368 C70.3989928,119.367284 70.7267603,120.182867 70.7267603,121.267144 Z M76.4158318,120.314227 C76.7092887,120.314227 76.9530436,120.335721 77.1471039,120.37871 L76.9838101,122.42784 C76.8086826,122.380075 76.5956928,122.356192 76.3448345,122.356192 C75.6537907,122.356192 75.1154,122.53531 74.7296461,122.893552 C74.3438922,123.251793 74.1510182,123.753323 74.1510182,124.398158 L74.1510182,128.474923 L71.9856008,128.474923 L71.9856008,120.464688 L73.6256382,120.464688 L73.945126,121.811668 L74.051622,121.811668 C74.2977471,121.362673 74.6302478,121.000854 75.0491339,120.726203 C75.46802,120.451551 75.9235814,120.314227 76.4158318,120.314227 Z M79.4922029,124.455476 C79.4922029,125.248383 79.62118,125.847831 79.8791381,126.253838 C80.1370962,126.659845 80.5571594,126.862845 81.1393401,126.862845 C81.7167876,126.862845 82.1321176,126.661039 82.3853425,126.257421 C82.6385675,125.853802 82.765178,125.25316 82.765178,124.455476 C82.765178,123.662569 82.6373842,123.067897 82.3817927,122.671443 C82.1262011,122.274989 81.7073213,122.076766 81.1251406,122.076766 C80.5476931,122.076766 80.1311798,122.273795 79.8755883,122.667861 C79.6199967,123.061926 79.4922029,123.657792 79.4922029,124.455476 Z M84.9802935,124.455476 C84.9802935,125.759474 84.6395099,126.779253 83.9579325,127.514841 C83.2763551,128.25043 82.3273675,128.618219 81.1109411,128.618219 C80.3488997,128.618219 79.6767988,128.449848 79.0946181,128.113101 C78.5124374,127.776355 78.0651589,127.292736 77.7527692,126.662231 C77.4403796,126.031727 77.2841871,125.296149 77.2841871,124.455476 C77.2841871,123.146701 77.6226042,122.129311 78.2994484,121.403275 C78.9762926,120.67724 79.9276468,120.314227 81.1535395,120.314227 C81.9155809,120.314227 82.5876819,120.481404 83.1698626,120.815763 C83.7520433,121.150121 84.1993218,121.630157 84.5117114,122.255885 C84.8241011,122.881614 84.9802935,123.614803 84.9802935,124.455476 Z M93.1471705,120.464688 L93.1471705,121.57523 L91.9047179,121.897646 C92.1319103,122.255887 92.2455049,122.657111 92.2455049,123.101331 C92.2455049,123.96111 91.9485025,124.631011 91.3544888,125.111054 C90.7604752,125.591098 89.9357316,125.831116 88.8802332,125.831116 L88.4897481,125.809621 L88.1702603,125.773797 C87.947801,125.945753 87.836573,126.136812 87.836573,126.346981 C87.836573,126.662233 88.2341539,126.819857 89.0293275,126.819857 L90.3782761,126.819857 C91.2491806,126.819857 91.9129986,127.008528 92.3697501,127.385875 C92.8265016,127.763223 93.054874,128.317294 93.054874,129.048106 C93.054874,129.98431 92.6679426,130.710335 91.8940683,131.226203 C91.1201939,131.74207 90.0090974,132 88.5607454,132 C87.4531821,132 86.6071395,131.805358 86.0225922,131.41607 C85.438045,131.026781 85.1457757,130.481068 85.1457757,129.778915 C85.1457757,129.296483 85.2948685,128.892871 85.5930586,128.568066 C85.8912487,128.24326 86.329061,128.011601 86.9065085,127.873081 C86.6840492,127.77755 86.4899919,127.62112 86.3243307,127.403787 C86.1586696,127.186454 86.0758402,126.955989 86.0758402,126.712385 C86.0758402,126.406686 86.1634027,126.152338 86.3385302,125.949335 C86.5136577,125.746331 86.7668789,125.546913 87.0982012,125.351075 C86.6816817,125.169566 86.3515476,124.878201 86.107789,124.47697 C85.8640304,124.07574 85.7421529,123.602869 85.7421529,123.058342 C85.7421529,122.184233 86.0237727,121.508361 86.5870207,121.030706 C87.1502687,120.553051 87.9548966,120.314227 89.0009286,120.314227 C89.2233879,120.314227 89.4872586,120.334527 89.7925484,120.375128 C90.0978383,120.415729 90.2930789,120.445582 90.3782761,120.464688 L93.1471705,120.464688 Z M87.0201042,129.60696 C87.0201042,129.907883 87.1632806,130.144318 87.4496378,130.316274 C87.735995,130.48823 88.1371257,130.574207 88.6530419,130.574207 C89.4292828,130.574207 90.0374869,130.466736 90.4776723,130.251791 C90.9178577,130.036846 91.1379471,129.743093 91.1379471,129.370522 C91.1379471,129.069599 91.0077867,128.861822 90.747462,128.747185 C90.4871373,128.632548 90.0848233,128.57523 89.540508,128.57523 L88.4187508,128.57523 C88.021164,128.57523 87.6886634,128.669566 87.4212389,128.85824 C87.1538144,129.046913 87.0201042,129.296484 87.0201042,129.60696 Z M87.8081741,123.087001 C87.8081741,123.521667 87.9063861,123.865574 88.1028129,124.118731 C88.2992397,124.371888 88.5986086,124.498465 89.0009286,124.498465 C89.4079818,124.498465 89.7061674,124.371888 89.8954945,124.118731 C90.0848216,123.865574 90.1794837,123.521667 90.1794837,123.087001 C90.1794837,122.122138 89.7866359,121.639713 89.0009286,121.639713 C88.205755,121.639713 87.8081741,122.122138 87.8081741,123.087001 Z M98.3534603,120.314227 C98.6469173,120.314227 98.8906722,120.335721 99.0847324,120.37871 L98.9214387,122.42784 C98.7463111,122.380075 98.5333214,122.356192 98.282463,122.356192 C97.5914193,122.356192 97.0530285,122.53531 96.6672747,122.893552 C96.2815208,123.251793 96.0886467,123.753323 96.0886467,124.398158 L96.0886467,128.474923 L93.9232293,128.474923 L93.9232293,120.464688 L95.5632668,120.464688 L95.8827546,121.811668 L95.9892505,121.811668 C96.2353757,121.362673 96.5678764,121.000854 96.9867625,120.726203 C97.4056486,120.451551 97.86121,120.314227 98.3534603,120.314227 Z M102.991772,121.868987 C102.532654,121.868987 102.172938,122.015863 101.912613,122.309621 C101.652288,122.603379 101.503196,123.020127 101.46533,123.559877 L104.504014,123.559877 C104.494548,123.020127 104.354921,122.603379 104.08513,122.309621 C103.815339,122.015863 103.45089,121.868987 102.991772,121.868987 Z M103.29706,128.618219 C102.019103,128.618219 101.020417,128.262371 100.300975,127.550665 C99.5815317,126.838959 99.2218157,125.831122 99.2218157,124.527124 C99.2218157,123.184913 99.5543163,122.147223 100.219328,121.414023 C100.884339,120.680822 101.803745,120.314227 102.977572,120.314227 C104.099335,120.314227 104.972593,120.63664 105.597372,121.281474 C106.222152,121.926308 106.534537,122.817122 106.534537,123.953941 L106.534537,125.01433 L101.415632,125.01433 C101.439298,125.635281 101.621522,126.120094 101.962311,126.468782 C102.3031,126.81747 102.781143,126.991812 103.396456,126.991812 C103.874507,126.991812 104.326519,126.941659 104.752505,126.841351 C105.178491,126.741044 105.623402,126.581031 106.087254,126.36131 L106.087254,128.052201 C105.7086,128.243263 105.303919,128.385363 104.8732,128.478506 C104.442481,128.571648 103.917106,128.618219 103.29706,128.618219 Z M113.302767,126.096213 C113.302767,126.91778 113.019964,127.543498 112.454349,127.973388 C111.888735,128.403277 111.042692,128.618219 109.916196,128.618219 C109.338749,128.618219 108.846506,128.578813 108.439453,128.5 C108.032399,128.421187 107.651384,128.305357 107.296396,128.152508 L107.296396,126.346981 C107.698716,126.538043 108.151911,126.698055 108.655994,126.827021 C109.160078,126.955988 109.603806,127.020471 109.987193,127.020471 C110.772901,127.020471 111.165749,126.7912 111.165749,126.332651 C111.165749,126.160695 111.113684,126.020983 111.009554,125.913511 C110.905425,125.806038 110.725567,125.684238 110.469975,125.548106 C110.214384,125.411975 109.8736,125.253157 109.447614,125.071648 C108.837034,124.813714 108.388573,124.57489 108.102215,124.355169 C107.815858,124.135448 107.607602,123.883488 107.477439,123.599284 C107.347277,123.315079 107.282197,122.965202 107.282197,122.549642 C107.282197,121.837936 107.555534,121.287447 108.102215,120.898158 C108.648897,120.508869 109.423943,120.314227 110.427377,120.314227 C111.383478,120.314227 112.313534,120.524392 113.21757,120.944729 L112.564395,122.520983 C112.166808,122.349027 111.79526,122.208121 111.449738,122.09826 C111.104216,121.988399 110.751599,121.93347 110.391878,121.93347 C109.752899,121.93347 109.433415,122.107811 109.433415,122.456499 C109.433415,122.652338 109.53636,122.821903 109.742253,122.9652 C109.948146,123.108496 110.398974,123.321049 111.094751,123.602866 C111.714797,123.856023 112.169175,124.092459 112.457899,124.31218 C112.746623,124.531901 112.959613,124.785055 113.096875,125.071648 C113.234137,125.358241 113.302767,125.699759 113.302767,126.096213 Z M120,126.096213 C120,126.91778 119.717197,127.543498 119.151582,127.973388 C118.585968,128.403277 117.739925,128.618219 116.613429,128.618219 C116.035982,128.618219 115.543739,128.578813 115.136686,128.5 C114.729632,128.421187 114.348617,128.305357 113.993629,128.152508 L113.993629,126.346981 C114.395949,126.538043 114.849144,126.698055 115.353227,126.827021 C115.857311,126.955988 116.301039,127.020471 116.684426,127.020471 C117.470134,127.020471 117.862982,126.7912 117.862982,126.332651 C117.862982,126.160695 117.810917,126.020983 117.706787,125.913511 C117.602658,125.806038 117.4228,125.684238 117.167208,125.548106 C116.911617,125.411975 116.570833,125.253157 116.144847,125.071648 C115.534267,124.813714 115.085806,124.57489 114.799448,124.355169 C114.513091,124.135448 114.304835,123.883488 114.174672,123.599284 C114.04451,123.315079 113.97943,122.965202 113.97943,122.549642 C113.97943,121.837936 114.252767,121.287447 114.799448,120.898158 C115.34613,120.508869 116.121176,120.314227 117.12461,120.314227 C118.080711,120.314227 119.010767,120.524392 119.914803,120.944729 L119.261628,122.520983 C118.864041,122.349027 118.492493,122.208121 118.146971,122.09826 C117.801449,121.988399 117.448832,121.93347 117.089111,121.93347 C116.450132,121.93347 116.130648,122.107811 116.130648,122.456499 C116.130648,122.652338 116.233593,122.821903 116.439486,122.9652 C116.645379,123.108496 117.096207,123.321049 117.791984,123.602866 C118.41203,123.856023 118.866408,124.092459 119.155132,124.31218 C119.443856,124.531901 119.656846,124.785055 119.794108,125.071648 C119.93137,125.358241 120,125.699759 120,126.096213 Z" id="In-Progress" fill="#FFFFFF"></path>
                <rect id="Rectangle-10-Copy-9" fill="#1BD874" x="165" y="96" width="140" height="56" rx="12"></rect>
                <path d="M216.826046,119.262695 C216.005286,119.262695 215.369792,119.562334 214.919547,120.161621 C214.469301,120.760908 214.244182,121.596023 214.244182,122.666992 C214.244182,124.895519 215.104794,126.009766 216.826046,126.009766 C217.548315,126.009766 218.422997,125.834312 219.45012,125.483398 L219.45012,127.260742 C218.60591,127.602541 217.663222,127.773437 216.622029,127.773437 C215.125901,127.773437 213.981544,127.332524 213.188924,126.450684 C212.396304,125.568843 212,124.303068 212,122.65332 C212,121.614253 212.194634,120.703943 212.583909,119.922363 C212.973184,119.140784 213.532465,118.541506 214.261769,118.124512 C214.991073,117.707517 215.845824,117.499023 216.826046,117.499023 C217.825028,117.499023 218.828685,117.733722 219.837048,118.203125 L219.133543,119.925781 C218.748958,119.748046 218.362034,119.5931 217.972759,119.460938 C217.583484,119.328775 217.20125,119.262695 216.826046,119.262695 Z M222.653237,123.801758 C222.653237,124.558272 222.781039,125.130206 223.036648,125.517578 C223.292256,125.90495 223.708492,126.098633 224.285369,126.098633 C224.857556,126.098633 225.269103,125.906089 225.520021,125.520996 C225.770939,125.135903 225.896396,124.562829 225.896396,123.801758 C225.896396,123.045244 225.769767,122.477866 225.516503,122.099609 C225.26324,121.721352 224.848176,121.532227 224.271299,121.532227 C223.699112,121.532227 223.286393,121.720213 223.03313,122.096191 C222.779867,122.47217 222.653237,123.040686 222.653237,123.801758 Z M228.091332,123.801758 C228.091332,125.045905 227.753653,126.018877 227.078285,126.720703 C226.402917,127.42253 225.462574,127.773438 224.257229,127.773438 C223.50213,127.773438 222.836151,127.612795 222.259274,127.291504 C221.682397,126.970213 221.239193,126.508792 220.929649,125.907227 C220.620106,125.305661 220.465336,124.603845 220.465336,123.801758 C220.465336,122.553054 220.80067,121.58236 221.471348,120.889648 C222.142027,120.196937 223.084714,119.850586 224.299439,119.850586 C225.054539,119.850586 225.720517,120.01009 226.297394,120.329102 C226.874271,120.648114 227.317475,121.106117 227.627019,121.703125 C227.936563,122.300133 228.091332,122.99967 228.091332,123.801758 Z M236.380792,127.636719 L234.235101,127.636719 L234.235101,123.172852 C234.235101,122.621417 234.140129,122.207846 233.950182,121.932129 C233.760234,121.656411 233.461248,121.518555 233.053213,121.518555 C232.504476,121.518555 232.105827,121.714516 231.857254,122.106445 C231.608681,122.498374 231.484396,123.143225 231.484396,124.041016 L231.484396,127.636719 L229.338705,127.636719 L229.338705,119.994141 L230.977872,119.994141 L231.266309,120.97168 L231.385905,120.97168 C231.596958,120.620766 231.901807,120.346192 232.300462,120.147949 C232.699117,119.949706 233.156391,119.850586 233.672297,119.850586 C234.849502,119.850586 235.6468,120.22428 236.064215,120.97168 L236.254161,120.97168 C236.465214,120.616209 236.775926,120.340496 237.186306,120.144531 C237.596686,119.948567 238.059822,119.850586 238.575728,119.850586 C239.466839,119.850586 240.141025,120.072752 240.598306,120.51709 C241.055587,120.961428 241.284223,121.673498 241.284223,122.65332 L241.284223,127.636719 L239.131498,127.636719 L239.131498,123.172852 C239.131498,122.621417 239.036525,122.207846 238.846578,121.932129 C238.656631,121.656411 238.357644,121.518555 237.949609,121.518555 C237.424322,121.518555 237.031536,121.700845 236.771238,122.06543 C236.510939,122.430015 236.380792,123.008785 236.380792,123.801758 L236.380792,127.636719 Z M247.280256,127.773438 C246.356315,127.773438 245.631712,127.447594 245.106425,126.795898 L244.993864,126.795898 C245.068905,127.433922 245.106425,127.803059 245.106425,127.90332 L245.106425,131 L242.960734,131 L242.960734,119.994141 L244.705427,119.994141 L245.007934,120.985352 L245.106425,120.985352 C245.608261,120.228837 246.351624,119.850586 247.336537,119.850586 C248.265168,119.850586 248.992116,120.199215 249.517403,120.896484 C250.042689,121.593753 250.305329,122.562168 250.305329,123.801758 C250.305329,124.617517 250.182216,125.326169 249.935988,125.927734 C249.68976,126.5293 249.339184,126.987303 248.884248,127.301758 C248.429312,127.616213 247.894654,127.773438 247.280256,127.773438 Z M246.647102,121.518555 C246.117125,121.518555 245.730201,121.676919 245.486318,121.993652 C245.242435,122.310386 245.115805,122.83333 245.106425,123.5625 L245.106425,123.788086 C245.106425,124.608403 245.231882,125.196287 245.4828,125.551758 C245.733719,125.907228 246.131195,126.084961 246.675242,126.084961 C247.636704,126.084961 248.117427,125.314786 248.117427,123.774414 C248.117427,123.022457 247.999005,122.458498 247.762157,122.08252 C247.525309,121.706541 247.153628,121.518555 246.647102,121.518555 Z M253.698392,127.636719 L251.552701,127.636719 L251.552701,117 L253.698392,117 L253.698392,127.636719 Z M258.681377,121.333984 C258.226442,121.333984 257.870003,121.47412 257.61205,121.754395 C257.354096,122.034669 257.206362,122.432289 257.168841,122.947266 L260.179844,122.947266 C260.170463,122.432289 260.032109,122.034669 259.764775,121.754395 C259.497442,121.47412 259.136313,121.333984 258.681377,121.333984 Z M258.983885,127.773438 C257.717569,127.773438 256.727982,127.433923 256.015093,126.754883 C255.302204,126.075843 254.945765,125.114264 254.945765,123.870117 C254.945765,122.589512 255.275236,121.59945 255.93419,120.899902 C256.593143,120.200355 257.504173,119.850586 258.667307,119.850586 C259.778851,119.850586 260.644154,120.1582 261.263242,120.773438 C261.882329,121.388675 262.191868,122.238601 262.191868,123.323242 L262.191868,124.334961 L257.119596,124.334961 C257.143046,124.927412 257.323611,125.389972 257.661295,125.722656 C257.998979,126.05534 258.472668,126.22168 259.082375,126.22168 C259.556071,126.22168 260.003965,126.173829 260.42607,126.078125 C260.848176,125.982421 261.289034,125.829754 261.74866,125.620117 L261.74866,127.233398 C261.373455,127.415691 260.972462,127.551269 260.545666,127.640137 C260.118871,127.729004 259.598282,127.773438 258.983885,127.773438 Z M266.72461,126.112305 C267.099815,126.112305 267.550054,126.032553 268.07534,125.873047 L268.07534,127.424805 C267.540674,127.657228 266.884075,127.773438 266.105526,127.773438 C265.247245,127.773438 264.622304,127.562665 264.230684,127.141113 C263.839065,126.719562 263.643258,126.087244 263.643258,125.244141 L263.643258,121.55957 L262.61614,121.55957 L262.61614,120.677734 L263.798029,119.980469 L264.417113,118.367188 L265.788948,118.367188 L265.788948,119.994141 L267.99092,119.994141 L267.99092,121.55957 L265.788948,121.55957 L265.788948,125.244141 C265.788948,125.540366 265.874541,125.759114 266.045728,125.900391 C266.216915,126.041667 266.443207,126.112305 266.72461,126.112305 Z M272.397031,121.333984 C271.942095,121.333984 271.585656,121.47412 271.327703,121.754395 C271.06975,122.034669 270.922015,122.432289 270.884495,122.947266 L273.895497,122.947266 C273.886117,122.432289 273.747762,122.034669 273.480429,121.754395 C273.213095,121.47412 272.851966,121.333984 272.397031,121.333984 Z M272.699538,127.773438 C271.433222,127.773438 270.443635,127.433923 269.730746,126.754883 C269.017857,126.075843 268.661418,125.114264 268.661418,123.870117 C268.661418,122.589512 268.99089,121.59945 269.649843,120.899902 C270.308796,120.200355 271.219826,119.850586 272.382961,119.850586 C273.494504,119.850586 274.359807,120.1582 274.978895,120.773438 C275.597983,121.388675 275.907522,122.238601 275.907522,123.323242 L275.907522,124.334961 L270.835249,124.334961 C270.858699,124.927412 271.039264,125.389972 271.376948,125.722656 C271.714632,126.05534 272.188321,126.22168 272.798029,126.22168 C273.271725,126.22168 273.719618,126.173829 274.141724,126.078125 C274.563829,125.982421 275.004688,125.829754 275.464313,125.620117 L275.464313,127.233398 C275.089109,127.415691 274.688115,127.551269 274.26132,127.640137 C273.834524,127.729004 273.313936,127.773438 272.699538,127.773438 Z M279.617163,127.773438 C278.693221,127.773438 277.967446,127.424808 277.439814,126.727539 C276.912182,126.03027 276.648371,125.064134 276.648371,123.829102 C276.648371,122.57584 276.916872,121.59945 277.453884,120.899902 C277.990896,120.200355 278.730741,119.850586 279.673443,119.850586 C280.663045,119.850586 281.418133,120.22428 281.93873,120.97168 L282.00908,120.97168 C281.901209,120.402015 281.847274,119.893882 281.847274,119.447266 L281.847274,117 L284,117 L284,127.636719 L282.353798,127.636719 L281.93873,126.645508 L281.847274,126.645508 C281.359508,127.397465 280.616145,127.773438 279.617163,127.773438 Z M280.369913,126.112305 C280.91865,126.112305 281.320816,125.957358 281.576425,125.647461 C281.832033,125.337564 281.97156,124.811202 281.99501,124.068359 L281.99501,123.842773 C281.99501,123.022457 281.864863,122.434572 281.604565,122.079102 C281.344267,121.723631 280.920995,121.545898 280.334738,121.545898 C279.856352,121.545898 279.48467,121.742999 279.219682,122.137207 C278.954694,122.531415 278.822202,123.104488 278.822202,123.856445 C278.822202,124.608402 278.955866,125.172361 279.2232,125.54834 C279.490533,125.924318 279.872767,126.112305 280.369913,126.112305 Z" id="Completed" fill="#FFFFFF"></path>
                <g id="icons8-checkmark" transform="translate(184.000000, 117.000000)">
                    <mask id="mask-6" fill="white">
                        <use xlink:href="#path-5"></use>
                    </mask>
                    <g id="Clip-2"></g>
                    <path d="M14.6427782,1.01994739 L13.2971871,0.135884084 C12.9249544,-0.107995449 12.4153859,-0.0143631283 12.1662301,0.342746187 L5.57035704,9.75025398 L2.53921227,6.81861877 C2.2225143,6.51231769 1.70619154,6.51231769 1.38949358,6.81861877 L0.237523476,7.9327708 C-0.0791744921,8.23907188 -0.0791744921,8.73771842 0.237523476,9.04692283 L4.89868718,13.555065 C5.15985043,13.8076545 5.57035704,14 5.93958785,14 C6.30881866,14 6.68105134,13.7764438 6.92120146,13.4389319 L14.8596638,2.11159863 C15.1118214,1.75448931 15.0150109,1.26382692 14.6427782,1.01994739 Z" id="Fill-1" fill="#FFFFFF" mask="url(#mask-6)"></path>
                </g>
                <rect id="Rectangle-10-Copy-10" fill="#D42020" x="0" y="188" width="140" height="56" rx="12"></rect>
                <polygon id="icons8-multiply" fill="#FFFFFF" points="18.6158062 210 17 211.491513 21.8841938 216 17 220.508487 18.6158062 222 23.5 217.491513 28.3841938 222 30 220.508487 25.1158062 216 30 211.491513 28.3841938 210 23.5 214.508487"></polygon>
                <path d="M48.202557,219.860406 L46,219.860406 L46,209.656091 L52.0516157,209.656091 L52.0516157,211.428934 L48.202557,211.428934 L48.202557,214.060279 L51.7844203,214.060279 L51.7844203,215.826142 L48.202557,215.826142 L48.202557,219.860406 Z M58.5315258,219.860406 L58.1054574,218.799492 L58.0476854,218.799492 C57.67698,219.250848 57.2954479,219.563768 56.9030779,219.738261 C56.5107079,219.912755 55.9991902,220 55.3685095,220 C54.5933981,220 53.9831876,219.785958 53.5378596,219.357868 C53.0925316,218.929778 52.869871,218.320224 52.869871,217.529188 C52.869871,216.700926 53.1695602,216.090209 53.7689476,215.697018 C54.3683349,215.303826 55.2722168,215.086295 56.4806202,215.044416 L57.8815909,215.002538 L57.8815909,214.660533 C57.8815909,213.869497 57.4627482,213.473985 56.6250502,213.473985 C55.9799265,213.473985 55.2216767,213.662435 54.3502782,214.03934 L53.6209068,212.601523 C54.5500776,212.131554 55.5803344,211.896574 56.7117082,211.896574 C57.7949384,211.896574 58.6254024,212.124575 59.2031252,212.580584 C59.7808479,213.036593 60.069705,213.729902 60.069705,214.660533 L60.069705,219.860406 L58.5315258,219.860406 Z M57.8815909,216.244924 L57.0294541,216.272843 C56.3891447,216.291455 55.9125306,216.403129 55.5995974,216.607868 C55.2866643,216.812607 55.1302,217.124363 55.1302,217.543147 C55.1302,218.143404 55.4864571,218.443528 56.1989818,218.443528 C56.7093036,218.443528 57.1173142,218.301609 57.4230258,218.017766 C57.7287374,217.733924 57.8815909,217.357024 57.8815909,216.887056 L57.8815909,216.244924 Z M61.7039896,210.039975 C61.7039896,209.346655 62.1035752,209 62.9027583,209 C63.7019415,209 64.1015271,209.346655 64.1015271,210.039975 C64.1015271,210.370349 64.0016307,210.627431 63.8018349,210.811231 C63.6020391,210.995031 63.3023499,211.086929 62.9027583,211.086929 C62.1035752,211.086929 61.7039896,210.737948 61.7039896,210.039975 Z M64.0004261,219.860406 L61.7978691,219.860406 L61.7978691,212.057107 L64.0004261,212.057107 L64.0004261,219.860406 Z M67.9744762,219.860406 L65.7719192,219.860406 L65.7719192,209 L67.9744762,209 L67.9744762,219.860406 Z M73.0895231,213.425127 C72.6225305,213.425127 72.2566449,213.568209 71.9918553,213.854378 C71.7270657,214.140547 71.5754157,214.546529 71.5369009,215.072335 L74.6277022,215.072335 C74.6180735,214.546529 74.4760521,214.140547 74.2016338,213.854378 C73.9272155,213.568209 73.5565156,213.425127 73.0895231,213.425127 Z M73.4000475,220 C72.1001713,220 71.0843573,219.653345 70.3525751,218.960025 C69.620793,218.266706 69.2549074,217.284905 69.2549074,216.014594 C69.2549074,214.707058 69.5931108,213.696175 70.2695279,212.981916 C70.945945,212.267657 71.8811197,211.910533 73.0750801,211.910533 C74.2160825,211.910533 75.104318,212.224616 75.739813,212.852792 C76.375308,213.480968 76.6930508,214.348768 76.6930508,215.456218 L76.6930508,216.489213 L71.4863504,216.489213 C71.5104222,217.094123 71.6957721,217.566411 72.0424058,217.906091 C72.3890394,218.245772 72.8752821,218.415609 73.5011485,218.415609 C73.9873985,218.415609 74.4471626,218.366752 74.8804547,218.269036 C75.3137468,218.171319 75.7662895,218.015441 76.2380964,217.801396 L76.2380964,219.448604 C75.8529479,219.63473 75.4413266,219.773159 75.0032202,219.863896 C74.5651137,219.954632 74.0307282,220 73.4000475,220 Z M80.5010064,220 C79.5525782,220 78.8075678,219.644039 78.2659527,218.932107 C77.7243376,218.220174 77.4535341,217.23372 77.4535341,215.972716 C77.4535341,214.693099 77.7291518,213.696175 78.2803957,212.981916 C78.8316395,212.267657 79.5910928,211.910533 80.5587784,211.910533 C81.5746076,211.910533 82.3497074,212.292086 82.8841009,213.055203 L82.9563159,213.055203 C82.8455857,212.473559 82.7902215,211.95474 82.7902215,211.498731 L82.7902215,209 L85,209 L85,219.860406 L83.3101694,219.860406 L82.8841009,218.84835 L82.7902215,218.84835 C82.2895284,219.616121 81.5264644,220 80.5010064,220 Z M81.2737068,218.303934 C81.8369865,218.303934 82.2498113,218.145729 82.5121938,217.829315 C82.7745762,217.5129 82.9178011,216.975469 82.9418729,216.217005 L82.9418729,215.986675 C82.9418729,215.149107 82.8082765,214.54886 82.5410798,214.185914 C82.273883,213.822968 81.8393938,213.641497 81.2375993,213.641497 C80.7465349,213.641497 80.3650029,213.842743 80.0929918,214.245241 C79.8209806,214.647739 79.6849771,215.232864 79.6849771,216.000635 C79.6849771,216.768405 79.8221842,217.344224 80.0966025,217.728109 C80.3710208,218.111994 80.763385,218.303934 81.2737068,218.303934 Z" id="Failed" fill="#FFFFFF"></path>
                <circle id="Oval-8" stroke="#FFFFFF" stroke-width="5" fill="#D42020" cx="301" cy="189" r="10"></circle>
            </g>
        </g>
    </g>
</svg>