<?xml version="1.0" encoding="UTF-8" standalone="no"?>
<svg width="23px" height="43px" viewBox="0 0 23 43" version="1.1" xmlns="http://www.w3.org/2000/svg" xmlns:xlink="http://www.w3.org/1999/xlink">
    <!-- Generator: Sketch 50.2 (55047) - http://www.bohemiancoding.com/sketch -->
    <title>icons8-expand_arrow</title>
    <desc>Created with Sketch.</desc>
    <defs></defs>
    <g id="Page-1" stroke="none" stroke-width="1" fill="none" fill-rule="evenodd">
        <g id="Medium-Devices:-Tablets---6-col" transform="translate(-40.000000, -1570.000000)" fill="#000000" fill-rule="nonzero">
            <g id="icons8-expand_arrow" transform="translate(51.000000, 1591.500000) rotate(-90.000000) translate(-51.000000, -1591.500000) translate(29.000000, 1580.000000)">
                <path d="M41.988281,0.984375 C41.726563,0.992188 41.476563,1.101563 41.292969,1.292969 L22,20.585938 L2.707031,1.292969 C2.519531,1.097656 2.261719,0.992188 1.992188,0.988281 C1.582031,0.992188 1.21875,1.238281 1.0625,1.613281 C0.910156,1.992188 1,2.421875 1.292969,2.707031 L21.292969,22.707031 C21.683594,23.097656 22.316406,23.097656 22.707031,22.707031 L42.707031,2.707031 C43.003906,2.421875 43.09375,1.980469 42.9375,1.601563 C42.777344,1.222656 42.402344,0.976563 41.988281,0.984375 Z" id="Shape"></path>
            </g>
        </g>
    </g>
</svg>