<?xml version="1.0" encoding="UTF-8"?>
<svg width="352px" height="129px" viewBox="0 0 352 129" version="1.1" xmlns="http://www.w3.org/2000/svg" xmlns:xlink="http://www.w3.org/1999/xlink">
    <!-- Generator: Sketch 50 (54983) - http://www.bohemiancoding.com/sketch -->
    <title>Group 23</title>
    <desc>Created with Sketch.</desc>
    <defs></defs>
    <g id="Page-2" stroke="none" stroke-width="1" fill="none" fill-rule="evenodd">
        <g id="Group-23" transform="translate(2.000000, 1.000000)">
            <g id="Group" opacity="0.200000003" transform="translate(6.000000, 0.000000)" stroke="#979797" stroke-linecap="square">
                <path d="M1.55072934,0.319796954 L335.117397,0.319796954" id="Line-2"></path>
                <path d="M1.55072934,25.2639594 L335.117397,25.2639594" id="Line-2-Copy"></path>
                <path d="M1.55072934,50.2081218 L335.117397,50.2081218" id="Line-2-Copy-2"></path>
                <path d="M1.55072934,75.1522843 L335.117397,75.1522843" id="Line-2-Copy-3"></path>
                <path d="M1.55072934,100.096447 L335.117397,100.096447" id="Line-2-Copy-4"></path>
                <path d="M1.55072934,125.040609 L335.117397,125.040609" id="Line-2-Copy-5"></path>
                <path d="M0.64,0.25 L0.64,125.924182" id="Line-3"></path>
                <path d="M85.76,0.25 L85.76,125.924182" id="Line-3-Copy"></path>
                <path d="M170.24,0.25 L170.24,125.924182" id="Line-3-Copy-2"></path>
                <path d="M255.36,0.25 L255.36,125.924182" id="Line-3-Copy-3"></path>
                <path d="M335.36,0.25 L335.36,125.924182" id="Line-3-Copy-4"></path>
            </g>
            <circle id="Oval-6" stroke="#212429" fill="#D8D8D8" cx="6.5" cy="124.5" r="2.5"></circle>
            <circle id="Oval-6-Copy" stroke="#212429" fill="#D8D8D8" cx="91.5" cy="124.5" r="2.5"></circle>
            <circle id="Oval-6-Copy-2" stroke="#212429" fill="#D8D8D8" cx="176.5" cy="124.5" r="2.5"></circle>
            <circle id="Oval-6-Copy-3" stroke="#212429" fill="#D8D8D8" cx="261.5" cy="124.5" r="2.5"></circle>
            <circle id="Oval-6-Copy-4" stroke="#212429" fill="#D8D8D8" cx="341.5" cy="124.5" r="2.5"></circle>
            <path d="" id="Path-3" stroke="#979797"></path>
            <path d="M7,48 C35.8516746,37.8166667 61.6044657,35.8666667 84.2583732,42.15 C118.239234,51.575 150.296651,8.675 188.444976,22 C226.593301,35.325 323.406699,31.75 342,9" id="Path-5" stroke="#81C224" stroke-width="3"></path>
            <circle id="Oval-7" stroke="#212429" stroke-width="3" fill="#81C224" cx="6" cy="48" r="6"></circle>
            <circle id="Oval-7-Copy" stroke="#212429" stroke-width="3" fill="#81C224" cx="93" cy="43" r="6"></circle>
            <circle id="Oval-7-Copy-2" stroke="#212429" stroke-width="3" fill="#81C224" cx="176" cy="19" r="6"></circle>
            <circle id="Oval-7-Copy-3" stroke="#212429" stroke-width="3" fill="#81C224" cx="260" cy="29" r="6"></circle>
            <circle id="Oval-7-Copy-4" stroke="#212429" stroke-width="3" fill="#81C224" cx="342" cy="10" r="6"></circle>
            <path d="M8,78.3094907 C26.9672214,65.3742327 50.729527,62.1404182 79.2869165,68.6080472 C122.123001,78.3094907 151.53285,95.125326 192.770573,86.7174083 C234.008296,78.3094907 277.483725,28.185366 325.754238,41.120624 C330.740774,42.4568876 335.489361,43.7284443 340,44.9352942" id="Path-4" stroke="#009FEB" stroke-width="3"></path>
            <circle id="Oval-7-Copy-10" stroke="#212429" stroke-width="3" fill="#009FEB" cx="6" cy="78" r="6"></circle>
            <circle id="Oval-7-Copy-11" stroke="#212429" stroke-width="3" fill="#009FEB" cx="92" cy="73" r="6"></circle>
            <circle id="Oval-7-Copy-12" stroke="#212429" stroke-width="3" fill="#009FEB" cx="176" cy="89" r="6"></circle>
            <circle id="Oval-7-Copy-13" stroke="#212429" stroke-width="3" fill="#009FEB" cx="262" cy="54" r="6"></circle>
            <circle id="Oval-7-Copy-14" stroke="#212429" stroke-width="3" fill="#009FEB" cx="342" cy="46" r="6"></circle>
        </g>
    </g>
</svg>