<?xml version="1.0" encoding="UTF-8" standalone="no"?>
<svg width="285px" height="35px" viewBox="0 0 285 35" version="1.1" xmlns="http://www.w3.org/2000/svg" xmlns:xlink="http://www.w3.org/1999/xlink">
    <!-- Generator: Sketch 50.2 (55047) - http://www.bohemiancoding.com/sketch -->
    <title>Group 10</title>
    <desc>Created with Sketch.</desc>
    <defs></defs>
    <g id="Page-2" stroke="none" stroke-width="1" fill="none" fill-rule="evenodd">
        <g id="Medium-Devices:-Tablets---6-col" transform="translate(-242.000000, -3280.000000)">
            <g id="Group-10" transform="translate(242.000000, 3280.000000)">
                <rect id="Rectangle-3" stroke="#3CA9F5" stroke-width="2" x="1" y="1" width="32" height="32" rx="5"></rect>
                <rect id="Rectangle-3-Copy" fill="#3CA9F5" x="50" y="0" width="34" height="34" rx="5"></rect>
                <path d="M108.355965,8.27105735 C107.708598,8.10635015 107.030289,8.10639013 106.382942,8.27117363 C104.242075,8.81613516 102.948338,10.9934295 103.493299,13.1342966 L109.66944,37.3971044 C109.846897,38.0942416 110.209073,38.7306209 110.717819,39.2392152 C112.280151,40.8010783 114.812811,40.8006988 116.374674,39.2383675 L134.459447,21.1481734 C134.967866,20.6396013 135.32978,20.0033722 135.507095,19.3064534 C136.051804,17.165522 134.75781,14.9883802 132.616879,14.4436711 L108.355965,8.27105735 Z" id="Rectangle-3-Copy-3" stroke="#8CC34B" stroke-width="2" transform="translate(119.500139, 24.278960) rotate(45.000000) translate(-119.500139, -24.278960) "></path>
                <path d="M160.602536,8.30193256 L184.86345,14.4745463 C187.539614,15.1554328 189.157106,17.87686 188.47622,20.5530242 C188.254577,21.4241728 187.802184,22.219459 187.166659,22.8551742 L169.081886,40.9453683 C167.129558,42.8982824 163.963733,42.8987568 162.010819,40.946428 C161.374885,40.3106851 160.922166,39.5152109 160.700344,38.6437894 L154.524203,14.3809816 C153.843001,11.7048977 155.460173,8.98327983 158.136257,8.30207792 C158.945441,8.09609854 159.793327,8.09604857 160.602536,8.30193256 Z" id="Rectangle-3-Copy-4" fill="#8DC44C" transform="translate(171.500139, 25.278960) rotate(45.000000) translate(-171.500139, -25.278960) "></path>
                <g id="Group-7" transform="translate(207.000000, 3.000000)">
                    <ellipse id="Oval" stroke="#F8A827" stroke-width="2" cx="15.84375" cy="15.5" rx="15.84375" ry="15.5"></ellipse>
                    <ellipse id="Oval-Copy" fill="#F8A827" cx="62.15625" cy="15.5" rx="15.84375" ry="15.5"></ellipse>
                </g>
            </g>
        </g>
    </g>
</svg>