<?xml version="1.0" encoding="UTF-8"?>
<svg width="1085px" height="317px" viewBox="0 0 1085 317" version="1.1" xmlns="http://www.w3.org/2000/svg" xmlns:xlink="http://www.w3.org/1999/xlink">
    <!-- Generator: Sketch 48.1 (47250) - http://www.bohemiancoding.com/sketch -->
    <title>Group 13</title>
    <desc>Created with Sketch.</desc>
    <defs>
        <linearGradient x1="133.66887%" y1="-48.1971154%" x2="-34.5552885%" y2="144.906851%" id="linearGradient-1">
            <stop stop-color="#4973FF" offset="0%"></stop>
            <stop stop-color="#FF2E2E" offset="100%"></stop>
        </linearGradient>
        <linearGradient x1="136.19033%" y1="-203.978911%" x2="-34.5552885%" y2="144.906851%" id="linearGradient-2">
            <stop stop-color="#4973FF" offset="0%"></stop>
            <stop stop-color="#FF2E2E" offset="100%"></stop>
        </linearGradient>
        <linearGradient x1="6.05254121%" y1="112.753262%" x2="116.547905%" y2="0%" id="linearGradient-3">
            <stop stop-color="#0FC599" offset="0%"></stop>
            <stop stop-color="#A2FFF7" offset="100%"></stop>
        </linearGradient>
        <circle id="path-4" cx="146" cy="94" r="94"></circle>
        <filter x="-60.1%" y="-39.9%" width="221.3%" height="221.3%" filterUnits="objectBoundingBox" id="filter-5">
            <feMorphology radius="4.5" operator="dilate" in="SourceAlpha" result="shadowSpreadOuter1"></feMorphology>
            <feOffset dx="1" dy="39" in="shadowSpreadOuter1" result="shadowOffsetOuter1"></feOffset>
            <feGaussianBlur stdDeviation="30" in="shadowOffsetOuter1" result="shadowBlurOuter1"></feGaussianBlur>
            <feComposite in="shadowBlurOuter1" in2="SourceAlpha" operator="out" result="shadowBlurOuter1"></feComposite>
            <feColorMatrix values="0 0 0 0 0   0 0 0 0 0   0 0 0 0 0  0 0 0 0.5 0" type="matrix" in="shadowBlurOuter1"></feColorMatrix>
        </filter>
        <circle id="path-6" cx="532" cy="94" r="94"></circle>
        <filter x="-60.1%" y="-39.9%" width="221.3%" height="221.3%" filterUnits="objectBoundingBox" id="filter-7">
            <feMorphology radius="4.5" operator="dilate" in="SourceAlpha" result="shadowSpreadOuter1"></feMorphology>
            <feOffset dx="1" dy="39" in="shadowSpreadOuter1" result="shadowOffsetOuter1"></feOffset>
            <feGaussianBlur stdDeviation="30" in="shadowOffsetOuter1" result="shadowBlurOuter1"></feGaussianBlur>
            <feComposite in="shadowBlurOuter1" in2="SourceAlpha" operator="out" result="shadowBlurOuter1"></feComposite>
            <feColorMatrix values="0 0 0 0 0   0 0 0 0 0   0 0 0 0 0  0 0 0 0.5 0" type="matrix" in="shadowBlurOuter1"></feColorMatrix>
        </filter>
        <circle id="path-8" cx="919" cy="94" r="94"></circle>
        <filter x="-60.1%" y="-39.9%" width="221.3%" height="221.3%" filterUnits="objectBoundingBox" id="filter-9">
            <feMorphology radius="4.5" operator="dilate" in="SourceAlpha" result="shadowSpreadOuter1"></feMorphology>
            <feOffset dx="1" dy="39" in="shadowSpreadOuter1" result="shadowOffsetOuter1"></feOffset>
            <feGaussianBlur stdDeviation="30" in="shadowOffsetOuter1" result="shadowBlurOuter1"></feGaussianBlur>
            <feComposite in="shadowBlurOuter1" in2="SourceAlpha" operator="out" result="shadowBlurOuter1"></feComposite>
            <feColorMatrix values="0 0 0 0 0   0 0 0 0 0   0 0 0 0 0  0 0 0 0.5 0" type="matrix" in="shadowBlurOuter1"></feColorMatrix>
        </filter>
        <polygon id="path-10" points="46.9781821 0.04 0.991220865 0.04 0.991220865 45.9923509 46.9781821 45.9923509"></polygon>
        <polygon id="path-12" points="50 0.406 50 42.94 0.06 42.94 0.06 0.406 50 0.406"></polygon>
        <polygon id="path-14" points="0.06 44 50 44 50 0 0.06 0"></polygon>
        <polygon id="path-16" points="50 0.406 50 42.94 0.06 42.94 0.06 0.406 50 0.406"></polygon>
        <polygon id="path-18" points="46.9781821 0.04 0.991220865 0.04 0.991220865 45.9923509 46.9781821 45.9923509"></polygon>
    </defs>
    <g id="Page-1" stroke="none" stroke-width="1" fill="none" fill-rule="evenodd">
        <g id="Group-13" transform="translate(9.000000, 23.000000)">
            <path d="M132,103.169074 C271.421575,54.9803403 411.343466,54.9803403 551.765674,103.169074 C692.187883,151.357807 815.599324,136.968116 922,60" id="Path-7" stroke="url(#linearGradient-1)"></path>
            <path d="M132,103.169074 C271.421575,54.9803403 411.343466,54.9803403 551.765674,103.169074 C692.187883,151.357807 815.599324,136.968116 922,60" id="Path-7-Copy" stroke="url(#linearGradient-2)" transform="translate(527.000000, 95.500000) scale(-1, 1) translate(-527.000000, -95.500000) "></path>
            <path d="M9.14,289.3 C5.87,289.3 3.14,288.13 0.77,285.94 L1.46,285.19 C3.68,287.29 6.14,288.37 9.2,288.37 C12.83,288.37 15.2,286.39 15.2,283.75 L15.2,283.69 C15.2,281.23 13.79,279.91 8.72,278.86 C3.59,277.84 1.58,276.22 1.58,273.19 L1.58,273.13 C1.58,270.13 4.43,267.7 8.39,267.7 C11.27,267.7 13.55,268.6 15.53,270.16 L14.9,270.97 C12.98,269.44 10.79,268.63 8.33,268.63 C4.88,268.63 2.6,270.7 2.6,273.04 L2.6,273.1 C2.6,275.53 4.01,276.88 9.11,277.93 C14.33,278.98 16.22,280.66 16.22,283.6 L16.22,283.66 C16.22,286.9 13.43,289.3 9.14,289.3 Z M26.0557136,289.36 C21.9757136,289.36 18.5557136,286.27 18.5557136,281.44 L18.5557136,281.38 C18.5557136,276.94 21.6157136,273.52 25.7857136,273.52 C30.3457136,273.52 32.7157136,277.42 32.7157136,281.47 L32.7157136,281.8 L19.6057136,281.8 C19.7857136,285.91 22.6957136,288.46 26.0857136,288.46 C28.4257136,288.46 30.3157136,287.23 31.5157136,285.67 L32.2357136,286.24 C30.8557136,288.04 28.8157136,289.36 26.0557136,289.36 Z M19.6057136,280.93 L31.6657136,280.93 C31.5157136,277.63 29.5057136,274.42 25.7257136,274.42 C22.3057136,274.42 19.7857136,277.21 19.6057136,280.93 Z M35.6814272,289 L35.6814272,273.88 L36.6414272,273.88 L36.6414272,278.5 C37.5414272,275.92 39.8514272,273.49 43.0614272,273.58 L43.0614272,274.57 L42.9114272,274.57 C39.2514272,274.57 36.6414272,278.11 36.6414272,281.83 L36.6414272,289 L35.6814272,289 Z M50.4671409,289.12 L43.5371409,273.88 L44.6471409,273.88 L50.8571409,287.95 L57.0971409,273.88 L58.1471409,273.88 L51.2471409,289.12 L50.4671409,289.12 Z M60.7828545,269.71 L60.7828545,267.88 L62.0728545,267.88 L62.0728545,269.71 L60.7828545,269.71 Z M60.9328545,289 L60.9328545,273.88 L61.9228545,273.88 L61.9228545,289 L60.9328545,289 Z M72.9285681,289.36 C68.5785681,289.36 65.2185681,285.76 65.2185681,281.47 L65.2185681,281.41 C65.2185681,277.15 68.5785681,273.52 72.9585681,273.52 C75.7485681,273.52 77.5185681,274.78 78.9885681,276.31 L78.2985681,277 C76.9785681,275.59 75.3285681,274.42 72.9285681,274.42 C69.1185681,274.42 66.2385681,277.57 66.2385681,281.38 L66.2385681,281.44 C66.2385681,285.25 69.2085681,288.46 72.9885681,288.46 C75.3885681,288.46 77.0985681,287.23 78.4185681,285.76 L79.1085681,286.36 C77.6385681,288.07 75.7485681,289.36 72.9285681,289.36 Z M87.8042817,289.36 C83.7242817,289.36 80.3042817,286.27 80.3042817,281.44 L80.3042817,281.38 C80.3042817,276.94 83.3642817,273.52 87.5342817,273.52 C92.0942817,273.52 94.4642817,277.42 94.4642817,281.47 L94.4642817,281.8 L81.3542817,281.8 C81.5342817,285.91 84.4442817,288.46 87.8342817,288.46 C90.1742817,288.46 92.0642817,287.23 93.2642817,285.67 L93.9842817,286.24 C92.6042817,288.04 90.5642817,289.36 87.8042817,289.36 Z M81.3542817,280.93 L93.4142817,280.93 C93.2642817,277.63 91.2542817,274.42 87.4742817,274.42 C84.0542817,274.42 81.5342817,277.21 81.3542817,280.93 Z M102.169995,289.27 C100.009995,289.27 97.6699954,288.43 96.0199954,287.05 L96.5899954,286.3 C98.2699954,287.62 100.279995,288.37 102.229995,288.37 C104.659995,288.37 106.549995,287.08 106.549995,285.22 L106.549995,285.16 C106.549995,283.03 104.269995,282.37 101.959995,281.74 C99.1399954,280.93 96.7099954,280.15 96.7099954,277.63 L96.7099954,277.57 C96.7099954,275.32 98.7799954,273.61 101.869995,273.61 C103.609995,273.61 105.589995,274.21 107.179995,275.29 L106.639995,276.1 C105.199995,275.08 103.429995,274.51 101.839995,274.51 C99.3499954,274.51 97.6999954,275.8 97.6999954,277.48 L97.6999954,277.54 C97.6999954,279.43 99.8299954,280.12 102.289995,280.81 C105.049995,281.56 107.539995,282.43 107.539995,285.07 L107.539995,285.13 C107.539995,287.62 105.199995,289.27 102.169995,289.27 Z M118.031423,289 L118.031423,273.88 L118.991423,273.88 L118.991423,277.27 C119.651423,275.5 121.451423,273.52 124.151423,273.52 C127.181423,273.52 128.831423,275.35 129.491423,277.51 C130.241423,275.53 132.161423,273.52 134.921423,273.52 C138.371423,273.52 140.651423,275.86 140.651423,279.97 L140.651423,289 L139.691423,289 L139.691423,280.06 C139.691423,276.4 137.771423,274.42 134.861423,274.42 C132.281423,274.42 129.821423,276.76 129.821423,280.18 L129.821423,289 L128.861423,289 L128.861423,280.03 C128.861423,276.43 126.911423,274.42 124.061423,274.42 C121.421423,274.42 118.991423,276.94 118.991423,280.21 L118.991423,289 L118.031423,289 Z M149.107136,289.36 C146.197136,289.36 143.377136,287.8 143.377136,284.74 L143.377136,284.68 C143.377136,281.53 146.227136,279.82 150.067136,279.82 C152.167136,279.82 153.997136,280.18 155.467136,280.66 L155.467136,279.64 C155.467136,276.22 153.427136,274.54 150.067136,274.54 C148.207136,274.54 146.647136,275.05 145.147136,275.8 L144.787136,274.96 C146.467136,274.15 148.117136,273.64 150.127136,273.64 C152.197136,273.64 153.817136,274.18 154.927136,275.29 C155.887136,276.28 156.427136,277.72 156.427136,279.58 L156.427136,289 L155.467136,289 L155.467136,285.85 C154.687136,287.5 152.587136,289.36 149.107136,289.36 Z M149.167136,288.46 C152.827136,288.46 155.497136,286.12 155.497136,283.42 L155.497136,281.56 C154.027136,281.08 152.287136,280.72 150.037136,280.72 C146.707136,280.72 144.397136,282.13 144.397136,284.62 L144.397136,284.68 C144.397136,287.17 146.647136,288.46 149.167136,288.46 Z M160.29285,289 L160.29285,273.88 L161.25285,273.88 L161.25285,278.5 C162.15285,275.92 164.46285,273.49 167.67285,273.58 L167.67285,274.57 L167.52285,274.57 C163.86285,274.57 161.25285,278.11 161.25285,281.83 L161.25285,289 L160.29285,289 Z M169.708563,289 L169.708563,267.1 L170.668563,267.1 L170.668563,283.66 L180.718563,273.88 L182.008563,273.88 L175.048563,280.57 L182.368563,289 L181.168563,289 L174.388563,281.23 L170.668563,284.8 L170.668563,289 L169.708563,289 Z M190.494277,289.36 C186.414277,289.36 182.994277,286.27 182.994277,281.44 L182.994277,281.38 C182.994277,276.94 186.054277,273.52 190.224277,273.52 C194.784277,273.52 197.154277,277.42 197.154277,281.47 L197.154277,281.8 L184.044277,281.8 C184.224277,285.91 187.134277,288.46 190.524277,288.46 C192.864277,288.46 194.754277,287.23 195.954277,285.67 L196.674277,286.24 C195.294277,288.04 193.254277,289.36 190.494277,289.36 Z M184.044277,280.93 L196.104277,280.93 C195.954277,277.63 193.944277,274.42 190.164277,274.42 C186.744277,274.42 184.224277,277.21 184.044277,280.93 Z M204.949991,289.27 C202.519991,289.27 200.929991,287.86 200.929991,285.13 L200.929991,274.75 L198.619991,274.75 L198.619991,273.88 L200.929991,273.88 L200.929991,268.81 L201.889991,268.81 L201.889991,273.88 L207.379991,273.88 L207.379991,274.75 L201.889991,274.75 L201.889991,285.04 C201.889991,287.26 203.059991,288.37 205.039991,288.37 C205.789991,288.37 206.539991,288.19 207.319991,287.83 L207.319991,288.76 C206.569991,289.12 205.789991,289.27 204.949991,289.27 Z M210.225704,293.8 L210.225704,273.88 L211.185704,273.88 L211.185704,278.05 C212.235704,275.53 214.575704,273.52 217.875704,273.52 C221.955704,273.52 225.345704,276.79 225.345704,281.41 L225.345704,281.47 C225.345704,286.06 221.955704,289.36 217.875704,289.36 C214.545704,289.36 212.205704,287.38 211.185704,284.89 L211.185704,293.8 L210.225704,293.8 Z M217.785704,288.43 C221.595704,288.43 224.325704,285.55 224.325704,281.5 L224.325704,281.44 C224.325704,277.45 221.535704,274.45 217.785704,274.45 C214.065704,274.45 211.125704,277.51 211.125704,281.41 L211.125704,281.47 C211.125704,285.37 214.095704,288.43 217.785704,288.43 Z M228.701418,289 L228.701418,267.1 L229.691418,267.1 L229.691418,289 L228.701418,289 Z M238.507132,289.36 C235.597132,289.36 232.777132,287.8 232.777132,284.74 L232.777132,284.68 C232.777132,281.53 235.627132,279.82 239.467132,279.82 C241.567132,279.82 243.397132,280.18 244.867132,280.66 L244.867132,279.64 C244.867132,276.22 242.827132,274.54 239.467132,274.54 C237.607132,274.54 236.047132,275.05 234.547132,275.8 L234.187132,274.96 C235.867132,274.15 237.517132,273.64 239.527132,273.64 C241.597132,273.64 243.217132,274.18 244.327132,275.29 C245.287132,276.28 245.827132,277.72 245.827132,279.58 L245.827132,289 L244.867132,289 L244.867132,285.85 C244.087132,287.5 241.987132,289.36 238.507132,289.36 Z M238.567132,288.46 C242.227132,288.46 244.897132,286.12 244.897132,283.42 L244.897132,281.56 C243.427132,281.08 241.687132,280.72 239.437132,280.72 C236.107132,280.72 233.797132,282.13 233.797132,284.62 L233.797132,284.68 C233.797132,287.17 236.047132,288.46 238.567132,288.46 Z M256.352845,289.36 C252.002845,289.36 248.642845,285.76 248.642845,281.47 L248.642845,281.41 C248.642845,277.15 252.002845,273.52 256.382845,273.52 C259.172845,273.52 260.942845,274.78 262.412845,276.31 L261.722845,277 C260.402845,275.59 258.752845,274.42 256.352845,274.42 C252.542845,274.42 249.662845,277.57 249.662845,281.38 L249.662845,281.44 C249.662845,285.25 252.632845,288.46 256.412845,288.46 C258.812845,288.46 260.522845,287.23 261.842845,285.76 L262.532845,286.36 C261.062845,288.07 259.172845,289.36 256.352845,289.36 Z M271.228559,289.36 C267.148559,289.36 263.728559,286.27 263.728559,281.44 L263.728559,281.38 C263.728559,276.94 266.788559,273.52 270.958559,273.52 C275.518559,273.52 277.888559,277.42 277.888559,281.47 L277.888559,281.8 L264.778559,281.8 C264.958559,285.91 267.868559,288.46 271.258559,288.46 C273.598559,288.46 275.488559,287.23 276.688559,285.67 L277.408559,286.24 C276.028559,288.04 273.988559,289.36 271.228559,289.36 Z M264.778559,280.93 L276.838559,280.93 C276.688559,277.63 274.678559,274.42 270.898559,274.42 C267.478559,274.42 264.958559,277.21 264.778559,280.93 Z" id="Services-marketplace" fill="#333333"></path>
            <path d="M414.34,289.33 C409.3,289.33 405.79,286.15 405.79,279.94 L405.79,268 L406.81,268 L406.81,279.88 C406.81,285.46 409.81,288.4 414.37,288.4 C418.9,288.4 421.84,285.58 421.84,279.94 L421.84,268 L422.86,268 L422.86,279.85 C422.86,286.12 419.41,289.33 414.34,289.33 Z M431.765714,289.27 C429.605714,289.27 427.265714,288.43 425.615714,287.05 L426.185714,286.3 C427.865714,287.62 429.875714,288.37 431.825714,288.37 C434.255714,288.37 436.145714,287.08 436.145714,285.22 L436.145714,285.16 C436.145714,283.03 433.865714,282.37 431.555714,281.74 C428.735714,280.93 426.305714,280.15 426.305714,277.63 L426.305714,277.57 C426.305714,275.32 428.375714,273.61 431.465714,273.61 C433.205714,273.61 435.185714,274.21 436.775714,275.29 L436.235714,276.1 C434.795714,275.08 433.025714,274.51 431.435714,274.51 C428.945714,274.51 427.295714,275.8 427.295714,277.48 L427.295714,277.54 C427.295714,279.43 429.425714,280.12 431.885714,280.81 C434.645714,281.56 437.135714,282.43 437.135714,285.07 L437.135714,285.13 C437.135714,287.62 434.795714,289.27 431.765714,289.27 Z M446.851427,289.36 C442.771427,289.36 439.351427,286.27 439.351427,281.44 L439.351427,281.38 C439.351427,276.94 442.411427,273.52 446.581427,273.52 C451.141427,273.52 453.511427,277.42 453.511427,281.47 L453.511427,281.8 L440.401427,281.8 C440.581427,285.91 443.491427,288.46 446.881427,288.46 C449.221427,288.46 451.111427,287.23 452.311427,285.67 L453.031427,286.24 C451.651427,288.04 449.611427,289.36 446.851427,289.36 Z M440.401427,280.93 L452.461427,280.93 C452.311427,277.63 450.301427,274.42 446.521427,274.42 C443.101427,274.42 440.581427,277.21 440.401427,280.93 Z M456.477141,289 L456.477141,273.88 L457.437141,273.88 L457.437141,278.5 C458.337141,275.92 460.647141,273.49 463.857141,273.58 L463.857141,274.57 L463.707141,274.57 C460.047141,274.57 457.437141,278.11 457.437141,281.83 L457.437141,289 L456.477141,289 Z M470.632854,289.27 C468.472854,289.27 466.132854,288.43 464.482854,287.05 L465.052854,286.3 C466.732854,287.62 468.742854,288.37 470.692854,288.37 C473.122854,288.37 475.012854,287.08 475.012854,285.22 L475.012854,285.16 C475.012854,283.03 472.732854,282.37 470.422854,281.74 C467.602854,280.93 465.172854,280.15 465.172854,277.63 L465.172854,277.57 C465.172854,275.32 467.242854,273.61 470.332854,273.61 C472.072854,273.61 474.052854,274.21 475.642854,275.29 L475.102854,276.1 C473.662854,275.08 471.892854,274.51 470.302854,274.51 C467.812854,274.51 466.162854,275.8 466.162854,277.48 L466.162854,277.54 C466.162854,279.43 468.292854,280.12 470.752854,280.81 C473.512854,281.56 476.002854,282.43 476.002854,285.07 L476.002854,285.13 C476.002854,287.62 473.662854,289.27 470.632854,289.27 Z M486.494282,289 L486.494282,273.88 L487.454282,273.88 L487.454282,277.27 C488.114282,275.5 489.914282,273.52 492.614282,273.52 C495.644282,273.52 497.294282,275.35 497.954282,277.51 C498.704282,275.53 500.624282,273.52 503.384282,273.52 C506.834282,273.52 509.114282,275.86 509.114282,279.97 L509.114282,289 L508.154282,289 L508.154282,280.06 C508.154282,276.4 506.234282,274.42 503.324282,274.42 C500.744282,274.42 498.284282,276.76 498.284282,280.18 L498.284282,289 L497.324282,289 L497.324282,280.03 C497.324282,276.43 495.374282,274.42 492.524282,274.42 C489.884282,274.42 487.454282,276.94 487.454282,280.21 L487.454282,289 L486.494282,289 Z M517.569995,289.36 C514.659995,289.36 511.839995,287.8 511.839995,284.74 L511.839995,284.68 C511.839995,281.53 514.689995,279.82 518.529995,279.82 C520.629995,279.82 522.459995,280.18 523.929995,280.66 L523.929995,279.64 C523.929995,276.22 521.889995,274.54 518.529995,274.54 C516.669995,274.54 515.109995,275.05 513.609995,275.8 L513.249995,274.96 C514.929995,274.15 516.579995,273.64 518.589995,273.64 C520.659995,273.64 522.279995,274.18 523.389995,275.29 C524.349995,276.28 524.889995,277.72 524.889995,279.58 L524.889995,289 L523.929995,289 L523.929995,285.85 C523.149995,287.5 521.049995,289.36 517.569995,289.36 Z M517.629995,288.46 C521.289995,288.46 523.959995,286.12 523.959995,283.42 L523.959995,281.56 C522.489995,281.08 520.749995,280.72 518.499995,280.72 C515.169995,280.72 512.859995,282.13 512.859995,284.62 L512.859995,284.68 C512.859995,287.17 515.109995,288.46 517.629995,288.46 Z M528.755709,289 L528.755709,273.88 L529.715709,273.88 L529.715709,277.48 C530.405709,275.68 532.295709,273.52 535.535709,273.52 C539.525709,273.52 541.775709,276.22 541.775709,280.15 L541.775709,289 L540.815709,289 L540.815709,280.3 C540.815709,276.79 538.925709,274.42 535.415709,274.42 C532.235709,274.42 529.715709,277.03 529.715709,280.48 L529.715709,289 L528.755709,289 Z M550.111423,289.36 C547.201423,289.36 544.381423,287.8 544.381423,284.74 L544.381423,284.68 C544.381423,281.53 547.231423,279.82 551.071423,279.82 C553.171423,279.82 555.001423,280.18 556.471423,280.66 L556.471423,279.64 C556.471423,276.22 554.431423,274.54 551.071423,274.54 C549.211423,274.54 547.651423,275.05 546.151423,275.8 L545.791423,274.96 C547.471423,274.15 549.121423,273.64 551.131423,273.64 C553.201423,273.64 554.821423,274.18 555.931423,275.29 C556.891423,276.28 557.431423,277.72 557.431423,279.58 L557.431423,289 L556.471423,289 L556.471423,285.85 C555.691423,287.5 553.591423,289.36 550.111423,289.36 Z M550.171423,288.46 C553.831423,288.46 556.501423,286.12 556.501423,283.42 L556.501423,281.56 C555.031423,281.08 553.291423,280.72 551.041423,280.72 C547.711423,280.72 545.401423,282.13 545.401423,284.62 L545.401423,284.68 C545.401423,287.17 547.651423,288.46 550.171423,288.46 Z M567.897136,293.89 C565.347136,293.89 563.067136,293.11 560.997136,291.55 L561.567136,290.77 C563.457136,292.21 565.557136,292.96 567.897136,292.96 C571.707136,292.96 574.287136,290.8 574.287136,286.57 L574.287136,283.84 C573.117136,286.15 570.747136,287.89 567.687136,287.89 C563.757136,287.89 560.307136,284.83 560.307136,280.75 L560.307136,280.69 C560.307136,276.58 563.757136,273.52 567.687136,273.52 C570.747136,273.52 573.117136,275.26 574.287136,277.51 L574.287136,273.88 L575.277136,273.88 L575.277136,286.69 C575.277136,288.91 574.557136,290.68 573.327136,291.91 C572.037136,293.2 570.117136,293.89 567.897136,293.89 Z M567.777136,286.96 C571.287136,286.96 574.377136,284.26 574.377136,280.75 L574.377136,280.69 C574.377136,277.18 571.287136,274.45 567.777136,274.45 C564.237136,274.45 561.357136,277.09 561.357136,280.66 L561.357136,280.72 C561.357136,284.23 564.267136,286.96 567.777136,286.96 Z M585.89285,289.36 C581.81285,289.36 578.39285,286.27 578.39285,281.44 L578.39285,281.38 C578.39285,276.94 581.45285,273.52 585.62285,273.52 C590.18285,273.52 592.55285,277.42 592.55285,281.47 L592.55285,281.8 L579.44285,281.8 C579.62285,285.91 582.53285,288.46 585.92285,288.46 C588.26285,288.46 590.15285,287.23 591.35285,285.67 L592.07285,286.24 C590.69285,288.04 588.65285,289.36 585.89285,289.36 Z M579.44285,280.93 L591.50285,280.93 C591.35285,277.63 589.34285,274.42 585.56285,274.42 C582.14285,274.42 579.62285,277.21 579.44285,280.93 Z M595.518563,289 L595.518563,273.88 L596.478563,273.88 L596.478563,277.27 C597.138563,275.5 598.938563,273.52 601.638563,273.52 C604.668563,273.52 606.318563,275.35 606.978563,277.51 C607.728563,275.53 609.648563,273.52 612.408563,273.52 C615.858563,273.52 618.138563,275.86 618.138563,279.97 L618.138563,289 L617.178563,289 L617.178563,280.06 C617.178563,276.4 615.258563,274.42 612.348563,274.42 C609.768563,274.42 607.308563,276.76 607.308563,280.18 L607.308563,289 L606.348563,289 L606.348563,280.03 C606.348563,276.43 604.398563,274.42 601.548563,274.42 C598.908563,274.42 596.478563,276.94 596.478563,280.21 L596.478563,289 L595.518563,289 Z M628.574277,289.36 C624.494277,289.36 621.074277,286.27 621.074277,281.44 L621.074277,281.38 C621.074277,276.94 624.134277,273.52 628.304277,273.52 C632.864277,273.52 635.234277,277.42 635.234277,281.47 L635.234277,281.8 L622.124277,281.8 C622.304277,285.91 625.214277,288.46 628.604277,288.46 C630.944277,288.46 632.834277,287.23 634.034277,285.67 L634.754277,286.24 C633.374277,288.04 631.334277,289.36 628.574277,289.36 Z M622.124277,280.93 L634.184277,280.93 C634.034277,277.63 632.024277,274.42 628.244277,274.42 C624.824277,274.42 622.304277,277.21 622.124277,280.93 Z M638.199991,289 L638.199991,273.88 L639.159991,273.88 L639.159991,277.48 C639.849991,275.68 641.739991,273.52 644.979991,273.52 C648.969991,273.52 651.219991,276.22 651.219991,280.15 L651.219991,289 L650.259991,289 L650.259991,280.3 C650.259991,276.79 648.369991,274.42 644.859991,274.42 C641.679991,274.42 639.159991,277.03 639.159991,280.48 L639.159991,289 L638.199991,289 Z M659.915704,289.27 C657.485704,289.27 655.895704,287.86 655.895704,285.13 L655.895704,274.75 L653.585704,274.75 L653.585704,273.88 L655.895704,273.88 L655.895704,268.81 L656.855704,268.81 L656.855704,273.88 L662.345704,273.88 L662.345704,274.75 L656.855704,274.75 L656.855704,285.04 C656.855704,287.26 658.025704,288.37 660.005704,288.37 C660.755704,288.37 661.505704,288.19 662.285704,287.83 L662.285704,288.76 C661.535704,289.12 660.755704,289.27 659.915704,289.27 Z" id="Users-management" fill="#333333"></path>
            <path d="M864.61,289 L864.61,268.93 L857.14,268.93 L857.14,268 L873.13,268 L873.13,268.93 L865.63,268.93 L865.63,289 L864.61,289 Z M878.465714,289.36 C874.385714,289.36 870.965714,286.27 870.965714,281.44 L870.965714,281.38 C870.965714,276.94 874.025714,273.52 878.195714,273.52 C882.755714,273.52 885.125714,277.42 885.125714,281.47 L885.125714,281.8 L872.015714,281.8 C872.195714,285.91 875.105714,288.46 878.495714,288.46 C880.835714,288.46 882.725714,287.23 883.925714,285.67 L884.645714,286.24 C883.265714,288.04 881.225714,289.36 878.465714,289.36 Z M872.015714,280.93 L884.075714,280.93 C883.925714,277.63 881.915714,274.42 878.135714,274.42 C874.715714,274.42 872.195714,277.21 872.015714,280.93 Z M888.271427,289 L888.271427,267.1 L889.261427,267.1 L889.261427,289 L888.271427,289 Z M900.057141,289.36 C895.977141,289.36 892.557141,286.27 892.557141,281.44 L892.557141,281.38 C892.557141,276.94 895.617141,273.52 899.787141,273.52 C904.347141,273.52 906.717141,277.42 906.717141,281.47 L906.717141,281.8 L893.607141,281.8 C893.787141,285.91 896.697141,288.46 900.087141,288.46 C902.427141,288.46 904.317141,287.23 905.517141,285.67 L906.237141,286.24 C904.857141,288.04 902.817141,289.36 900.057141,289.36 Z M893.607141,280.93 L905.667141,280.93 C905.517141,277.63 903.507141,274.42 899.727141,274.42 C896.307141,274.42 893.787141,277.21 893.607141,280.93 Z M909.682854,289 L909.682854,273.88 L910.642854,273.88 L910.642854,277.27 C911.302854,275.5 913.102854,273.52 915.802854,273.52 C918.832854,273.52 920.482854,275.35 921.142854,277.51 C921.892854,275.53 923.812854,273.52 926.572854,273.52 C930.022854,273.52 932.302854,275.86 932.302854,279.97 L932.302854,289 L931.342854,289 L931.342854,280.06 C931.342854,276.4 929.422854,274.42 926.512854,274.42 C923.932854,274.42 921.472854,276.76 921.472854,280.18 L921.472854,289 L920.512854,289 L920.512854,280.03 C920.512854,276.43 918.562854,274.42 915.712854,274.42 C913.072854,274.42 910.642854,276.94 910.642854,280.21 L910.642854,289 L909.682854,289 Z M942.738568,289.36 C938.658568,289.36 935.238568,286.27 935.238568,281.44 L935.238568,281.38 C935.238568,276.94 938.298568,273.52 942.468568,273.52 C947.028568,273.52 949.398568,277.42 949.398568,281.47 L949.398568,281.8 L936.288568,281.8 C936.468568,285.91 939.378568,288.46 942.768568,288.46 C945.108568,288.46 946.998568,287.23 948.198568,285.67 L948.918568,286.24 C947.538568,288.04 945.498568,289.36 942.738568,289.36 Z M936.288568,280.93 L948.348568,280.93 C948.198568,277.63 946.188568,274.42 942.408568,274.42 C938.988568,274.42 936.468568,277.21 936.288568,280.93 Z M957.194282,289.27 C954.764282,289.27 953.174282,287.86 953.174282,285.13 L953.174282,274.75 L950.864282,274.75 L950.864282,273.88 L953.174282,273.88 L953.174282,268.81 L954.134282,268.81 L954.134282,273.88 L959.624282,273.88 L959.624282,274.75 L954.134282,274.75 L954.134282,285.04 C954.134282,287.26 955.304282,288.37 957.284282,288.37 C958.034282,288.37 958.784282,288.19 959.564282,287.83 L959.564282,288.76 C958.814282,289.12 958.034282,289.27 957.194282,289.27 Z M962.469995,289 L962.469995,273.88 L963.429995,273.88 L963.429995,278.5 C964.329995,275.92 966.639995,273.49 969.849995,273.58 L969.849995,274.57 L969.699995,274.57 C966.039995,274.57 963.429995,278.11 963.429995,281.83 L963.429995,289 L962.469995,289 Z M978.065709,287.95 L984.155709,273.88 L985.175709,273.88 L978.365709,289.39 C976.775709,292.99 975.485709,293.89 973.445709,293.89 C972.335709,293.89 971.345709,293.56 970.535709,293.14 L970.925709,292.33 C971.645709,292.72 972.515709,292.99 973.475709,292.99 C975.155709,292.99 976.145709,292.18 977.585709,288.97 L970.325709,273.88 L971.405709,273.88 L978.065709,287.95 Z" id="Telemetry" fill="#333333"></path>
            <g id="Oval-7-Copy-10">
                <use fill="black" fill-opacity="1" filter="url(#filter-5)" xlink:href="#path-4"></use>
                <use stroke="url(#linearGradient-3)" stroke-width="9" fill="#FFFFFF" fill-rule="evenodd" xlink:href="#path-4"></use>
            </g>
            <g id="Oval-7-Copy-11">
                <use fill="black" fill-opacity="1" filter="url(#filter-7)" xlink:href="#path-6"></use>
                <use stroke="url(#linearGradient-3)" stroke-width="9" fill="#FFFFFF" fill-rule="evenodd" xlink:href="#path-6"></use>
            </g>
            <g id="Oval-7-Copy-12">
                <use fill="black" fill-opacity="1" filter="url(#filter-9)" xlink:href="#path-8"></use>
                <use stroke="url(#linearGradient-3)" stroke-width="9" fill="#FFFFFF" fill-rule="evenodd" xlink:href="#path-8"></use>
            </g>
            <g id="icons8-service-copy" transform="translate(127.000000, 78.000000)">
                <mask id="mask-11" fill="white">
                    <use xlink:href="#path-10"></use>
                </mask>
                <g id="Clip-2"></g>
                <path d="M22.598,-6.72002059e-16 C22.113,-0.004 21.695,0.344 21.609,0.82 L21.062,3.812 C20.594,3.965 20.141,4.148 19.695,4.367 L17.238,2.594 C16.844,2.309 16.297,2.348 15.953,2.695 L13.816,4.797 C13.473,5.141 13.422,5.68 13.699,6.078 L15.426,8.578 C15.199,9.02 15.008,9.473 14.855,9.938 L11.859,10.422 C11.379,10.496 11.023,10.91 11.02,11.402 L11,14.402 C10.996,14.887 11.344,15.305 11.82,15.391 L14.824,15.938 C14.973,16.402 15.16,16.852 15.379,17.293 L13.594,19.762 C13.309,20.156 13.348,20.703 13.691,21.051 L15.801,23.184 C16.141,23.527 16.68,23.578 17.078,23.301 L19.609,21.559 C20.047,21.781 20.496,21.965 20.957,22.117 L21.473,25.148 C21.555,25.629 21.965,25.98 22.453,25.984 L25.449,26 C25.941,26.004 26.359,25.648 26.441,25.168 L26.953,22.141 C27.41,21.992 27.855,21.812 28.289,21.594 L30.801,23.379 C31.199,23.66 31.738,23.613 32.082,23.273 L34.219,21.168 C34.566,20.824 34.613,20.277 34.328,19.875 L32.547,17.375 C32.77,16.941 32.957,16.5 33.109,16.047 L36.152,15.531 C36.629,15.449 36.98,15.035 36.984,14.547 L37,11.551 C37.004,11.062 36.652,10.645 36.168,10.562 L33.152,10.051 C33.004,9.59 32.82,9.141 32.605,8.699 L34.379,6.195 C34.664,5.801 34.621,5.262 34.277,4.914 L32.168,2.781 C31.824,2.438 31.277,2.387 30.879,2.672 L28.402,4.43 C27.965,4.207 27.52,4.02 27.062,3.867 L26.578,0.859 C26.5,0.375 26.086,0.02 25.594,0.016 L22.598,-6.72002059e-16 Z M23.426,2.004 L24.738,2.012 L25.172,4.715 C25.234,5.109 25.527,5.426 25.91,5.523 C26.645,5.711 27.352,6.012 28.016,6.414 C28.355,6.625 28.789,6.609 29.113,6.379 L31.344,4.797 L32.266,5.727 L30.66,7.977 C30.434,8.301 30.414,8.727 30.617,9.066 C31.012,9.734 31.301,10.445 31.473,11.176 C31.566,11.566 31.883,11.863 32.281,11.934 L34.996,12.391 L34.988,13.699 L32.246,14.16 C31.855,14.227 31.539,14.52 31.441,14.902 C31.258,15.629 30.965,16.332 30.562,16.988 C30.355,17.332 30.371,17.766 30.605,18.09 L32.203,20.344 L31.277,21.262 L29.008,19.652 C28.684,19.422 28.258,19.406 27.918,19.609 C27.254,20.004 26.551,20.285 25.82,20.465 C25.43,20.559 25.137,20.875 25.07,21.27 L24.609,23.996 L23.305,23.984 L22.844,21.25 C22.777,20.859 22.484,20.543 22.094,20.449 C21.371,20.27 20.66,19.973 19.996,19.574 C19.66,19.371 19.234,19.383 18.91,19.609 L16.633,21.18 L15.711,20.246 L17.316,18.027 C17.551,17.703 17.57,17.27 17.363,16.926 C16.969,16.258 16.68,15.547 16.5,14.812 C16.406,14.43 16.098,14.137 15.707,14.062 L13.004,13.574 L13.016,12.262 L15.707,11.828 C16.102,11.766 16.422,11.473 16.52,11.086 C16.707,10.348 17,9.637 17.406,8.973 C17.613,8.637 17.602,8.207 17.375,7.883 L15.824,5.633 L16.754,4.711 L18.965,6.305 C19.285,6.539 19.715,6.559 20.059,6.359 C20.73,5.957 21.445,5.672 22.184,5.492 C22.57,5.402 22.863,5.09 22.934,4.703 L23.426,2.004 Z M23.988,8.035 C22.703,8.027 21.414,8.508 20.434,9.48 C18.473,11.418 18.457,14.609 20.395,16.574 C22.332,18.535 25.527,18.551 27.488,16.613 C29.449,14.676 29.465,11.48 27.527,9.52 C26.559,8.539 25.273,8.043 23.988,8.035 Z M23.98,10.023 C24.75,10.027 25.516,10.328 26.105,10.926 C27.285,12.117 27.273,14.012 26.082,15.188 C24.891,16.367 22.996,16.359 21.816,15.168 C20.637,13.973 20.648,12.078 21.84,10.902 C22.438,10.312 23.207,10.02 23.98,10.023 Z M13.422,26 C10.812,26 9.609,26.625 8.312,27.125 C8.312,27.129 8.312,27.129 8.312,27.129 C5.824,28.098 1.566,30.105 1.566,30.105 C1.066,30.34 0.852,30.938 1.086,31.438 C1.324,31.938 1.922,32.152 2.422,31.918 C2.422,31.918 6.707,29.898 9.035,28.992 C10.473,28.434 11.098,28 13.422,28 C18.551,28 18.344,30.227 20.508,31.5 C20.539,31.52 20.574,31.539 20.609,31.551 C23.293,32.754 26.176,33 28.5,33 C29.527,33 30.176,33.238 30.527,33.504 C30.875,33.773 31,34.051 31,34.5 C31,35.027 30.867,35.277 30.52,35.531 C30.176,35.781 29.512,36 28.5,36 L23.25,36 C21.047,36 17.254,35.031 17.254,35.031 C16.91,34.938 16.539,35.039 16.285,35.293 C16.031,35.547 15.934,35.918 16.027,36.262 C16.125,36.609 16.398,36.879 16.746,36.969 C16.746,36.969 20.508,38 23.25,38 L28.5,38 C29.52,38 30.406,37.832 31.148,37.465 C31.246,37.438 31.34,37.395 31.422,37.336 L40.906,31.113 C42.332,30.289 43.305,30.059 43.875,30.066 C44.445,30.078 44.641,30.25 44.812,30.469 C45.066,30.797 45.082,30.922 44.918,31.301 C44.75,31.684 44.262,32.273 43.383,32.883 C43.383,32.883 43.383,32.883 43.379,32.883 C42.293,33.641 30.148,41.555 28.746,42.352 C27.688,42.953 26.848,43.586 25.891,43.855 C24.934,44.121 23.805,44.121 21.938,43.23 C20.691,42.633 15.387,39.914 13.668,39.043 C12.711,38.559 11.895,38.285 11.062,38.332 C10.227,38.379 9.52,38.734 8.789,39.195 C8.785,39.195 8.781,39.199 8.781,39.203 L6.305,40.785 C5.992,40.973 5.809,41.316 5.82,41.68 C5.832,42.043 6.043,42.371 6.367,42.535 C6.695,42.699 7.082,42.676 7.383,42.469 L9.848,40.891 C10.484,40.492 10.844,40.348 11.172,40.328 C11.5,40.309 11.949,40.414 12.766,40.828 C14.469,41.691 19.691,44.371 21.078,45.031 C23.254,46.074 25.016,46.172 26.426,45.781 C27.836,45.387 28.84,44.598 29.734,44.09 C31.664,42.992 43.129,35.492 44.523,34.523 C45.582,33.785 46.359,33.016 46.754,32.094 C47.148,31.172 47.02,30.047 46.391,29.242 C46.391,29.242 46.391,29.242 46.391,29.238 C45.895,28.605 45.016,28.09 43.91,28.066 C43.281,28.055 42.582,28.199 41.805,28.484 C41.66,28.293 41.441,28.043 41.141,27.824 C40.559,27.391 39.633,27 38.375,27 C37.73,27 37.203,27.148 36.781,27.324 C36.18,26.75 35.113,26.02 33.562,26.02 C32.305,26.02 31.125,26.441 30.305,26.926 C30.152,27.016 29.785,27.246 29.16,27.637 C28.535,28.027 27.719,28.531 26.914,29.035 C25.629,29.836 24.832,30.336 24.371,30.625 C23.391,30.43 22.41,30.152 21.484,29.746 C20.695,29.238 19.176,26 13.422,26 Z M33.562,28.02 C34.195,28.02 34.648,28.18 34.969,28.367 L30.344,31.234 C29.793,31.078 29.176,31 28.5,31 C28.211,31 27.895,30.98 27.594,30.969 C27.781,30.852 27.781,30.852 27.973,30.734 C28.777,30.23 29.59,29.723 30.219,29.332 C30.844,28.945 31.355,28.629 31.32,28.648 C31.793,28.367 32.82,28.02 33.562,28.02 Z M38.375,29 C39.188,29 39.625,29.207 39.891,29.391 C39.875,29.398 39.863,29.406 39.848,29.418 L32.938,33.949 C32.844,33.391 32.613,32.855 32.246,32.41 L37.078,29.414 L37.082,29.406 C37.121,29.387 37.957,29 38.375,29 Z" id="Fill-1" fill="#FFFFFF" mask="url(#mask-11)"></path>
            </g>
            <g id="icons8-user_group_man_man-copy" transform="translate(509.000000, 80.000000)">
                <mask id="mask-13" fill="white">
                    <use xlink:href="#path-12"></use>
                </mask>
                <g id="Clip-2"></g>
                <path d="M19.875,0.406 C15.203,0.492 12.219,2.379 10.938,5.312 C9.715,8.105 9.988,11.633 10.875,15.281 C10.398,15.84 10.02,16.59 10.156,17.719 C10.305,18.949 10.645,19.824 11.125,20.438 C11.391,20.773 11.738,20.805 12.062,20.969 C12.238,22.016 12.531,23.062 12.969,23.938 C13.219,24.441 13.504,24.906 13.781,25.281 C13.906,25.449 14.086,25.547 14.219,25.688 C14.227,26.922 14.23,27.949 14.125,29.25 C13.801,30.035 13.043,30.668 11.812,31.281 C10.543,31.914 8.891,32.5 7.219,33.219 C5.547,33.938 3.828,34.812 2.469,36.188 C1.109,37.562 0.148,39.449 1.38777878e-17,41.938 L-0.062,43 L40.062,43 L40,41.938 C39.895,40.207 39.406,38.773 38.656,37.594 L50.062,37.594 L50,36.531 C49.871,34.402 49.039,32.746 47.875,31.562 C46.711,30.379 45.254,29.641 43.844,29.031 C42.434,28.422 41.051,27.965 40,27.438 C38.984,26.93 38.41,26.418 38.156,25.812 C38.074,24.762 38.055,23.906 38.062,22.906 C38.16,22.797 38.316,22.719 38.406,22.594 C38.645,22.266 38.883,21.867 39.094,21.438 C39.449,20.707 39.691,19.844 39.844,18.969 C40.105,18.824 40.383,18.801 40.594,18.531 C41.023,17.984 41.309,17.242 41.438,16.188 L41.438,16.156 C41.547,15.242 41.25,14.629 40.875,14.125 C41.289,12.77 41.797,10.633 41.625,8.406 C41.527,7.18 41.219,5.941 40.469,4.906 C39.758,3.922 38.594,3.199 37.125,2.938 C36.172,1.879 34.668,1.406 32.906,1.406 C30.48,1.449 28.598,2.051 27.219,3.125 C26.59,2.734 25.855,2.449 25.031,2.281 C23.98,0.918 22.09,0.406 19.906,0.406 L19.875,0.406 Z M19.906,2.406 C19.918,2.406 19.926,2.406 19.938,2.406 C21.949,2.414 23.254,3.004 23.625,3.656 L23.875,4.062 L24.344,4.125 C25.734,4.316 26.531,4.879 27.094,5.656 C27.656,6.434 27.969,7.52 28.062,8.719 C28.25,11.117 27.559,13.91 27.125,15.219 L26.875,16 L27.562,16.406 C27.52,16.379 27.945,16.668 27.844,17.5 C27.727,18.48 27.492,18.988 27.312,19.219 C27.133,19.449 27.039,19.438 27.031,19.438 L26.188,19.5 L26.094,20.312 C26,21.18 25.652,22.234 25.25,23.062 C25.047,23.477 24.84,23.84 24.656,24.094 C24.473,24.348 24.277,24.488 24.375,24.438 L23.844,24.719 L23.844,25.312 C23.844,26.762 23.785,27.949 23.938,29.625 L23.938,29.75 L24,29.875 C24.57,31.41 25.891,32.367 27.344,33.094 C28.797,33.82 30.465,34.355 32.031,35.031 C33.371,35.609 34.598,36.297 35.594,37.156 C35.598,37.16 35.59,37.184 35.594,37.188 C35.641,37.234 35.695,37.277 35.75,37.312 C35.812,37.387 35.887,37.449 35.969,37.5 C35.973,37.504 35.996,37.496 36,37.5 C36.031,37.531 36.062,37.562 36.094,37.594 C36.938,38.449 37.469,39.582 37.75,41 L2.25,41 C2.531,39.586 3.059,38.449 3.906,37.594 C4.973,36.516 6.426,35.707 8,35.031 C9.574,34.355 11.23,33.82 12.688,33.094 C14.145,32.367 15.492,31.41 16.062,29.875 L16.125,29.625 C16.277,27.949 16.219,26.762 16.219,25.312 L16.219,24.719 L15.688,24.438 C15.777,24.484 15.562,24.348 15.375,24.094 C15.188,23.84 14.957,23.477 14.75,23.062 C14.336,22.234 13.996,21.168 13.906,20.312 L13.812,19.5 L12.969,19.438 C12.961,19.438 12.867,19.449 12.688,19.219 C12.508,18.988 12.273,18.48 12.156,17.5 C12.059,16.668 12.48,16.379 12.438,16.406 L13.094,16 L12.906,15.281 C11.965,11.656 11.801,8.363 12.781,6.125 C13.758,3.895 15.75,2.492 19.906,2.406 Z M32.906,3.406 C32.918,3.406 32.926,3.406 32.938,3.406 C34.602,3.414 35.641,3.906 35.906,4.375 L36.156,4.781 L36.625,4.875 C37.762,5.031 38.395,5.441 38.844,6.062 C39.293,6.684 39.547,7.57 39.625,8.562 C39.781,10.547 39.203,12.91 38.844,14 L38.594,14.75 L39.281,15.156 C39.191,15.102 39.547,15.293 39.469,15.938 C39.371,16.746 39.16,17.148 39.031,17.312 C38.902,17.477 38.871,17.441 38.906,17.438 L38.062,17.5 L38,18.312 C37.926,19.016 37.613,19.879 37.281,20.562 C37.113,20.902 36.961,21.203 36.812,21.406 C36.723,21.527 36.66,21.617 36.625,21.656 L36.594,21.656 C36.59,21.66 36.594,21.688 36.594,21.688 L36.062,21.938 L36.062,22.531 C36.062,23.746 36.027,24.766 36.156,26.188 L36.156,26.312 L36.219,26.438 C36.723,27.785 37.887,28.598 39.125,29.219 C40.363,29.84 41.75,30.309 43.062,30.875 C44.375,31.441 45.566,32.086 46.438,32.969 C47.094,33.637 47.504,34.523 47.75,35.594 L36.875,35.594 C35.645,34.551 34.223,33.828 32.812,33.219 C31.148,32.5 29.516,31.914 28.25,31.281 C27.035,30.672 26.27,30.055 25.938,29.281 C25.828,27.965 25.836,26.934 25.844,25.688 C25.973,25.547 26.16,25.449 26.281,25.281 C26.555,24.902 26.816,24.441 27.062,23.938 C27.488,23.062 27.797,22.012 27.969,20.969 C28.281,20.805 28.617,20.766 28.875,20.438 C29.355,19.824 29.695,18.949 29.844,17.719 C29.977,16.625 29.609,15.902 29.156,15.344 C29.645,13.758 30.27,11.195 30.062,8.562 C29.949,7.125 29.582,5.691 28.719,4.5 C28.715,4.492 28.723,4.477 28.719,4.469 C29.66,3.844 31,3.445 32.906,3.406 Z" id="Fill-1" fill="#FFFFFF" mask="url(#mask-13)"></path>
            </g>
            <g id="icons8-connectdevelop-copy" transform="translate(895.000000, 72.000000)">
                <mask id="mask-15" fill="white">
                    <use xlink:href="#path-14"></use>
                </mask>
                <g id="Clip-2"></g>
                <path d="M12.496,0 L0,22 L12.496,44 L37.504,44 L50,22 L37.504,0 L12.496,0 Z M13.648,2 L36.352,2 L47.711,22 L36.352,42 L13.648,42 L2.289,22 L13.648,2 Z M14.766,4 L4.547,22 L14.766,40 L35.234,40 L45.457,22 L35.234,4 L14.766,4 Z M17.465,6 L31.141,6 L20.895,9.59 L17.465,6 Z M34.684,7.066 L38.262,13.359 L31.359,20.527 L26.582,15.531 L34.684,7.066 Z M15,7.625 L15,11.656 L12.141,12.656 L15,7.625 Z M30.793,8.238 L25.199,14.086 L22.414,11.176 L30.793,8.238 Z M17,8.406 L18.824,10.312 L17,10.953 L17,8.406 Z M20.344,11.902 L23.816,15.531 L19.074,20.488 L17,18.359 L17,13.074 L20.344,11.902 Z M15,13.773 L15,16.301 L13.168,14.418 L15,13.773 Z M10.859,14.91 L15,19.172 L15,24.746 L10.855,29.078 L6.832,22 L10.859,14.91 Z M39.691,15.887 L43.168,22 L39.297,28.816 L37.539,26.984 L39.691,15.887 Z M25.203,16.98 L29.973,21.969 L25.266,26.859 L20.469,21.926 L25.203,16.98 Z M37.418,17.121 L35.844,25.215 L32.746,21.969 L37.418,17.121 Z M17,21.23 L17.688,21.938 L17,22.656 L17,21.23 Z M19.082,23.371 L23.875,28.297 L23.199,29 L17,29 L17,25.547 L19.082,23.371 Z M31.355,23.41 L35.379,27.617 L35.109,29 L27.344,29 L26.656,28.293 L31.355,23.41 Z M15,27.641 L15,29 L13.699,29 L15,27.641 Z M11.945,31 L15,31 L15,36.375 L11.945,31 Z M17,31 L21.27,31 L17,35.438 L17,31 Z M24.047,31 L26.5,31 L33.309,38 L17.309,38 L24.047,31 Z M29.293,31 L34.723,31 L33.816,35.656 L29.293,31 Z M36.762,31 L38.055,31 L36.09,34.457 L36.762,31 Z" id="Fill-1" fill="#0FC599" mask="url(#mask-15)"></path>
            </g>
            <g id="icons8-user_group_man_man" transform="translate(508.000000, 73.000000)">
                <mask id="mask-17" fill="white">
                    <use xlink:href="#path-16"></use>
                </mask>
                <g id="Clip-2"></g>
                <path d="M19.875,0.406 C15.203,0.492 12.219,2.379 10.938,5.312 C9.715,8.105 9.988,11.633 10.875,15.281 C10.398,15.84 10.02,16.59 10.156,17.719 C10.305,18.949 10.645,19.824 11.125,20.438 C11.391,20.773 11.738,20.805 12.062,20.969 C12.238,22.016 12.531,23.062 12.969,23.938 C13.219,24.441 13.504,24.906 13.781,25.281 C13.906,25.449 14.086,25.547 14.219,25.688 C14.227,26.922 14.23,27.949 14.125,29.25 C13.801,30.035 13.043,30.668 11.812,31.281 C10.543,31.914 8.891,32.5 7.219,33.219 C5.547,33.938 3.828,34.812 2.469,36.188 C1.109,37.562 0.148,39.449 1.38777878e-17,41.938 L-0.062,43 L40.062,43 L40,41.938 C39.895,40.207 39.406,38.773 38.656,37.594 L50.062,37.594 L50,36.531 C49.871,34.402 49.039,32.746 47.875,31.562 C46.711,30.379 45.254,29.641 43.844,29.031 C42.434,28.422 41.051,27.965 40,27.438 C38.984,26.93 38.41,26.418 38.156,25.812 C38.074,24.762 38.055,23.906 38.062,22.906 C38.16,22.797 38.316,22.719 38.406,22.594 C38.645,22.266 38.883,21.867 39.094,21.438 C39.449,20.707 39.691,19.844 39.844,18.969 C40.105,18.824 40.383,18.801 40.594,18.531 C41.023,17.984 41.309,17.242 41.438,16.188 L41.438,16.156 C41.547,15.242 41.25,14.629 40.875,14.125 C41.289,12.77 41.797,10.633 41.625,8.406 C41.527,7.18 41.219,5.941 40.469,4.906 C39.758,3.922 38.594,3.199 37.125,2.938 C36.172,1.879 34.668,1.406 32.906,1.406 C30.48,1.449 28.598,2.051 27.219,3.125 C26.59,2.734 25.855,2.449 25.031,2.281 C23.98,0.918 22.09,0.406 19.906,0.406 L19.875,0.406 Z M19.906,2.406 C19.918,2.406 19.926,2.406 19.938,2.406 C21.949,2.414 23.254,3.004 23.625,3.656 L23.875,4.062 L24.344,4.125 C25.734,4.316 26.531,4.879 27.094,5.656 C27.656,6.434 27.969,7.52 28.062,8.719 C28.25,11.117 27.559,13.91 27.125,15.219 L26.875,16 L27.562,16.406 C27.52,16.379 27.945,16.668 27.844,17.5 C27.727,18.48 27.492,18.988 27.312,19.219 C27.133,19.449 27.039,19.438 27.031,19.438 L26.188,19.5 L26.094,20.312 C26,21.18 25.652,22.234 25.25,23.062 C25.047,23.477 24.84,23.84 24.656,24.094 C24.473,24.348 24.277,24.488 24.375,24.438 L23.844,24.719 L23.844,25.312 C23.844,26.762 23.785,27.949 23.938,29.625 L23.938,29.75 L24,29.875 C24.57,31.41 25.891,32.367 27.344,33.094 C28.797,33.82 30.465,34.355 32.031,35.031 C33.371,35.609 34.598,36.297 35.594,37.156 C35.598,37.16 35.59,37.184 35.594,37.188 C35.641,37.234 35.695,37.277 35.75,37.312 C35.812,37.387 35.887,37.449 35.969,37.5 C35.973,37.504 35.996,37.496 36,37.5 C36.031,37.531 36.062,37.562 36.094,37.594 C36.938,38.449 37.469,39.582 37.75,41 L2.25,41 C2.531,39.586 3.059,38.449 3.906,37.594 C4.973,36.516 6.426,35.707 8,35.031 C9.574,34.355 11.23,33.82 12.688,33.094 C14.145,32.367 15.492,31.41 16.062,29.875 L16.125,29.625 C16.277,27.949 16.219,26.762 16.219,25.312 L16.219,24.719 L15.688,24.438 C15.777,24.484 15.562,24.348 15.375,24.094 C15.188,23.84 14.957,23.477 14.75,23.062 C14.336,22.234 13.996,21.168 13.906,20.312 L13.812,19.5 L12.969,19.438 C12.961,19.438 12.867,19.449 12.688,19.219 C12.508,18.988 12.273,18.48 12.156,17.5 C12.059,16.668 12.48,16.379 12.438,16.406 L13.094,16 L12.906,15.281 C11.965,11.656 11.801,8.363 12.781,6.125 C13.758,3.895 15.75,2.492 19.906,2.406 Z M32.906,3.406 C32.918,3.406 32.926,3.406 32.938,3.406 C34.602,3.414 35.641,3.906 35.906,4.375 L36.156,4.781 L36.625,4.875 C37.762,5.031 38.395,5.441 38.844,6.062 C39.293,6.684 39.547,7.57 39.625,8.562 C39.781,10.547 39.203,12.91 38.844,14 L38.594,14.75 L39.281,15.156 C39.191,15.102 39.547,15.293 39.469,15.938 C39.371,16.746 39.16,17.148 39.031,17.312 C38.902,17.477 38.871,17.441 38.906,17.438 L38.062,17.5 L38,18.312 C37.926,19.016 37.613,19.879 37.281,20.562 C37.113,20.902 36.961,21.203 36.812,21.406 C36.723,21.527 36.66,21.617 36.625,21.656 L36.594,21.656 C36.59,21.66 36.594,21.688 36.594,21.688 L36.062,21.938 L36.062,22.531 C36.062,23.746 36.027,24.766 36.156,26.188 L36.156,26.312 L36.219,26.438 C36.723,27.785 37.887,28.598 39.125,29.219 C40.363,29.84 41.75,30.309 43.062,30.875 C44.375,31.441 45.566,32.086 46.438,32.969 C47.094,33.637 47.504,34.523 47.75,35.594 L36.875,35.594 C35.645,34.551 34.223,33.828 32.812,33.219 C31.148,32.5 29.516,31.914 28.25,31.281 C27.035,30.672 26.27,30.055 25.938,29.281 C25.828,27.965 25.836,26.934 25.844,25.688 C25.973,25.547 26.16,25.449 26.281,25.281 C26.555,24.902 26.816,24.441 27.062,23.938 C27.488,23.062 27.797,22.012 27.969,20.969 C28.281,20.805 28.617,20.766 28.875,20.438 C29.355,19.824 29.695,18.949 29.844,17.719 C29.977,16.625 29.609,15.902 29.156,15.344 C29.645,13.758 30.27,11.195 30.062,8.562 C29.949,7.125 29.582,5.691 28.719,4.5 C28.715,4.492 28.723,4.477 28.719,4.469 C29.66,3.844 31,3.445 32.906,3.406 Z" id="Fill-1" fill="#0FC599" mask="url(#mask-17)"></path>
            </g>
            <g id="icons8-service" transform="translate(124.000000, 70.000000)">
                <mask id="mask-19" fill="white">
                    <use xlink:href="#path-18"></use>
                </mask>
                <g id="Clip-2"></g>
                <path d="M22.598,-6.72002059e-16 C22.113,-0.004 21.695,0.344 21.609,0.82 L21.062,3.812 C20.594,3.965 20.141,4.148 19.695,4.367 L17.238,2.594 C16.844,2.309 16.297,2.348 15.953,2.695 L13.816,4.797 C13.473,5.141 13.422,5.68 13.699,6.078 L15.426,8.578 C15.199,9.02 15.008,9.473 14.855,9.938 L11.859,10.422 C11.379,10.496 11.023,10.91 11.02,11.402 L11,14.402 C10.996,14.887 11.344,15.305 11.82,15.391 L14.824,15.938 C14.973,16.402 15.16,16.852 15.379,17.293 L13.594,19.762 C13.309,20.156 13.348,20.703 13.691,21.051 L15.801,23.184 C16.141,23.527 16.68,23.578 17.078,23.301 L19.609,21.559 C20.047,21.781 20.496,21.965 20.957,22.117 L21.473,25.148 C21.555,25.629 21.965,25.98 22.453,25.984 L25.449,26 C25.941,26.004 26.359,25.648 26.441,25.168 L26.953,22.141 C27.41,21.992 27.855,21.812 28.289,21.594 L30.801,23.379 C31.199,23.66 31.738,23.613 32.082,23.273 L34.219,21.168 C34.566,20.824 34.613,20.277 34.328,19.875 L32.547,17.375 C32.77,16.941 32.957,16.5 33.109,16.047 L36.152,15.531 C36.629,15.449 36.98,15.035 36.984,14.547 L37,11.551 C37.004,11.062 36.652,10.645 36.168,10.562 L33.152,10.051 C33.004,9.59 32.82,9.141 32.605,8.699 L34.379,6.195 C34.664,5.801 34.621,5.262 34.277,4.914 L32.168,2.781 C31.824,2.438 31.277,2.387 30.879,2.672 L28.402,4.43 C27.965,4.207 27.52,4.02 27.062,3.867 L26.578,0.859 C26.5,0.375 26.086,0.02 25.594,0.016 L22.598,-6.72002059e-16 Z M23.426,2.004 L24.738,2.012 L25.172,4.715 C25.234,5.109 25.527,5.426 25.91,5.523 C26.645,5.711 27.352,6.012 28.016,6.414 C28.355,6.625 28.789,6.609 29.113,6.379 L31.344,4.797 L32.266,5.727 L30.66,7.977 C30.434,8.301 30.414,8.727 30.617,9.066 C31.012,9.734 31.301,10.445 31.473,11.176 C31.566,11.566 31.883,11.863 32.281,11.934 L34.996,12.391 L34.988,13.699 L32.246,14.16 C31.855,14.227 31.539,14.52 31.441,14.902 C31.258,15.629 30.965,16.332 30.562,16.988 C30.355,17.332 30.371,17.766 30.605,18.09 L32.203,20.344 L31.277,21.262 L29.008,19.652 C28.684,19.422 28.258,19.406 27.918,19.609 C27.254,20.004 26.551,20.285 25.82,20.465 C25.43,20.559 25.137,20.875 25.07,21.27 L24.609,23.996 L23.305,23.984 L22.844,21.25 C22.777,20.859 22.484,20.543 22.094,20.449 C21.371,20.27 20.66,19.973 19.996,19.574 C19.66,19.371 19.234,19.383 18.91,19.609 L16.633,21.18 L15.711,20.246 L17.316,18.027 C17.551,17.703 17.57,17.27 17.363,16.926 C16.969,16.258 16.68,15.547 16.5,14.812 C16.406,14.43 16.098,14.137 15.707,14.062 L13.004,13.574 L13.016,12.262 L15.707,11.828 C16.102,11.766 16.422,11.473 16.52,11.086 C16.707,10.348 17,9.637 17.406,8.973 C17.613,8.637 17.602,8.207 17.375,7.883 L15.824,5.633 L16.754,4.711 L18.965,6.305 C19.285,6.539 19.715,6.559 20.059,6.359 C20.73,5.957 21.445,5.672 22.184,5.492 C22.57,5.402 22.863,5.09 22.934,4.703 L23.426,2.004 Z M23.988,8.035 C22.703,8.027 21.414,8.508 20.434,9.48 C18.473,11.418 18.457,14.609 20.395,16.574 C22.332,18.535 25.527,18.551 27.488,16.613 C29.449,14.676 29.465,11.48 27.527,9.52 C26.559,8.539 25.273,8.043 23.988,8.035 Z M23.98,10.023 C24.75,10.027 25.516,10.328 26.105,10.926 C27.285,12.117 27.273,14.012 26.082,15.188 C24.891,16.367 22.996,16.359 21.816,15.168 C20.637,13.973 20.648,12.078 21.84,10.902 C22.438,10.312 23.207,10.02 23.98,10.023 Z M13.422,26 C10.812,26 9.609,26.625 8.312,27.125 C8.312,27.129 8.312,27.129 8.312,27.129 C5.824,28.098 1.566,30.105 1.566,30.105 C1.066,30.34 0.852,30.938 1.086,31.438 C1.324,31.938 1.922,32.152 2.422,31.918 C2.422,31.918 6.707,29.898 9.035,28.992 C10.473,28.434 11.098,28 13.422,28 C18.551,28 18.344,30.227 20.508,31.5 C20.539,31.52 20.574,31.539 20.609,31.551 C23.293,32.754 26.176,33 28.5,33 C29.527,33 30.176,33.238 30.527,33.504 C30.875,33.773 31,34.051 31,34.5 C31,35.027 30.867,35.277 30.52,35.531 C30.176,35.781 29.512,36 28.5,36 L23.25,36 C21.047,36 17.254,35.031 17.254,35.031 C16.91,34.938 16.539,35.039 16.285,35.293 C16.031,35.547 15.934,35.918 16.027,36.262 C16.125,36.609 16.398,36.879 16.746,36.969 C16.746,36.969 20.508,38 23.25,38 L28.5,38 C29.52,38 30.406,37.832 31.148,37.465 C31.246,37.438 31.34,37.395 31.422,37.336 L40.906,31.113 C42.332,30.289 43.305,30.059 43.875,30.066 C44.445,30.078 44.641,30.25 44.812,30.469 C45.066,30.797 45.082,30.922 44.918,31.301 C44.75,31.684 44.262,32.273 43.383,32.883 C43.383,32.883 43.383,32.883 43.379,32.883 C42.293,33.641 30.148,41.555 28.746,42.352 C27.688,42.953 26.848,43.586 25.891,43.855 C24.934,44.121 23.805,44.121 21.938,43.23 C20.691,42.633 15.387,39.914 13.668,39.043 C12.711,38.559 11.895,38.285 11.062,38.332 C10.227,38.379 9.52,38.734 8.789,39.195 C8.785,39.195 8.781,39.199 8.781,39.203 L6.305,40.785 C5.992,40.973 5.809,41.316 5.82,41.68 C5.832,42.043 6.043,42.371 6.367,42.535 C6.695,42.699 7.082,42.676 7.383,42.469 L9.848,40.891 C10.484,40.492 10.844,40.348 11.172,40.328 C11.5,40.309 11.949,40.414 12.766,40.828 C14.469,41.691 19.691,44.371 21.078,45.031 C23.254,46.074 25.016,46.172 26.426,45.781 C27.836,45.387 28.84,44.598 29.734,44.09 C31.664,42.992 43.129,35.492 44.523,34.523 C45.582,33.785 46.359,33.016 46.754,32.094 C47.148,31.172 47.02,30.047 46.391,29.242 C46.391,29.242 46.391,29.242 46.391,29.238 C45.895,28.605 45.016,28.09 43.91,28.066 C43.281,28.055 42.582,28.199 41.805,28.484 C41.66,28.293 41.441,28.043 41.141,27.824 C40.559,27.391 39.633,27 38.375,27 C37.73,27 37.203,27.148 36.781,27.324 C36.18,26.75 35.113,26.02 33.562,26.02 C32.305,26.02 31.125,26.441 30.305,26.926 C30.152,27.016 29.785,27.246 29.16,27.637 C28.535,28.027 27.719,28.531 26.914,29.035 C25.629,29.836 24.832,30.336 24.371,30.625 C23.391,30.43 22.41,30.152 21.484,29.746 C20.695,29.238 19.176,26 13.422,26 Z M33.562,28.02 C34.195,28.02 34.648,28.18 34.969,28.367 L30.344,31.234 C29.793,31.078 29.176,31 28.5,31 C28.211,31 27.895,30.98 27.594,30.969 C27.781,30.852 27.781,30.852 27.973,30.734 C28.777,30.23 29.59,29.723 30.219,29.332 C30.844,28.945 31.355,28.629 31.32,28.648 C31.793,28.367 32.82,28.02 33.562,28.02 Z M38.375,29 C39.188,29 39.625,29.207 39.891,29.391 C39.875,29.398 39.863,29.406 39.848,29.418 L32.938,33.949 C32.844,33.391 32.613,32.855 32.246,32.41 L37.078,29.414 L37.082,29.406 C37.121,29.387 37.957,29 38.375,29 Z" id="Fill-1" fill="#0FC599" mask="url(#mask-19)"></path>
            </g>
            <path d="" id="Path-9" stroke="#979797"></path>
        </g>
    </g>
</svg>