<?xml version="1.0" encoding="UTF-8"?>
<svg width="362px" height="813px" viewBox="0 0 362 813" version="1.1" xmlns="http://www.w3.org/2000/svg" xmlns:xlink="http://www.w3.org/1999/xlink">
    <!-- Generator: Sketch 48.1 (47250) - http://www.bohemiancoding.com/sketch -->
    <title>Group 2</title>
    <desc>Created with Sketch.</desc>
    <defs>
        <linearGradient x1="133.66887%" y1="-48.1971154%" x2="-34.5552885%" y2="144.906851%" id="linearGradient-1">
            <stop stop-color="#4973FF" offset="0%"></stop>
            <stop stop-color="#FF2E2E" offset="100%"></stop>
        </linearGradient>
        <linearGradient x1="136.19033%" y1="-203.978911%" x2="-34.5552885%" y2="144.906851%" id="linearGradient-2">
            <stop stop-color="#4973FF" offset="0%"></stop>
            <stop stop-color="#FF2E2E" offset="100%"></stop>
        </linearGradient>
        <linearGradient x1="6.05254121%" y1="112.753262%" x2="116.547905%" y2="0%" id="linearGradient-3">
            <stop stop-color="#0FC599" offset="0%"></stop>
            <stop stop-color="#A2FFF7" offset="100%"></stop>
        </linearGradient>
        <circle id="path-4" cx="71" cy="71" r="70.5"></circle>
        <filter x="-59.8%" y="-40.0%" width="221.1%" height="221.1%" filterUnits="objectBoundingBox" id="filter-5">
            <feMorphology radius="3.375" operator="dilate" in="SourceAlpha" result="shadowSpreadOuter1"></feMorphology>
            <feOffset dx="1" dy="29" in="shadowSpreadOuter1" result="shadowOffsetOuter1"></feOffset>
            <feGaussianBlur stdDeviation="22.5" in="shadowOffsetOuter1" result="shadowBlurOuter1"></feGaussianBlur>
            <feComposite in="shadowBlurOuter1" in2="SourceAlpha" operator="out" result="shadowBlurOuter1"></feComposite>
            <feColorMatrix values="0 0 0 0 0   0 0 0 0 0   0 0 0 0 0  0 0 0 0.5 0" type="matrix" in="shadowBlurOuter1"></feColorMatrix>
        </filter>
        <polygon id="path-6" points="0.045 33 37.5 33 37.5 0 0.045 0"></polygon>
        <circle id="path-8" cx="71" cy="70.5" r="70.5"></circle>
        <filter x="-59.8%" y="-40.0%" width="221.1%" height="221.1%" filterUnits="objectBoundingBox" id="filter-9">
            <feMorphology radius="3.375" operator="dilate" in="SourceAlpha" result="shadowSpreadOuter1"></feMorphology>
            <feOffset dx="1" dy="29" in="shadowSpreadOuter1" result="shadowOffsetOuter1"></feOffset>
            <feGaussianBlur stdDeviation="22.5" in="shadowOffsetOuter1" result="shadowBlurOuter1"></feGaussianBlur>
            <feComposite in="shadowBlurOuter1" in2="SourceAlpha" operator="out" result="shadowBlurOuter1"></feComposite>
            <feColorMatrix values="0 0 0 0 0   0 0 0 0 0   0 0 0 0 0  0 0 0 0.5 0" type="matrix" in="shadowBlurOuter1"></feColorMatrix>
        </filter>
        <polygon id="path-10" points="37.5 0.3045 37.5 32.205 0.045 32.205 0.045 0.3045 37.5 0.3045"></polygon>
        <polygon id="path-12" points="37.5 0.3045 37.5 32.205 0.045 32.205 0.045 0.3045 37.5 0.3045"></polygon>
        <circle id="path-14" cx="71" cy="71" r="70.5"></circle>
        <filter x="-59.8%" y="-40.0%" width="221.1%" height="221.1%" filterUnits="objectBoundingBox" id="filter-15">
            <feMorphology radius="3.375" operator="dilate" in="SourceAlpha" result="shadowSpreadOuter1"></feMorphology>
            <feOffset dx="1" dy="29" in="shadowSpreadOuter1" result="shadowOffsetOuter1"></feOffset>
            <feGaussianBlur stdDeviation="22.5" in="shadowOffsetOuter1" result="shadowBlurOuter1"></feGaussianBlur>
            <feComposite in="shadowBlurOuter1" in2="SourceAlpha" operator="out" result="shadowBlurOuter1"></feComposite>
            <feColorMatrix values="0 0 0 0 0   0 0 0 0 0   0 0 0 0 0  0 0 0 0.5 0" type="matrix" in="shadowBlurOuter1"></feColorMatrix>
        </filter>
        <polygon id="path-16" points="35.2336365 0.03 0.743415649 0.03 0.743415649 34.4942631 35.2336365 34.4942631"></polygon>
        <polygon id="path-18" points="35.2336365 0.03 0.743415649 0.03 0.743415649 34.4942631 35.2336365 34.4942631"></polygon>
    </defs>
    <g id="Page-1" stroke="none" stroke-width="1" fill="none" fill-rule="evenodd">
        <g id="Group-2" transform="translate(45.000000, 17.000000)">
            <g id="Group-28">
                <path d="M-226.375,362.501805 C-121.808819,326.360255 -16.8674003,326.360255 88.4492559,362.501805 C193.765912,398.643355 286.324493,387.851087 366.125,330.125" id="Path-7" stroke="url(#linearGradient-1)" stroke-width="0.75" transform="translate(69.875000, 356.750000) rotate(-270.000000) translate(-69.875000, -356.750000) "></path>
                <path d="M-226.375,362.501805 C-121.808819,326.360255 -16.8674003,326.360255 88.4492559,362.501805 C193.765912,398.643355 286.324493,387.851087 366.125,330.125" id="Path-7-Copy" stroke="url(#linearGradient-2)" stroke-width="0.75" transform="translate(69.875000, 356.750000) scale(-1, 1) rotate(-270.000000) translate(-69.875000, -356.750000) "></path>
                <g id="Group-27" transform="translate(71.000000, 650.000000) rotate(-90.000000) translate(-71.000000, -650.000000) translate(0.000000, 579.000000)">
                    <g id="Oval-7-Copy-12" transform="translate(71.000000, 71.000000) rotate(-270.000000) translate(-71.000000, -71.000000) ">
                        <use fill="black" fill-opacity="1" filter="url(#filter-5)" xlink:href="#path-4"></use>
                        <use stroke="url(#linearGradient-3)" stroke-width="6.75" fill="#FFFFFF" fill-rule="evenodd" xlink:href="#path-4"></use>
                    </g>
                    <g id="icons8-connectdevelop-copy" transform="translate(71.000000, 72.750000) rotate(-270.000000) translate(-71.000000, -72.750000) translate(52.000000, 56.250000)">
                        <mask id="mask-7" fill="white">
                            <use xlink:href="#path-6"></use>
                        </mask>
                        <g id="Clip-2"></g>
                        <path d="M9.372,0 L0,16.5 L9.372,33 L28.128,33 L37.5,16.5 L28.128,0 L9.372,0 Z M10.236,1.5 L27.264,1.5 L35.78325,16.5 L27.264,31.5 L10.236,31.5 L1.71675,16.5 L10.236,1.5 Z M11.0745,3 L3.41025,16.5 L11.0745,30 L26.4255,30 L34.09275,16.5 L26.4255,3 L11.0745,3 Z M13.09875,4.5 L23.35575,4.5 L15.67125,7.1925 L13.09875,4.5 Z M26.013,5.2995 L28.6965,10.01925 L23.51925,15.39525 L19.9365,11.64825 L26.013,5.2995 Z M11.25,5.71875 L11.25,8.742 L9.10575,9.492 L11.25,5.71875 Z M23.09475,6.1785 L18.89925,10.5645 L16.8105,8.382 L23.09475,6.1785 Z M12.75,6.3045 L14.118,7.734 L12.75,8.21475 L12.75,6.3045 Z M15.258,8.9265 L17.862,11.64825 L14.3055,15.366 L12.75,13.76925 L12.75,9.8055 L15.258,8.9265 Z M11.25,10.32975 L11.25,12.22575 L9.876,10.8135 L11.25,10.32975 Z M8.14425,11.1825 L11.25,14.379 L11.25,18.5595 L8.14125,21.8085 L5.124,16.5 L8.14425,11.1825 Z M29.76825,11.91525 L32.376,16.5 L29.47275,21.612 L28.15425,20.238 L29.76825,11.91525 Z M18.90225,12.735 L22.47975,16.47675 L18.9495,20.14425 L15.35175,16.4445 L18.90225,12.735 Z M28.0635,12.84075 L26.883,18.91125 L24.5595,16.47675 L28.0635,12.84075 Z M12.75,15.9225 L13.266,16.4535 L12.75,16.992 L12.75,15.9225 Z M14.3115,17.52825 L17.90625,21.22275 L17.39925,21.75 L12.75,21.75 L12.75,19.16025 L14.3115,17.52825 Z M23.51625,17.5575 L26.53425,20.71275 L26.33175,21.75 L20.508,21.75 L19.992,21.21975 L23.51625,17.5575 Z M11.25,20.73075 L11.25,21.75 L10.27425,21.75 L11.25,20.73075 Z M8.95875,23.25 L11.25,23.25 L11.25,27.28125 L8.95875,23.25 Z M12.75,23.25 L15.9525,23.25 L12.75,26.5785 L12.75,23.25 Z M18.03525,23.25 L19.875,23.25 L24.98175,28.5 L12.98175,28.5 L18.03525,23.25 Z M21.96975,23.25 L26.04225,23.25 L25.362,26.742 L21.96975,23.25 Z M27.5715,23.25 L28.54125,23.25 L27.0675,25.84275 L27.5715,23.25 Z" id="Fill-1" fill="#0FC599" mask="url(#mask-7)"></path>
                    </g>
                </g>
                <g id="Group-26" transform="translate(71.000000, 360.500000) rotate(-90.000000) translate(-71.000000, -360.500000) translate(0.000000, 290.000000)">
                    <g id="Oval-7-Copy-11" transform="translate(71.000000, 70.500000) rotate(-270.000000) translate(-71.000000, -70.500000) ">
                        <use fill="black" fill-opacity="1" filter="url(#filter-9)" xlink:href="#path-8"></use>
                        <use stroke="url(#linearGradient-3)" stroke-width="6.75" fill="#FFFFFF" fill-rule="evenodd" xlink:href="#path-8"></use>
                    </g>
                    <g id="icons8-user_group_man_man-copy" transform="translate(65.000000, 72.250000) rotate(-270.000000) translate(-65.000000, -72.250000) translate(46.000000, 55.750000)">
                        <mask id="mask-11" fill="white">
                            <use xlink:href="#path-10"></use>
                        </mask>
                        <g id="Clip-2"></g>
                        <path d="M14.90625,0.3045 C11.40225,0.369 9.16425,1.78425 8.2035,3.984 C7.28625,6.07875 7.491,8.72475 8.15625,11.46075 C7.7985,11.88 7.515,12.4425 7.617,13.28925 C7.72875,14.21175 7.98375,14.868 8.34375,15.3285 C8.54325,15.57975 8.8035,15.60375 9.0465,15.72675 C9.1785,16.512 9.39825,17.2965 9.72675,17.9535 C9.91425,18.33075 10.128,18.6795 10.33575,18.96075 C10.4295,19.08675 10.5645,19.16025 10.66425,19.266 C10.67025,20.1915 10.6725,20.96175 10.59375,21.9375 C10.35075,22.52625 9.78225,23.001 8.859,23.46075 C7.90725,23.9355 6.66825,24.375 5.41425,24.91425 C4.16025,25.4535 2.871,26.109 1.85175,27.141 C0.83175,28.1715 0.111,29.58675 1.38777878e-17,31.4535 L-0.0465,32.25 L30.0465,32.25 L30,31.4535 C29.92125,30.15525 29.5545,29.07975 28.992,28.1955 L37.5465,28.1955 L37.5,27.39825 C37.40325,25.8015 36.77925,24.5595 35.90625,23.6715 C35.03325,22.78425 33.9405,22.23075 32.883,21.77325 C31.8255,21.3165 30.78825,20.97375 30,20.5785 C29.238,20.1975 28.8075,19.8135 28.617,19.359 C28.5555,18.5715 28.54125,17.9295 28.5465,17.1795 C28.62,17.09775 28.737,17.03925 28.8045,16.9455 C28.98375,16.6995 29.16225,16.40025 29.3205,16.0785 C29.58675,15.53025 29.76825,14.883 29.883,14.22675 C30.07875,14.118 30.28725,14.10075 30.4455,13.89825 C30.76725,13.488 30.98175,12.9315 31.0785,12.141 L31.0785,12.117 C31.16025,11.4315 30.9375,10.97175 30.65625,10.59375 C30.96675,9.5775 31.34775,7.97475 31.21875,6.3045 C31.14525,5.385 30.91425,4.45575 30.35175,3.6795 C29.8185,2.9415 28.9455,2.39925 27.84375,2.2035 C27.129,1.40925 26.001,1.0545 24.6795,1.0545 C22.86,1.08675 21.4485,1.53825 20.41425,2.34375 C19.9425,2.0505 19.39125,1.83675 18.77325,1.71075 C17.985,0.6885 16.5675,0.3045 14.9295,0.3045 L14.90625,0.3045 Z M14.9295,1.8045 C14.9385,1.8045 14.9445,1.8045 14.9535,1.8045 C16.46175,1.8105 17.4405,2.253 17.71875,2.742 L17.90625,3.0465 L18.258,3.09375 C19.3005,3.237 19.89825,3.65925 20.3205,4.242 C20.742,4.8255 20.97675,5.64 21.0465,6.53925 C21.1875,8.33775 20.66925,10.4325 20.34375,11.41425 L20.15625,12 L20.6715,12.3045 C20.64,12.28425 20.95875,12.501 20.883,13.125 C20.79525,13.86 20.619,14.241 20.484,14.41425 C20.34975,14.58675 20.27925,14.5785 20.27325,14.5785 L19.641,14.625 L19.5705,15.234 C19.5,15.885 19.239,16.6755 18.9375,17.2965 C18.78525,17.60775 18.63,17.88 18.492,18.0705 C18.35475,18.261 18.20775,18.366 18.28125,18.3285 L17.883,18.53925 L17.883,18.984 C17.883,20.0715 17.83875,20.96175 17.9535,22.21875 L17.9535,22.3125 L18,22.40625 C18.4275,23.5575 19.41825,24.27525 20.508,24.8205 C21.59775,25.365 22.84875,25.76625 24.02325,26.27325 C25.02825,26.70675 25.9485,27.22275 26.6955,27.867 C26.6985,27.87 26.6925,27.888 26.6955,27.891 C26.73075,27.9255 26.77125,27.95775 26.8125,27.984 C26.859,28.04025 26.91525,28.08675 26.97675,28.125 C26.97975,28.128 26.997,28.122 27,28.125 C27.02325,28.14825 27.0465,28.1715 27.0705,28.1955 C27.7035,28.83675 28.10175,29.6865 28.3125,30.75 L1.6875,30.75 C1.89825,29.6895 2.29425,28.83675 2.9295,28.1955 C3.72975,27.387 4.8195,26.78025 6,26.27325 C7.1805,25.76625 8.4225,25.365 9.516,24.8205 C10.60875,24.27525 11.619,23.5575 12.0465,22.40625 L12.09375,22.21875 C12.20775,20.96175 12.16425,20.0715 12.16425,18.984 L12.16425,18.53925 L11.766,18.3285 C11.83275,18.363 11.6715,18.261 11.53125,18.0705 C11.391,17.88 11.21775,17.60775 11.0625,17.2965 C10.752,16.6755 10.497,15.876 10.4295,15.234 L10.359,14.625 L9.72675,14.5785 C9.72075,14.5785 9.65025,14.58675 9.516,14.41425 C9.381,14.241 9.20475,13.86 9.117,13.125 C9.04425,12.501 9.36,12.28425 9.3285,12.3045 L9.8205,12 L9.6795,11.46075 C8.97375,8.742 8.85075,6.27225 9.58575,4.59375 C10.3185,2.92125 11.8125,1.869 14.9295,1.8045 Z M24.6795,2.5545 C24.6885,2.5545 24.6945,2.5545 24.7035,2.5545 C25.9515,2.5605 26.73075,2.9295 26.9295,3.28125 L27.117,3.58575 L27.46875,3.65625 C28.3215,3.77325 28.79625,4.08075 29.133,4.5465 C29.46975,5.013 29.66025,5.6775 29.71875,6.4215 C29.83575,7.91025 29.40225,9.6825 29.133,10.5 L28.9455,11.0625 L29.46075,11.367 C29.39325,11.3265 29.66025,11.46975 29.60175,11.9535 C29.52825,12.5595 29.37,12.861 29.27325,12.984 C29.1765,13.10775 29.15325,13.08075 29.1795,13.0785 L28.5465,13.125 L28.5,13.734 C28.4445,14.262 28.20975,14.90925 27.96075,15.4215 C27.83475,15.6765 27.72075,15.90225 27.609,16.0545 C27.54225,16.14525 27.495,16.21275 27.46875,16.242 L27.4455,16.242 C27.4425,16.245 27.4455,16.266 27.4455,16.266 L27.0465,16.4535 L27.0465,16.89825 C27.0465,17.8095 27.02025,18.5745 27.117,19.641 L27.117,19.734 L27.16425,19.8285 C27.54225,20.83875 28.41525,21.4485 29.34375,21.91425 C30.27225,22.38 31.3125,22.73175 32.2965,23.15625 C33.28125,23.58075 34.1745,24.0645 34.8285,24.72675 C35.3205,25.22775 35.628,25.89225 35.8125,26.6955 L27.65625,26.6955 C26.73375,25.91325 25.66725,25.371 24.609,24.91425 C23.361,24.375 22.137,23.9355 21.1875,23.46075 C20.27625,23.004 19.7025,22.54125 19.4535,21.96075 C19.371,20.97375 19.377,20.2005 19.383,19.266 C19.47975,19.16025 19.62,19.08675 19.71075,18.96075 C19.91625,18.6765 20.112,18.33075 20.2965,17.9535 C20.616,17.2965 20.84775,16.509 20.97675,15.72675 C21.21075,15.60375 21.46275,15.5745 21.65625,15.3285 C22.01625,14.868 22.27125,14.21175 22.383,13.28925 C22.48275,12.46875 22.20675,11.9265 21.867,11.508 C22.23375,10.3185 22.7025,8.39625 22.5465,6.4215 C22.46175,5.34375 22.1865,4.26825 21.53925,3.375 C21.53625,3.369 21.54225,3.35775 21.53925,3.35175 C22.245,2.883 23.25,2.58375 24.6795,2.5545 Z" id="Fill-1" fill="#FFFFFF" mask="url(#mask-11)"></path>
                    </g>
                    <g id="icons8-user_group_man_man" transform="translate(70.250000, 71.500000) rotate(-270.000000) translate(-70.250000, -71.500000) translate(51.250000, 55.000000)">
                        <mask id="mask-13" fill="white">
                            <use xlink:href="#path-12"></use>
                        </mask>
                        <g id="Clip-2"></g>
                        <path d="M14.90625,0.3045 C11.40225,0.369 9.16425,1.78425 8.2035,3.984 C7.28625,6.07875 7.491,8.72475 8.15625,11.46075 C7.7985,11.88 7.515,12.4425 7.617,13.28925 C7.72875,14.21175 7.98375,14.868 8.34375,15.3285 C8.54325,15.57975 8.8035,15.60375 9.0465,15.72675 C9.1785,16.512 9.39825,17.2965 9.72675,17.9535 C9.91425,18.33075 10.128,18.6795 10.33575,18.96075 C10.4295,19.08675 10.5645,19.16025 10.66425,19.266 C10.67025,20.1915 10.6725,20.96175 10.59375,21.9375 C10.35075,22.52625 9.78225,23.001 8.859,23.46075 C7.90725,23.9355 6.66825,24.375 5.41425,24.91425 C4.16025,25.4535 2.871,26.109 1.85175,27.141 C0.83175,28.1715 0.111,29.58675 1.38777878e-17,31.4535 L-0.0465,32.25 L30.0465,32.25 L30,31.4535 C29.92125,30.15525 29.5545,29.07975 28.992,28.1955 L37.5465,28.1955 L37.5,27.39825 C37.40325,25.8015 36.77925,24.5595 35.90625,23.6715 C35.03325,22.78425 33.9405,22.23075 32.883,21.77325 C31.8255,21.3165 30.78825,20.97375 30,20.5785 C29.238,20.1975 28.8075,19.8135 28.617,19.359 C28.5555,18.5715 28.54125,17.9295 28.5465,17.1795 C28.62,17.09775 28.737,17.03925 28.8045,16.9455 C28.98375,16.6995 29.16225,16.40025 29.3205,16.0785 C29.58675,15.53025 29.76825,14.883 29.883,14.22675 C30.07875,14.118 30.28725,14.10075 30.4455,13.89825 C30.76725,13.488 30.98175,12.9315 31.0785,12.141 L31.0785,12.117 C31.16025,11.4315 30.9375,10.97175 30.65625,10.59375 C30.96675,9.5775 31.34775,7.97475 31.21875,6.3045 C31.14525,5.385 30.91425,4.45575 30.35175,3.6795 C29.8185,2.9415 28.9455,2.39925 27.84375,2.2035 C27.129,1.40925 26.001,1.0545 24.6795,1.0545 C22.86,1.08675 21.4485,1.53825 20.41425,2.34375 C19.9425,2.0505 19.39125,1.83675 18.77325,1.71075 C17.985,0.6885 16.5675,0.3045 14.9295,0.3045 L14.90625,0.3045 Z M14.9295,1.8045 C14.9385,1.8045 14.9445,1.8045 14.9535,1.8045 C16.46175,1.8105 17.4405,2.253 17.71875,2.742 L17.90625,3.0465 L18.258,3.09375 C19.3005,3.237 19.89825,3.65925 20.3205,4.242 C20.742,4.8255 20.97675,5.64 21.0465,6.53925 C21.1875,8.33775 20.66925,10.4325 20.34375,11.41425 L20.15625,12 L20.6715,12.3045 C20.64,12.28425 20.95875,12.501 20.883,13.125 C20.79525,13.86 20.619,14.241 20.484,14.41425 C20.34975,14.58675 20.27925,14.5785 20.27325,14.5785 L19.641,14.625 L19.5705,15.234 C19.5,15.885 19.239,16.6755 18.9375,17.2965 C18.78525,17.60775 18.63,17.88 18.492,18.0705 C18.35475,18.261 18.20775,18.366 18.28125,18.3285 L17.883,18.53925 L17.883,18.984 C17.883,20.0715 17.83875,20.96175 17.9535,22.21875 L17.9535,22.3125 L18,22.40625 C18.4275,23.5575 19.41825,24.27525 20.508,24.8205 C21.59775,25.365 22.84875,25.76625 24.02325,26.27325 C25.02825,26.70675 25.9485,27.22275 26.6955,27.867 C26.6985,27.87 26.6925,27.888 26.6955,27.891 C26.73075,27.9255 26.77125,27.95775 26.8125,27.984 C26.859,28.04025 26.91525,28.08675 26.97675,28.125 C26.97975,28.128 26.997,28.122 27,28.125 C27.02325,28.14825 27.0465,28.1715 27.0705,28.1955 C27.7035,28.83675 28.10175,29.6865 28.3125,30.75 L1.6875,30.75 C1.89825,29.6895 2.29425,28.83675 2.9295,28.1955 C3.72975,27.387 4.8195,26.78025 6,26.27325 C7.1805,25.76625 8.4225,25.365 9.516,24.8205 C10.60875,24.27525 11.619,23.5575 12.0465,22.40625 L12.09375,22.21875 C12.20775,20.96175 12.16425,20.0715 12.16425,18.984 L12.16425,18.53925 L11.766,18.3285 C11.83275,18.363 11.6715,18.261 11.53125,18.0705 C11.391,17.88 11.21775,17.60775 11.0625,17.2965 C10.752,16.6755 10.497,15.876 10.4295,15.234 L10.359,14.625 L9.72675,14.5785 C9.72075,14.5785 9.65025,14.58675 9.516,14.41425 C9.381,14.241 9.20475,13.86 9.117,13.125 C9.04425,12.501 9.36,12.28425 9.3285,12.3045 L9.8205,12 L9.6795,11.46075 C8.97375,8.742 8.85075,6.27225 9.58575,4.59375 C10.3185,2.92125 11.8125,1.869 14.9295,1.8045 Z M24.6795,2.5545 C24.6885,2.5545 24.6945,2.5545 24.7035,2.5545 C25.9515,2.5605 26.73075,2.9295 26.9295,3.28125 L27.117,3.58575 L27.46875,3.65625 C28.3215,3.77325 28.79625,4.08075 29.133,4.5465 C29.46975,5.013 29.66025,5.6775 29.71875,6.4215 C29.83575,7.91025 29.40225,9.6825 29.133,10.5 L28.9455,11.0625 L29.46075,11.367 C29.39325,11.3265 29.66025,11.46975 29.60175,11.9535 C29.52825,12.5595 29.37,12.861 29.27325,12.984 C29.1765,13.10775 29.15325,13.08075 29.1795,13.0785 L28.5465,13.125 L28.5,13.734 C28.4445,14.262 28.20975,14.90925 27.96075,15.4215 C27.83475,15.6765 27.72075,15.90225 27.609,16.0545 C27.54225,16.14525 27.495,16.21275 27.46875,16.242 L27.4455,16.242 C27.4425,16.245 27.4455,16.266 27.4455,16.266 L27.0465,16.4535 L27.0465,16.89825 C27.0465,17.8095 27.02025,18.5745 27.117,19.641 L27.117,19.734 L27.16425,19.8285 C27.54225,20.83875 28.41525,21.4485 29.34375,21.91425 C30.27225,22.38 31.3125,22.73175 32.2965,23.15625 C33.28125,23.58075 34.1745,24.0645 34.8285,24.72675 C35.3205,25.22775 35.628,25.89225 35.8125,26.6955 L27.65625,26.6955 C26.73375,25.91325 25.66725,25.371 24.609,24.91425 C23.361,24.375 22.137,23.9355 21.1875,23.46075 C20.27625,23.004 19.7025,22.54125 19.4535,21.96075 C19.371,20.97375 19.377,20.2005 19.383,19.266 C19.47975,19.16025 19.62,19.08675 19.71075,18.96075 C19.91625,18.6765 20.112,18.33075 20.2965,17.9535 C20.616,17.2965 20.84775,16.509 20.97675,15.72675 C21.21075,15.60375 21.46275,15.5745 21.65625,15.3285 C22.01625,14.868 22.27125,14.21175 22.383,13.28925 C22.48275,12.46875 22.20675,11.9265 21.867,11.508 C22.23375,10.3185 22.7025,8.39625 22.5465,6.4215 C22.46175,5.34375 22.1865,4.26825 21.53925,3.375 C21.53625,3.369 21.54225,3.35775 21.53925,3.35175 C22.245,2.883 23.25,2.58375 24.6795,2.5545 Z" id="Fill-1" fill="#0FC599" mask="url(#mask-13)"></path>
                    </g>
                </g>
                <g id="Group-25" transform="translate(71.000000, 71.000000) rotate(-90.000000) translate(-71.000000, -71.000000) ">
                    <g id="Oval-7-Copy-10" transform="translate(71.000000, 71.000000) rotate(-270.000000) translate(-71.000000, -71.000000) ">
                        <use fill="black" fill-opacity="1" filter="url(#filter-15)" xlink:href="#path-14"></use>
                        <use stroke="url(#linearGradient-3)" stroke-width="6.75" fill="#FFFFFF" fill-rule="evenodd" xlink:href="#path-14"></use>
                    </g>
                    <g id="icons8-service-copy" transform="translate(65.500000, 74.750000) rotate(-270.000000) translate(-65.500000, -74.750000) translate(47.500000, 57.250000)">
                        <mask id="mask-17" fill="white">
                            <use xlink:href="#path-16"></use>
                        </mask>
                        <g id="Clip-2"></g>
                        <path d="M16.9485,-5.99157226e-17 C16.58475,-0.003 16.27125,0.258 16.20675,0.615 L15.7965,2.859 C15.4455,2.97375 15.10575,3.111 14.77125,3.27525 L12.9285,1.9455 C12.633,1.73175 12.22275,1.761 11.96475,2.02125 L10.362,3.59775 C10.10475,3.85575 10.0665,4.26 10.27425,4.5585 L11.5695,6.4335 C11.39925,6.765 11.256,7.10475 11.14125,7.4535 L8.89425,7.8165 C8.53425,7.872 8.26725,8.1825 8.265,8.5515 L8.25,10.8015 C8.247,11.16525 8.508,11.47875 8.865,11.54325 L11.118,11.9535 C11.22975,12.3015 11.37,12.639 11.53425,12.96975 L10.1955,14.8215 C9.98175,15.117 10.011,15.52725 10.26825,15.78825 L11.85075,17.388 C12.10575,17.64525 12.51,17.6835 12.8085,17.47575 L14.70675,16.16925 C15.03525,16.33575 15.372,16.47375 15.71775,16.58775 L16.10475,18.861 C16.16625,19.22175 16.47375,19.485 16.83975,19.488 L19.08675,19.5 C19.45575,19.503 19.76925,19.236 19.83075,18.876 L20.21475,16.60575 C20.5575,16.494 20.89125,16.359 21.21675,16.1955 L23.10075,17.53425 C23.39925,17.745 23.8035,17.70975 24.0615,17.45475 L25.66425,15.876 C25.9245,15.618 25.95975,15.20775 25.746,14.90625 L24.41025,13.03125 C24.5775,12.70575 24.71775,12.375 24.83175,12.03525 L27.114,11.64825 C27.47175,11.58675 27.735,11.27625 27.738,10.91025 L27.75,8.66325 C27.753,8.2965 27.489,7.98375 27.126,7.9215 L24.864,7.53825 C24.753,7.1925 24.615,6.85575 24.45375,6.52425 L25.78425,4.64625 C25.998,4.35075 25.96575,3.9465 25.70775,3.6855 L24.126,2.08575 C23.868,1.8285 23.45775,1.79025 23.15925,2.004 L21.3015,3.3225 C20.97375,3.15525 20.64,3.015 20.2965,2.90025 L19.9335,0.64425 C19.875,0.28125 19.5645,0.015 19.1955,0.012 L16.9485,-5.99157226e-17 Z M17.5695,1.503 L18.5535,1.509 L18.879,3.53625 C18.9255,3.83175 19.14525,4.0695 19.4325,4.14225 C19.98375,4.28325 20.514,4.509 21.012,4.8105 C21.26625,4.96875 21.59175,4.95675 21.83475,4.78425 L23.508,3.59775 L24.1995,4.29525 L22.995,5.98275 C22.8255,6.22575 22.8105,6.54525 22.96275,6.7995 C23.259,7.3005 23.47575,7.83375 23.60475,8.382 C23.6745,8.6745 23.91225,8.89725 24.21075,8.9505 L26.247,9.29325 L26.241,10.27425 L24.1845,10.62 C23.89125,10.67025 23.65425,10.89 23.58075,11.1765 C23.4435,11.72175 23.22375,12.249 22.9215,12.741 C22.76625,12.999 22.77825,13.3245 22.95375,13.5675 L24.15225,15.258 L23.45775,15.9465 L21.756,14.739 C21.513,14.5665 21.1935,14.5545 20.9385,14.70675 C20.4405,15.003 19.91325,15.21375 19.365,15.34875 C19.0725,15.41925 18.85275,15.65625 18.8025,15.9525 L18.45675,17.997 L17.47875,17.988 L17.133,15.9375 C17.08275,15.64425 16.863,15.40725 16.5705,15.33675 C16.02825,15.2025 15.495,14.97975 14.997,14.6805 C14.745,14.52825 14.4255,14.53725 14.1825,14.70675 L12.47475,15.885 L11.78325,15.1845 L12.987,13.52025 C13.16325,13.27725 13.1775,12.9525 13.02225,12.6945 C12.72675,12.1935 12.51,11.66025 12.375,11.109 C12.3045,10.8225 12.0735,10.60275 11.78025,10.5465 L9.753,10.1805 L9.762,9.1965 L11.78025,8.871 C12.0765,8.8245 12.3165,8.60475 12.39,8.3145 C12.53025,7.761 12.75,7.22775 13.0545,6.72975 C13.20975,6.47775 13.2015,6.15525 13.03125,5.91225 L11.868,4.22475 L12.5655,3.53325 L14.22375,4.72875 C14.46375,4.90425 14.78625,4.91925 15.04425,4.76925 C15.5475,4.46775 16.08375,4.254 16.638,4.119 C16.9275,4.0515 17.14725,3.8175 17.2005,3.52725 L17.5695,1.503 Z M17.991,6.02625 C17.02725,6.02025 16.0605,6.381 15.3255,7.11 C13.85475,8.5635 13.84275,10.95675 15.29625,12.4305 C16.749,13.90125 19.14525,13.91325 20.616,12.45975 C22.08675,11.007 22.09875,8.61 20.64525,7.14 C19.91925,6.40425 18.95475,6.03225 17.991,6.02625 Z M17.985,7.51725 C18.5625,7.52025 19.137,7.746 19.57875,8.1945 C20.46375,9.08775 20.45475,10.509 19.5615,11.391 C18.66825,12.27525 17.247,12.26925 16.362,11.376 C15.47775,10.47975 15.486,9.0585 16.38,8.1765 C16.8285,7.734 17.40525,7.515 17.985,7.51725 Z M10.0665,19.5 C8.109,19.5 7.20675,19.96875 6.234,20.34375 C6.234,20.34675 6.234,20.34675 6.234,20.34675 C4.368,21.0735 1.1745,22.57875 1.1745,22.57875 C0.7995,22.755 0.639,23.2035 0.8145,23.5785 C0.993,23.9535 1.4415,24.114 1.8165,23.9385 C1.8165,23.9385 5.03025,22.4235 6.77625,21.744 C7.85475,21.3255 8.3235,21 10.0665,21 C13.91325,21 13.758,22.67025 15.381,23.625 C15.40425,23.64 15.4305,23.65425 15.45675,23.66325 C17.46975,24.5655 19.632,24.75 21.375,24.75 C22.14525,24.75 22.632,24.9285 22.89525,25.128 C23.15625,25.32975 23.25,25.53825 23.25,25.875 C23.25,26.27025 23.15025,26.45775 22.89,26.64825 C22.632,26.83575 22.134,27 21.375,27 L17.4375,27 C15.78525,27 12.9405,26.27325 12.9405,26.27325 C12.6825,26.2035 12.40425,26.27925 12.21375,26.46975 C12.02325,26.66025 11.9505,26.9385 12.02025,27.1965 C12.09375,27.45675 12.2985,27.65925 12.5595,27.72675 C12.5595,27.72675 15.381,28.5 17.4375,28.5 L21.375,28.5 C22.14,28.5 22.8045,28.374 23.361,28.09875 C23.4345,28.0785 23.505,28.04625 23.5665,28.002 L30.6795,23.33475 C31.749,22.71675 32.47875,22.54425 32.90625,22.5495 C33.33375,22.5585 33.48075,22.6875 33.609,22.85175 C33.7995,23.09775 33.8115,23.1915 33.6885,23.47575 C33.5625,23.763 33.1965,24.20475 32.53725,24.66225 C32.53725,24.66225 32.53725,24.66225 32.53425,24.66225 C31.71975,25.23075 22.611,31.16625 21.5595,31.764 C20.766,32.21475 20.136,32.6895 19.41825,32.89125 C18.7005,33.09075 17.85375,33.09075 16.4535,32.4225 C15.51825,31.97475 11.54025,29.9355 10.251,29.28225 C9.53325,28.91925 8.92125,28.71375 8.2965,28.749 C7.67025,28.78425 7.14,29.0505 6.59175,29.39625 C6.58875,29.39625 6.58575,29.39925 6.58575,29.40225 L4.72875,30.58875 C4.494,30.72975 4.35675,30.987 4.365,31.26 C4.374,31.53225 4.53225,31.77825 4.77525,31.90125 C5.02125,32.02425 5.3115,32.007 5.53725,31.85175 L7.386,30.66825 C7.863,30.369 8.133,30.261 8.379,30.246 C8.625,30.23175 8.96175,30.3105 9.5745,30.621 C10.85175,31.26825 14.76825,33.27825 15.8085,33.77325 C17.4405,34.5555 18.762,34.629 19.8195,34.33575 C20.877,34.04025 21.63,33.4485 22.3005,33.0675 C23.748,32.244 32.34675,26.619 33.39225,25.89225 C34.1865,25.33875 34.76925,24.762 35.0655,24.0705 C35.361,23.379 35.265,22.53525 34.79325,21.9315 C34.79325,21.9315 34.79325,21.9315 34.79325,21.9285 C34.42125,21.45375 33.762,21.0675 32.9325,21.0495 C32.46075,21.04125 31.9365,21.14925 31.35375,21.363 C31.245,21.21975 31.08075,21.03225 30.85575,20.868 C30.41925,20.54325 29.72475,20.25 28.78125,20.25 C28.2975,20.25 27.90225,20.361 27.58575,20.493 C27.135,20.0625 26.33475,19.515 25.1715,19.515 C24.22875,19.515 23.34375,19.83075 22.72875,20.1945 C22.614,20.262 22.33875,20.4345 21.87,20.72775 C21.40125,21.02025 20.78925,21.39825 20.1855,21.77625 C19.22175,22.377 18.624,22.752 18.27825,22.96875 C17.54325,22.8225 16.8075,22.614 16.113,22.3095 C15.52125,21.9285 14.382,19.5 10.0665,19.5 Z M25.1715,21.015 C25.64625,21.015 25.986,21.135 26.22675,21.27525 L22.758,23.4255 C22.34475,23.3085 21.882,23.25 21.375,23.25 C21.15825,23.25 20.92125,23.235 20.6955,23.22675 C20.83575,23.139 20.83575,23.139 20.97975,23.0505 C21.58275,22.6725 22.1925,22.29225 22.66425,21.999 C23.133,21.70875 23.51625,21.47175 23.49,21.486 C23.84475,21.27525 24.615,21.015 25.1715,21.015 Z M28.78125,21.75 C29.391,21.75 29.71875,21.90525 29.91825,22.04325 C29.90625,22.0485 29.89725,22.0545 29.886,22.0635 L24.7035,25.46175 C24.633,25.04325 24.45975,24.64125 24.1845,24.3075 L27.8085,22.0605 L27.8115,22.0545 C27.84075,22.04025 28.46775,21.75 28.78125,21.75 Z" id="Fill-1" fill="#FFFFFF" mask="url(#mask-17)"></path>
                    </g>
                    <g id="icons8-service" transform="translate(71.500000, 72.500000) rotate(-270.000000) translate(-71.500000, -72.500000) translate(53.500000, 55.000000)">
                        <mask id="mask-19" fill="white">
                            <use xlink:href="#path-18"></use>
                        </mask>
                        <g id="Clip-2"></g>
                        <path d="M16.9485,-5.99157226e-17 C16.58475,-0.003 16.27125,0.258 16.20675,0.615 L15.7965,2.859 C15.4455,2.97375 15.10575,3.111 14.77125,3.27525 L12.9285,1.9455 C12.633,1.73175 12.22275,1.761 11.96475,2.02125 L10.362,3.59775 C10.10475,3.85575 10.0665,4.26 10.27425,4.5585 L11.5695,6.4335 C11.39925,6.765 11.256,7.10475 11.14125,7.4535 L8.89425,7.8165 C8.53425,7.872 8.26725,8.1825 8.265,8.5515 L8.25,10.8015 C8.247,11.16525 8.508,11.47875 8.865,11.54325 L11.118,11.9535 C11.22975,12.3015 11.37,12.639 11.53425,12.96975 L10.1955,14.8215 C9.98175,15.117 10.011,15.52725 10.26825,15.78825 L11.85075,17.388 C12.10575,17.64525 12.51,17.6835 12.8085,17.47575 L14.70675,16.16925 C15.03525,16.33575 15.372,16.47375 15.71775,16.58775 L16.10475,18.861 C16.16625,19.22175 16.47375,19.485 16.83975,19.488 L19.08675,19.5 C19.45575,19.503 19.76925,19.236 19.83075,18.876 L20.21475,16.60575 C20.5575,16.494 20.89125,16.359 21.21675,16.1955 L23.10075,17.53425 C23.39925,17.745 23.8035,17.70975 24.0615,17.45475 L25.66425,15.876 C25.9245,15.618 25.95975,15.20775 25.746,14.90625 L24.41025,13.03125 C24.5775,12.70575 24.71775,12.375 24.83175,12.03525 L27.114,11.64825 C27.47175,11.58675 27.735,11.27625 27.738,10.91025 L27.75,8.66325 C27.753,8.2965 27.489,7.98375 27.126,7.9215 L24.864,7.53825 C24.753,7.1925 24.615,6.85575 24.45375,6.52425 L25.78425,4.64625 C25.998,4.35075 25.96575,3.9465 25.70775,3.6855 L24.126,2.08575 C23.868,1.8285 23.45775,1.79025 23.15925,2.004 L21.3015,3.3225 C20.97375,3.15525 20.64,3.015 20.2965,2.90025 L19.9335,0.64425 C19.875,0.28125 19.5645,0.015 19.1955,0.012 L16.9485,-5.99157226e-17 Z M17.5695,1.503 L18.5535,1.509 L18.879,3.53625 C18.9255,3.83175 19.14525,4.0695 19.4325,4.14225 C19.98375,4.28325 20.514,4.509 21.012,4.8105 C21.26625,4.96875 21.59175,4.95675 21.83475,4.78425 L23.508,3.59775 L24.1995,4.29525 L22.995,5.98275 C22.8255,6.22575 22.8105,6.54525 22.96275,6.7995 C23.259,7.3005 23.47575,7.83375 23.60475,8.382 C23.6745,8.6745 23.91225,8.89725 24.21075,8.9505 L26.247,9.29325 L26.241,10.27425 L24.1845,10.62 C23.89125,10.67025 23.65425,10.89 23.58075,11.1765 C23.4435,11.72175 23.22375,12.249 22.9215,12.741 C22.76625,12.999 22.77825,13.3245 22.95375,13.5675 L24.15225,15.258 L23.45775,15.9465 L21.756,14.739 C21.513,14.5665 21.1935,14.5545 20.9385,14.70675 C20.4405,15.003 19.91325,15.21375 19.365,15.34875 C19.0725,15.41925 18.85275,15.65625 18.8025,15.9525 L18.45675,17.997 L17.47875,17.988 L17.133,15.9375 C17.08275,15.64425 16.863,15.40725 16.5705,15.33675 C16.02825,15.2025 15.495,14.97975 14.997,14.6805 C14.745,14.52825 14.4255,14.53725 14.1825,14.70675 L12.47475,15.885 L11.78325,15.1845 L12.987,13.52025 C13.16325,13.27725 13.1775,12.9525 13.02225,12.6945 C12.72675,12.1935 12.51,11.66025 12.375,11.109 C12.3045,10.8225 12.0735,10.60275 11.78025,10.5465 L9.753,10.1805 L9.762,9.1965 L11.78025,8.871 C12.0765,8.8245 12.3165,8.60475 12.39,8.3145 C12.53025,7.761 12.75,7.22775 13.0545,6.72975 C13.20975,6.47775 13.2015,6.15525 13.03125,5.91225 L11.868,4.22475 L12.5655,3.53325 L14.22375,4.72875 C14.46375,4.90425 14.78625,4.91925 15.04425,4.76925 C15.5475,4.46775 16.08375,4.254 16.638,4.119 C16.9275,4.0515 17.14725,3.8175 17.2005,3.52725 L17.5695,1.503 Z M17.991,6.02625 C17.02725,6.02025 16.0605,6.381 15.3255,7.11 C13.85475,8.5635 13.84275,10.95675 15.29625,12.4305 C16.749,13.90125 19.14525,13.91325 20.616,12.45975 C22.08675,11.007 22.09875,8.61 20.64525,7.14 C19.91925,6.40425 18.95475,6.03225 17.991,6.02625 Z M17.985,7.51725 C18.5625,7.52025 19.137,7.746 19.57875,8.1945 C20.46375,9.08775 20.45475,10.509 19.5615,11.391 C18.66825,12.27525 17.247,12.26925 16.362,11.376 C15.47775,10.47975 15.486,9.0585 16.38,8.1765 C16.8285,7.734 17.40525,7.515 17.985,7.51725 Z M10.0665,19.5 C8.109,19.5 7.20675,19.96875 6.234,20.34375 C6.234,20.34675 6.234,20.34675 6.234,20.34675 C4.368,21.0735 1.1745,22.57875 1.1745,22.57875 C0.7995,22.755 0.639,23.2035 0.8145,23.5785 C0.993,23.9535 1.4415,24.114 1.8165,23.9385 C1.8165,23.9385 5.03025,22.4235 6.77625,21.744 C7.85475,21.3255 8.3235,21 10.0665,21 C13.91325,21 13.758,22.67025 15.381,23.625 C15.40425,23.64 15.4305,23.65425 15.45675,23.66325 C17.46975,24.5655 19.632,24.75 21.375,24.75 C22.14525,24.75 22.632,24.9285 22.89525,25.128 C23.15625,25.32975 23.25,25.53825 23.25,25.875 C23.25,26.27025 23.15025,26.45775 22.89,26.64825 C22.632,26.83575 22.134,27 21.375,27 L17.4375,27 C15.78525,27 12.9405,26.27325 12.9405,26.27325 C12.6825,26.2035 12.40425,26.27925 12.21375,26.46975 C12.02325,26.66025 11.9505,26.9385 12.02025,27.1965 C12.09375,27.45675 12.2985,27.65925 12.5595,27.72675 C12.5595,27.72675 15.381,28.5 17.4375,28.5 L21.375,28.5 C22.14,28.5 22.8045,28.374 23.361,28.09875 C23.4345,28.0785 23.505,28.04625 23.5665,28.002 L30.6795,23.33475 C31.749,22.71675 32.47875,22.54425 32.90625,22.5495 C33.33375,22.5585 33.48075,22.6875 33.609,22.85175 C33.7995,23.09775 33.8115,23.1915 33.6885,23.47575 C33.5625,23.763 33.1965,24.20475 32.53725,24.66225 C32.53725,24.66225 32.53725,24.66225 32.53425,24.66225 C31.71975,25.23075 22.611,31.16625 21.5595,31.764 C20.766,32.21475 20.136,32.6895 19.41825,32.89125 C18.7005,33.09075 17.85375,33.09075 16.4535,32.4225 C15.51825,31.97475 11.54025,29.9355 10.251,29.28225 C9.53325,28.91925 8.92125,28.71375 8.2965,28.749 C7.67025,28.78425 7.14,29.0505 6.59175,29.39625 C6.58875,29.39625 6.58575,29.39925 6.58575,29.40225 L4.72875,30.58875 C4.494,30.72975 4.35675,30.987 4.365,31.26 C4.374,31.53225 4.53225,31.77825 4.77525,31.90125 C5.02125,32.02425 5.3115,32.007 5.53725,31.85175 L7.386,30.66825 C7.863,30.369 8.133,30.261 8.379,30.246 C8.625,30.23175 8.96175,30.3105 9.5745,30.621 C10.85175,31.26825 14.76825,33.27825 15.8085,33.77325 C17.4405,34.5555 18.762,34.629 19.8195,34.33575 C20.877,34.04025 21.63,33.4485 22.3005,33.0675 C23.748,32.244 32.34675,26.619 33.39225,25.89225 C34.1865,25.33875 34.76925,24.762 35.0655,24.0705 C35.361,23.379 35.265,22.53525 34.79325,21.9315 C34.79325,21.9315 34.79325,21.9315 34.79325,21.9285 C34.42125,21.45375 33.762,21.0675 32.9325,21.0495 C32.46075,21.04125 31.9365,21.14925 31.35375,21.363 C31.245,21.21975 31.08075,21.03225 30.85575,20.868 C30.41925,20.54325 29.72475,20.25 28.78125,20.25 C28.2975,20.25 27.90225,20.361 27.58575,20.493 C27.135,20.0625 26.33475,19.515 25.1715,19.515 C24.22875,19.515 23.34375,19.83075 22.72875,20.1945 C22.614,20.262 22.33875,20.4345 21.87,20.72775 C21.40125,21.02025 20.78925,21.39825 20.1855,21.77625 C19.22175,22.377 18.624,22.752 18.27825,22.96875 C17.54325,22.8225 16.8075,22.614 16.113,22.3095 C15.52125,21.9285 14.382,19.5 10.0665,19.5 Z M25.1715,21.015 C25.64625,21.015 25.986,21.135 26.22675,21.27525 L22.758,23.4255 C22.34475,23.3085 21.882,23.25 21.375,23.25 C21.15825,23.25 20.92125,23.235 20.6955,23.22675 C20.83575,23.139 20.83575,23.139 20.97975,23.0505 C21.58275,22.6725 22.1925,22.29225 22.66425,21.999 C23.133,21.70875 23.51625,21.47175 23.49,21.486 C23.84475,21.27525 24.615,21.015 25.1715,21.015 Z M28.78125,21.75 C29.391,21.75 29.71875,21.90525 29.91825,22.04325 C29.90625,22.0485 29.89725,22.0545 29.886,22.0635 L24.7035,25.46175 C24.633,25.04325 24.45975,24.64125 24.1845,24.3075 L27.8085,22.0605 L27.8115,22.0545 C27.84075,22.04025 28.46775,21.75 28.78125,21.75 Z" id="Fill-1" fill="#0FC599" mask="url(#mask-19)"></path>
                    </g>
                </g>
                <path d="" id="Path-9" stroke="#979797" stroke-width="0.75" transform="translate(71.250000, 624.250000) rotate(-270.000000) translate(-71.250000, -624.250000) "></path>
            </g>
            <path d="M203.76,59.2 C201.58,59.2 199.76,58.42 198.18,56.96 L198.64,56.46 C200.12,57.86 201.76,58.58 203.8,58.58 C206.22,58.58 207.8,57.26 207.8,55.5 L207.8,55.46 C207.8,53.82 206.86,52.94 203.48,52.24 C200.06,51.56 198.72,50.48 198.72,48.46 L198.72,48.42 C198.72,46.42 200.62,44.8 203.26,44.8 C205.18,44.8 206.7,45.4 208.02,46.44 L207.6,46.98 C206.32,45.96 204.86,45.42 203.22,45.42 C200.92,45.42 199.4,46.8 199.4,48.36 L199.4,48.4 C199.4,50.02 200.34,50.92 203.74,51.62 C207.22,52.32 208.48,53.44 208.48,55.4 L208.48,55.44 C208.48,57.6 206.62,59.2 203.76,59.2 Z M215.037142,59.24 C212.317142,59.24 210.037142,57.18 210.037142,53.96 L210.037142,53.92 C210.037142,50.96 212.077142,48.68 214.857142,48.68 C217.897142,48.68 219.477142,51.28 219.477142,53.98 L219.477142,54.2 L210.737142,54.2 C210.857142,56.94 212.797142,58.64 215.057142,58.64 C216.617142,58.64 217.877142,57.82 218.677142,56.78 L219.157142,57.16 C218.237142,58.36 216.877142,59.24 215.037142,59.24 Z M210.737142,53.62 L218.777142,53.62 C218.677142,51.42 217.337142,49.28 214.817142,49.28 C212.537142,49.28 210.857142,51.14 210.737142,53.62 Z M221.454285,59 L221.454285,48.92 L222.094285,48.92 L222.094285,52 C222.694285,50.28 224.234285,48.66 226.374285,48.72 L226.374285,49.38 L226.274285,49.38 C223.834285,49.38 222.094285,51.74 222.094285,54.22 L222.094285,59 L221.454285,59 Z M231.311427,59.08 L226.691427,48.92 L227.431427,48.92 L231.571427,58.3 L235.731427,48.92 L236.431427,48.92 L231.831427,59.08 L231.311427,59.08 Z M238.18857,46.14 L238.18857,44.92 L239.04857,44.92 L239.04857,46.14 L238.18857,46.14 Z M238.28857,59 L238.28857,48.92 L238.94857,48.92 L238.94857,59 L238.28857,59 Z M246.285712,59.24 C243.385712,59.24 241.145712,56.84 241.145712,53.98 L241.145712,53.94 C241.145712,51.1 243.385712,48.68 246.305712,48.68 C248.165712,48.68 249.345712,49.52 250.325712,50.54 L249.865712,51 C248.985712,50.06 247.885712,49.28 246.285712,49.28 C243.745712,49.28 241.825712,51.38 241.825712,53.92 L241.825712,53.96 C241.825712,56.5 243.805712,58.64 246.325712,58.64 C247.925712,58.64 249.065712,57.82 249.945712,56.84 L250.405712,57.24 C249.425712,58.38 248.165712,59.24 246.285712,59.24 Z M256.202855,59.24 C253.482855,59.24 251.202855,57.18 251.202855,53.96 L251.202855,53.92 C251.202855,50.96 253.242855,48.68 256.022855,48.68 C259.062855,48.68 260.642855,51.28 260.642855,53.98 L260.642855,54.2 L251.902855,54.2 C252.022855,56.94 253.962855,58.64 256.222855,58.64 C257.782855,58.64 259.042855,57.82 259.842855,56.78 L260.322855,57.16 C259.402855,58.36 258.042855,59.24 256.202855,59.24 Z M251.902855,53.62 L259.942855,53.62 C259.842855,51.42 258.502855,49.28 255.982855,49.28 C253.702855,49.28 252.022855,51.14 251.902855,53.62 Z M265.779997,59.18 C264.339997,59.18 262.779997,58.62 261.679997,57.7 L262.059997,57.2 C263.179997,58.08 264.519997,58.58 265.819997,58.58 C267.439997,58.58 268.699997,57.72 268.699997,56.48 L268.699997,56.44 C268.699997,55.02 267.179997,54.58 265.639997,54.16 C263.759997,53.62 262.139997,53.1 262.139997,51.42 L262.139997,51.38 C262.139997,49.88 263.519997,48.74 265.579997,48.74 C266.739997,48.74 268.059997,49.14 269.119997,49.86 L268.759997,50.4 C267.799997,49.72 266.619997,49.34 265.559997,49.34 C263.899997,49.34 262.799997,50.2 262.799997,51.32 L262.799997,51.36 C262.799997,52.62 264.219997,53.08 265.859997,53.54 C267.699997,54.04 269.359997,54.62 269.359997,56.38 L269.359997,56.42 C269.359997,58.08 267.799997,59.18 265.779997,59.18 Z M198.86,83 L198.86,72.92 L199.5,72.92 L199.5,75.18 C199.94,74 201.14,72.68 202.94,72.68 C204.96,72.68 206.06,73.9 206.5,75.34 C207,74.02 208.28,72.68 210.12,72.68 C212.42,72.68 213.94,74.24 213.94,76.98 L213.94,83 L213.3,83 L213.3,77.04 C213.3,74.6 212.02,73.28 210.08,73.28 C208.36,73.28 206.72,74.84 206.72,77.12 L206.72,83 L206.08,83 L206.08,77.02 C206.08,74.62 204.78,73.28 202.88,73.28 C201.12,73.28 199.5,74.96 199.5,77.14 L199.5,83 L198.86,83 Z M219.577142,83.24 C217.637142,83.24 215.757142,82.2 215.757142,80.16 L215.757142,80.12 C215.757142,78.02 217.657142,76.88 220.217142,76.88 C221.617142,76.88 222.837142,77.12 223.817142,77.44 L223.817142,76.76 C223.817142,74.48 222.457142,73.36 220.217142,73.36 C218.977142,73.36 217.937142,73.7 216.937142,74.2 L216.697142,73.64 C217.817142,73.1 218.917142,72.76 220.257142,72.76 C221.637142,72.76 222.717142,73.12 223.457142,73.86 C224.097142,74.52 224.457142,75.48 224.457142,76.72 L224.457142,83 L223.817142,83 L223.817142,80.9 C223.297142,82 221.897142,83.24 219.577142,83.24 Z M219.617142,82.64 C222.057142,82.64 223.837142,81.08 223.837142,79.28 L223.837142,78.04 C222.857142,77.72 221.697142,77.48 220.197142,77.48 C217.977142,77.48 216.437142,78.42 216.437142,80.08 L216.437142,80.12 C216.437142,81.78 217.937142,82.64 219.617142,82.64 Z M227.034285,83 L227.034285,72.92 L227.674285,72.92 L227.674285,76 C228.274285,74.28 229.814285,72.66 231.954285,72.72 L231.954285,73.38 L231.854285,73.38 C229.414285,73.38 227.674285,75.74 227.674285,78.22 L227.674285,83 L227.034285,83 Z M233.311427,83 L233.311427,68.4 L233.951427,68.4 L233.951427,79.44 L240.651427,72.92 L241.511427,72.92 L236.871427,77.38 L241.751427,83 L240.951427,83 L236.431427,77.82 L233.951427,80.2 L233.951427,83 L233.311427,83 Z M247.16857,83.24 C244.44857,83.24 242.16857,81.18 242.16857,77.96 L242.16857,77.92 C242.16857,74.96 244.20857,72.68 246.98857,72.68 C250.02857,72.68 251.60857,75.28 251.60857,77.98 L251.60857,78.2 L242.86857,78.2 C242.98857,80.94 244.92857,82.64 247.18857,82.64 C248.74857,82.64 250.00857,81.82 250.80857,80.78 L251.28857,81.16 C250.36857,82.36 249.00857,83.24 247.16857,83.24 Z M242.86857,77.62 L250.90857,77.62 C250.80857,75.42 249.46857,73.28 246.94857,73.28 C244.66857,73.28 242.98857,75.14 242.86857,77.62 Z M256.805712,83.18 C255.185712,83.18 254.125712,82.24 254.125712,80.42 L254.125712,73.5 L252.585712,73.5 L252.585712,72.92 L254.125712,72.92 L254.125712,69.54 L254.765712,69.54 L254.765712,72.92 L258.425712,72.92 L258.425712,73.5 L254.765712,73.5 L254.765712,80.36 C254.765712,81.84 255.545712,82.58 256.865712,82.58 C257.365712,82.58 257.865712,82.46 258.385712,82.22 L258.385712,82.84 C257.885712,83.08 257.365712,83.18 256.805712,83.18 Z M260.322855,86.2 L260.322855,72.92 L260.962855,72.92 L260.962855,75.7 C261.662855,74.02 263.222855,72.68 265.422855,72.68 C268.142855,72.68 270.402855,74.86 270.402855,77.94 L270.402855,77.98 C270.402855,81.04 268.142855,83.24 265.422855,83.24 C263.202855,83.24 261.642855,81.92 260.962855,80.26 L260.962855,86.2 L260.322855,86.2 Z M265.362855,82.62 C267.902855,82.62 269.722855,80.7 269.722855,78 L269.722855,77.96 C269.722855,75.3 267.862855,73.3 265.362855,73.3 C262.882855,73.3 260.922855,75.34 260.922855,77.94 L260.922855,77.98 C260.922855,80.58 262.902855,82.62 265.362855,82.62 Z M272.639997,83 L272.639997,68.4 L273.299997,68.4 L273.299997,83 L272.639997,83 Z M279.177139,83.24 C277.237139,83.24 275.357139,82.2 275.357139,80.16 L275.357139,80.12 C275.357139,78.02 277.257139,76.88 279.817139,76.88 C281.217139,76.88 282.437139,77.12 283.417139,77.44 L283.417139,76.76 C283.417139,74.48 282.057139,73.36 279.817139,73.36 C278.577139,73.36 277.537139,73.7 276.537139,74.2 L276.297139,73.64 C277.417139,73.1 278.517139,72.76 279.857139,72.76 C281.237139,72.76 282.317139,73.12 283.057139,73.86 C283.697139,74.52 284.057139,75.48 284.057139,76.72 L284.057139,83 L283.417139,83 L283.417139,80.9 C282.897139,82 281.497139,83.24 279.177139,83.24 Z M279.217139,82.64 C281.657139,82.64 283.437139,81.08 283.437139,79.28 L283.437139,78.04 C282.457139,77.72 281.297139,77.48 279.797139,77.48 C277.577139,77.48 276.037139,78.42 276.037139,80.08 L276.037139,80.12 C276.037139,81.78 277.537139,82.64 279.217139,82.64 Z M291.074282,83.24 C288.174282,83.24 285.934282,80.84 285.934282,77.98 L285.934282,77.94 C285.934282,75.1 288.174282,72.68 291.094282,72.68 C292.954282,72.68 294.134282,73.52 295.114282,74.54 L294.654282,75 C293.774282,74.06 292.674282,73.28 291.074282,73.28 C288.534282,73.28 286.614282,75.38 286.614282,77.92 L286.614282,77.96 C286.614282,80.5 288.594282,82.64 291.114282,82.64 C292.714282,82.64 293.854282,81.82 294.734282,80.84 L295.194282,81.24 C294.214282,82.38 292.954282,83.24 291.074282,83.24 Z M300.991424,83.24 C298.271424,83.24 295.991424,81.18 295.991424,77.96 L295.991424,77.92 C295.991424,74.96 298.031424,72.68 300.811424,72.68 C303.851424,72.68 305.431424,75.28 305.431424,77.98 L305.431424,78.2 L296.691424,78.2 C296.811424,80.94 298.751424,82.64 301.011424,82.64 C302.571424,82.64 303.831424,81.82 304.631424,80.78 L305.111424,81.16 C304.191424,82.36 302.831424,83.24 300.991424,83.24 Z M296.691424,77.62 L304.731424,77.62 C304.631424,75.42 303.291424,73.28 300.771424,73.28 C298.491424,73.28 296.811424,75.14 296.691424,77.62 Z" id="Services-marketplace-Copy-2" fill="#333333"></path>
            <path d="M204.56,366.22 C201.2,366.22 198.86,364.1 198.86,359.96 L198.86,352 L199.54,352 L199.54,359.92 C199.54,363.64 201.54,365.6 204.58,365.6 C207.6,365.6 209.56,363.72 209.56,359.96 L209.56,352 L210.24,352 L210.24,359.9 C210.24,364.08 207.94,366.22 204.56,366.22 Z M216.177142,366.18 C214.737142,366.18 213.177142,365.62 212.077142,364.7 L212.457142,364.2 C213.577142,365.08 214.917142,365.58 216.217142,365.58 C217.837142,365.58 219.097142,364.72 219.097142,363.48 L219.097142,363.44 C219.097142,362.02 217.577142,361.58 216.037142,361.16 C214.157142,360.62 212.537142,360.1 212.537142,358.42 L212.537142,358.38 C212.537142,356.88 213.917142,355.74 215.977142,355.74 C217.137142,355.74 218.457142,356.14 219.517142,356.86 L219.157142,357.4 C218.197142,356.72 217.017142,356.34 215.957142,356.34 C214.297142,356.34 213.197142,357.2 213.197142,358.32 L213.197142,358.36 C213.197142,359.62 214.617142,360.08 216.257142,360.54 C218.097142,361.04 219.757142,361.62 219.757142,363.38 L219.757142,363.42 C219.757142,365.08 218.197142,366.18 216.177142,366.18 Z M226.234285,366.24 C223.514285,366.24 221.234285,364.18 221.234285,360.96 L221.234285,360.92 C221.234285,357.96 223.274285,355.68 226.054285,355.68 C229.094285,355.68 230.674285,358.28 230.674285,360.98 L230.674285,361.2 L221.934285,361.2 C222.054285,363.94 223.994285,365.64 226.254285,365.64 C227.814285,365.64 229.074285,364.82 229.874285,363.78 L230.354285,364.16 C229.434285,365.36 228.074285,366.24 226.234285,366.24 Z M221.934285,360.62 L229.974285,360.62 C229.874285,358.42 228.534285,356.28 226.014285,356.28 C223.734285,356.28 222.054285,358.14 221.934285,360.62 Z M232.651427,366 L232.651427,355.92 L233.291427,355.92 L233.291427,359 C233.891427,357.28 235.431427,355.66 237.571427,355.72 L237.571427,356.38 L237.471427,356.38 C235.031427,356.38 233.291427,358.74 233.291427,361.22 L233.291427,366 L232.651427,366 Z M242.08857,366.18 C240.64857,366.18 239.08857,365.62 237.98857,364.7 L238.36857,364.2 C239.48857,365.08 240.82857,365.58 242.12857,365.58 C243.74857,365.58 245.00857,364.72 245.00857,363.48 L245.00857,363.44 C245.00857,362.02 243.48857,361.58 241.94857,361.16 C240.06857,360.62 238.44857,360.1 238.44857,358.42 L238.44857,358.38 C238.44857,356.88 239.82857,355.74 241.88857,355.74 C243.04857,355.74 244.36857,356.14 245.42857,356.86 L245.06857,357.4 C244.10857,356.72 242.92857,356.34 241.86857,356.34 C240.20857,356.34 239.10857,357.2 239.10857,358.32 L239.10857,358.36 C239.10857,359.62 240.52857,360.08 242.16857,360.54 C244.00857,361.04 245.66857,361.62 245.66857,363.38 L245.66857,363.42 C245.66857,365.08 244.10857,366.18 242.08857,366.18 Z M198.86,390 L198.86,379.92 L199.5,379.92 L199.5,382.18 C199.94,381 201.14,379.68 202.94,379.68 C204.96,379.68 206.06,380.9 206.5,382.34 C207,381.02 208.28,379.68 210.12,379.68 C212.42,379.68 213.94,381.24 213.94,383.98 L213.94,390 L213.3,390 L213.3,384.04 C213.3,381.6 212.02,380.28 210.08,380.28 C208.36,380.28 206.72,381.84 206.72,384.12 L206.72,390 L206.08,390 L206.08,384.02 C206.08,381.62 204.78,380.28 202.88,380.28 C201.12,380.28 199.5,381.96 199.5,384.14 L199.5,390 L198.86,390 Z M219.577142,390.24 C217.637142,390.24 215.757142,389.2 215.757142,387.16 L215.757142,387.12 C215.757142,385.02 217.657142,383.88 220.217142,383.88 C221.617142,383.88 222.837142,384.12 223.817142,384.44 L223.817142,383.76 C223.817142,381.48 222.457142,380.36 220.217142,380.36 C218.977142,380.36 217.937142,380.7 216.937142,381.2 L216.697142,380.64 C217.817142,380.1 218.917142,379.76 220.257142,379.76 C221.637142,379.76 222.717142,380.12 223.457142,380.86 C224.097142,381.52 224.457142,382.48 224.457142,383.72 L224.457142,390 L223.817142,390 L223.817142,387.9 C223.297142,389 221.897142,390.24 219.577142,390.24 Z M219.617142,389.64 C222.057142,389.64 223.837142,388.08 223.837142,386.28 L223.837142,385.04 C222.857142,384.72 221.697142,384.48 220.197142,384.48 C217.977142,384.48 216.437142,385.42 216.437142,387.08 L216.437142,387.12 C216.437142,388.78 217.937142,389.64 219.617142,389.64 Z M227.034285,390 L227.034285,379.92 L227.674285,379.92 L227.674285,382.32 C228.134285,381.12 229.394285,379.68 231.554285,379.68 C234.214285,379.68 235.714285,381.48 235.714285,384.1 L235.714285,390 L235.074285,390 L235.074285,384.2 C235.074285,381.86 233.814285,380.28 231.474285,380.28 C229.354285,380.28 227.674285,382.02 227.674285,384.32 L227.674285,390 L227.034285,390 Z M241.271427,390.24 C239.331427,390.24 237.451427,389.2 237.451427,387.16 L237.451427,387.12 C237.451427,385.02 239.351427,383.88 241.911427,383.88 C243.311427,383.88 244.531427,384.12 245.511427,384.44 L245.511427,383.76 C245.511427,381.48 244.151427,380.36 241.911427,380.36 C240.671427,380.36 239.631427,380.7 238.631427,381.2 L238.391427,380.64 C239.511427,380.1 240.611427,379.76 241.951427,379.76 C243.331427,379.76 244.411427,380.12 245.151427,380.86 C245.791427,381.52 246.151427,382.48 246.151427,383.72 L246.151427,390 L245.511427,390 L245.511427,387.9 C244.991427,389 243.591427,390.24 241.271427,390.24 Z M241.311427,389.64 C243.751427,389.64 245.531427,388.08 245.531427,386.28 L245.531427,385.04 C244.551427,384.72 243.391427,384.48 241.891427,384.48 C239.671427,384.48 238.131427,385.42 238.131427,387.08 L238.131427,387.12 C238.131427,388.78 239.631427,389.64 241.311427,389.64 Z M253.12857,393.26 C251.42857,393.26 249.90857,392.74 248.52857,391.7 L248.90857,391.18 C250.16857,392.14 251.56857,392.64 253.12857,392.64 C255.66857,392.64 257.38857,391.2 257.38857,388.38 L257.38857,386.56 C256.60857,388.1 255.02857,389.26 252.98857,389.26 C250.36857,389.26 248.06857,387.22 248.06857,384.5 L248.06857,384.46 C248.06857,381.72 250.36857,379.68 252.98857,379.68 C255.02857,379.68 256.60857,380.84 257.38857,382.34 L257.38857,379.92 L258.04857,379.92 L258.04857,388.46 C258.04857,389.94 257.56857,391.12 256.74857,391.94 C255.88857,392.8 254.60857,393.26 253.12857,393.26 Z M253.04857,388.64 C255.38857,388.64 257.44857,386.84 257.44857,384.5 L257.44857,384.46 C257.44857,382.12 255.38857,380.3 253.04857,380.3 C250.68857,380.3 248.76857,382.06 248.76857,384.44 L248.76857,384.48 C248.76857,386.82 250.70857,388.64 253.04857,388.64 Z M265.125712,390.24 C262.405712,390.24 260.125712,388.18 260.125712,384.96 L260.125712,384.92 C260.125712,381.96 262.165712,379.68 264.945712,379.68 C267.985712,379.68 269.565712,382.28 269.565712,384.98 L269.565712,385.2 L260.825712,385.2 C260.945712,387.94 262.885712,389.64 265.145712,389.64 C266.705712,389.64 267.965712,388.82 268.765712,387.78 L269.245712,388.16 C268.325712,389.36 266.965712,390.24 265.125712,390.24 Z M260.825712,384.62 L268.865712,384.62 C268.765712,382.42 267.425712,380.28 264.905712,380.28 C262.625712,380.28 260.945712,382.14 260.825712,384.62 Z M271.542855,390 L271.542855,379.92 L272.182855,379.92 L272.182855,382.18 C272.622855,381 273.822855,379.68 275.622855,379.68 C277.642855,379.68 278.742855,380.9 279.182855,382.34 C279.682855,381.02 280.962855,379.68 282.802855,379.68 C285.102855,379.68 286.622855,381.24 286.622855,383.98 L286.622855,390 L285.982855,390 L285.982855,384.04 C285.982855,381.6 284.702855,380.28 282.762855,380.28 C281.042855,380.28 279.402855,381.84 279.402855,384.12 L279.402855,390 L278.762855,390 L278.762855,384.02 C278.762855,381.62 277.462855,380.28 275.562855,380.28 C273.802855,380.28 272.182855,381.96 272.182855,384.14 L272.182855,390 L271.542855,390 Z M293.579997,390.24 C290.859997,390.24 288.579997,388.18 288.579997,384.96 L288.579997,384.92 C288.579997,381.96 290.619997,379.68 293.399997,379.68 C296.439997,379.68 298.019997,382.28 298.019997,384.98 L298.019997,385.2 L289.279997,385.2 C289.399997,387.94 291.339997,389.64 293.599997,389.64 C295.159997,389.64 296.419997,388.82 297.219997,387.78 L297.699997,388.16 C296.779997,389.36 295.419997,390.24 293.579997,390.24 Z M289.279997,384.62 L297.319997,384.62 C297.219997,382.42 295.879997,380.28 293.359997,380.28 C291.079997,380.28 289.399997,382.14 289.279997,384.62 Z M299.997139,390 L299.997139,379.92 L300.637139,379.92 L300.637139,382.32 C301.097139,381.12 302.357139,379.68 304.517139,379.68 C307.177139,379.68 308.677139,381.48 308.677139,384.1 L308.677139,390 L308.037139,390 L308.037139,384.2 C308.037139,381.86 306.777139,380.28 304.437139,380.28 C302.317139,380.28 300.637139,382.02 300.637139,384.32 L300.637139,390 L299.997139,390 Z M314.474282,390.18 C312.854282,390.18 311.794282,389.24 311.794282,387.42 L311.794282,380.5 L310.254282,380.5 L310.254282,379.92 L311.794282,379.92 L311.794282,376.54 L312.434282,376.54 L312.434282,379.92 L316.094282,379.92 L316.094282,380.5 L312.434282,380.5 L312.434282,387.36 C312.434282,388.84 313.214282,389.58 314.534282,389.58 C315.034282,389.58 315.534282,389.46 316.054282,389.22 L316.054282,389.84 C315.554282,390.08 315.034282,390.18 314.474282,390.18 Z" id="Users-management-Copy-3" fill="#333333"></path>
            <path d="M202.74,666 L202.74,652.62 L197.76,652.62 L197.76,652 L208.42,652 L208.42,652.62 L203.42,652.62 L203.42,666 L202.74,666 Z M211.977142,666.24 C209.257142,666.24 206.977142,664.18 206.977142,660.96 L206.977142,660.92 C206.977142,657.96 209.017142,655.68 211.797142,655.68 C214.837142,655.68 216.417142,658.28 216.417142,660.98 L216.417142,661.2 L207.677142,661.2 C207.797142,663.94 209.737142,665.64 211.997142,665.64 C213.557142,665.64 214.817142,664.82 215.617142,663.78 L216.097142,664.16 C215.177142,665.36 213.817142,666.24 211.977142,666.24 Z M207.677142,660.62 L215.717142,660.62 C215.617142,658.42 214.277142,656.28 211.757142,656.28 C209.477142,656.28 207.797142,658.14 207.677142,660.62 Z M218.514285,666 L218.514285,651.4 L219.174285,651.4 L219.174285,666 L218.514285,666 Z M226.371427,666.24 C223.651427,666.24 221.371427,664.18 221.371427,660.96 L221.371427,660.92 C221.371427,657.96 223.411427,655.68 226.191427,655.68 C229.231427,655.68 230.811427,658.28 230.811427,660.98 L230.811427,661.2 L222.071427,661.2 C222.191427,663.94 224.131427,665.64 226.391427,665.64 C227.951427,665.64 229.211427,664.82 230.011427,663.78 L230.491427,664.16 C229.571427,665.36 228.211427,666.24 226.371427,666.24 Z M222.071427,660.62 L230.111427,660.62 C230.011427,658.42 228.671427,656.28 226.151427,656.28 C223.871427,656.28 222.191427,658.14 222.071427,660.62 Z M232.78857,666 L232.78857,655.92 L233.42857,655.92 L233.42857,658.18 C233.86857,657 235.06857,655.68 236.86857,655.68 C238.88857,655.68 239.98857,656.9 240.42857,658.34 C240.92857,657.02 242.20857,655.68 244.04857,655.68 C246.34857,655.68 247.86857,657.24 247.86857,659.98 L247.86857,666 L247.22857,666 L247.22857,660.04 C247.22857,657.6 245.94857,656.28 244.00857,656.28 C242.28857,656.28 240.64857,657.84 240.64857,660.12 L240.64857,666 L240.00857,666 L240.00857,660.02 C240.00857,657.62 238.70857,656.28 236.80857,656.28 C235.04857,656.28 233.42857,657.96 233.42857,660.14 L233.42857,666 L232.78857,666 Z M254.825712,666.24 C252.105712,666.24 249.825712,664.18 249.825712,660.96 L249.825712,660.92 C249.825712,657.96 251.865712,655.68 254.645712,655.68 C257.685712,655.68 259.265712,658.28 259.265712,660.98 L259.265712,661.2 L250.525712,661.2 C250.645712,663.94 252.585712,665.64 254.845712,665.64 C256.405712,665.64 257.665712,664.82 258.465712,663.78 L258.945712,664.16 C258.025712,665.36 256.665712,666.24 254.825712,666.24 Z M250.525712,660.62 L258.565712,660.62 C258.465712,658.42 257.125712,656.28 254.605712,656.28 C252.325712,656.28 250.645712,658.14 250.525712,660.62 Z M264.462855,666.18 C262.842855,666.18 261.782855,665.24 261.782855,663.42 L261.782855,656.5 L260.242855,656.5 L260.242855,655.92 L261.782855,655.92 L261.782855,652.54 L262.422855,652.54 L262.422855,655.92 L266.082855,655.92 L266.082855,656.5 L262.422855,656.5 L262.422855,663.36 C262.422855,664.84 263.202855,665.58 264.522855,665.58 C265.022855,665.58 265.522855,665.46 266.042855,665.22 L266.042855,665.84 C265.542855,666.08 265.022855,666.18 264.462855,666.18 Z M267.979997,666 L267.979997,655.92 L268.619997,655.92 L268.619997,659 C269.219997,657.28 270.759997,655.66 272.899997,655.72 L272.899997,656.38 L272.799997,656.38 C270.359997,656.38 268.619997,658.74 268.619997,661.22 L268.619997,666 L267.979997,666 Z M278.377139,665.3 L282.437139,655.92 L283.117139,655.92 L278.577139,666.26 C277.517139,668.66 276.657139,669.26 275.297139,669.26 C274.557139,669.26 273.897139,669.04 273.357139,668.76 L273.617139,668.22 C274.097139,668.48 274.677139,668.66 275.317139,668.66 C276.437139,668.66 277.097139,668.12 278.057139,665.98 L273.217139,655.92 L273.937139,655.92 L278.377139,665.3 Z" id="Telemetry-Copy-3" fill="#333333"></path>
        </g>
    </g>
</svg>